<svg width="24" height="24" viewBox="0 0 24 24" fill="none" xmlns="http://www.w3.org/2000/svg">
<path d="M22.5048 15.5029V22.5045H21.5045V23.5047H3.50044V22.5045H2.50021V15.5029H9.5018V17.5034H15.5032V15.5029H22.5048Z" fill="black"/>
<path d="M14.503 15.5029H10.5021V16.5032H14.503V15.5029Z" fill="black"/>
<path d="M14.503 13.5029H10.5021V14.5032H14.503V13.5029Z" fill="black"/>
<path d="M22.5048 5.50091V4.50068H16.5034V2.50023H15.5032V1.5H9.50182V2.50023H8.50159V4.50068H2.50023V5.50091H1.5V13.5027H2.50023V14.503H9.50182V12.5025H15.5032V14.503H22.5048V13.5027H23.505V5.50091H22.5048ZM10.502 3.50045H14.503V4.50068H10.502V3.50045Z" fill="black"/>
</svg>
