<svg width="24" height="24" viewBox="0 0 24 24" fill="none" xmlns="http://www.w3.org/2000/svg">
<path d="M23.505 17.5034H21.5045V19.5039H23.505V17.5034Z" fill="black"/>
<path d="M18.5039 21.5044H16.5034V23.5048H18.5039V21.5044Z" fill="black"/>
<path d="M20.5043 17.5036V18.5038H18.5039V17.5036H17.5037V14.5029H18.5039V16.5034H19.5041V17.5036H20.5043Z" fill="black"/>
<path d="M16.5034 19.5041V20.5043H14.503V19.5041H13.5027V14.5029H14.503V18.5038H15.5032V19.5041H16.5034Z" fill="black"/>
<path d="M11.5023 14.5029V19.5041H10.502V20.5043H8.50159V19.5041H9.50181V18.5038H10.502V14.5029H11.5023Z" fill="black"/>
<path d="M8.50155 21.5044H6.5011V23.5048H8.50155V21.5044Z" fill="black"/>
<path d="M7.50135 14.5029V17.5036H6.50113V18.5038H4.50067V17.5036H5.5009V16.5034H6.50113V14.5029H7.50135Z" fill="black"/>
<path d="M22.5048 7.50136V6.50114H21.5045V5.50091H19.5041V3.50045H18.5039V2.50023H17.5036V1.5H12.5025V2.50023H11.5023V3.50045H10.502V4.50068H9.50182V3.50045H6.50114V4.50068H5.50091V5.50091H4.50068V7.50136H2.50023V8.50159H1.5V11.5023H2.50023V12.5025H3.50045V13.5027H21.5045V12.5025H22.5048V11.5023H23.505V7.50136H22.5048ZM14.503 10.502V9.50182H13.5027V7.50136H14.503V8.50159H15.5032V5.50091H16.5034V8.50159H17.5036V7.50136H18.5039V9.50182H17.5036V10.502H16.5034V11.5023H15.5032V10.502H14.503ZM10.502 6.50114V7.50136H11.5023V9.50182H10.502V8.50159H9.50182V11.5023H8.50159V8.50159H7.50136V9.50182H6.50114V7.50136H7.50136V6.50114H8.50159V5.50091H9.50182V6.50114H10.502Z" fill="black"/>
<path d="M3.50045 17.5034H1.5V19.5039H3.50045V17.5034Z" fill="black"/>
</svg>
