<svg width="24" height="24" viewBox="0 0 24 24" fill="none" xmlns="http://www.w3.org/2000/svg">
<path d="M23.505 17.5034V19.5039H22.5048V20.5041H16.5034V21.5043H15.5032V22.5046H14.503V23.5048H10.502V22.5046H9.50182V21.5043H8.50159V20.5041H2.50023V19.5039H1.5V17.5034H23.505Z" fill="black"/>
<path d="M23.505 15.5032V16.5034H21.5045V14.5029H22.5047V15.5032H23.505Z" fill="black"/>
<path d="M20.5043 8.50159V16.5034H19.504V12.5025H18.5038V11.5023H15.5031V10.502H18.5038V9.50182H15.5031V7.50136H14.5029V6.50114H13.5027V5.50091H12.5024V3.50045H13.5027V1.5H14.5029V2.50023H15.5031V3.50045H16.5034V4.50068H17.5036V7.50136H19.504V8.50159H20.5043Z" fill="black"/>
<path d="M6.50114 12.5024V16.5034H1.5V15.5031H2.50023V13.5027H3.50045V12.5024H6.50114Z" fill="black"/>
<path d="M18.5039 12.5025V16.5034H7.50141V12.5025H6.50119V11.5023H4.50073V4.50068H5.50096V1.5H8.50164V15.5032H9.50187V3.50045H10.5021V4.50068H11.5023V5.50091H12.5026V6.50114H13.5028V7.50136H14.503V15.5032H15.5032V12.5025H18.5039Z" fill="black"/>
</svg>
