<svg width="24" height="24" viewBox="0 0 24 24" fill="none" xmlns="http://www.w3.org/2000/svg">
<path d="M5.50093 6.50098H3.50047V9.50166H5.50093V6.50098Z" fill="black"/>
<path d="M3.50045 9.50195H1.5V15.5033H3.50045V9.50195Z" fill="black"/>
<path d="M5.50093 15.5029H3.50047V18.5036H5.50093V15.5029Z" fill="black"/>
<path d="M17.5036 18.5039V23.505H5.5009V18.5039H8.50158V20.5044H14.5029V18.5039H17.5036Z" fill="black"/>
<path d="M19.5041 15.5029H17.5036V18.5036H19.5041V15.5029Z" fill="black"/>
<path d="M23.505 11.5024V13.5029H21.5045V15.5033H19.5041V9.50195H21.5045V11.5024H23.505Z" fill="black"/>
<path d="M19.5041 6.50098H17.5036V9.50166H19.5041V6.50098Z" fill="black"/>
<path d="M17.5036 1.5V6.50114H14.5029V4.50068H12.5025V13.5027H10.502V4.50068H8.50158V6.50114H5.5009V1.5H17.5036Z" fill="black"/>
</svg>
