<svg width="24" height="24" viewBox="0 0 24 24" fill="none" xmlns="http://www.w3.org/2000/svg">
<path d="M15.5025 18.5039V21.5046H14.5022V22.5048H13.502V23.505H11.5016V22.5048H10.5013V21.5046H9.5011V18.5039H15.5025Z" fill="black"/>
<path d="M20.5036 7.50136V11.5023H19.5034V13.5027H18.5032V14.503H17.503V15.5032H16.5027V16.5034H15.5025V17.5036H14.5023V12.5025H15.5025V11.5023H16.5027V10.502H15.5025V11.5023H14.5023V12.5025H13.502V17.5036H11.5016V12.5025H10.5014V11.5023H9.50114V10.502H8.50091V11.5023H9.50114V12.5025H10.5014V17.5036H9.50114V16.5034H8.50091V15.5032H7.50068V14.503H6.50045V13.5027H5.50023V11.5023H4.5V7.50136H5.50023V5.50091H6.50045V4.50068H7.50068V3.50045H8.50091V2.50023H10.5014V1.5H14.5023V2.50023H16.5027V3.50045H17.503V4.50068H18.5032V5.50091H19.5034V7.50136H20.5036Z" fill="black"/>
</svg>
