<svg width="24" height="24" viewBox="0 0 24 24" fill="none" xmlns="http://www.w3.org/2000/svg">
<path d="M19.5041 21.5046V22.5048H18.5039V23.5051H2.50023V22.5048H1.5V6.5012H2.50023V5.50098H3.50045V20.5044H4.50068V21.5046H19.5041Z" fill="black"/>
<path d="M22.5048 5.50091V4.50068H16.5034V3.50045H15.5032V2.50023H14.5029V1.5H6.50113V2.50023H4.50067V19.5041H5.5009V20.5043H22.5048V19.5041H23.505V5.50091H22.5048ZM15.5032 12.5025V13.5027H16.5034V14.503H17.5036V15.5032H18.5039V16.5034H19.5041V17.5036H6.50113V12.5025H7.50135V11.5023H8.50158V10.502H9.50181V9.50182H10.502V8.50159H11.5023V9.50182H12.5025V10.502H13.5027V11.5023H14.5029V12.5025H15.5032ZM6.50113 4.50068H7.50135V3.50045H9.50181V4.50068H10.502V6.50114H9.50181V7.50136H7.50135V6.50114H6.50113V4.50068ZM22.5048 17.5036H21.5045V16.5034H20.5043V15.5032H19.5041V14.503H18.5039V13.5027H17.5036V12.5025H16.5034V11.5023H15.5032V10.502H16.5034V9.50182H17.5036V8.50159H18.5039V9.50182H19.5041V10.502H20.5043V11.5023H21.5045V12.5025H22.5048V17.5036Z" fill="black"/>
</svg>
