<svg width="24" height="24" viewBox="0 0 24 24" fill="none" xmlns="http://www.w3.org/2000/svg">
<path d="M11.5023 9.50195H10.5021V10.5022H11.5023V9.50195Z" fill="black"/>
<path d="M15.5032 9.50195H14.503V10.5022H15.5032V9.50195Z" fill="black"/>
<path d="M22.5048 9.50182V7.50136H21.5045V5.50091H20.5043V4.50068H19.5041V3.50045H17.5036V2.50023H15.5032V1.5H9.50182V2.50023H7.50136V3.50045H5.50091V4.50068H4.50068V5.50091H3.50045V7.50136H2.50023V9.50182H1.5V15.5032H2.50023V17.5036H3.50045V19.5041H4.50068V20.5043H5.50091V21.5045H7.50136V22.5048H9.50182V23.505H15.5032V22.5048H17.5036V21.5045H19.5041V20.5043H20.5043V19.5041H21.5045V17.5036H22.5048V15.5032H23.505V9.50182H22.5048ZM20.5043 15.5032H15.5032V16.5034H16.5034V18.5039H9.50182V16.5034H10.502V15.5032H5.50091V13.5027H6.50114V12.5025H8.50159V11.5023H7.50136V10.502H6.50114V7.50136H7.50136V6.50114H10.502V7.50136H11.5023V9.50182H14.503V7.50136H15.5032V6.50114H18.5039V7.50136H19.5041V10.502H18.5039V11.5023H17.5036V12.5025H19.5041V13.5027H20.5043V15.5032Z" fill="black"/>
<path d="M12.5025 14.5032V15.5034H10.5021V13.5029H11.5023V14.5032H12.5025Z" fill="black"/>
<path d="M15.5032 13.5029V15.5034H13.5027V14.5032H14.503V13.5029H15.5032Z" fill="black"/>
<path d="M16.5034 10.502H15.5032V13.5026H16.5034V10.502Z" fill="black"/>
<path d="M10.502 10.502H9.5018V13.5026H10.502V10.502Z" fill="black"/>
</svg>
