<svg width="24" height="24" viewBox="0 0 24 24" fill="none" xmlns="http://www.w3.org/2000/svg">
<path d="M23.505 1.5V6.50114H22.5048V8.50159H21.5045V9.50182H20.5043V8.50159H19.5041V7.50136H18.5039V6.50114H17.5036V5.50091H16.5034V4.50068H15.5032V3.50045H16.5034V2.50023H18.5039V1.5H23.505Z" fill="black"/>
<path d="M11.5023 13.5029V15.5034H10.5021V16.5036H9.50182V17.5038H8.5016V18.5041H7.50137V19.5043H5.50092V17.5038H6.50114V16.5036H7.50137V15.5034H8.5016V14.5032H9.50182V13.5029H11.5023Z" fill="black"/>
<path d="M19.5041 9.50163V8.5014H18.5039V7.50117H17.5036V6.50094H16.5034V5.50072H15.5032V4.50049H14.503V5.50072H13.5027V6.50094H12.5025V7.50117H11.5023V8.5014H10.502V9.50163H4.50068V10.5019H3.50045V11.5021H2.50023V12.5023H1.5V14.5028H5.50091V13.5025H6.50114V12.5023H7.50136V11.5021H8.50159V10.5019H9.50182V11.5021H8.50159V12.5023H7.50136V14.5028H8.50159V13.5025H9.50182V12.5023H12.5025V15.503H11.5023V16.5032H10.502V17.5034H12.5025V16.5032H13.5027V15.503H14.503V16.5032H13.5027V17.5034H12.5025V18.5037H11.5023V19.5039H10.502V23.5048H12.5025V22.5046H13.5027V21.5044H14.503V20.5041H15.5032V14.5028H16.5034V13.5025H17.5036V12.5023H18.5039V11.5021H19.5041V10.5019H20.5043V9.50163H19.5041ZM17.5036 8.5014V10.5019H16.5034V11.5021H14.503V10.5019H13.5027V8.5014H14.503V7.50117H16.5034V8.5014H17.5036Z" fill="black"/>
</svg>
