<svg width="24" height="24" viewBox="0 0 24 24" fill="none" xmlns="http://www.w3.org/2000/svg">
<path d="M11.5023 1.5V23.505H12.5025V18.5039H15.5032V23.505H21.5045V1.5H11.5023ZM17.5036 2.50023V4.50068H15.5032V2.50023H17.5036ZM17.5036 7.50136H15.5032V5.50091H17.5036V7.50136ZM17.5036 10.502H15.5032V8.50159H17.5036V10.502ZM17.5036 13.5027H15.5032V11.5023H17.5036V13.5027ZM17.5036 16.5034H15.5032V14.503H17.5036V16.5034ZM12.5025 2.50023H14.5029V4.50068H12.5025V2.50023ZM12.5025 5.50091H14.5029V7.50136H12.5025V5.50091ZM12.5025 8.50159H14.5029V10.502H12.5025V8.50159ZM12.5025 11.5023H14.5029V13.5027H12.5025V11.5023ZM12.5025 14.503H14.5029V16.5034H12.5025V14.503ZM20.5043 21.5045H16.5034V18.5039H20.5043V21.5045ZM20.5043 16.5034H18.5038V14.503H20.5043V16.5034ZM20.5043 13.5027H18.5038V11.5023H20.5043V13.5027ZM20.5043 10.502H18.5038V8.50159H20.5043V10.502ZM20.5043 7.50136H18.5038V5.50091H20.5043V7.50136ZM20.5043 4.50068H18.5038V2.50023H20.5043V4.50068Z" fill="black"/>
<path d="M1.5 8.50146V23.5049H4.50068V19.504H7.50136V23.5049H10.502V8.50146H1.5ZM2.50023 9.50169H5.50091V11.5021H2.50023V9.50169ZM2.50023 12.5024H5.50091V14.5028H2.50023V12.5024ZM2.50023 17.5035V15.5031H5.50091V17.5035H2.50023ZM9.50182 17.5035H6.50114V15.5031H9.50182V17.5035ZM9.50182 14.5028H6.50114V12.5024H9.50182V14.5028ZM9.50182 11.5021H6.50114V9.50169H9.50182V11.5021Z" fill="black"/>
</svg>
