<svg width="24" height="24" viewBox="0 0 24 24" fill="none" xmlns="http://www.w3.org/2000/svg">
<path d="M17.5036 7.50146H7.50134V17.5037H17.5036V7.50146Z" fill="black"/>
<path d="M21.5045 5.50091V3.50045H19.5041V1.5H17.5036V3.50045H15.5032V1.5H13.5027V3.50045H11.5023V1.5H9.50182V3.50045H7.50136V1.5H5.50091V3.50045H3.50045V5.50091H1.5V7.50136H3.50045V9.50182H1.5V11.5023H3.50045V13.5027H1.5V15.5032H3.50045V17.5036H1.5V19.5041H3.50045V21.5045H5.50091V23.505H7.50136V21.5045H9.50182V23.505H11.5023V21.5045H13.5027V23.505H15.5032V21.5045H17.5036V23.505H19.5041V21.5045H21.5045V19.5041H23.505V17.5036H21.5045V15.5032H23.505V13.5027H21.5045V11.5023H23.505V9.50182H21.5045V7.50136H23.505V5.50091H21.5045ZM19.5041 19.5041H5.50091V5.50091H19.5041V19.5041Z" fill="black"/>
</svg>
