<svg width="24" height="24" viewBox="0 0 24 24" fill="none" xmlns="http://www.w3.org/2000/svg">
<path d="M23.5049 7.5012V9.50166H22.5047V10.5019H21.5045V9.50166H20.5043V8.50143H19.504V7.5012H20.5043V6.50098H22.5047V7.5012H23.5049Z" fill="black"/>
<path d="M21.5046 10.5019V11.5021H20.5044V12.5024H19.5041V13.5026H18.5039V14.5028H17.5037V15.5031H16.5035V16.5033H15.5032V17.5035H14.503V18.5037H11.5023V15.5031H12.5025V14.5028H13.5028V13.5026H14.503V12.5024H15.5032V11.5021H16.5035V10.5019H17.5037V9.50169H18.5039V8.50146H19.5041V9.50169H20.5044V10.5019H21.5046Z" fill="black"/>
<path d="M17.5036 2.50023V1.5H2.50023V2.50023H1.5V22.5048H2.50023V23.505H17.5036V22.5048H18.5039V16.5034H17.5036V17.5036H16.5034V18.5039H15.5032V19.5041H10.502V14.503H11.5023V13.5027H12.5025V12.5025H13.5027V11.5023H14.503V10.502H15.5032V9.50182H16.5034V8.50159H17.5036V7.50136H18.5039V2.50023H17.5036ZM16.5034 5.50091H3.50045V4.50068H16.5034V5.50091ZM14.503 8.50159H3.50045V7.50136H14.503V8.50159ZM8.50159 17.5036H3.50045V16.5034H8.50159V17.5036ZM3.50045 14.503V13.5027H9.50182V14.503H3.50045ZM3.50045 11.5023V10.502H12.5025V11.5023H3.50045Z" fill="black"/>
</svg>
