<svg width="220" height="88" viewBox="0 0 220 88" fill="none" xmlns="http://www.w3.org/2000/svg">
<rect x="0.5" y="0.5" width="219" height="87" rx="4.5" stroke="#9747FF" stroke-dasharray="10 5"/>
<path d="M83.01 39.0036V43.0045H79.0091V45.005H75.0082V43.0045H71.0072V45.005H73.0077V47.0055H75.0082V49.0059H79.0091V47.0055H81.0095V45.005H83.01V53.0068H81.0095V59.0082H79.0091V61.0086H77.0086V59.0082H75.0082V57.0077H69.0068V59.0082H73.0077V61.0086H75.0082V65.0095H73.0077V67.01H65.0059V65.0095H63.0054V63.0091H61.005V55.0073H63.0054V53.0068H65.0059V47.0055H63.0054V45.005H61.005V37.0032H63.0054V31.0018H61.005V25.0005H63.0054V23H69.0068V25.0005H73.0077V27.0009H75.0082V29.0014H77.0086V33.0023H73.0077V35.0027H71.0072V37.0032H69.0068V39.0036H73.0077V37.0032H75.0082V35.0027H79.0091V37.0032H81.0095V39.0036H83.01Z" fill="black"/>
<path d="M59.0046 59.0083H57.0041V61.0088H59.0046V59.0083Z" fill="black"/>
<path d="M57.0041 57.0078H55.0036V59.0083H57.0041V57.0078Z" fill="black"/>
<path d="M59.0046 29.0015H57.0041V31.0019H59.0046V29.0015Z" fill="black"/>
<path d="M57.0041 31.002H55.0036V33.0024H57.0041V31.002Z" fill="black"/>
<path d="M49.0023 39.0034H47.0018V41.0039H49.0023V39.0034Z" fill="black"/>
<path d="M51.0027 37.0029H49.0022V39.0034H51.0027V37.0029Z" fill="black"/>
<path d="M55.0036 35.0029H53.0032V37.0034H55.0036V35.0029Z" fill="black"/>
<path d="M53.0032 33.0024H51.0027V35.0029H53.0032V33.0024Z" fill="black"/>
<path d="M57.0041 37.0029H55.0036V39.0034H57.0041V37.0029Z" fill="black"/>
<path d="M59.0046 39.0034H57.0041V41.0039H59.0046V39.0034Z" fill="black"/>
<path d="M61.005 47.0054H59.0045V49.0058H61.005V47.0054Z" fill="black"/>
<path d="M59.0046 49.0059H57.0041V51.0063H59.0046V49.0059Z" fill="black"/>
<path d="M57.0041 51.0063H55.0036V53.0068H57.0041V51.0063Z" fill="black"/>
<path d="M55.0036 53.0068H53.0032V55.0073H55.0036V53.0068Z" fill="black"/>
<path d="M53.0032 55.0073H51.0027V57.0078H53.0032V55.0073Z" fill="black"/>
<path d="M51.0027 51.0063H49.0022V53.0068H51.0027V51.0063Z" fill="black"/>
<path d="M49.0023 49.0059H47.0018V51.0063H49.0023V49.0059Z" fill="black"/>
<path d="M51.0028 59.0083V63.0092H49.0023V65.0096H45.0014V63.0092H43.0009V59.0083H45.0014V57.0078H49.0023V59.0083H51.0028Z" fill="black"/>
<path d="M47.0018 43.0044V47.0053H45.0014V49.0057H41.0005V47.0053H39V43.0044H41.0005V41.0039H45.0014V43.0044H47.0018Z" fill="black"/>
<path d="M51.0028 27.0009V31.0019H49.0023V33.0023H45.0014V31.0019H43.0009V27.0009H45.0014V25.0005H49.0023V27.0009H51.0028Z" fill="black"/>
<path d="M123.505 41.5018V43.5023H121.505V44.5025H119.504V43.5023H117.504V44.5025H118.504V45.5027H119.504V46.503H121.505V45.5027H122.505V44.5025H123.505V48.5034H122.505V51.5041H121.505V52.5043H120.504V51.5041H119.504V50.5039H116.503V51.5041H118.504V52.5043H119.504V54.5048H118.504V55.505H114.503V54.5048H113.503V53.5045H112.502V49.5036H113.503V48.5034H114.503V45.5027H113.503V44.5025H112.502V40.5016H113.503V37.5009H112.502V34.5002H113.503V33.5H116.503V34.5002H118.504V35.5005H119.504V36.5007H120.504V38.5011H118.504V39.5014H117.504V40.5016H116.503V41.5018H118.504V40.5016H119.504V39.5014H121.505V40.5016H122.505V41.5018H123.505Z" fill="black"/>
<path d="M111.502 51.5039H110.502V52.5041H111.502V51.5039Z" fill="black"/>
<path d="M110.502 50.5039H109.502V51.5041H110.502V50.5039Z" fill="black"/>
<path d="M111.502 36.5005H110.502V37.5007H111.502V36.5005Z" fill="black"/>
<path d="M110.502 37.501H109.502V38.5012H110.502V37.501Z" fill="black"/>
<path d="M106.501 41.502H105.501V42.5022H106.501V41.502Z" fill="black"/>
<path d="M107.501 40.5015H106.501V41.5017H107.501V40.5015Z" fill="black"/>
<path d="M109.502 39.5015H108.502V40.5017H109.502V39.5015Z" fill="black"/>
<path d="M108.502 38.501H107.501V39.5012H108.502V38.501Z" fill="black"/>
<path d="M110.502 40.5015H109.502V41.5017H110.502V40.5015Z" fill="black"/>
<path d="M111.502 41.502H110.502V42.5022H111.502V41.502Z" fill="black"/>
<path d="M112.503 45.5029H111.502V46.5032H112.503V45.5029Z" fill="black"/>
<path d="M111.502 46.5029H110.502V47.5032H111.502V46.5029Z" fill="black"/>
<path d="M110.502 47.5029H109.502V48.5032H110.502V47.5029Z" fill="black"/>
<path d="M109.502 48.5034H108.502V49.5036H109.502V48.5034Z" fill="black"/>
<path d="M108.502 49.5034H107.501V50.5036H108.502V49.5034Z" fill="black"/>
<path d="M107.501 47.5029H106.501V48.5032H107.501V47.5029Z" fill="black"/>
<path d="M106.501 46.5029H105.501V47.5032H106.501V46.5029Z" fill="black"/>
<path d="M107.501 51.5041V53.5046H106.501V54.5048H104.501V53.5046H103.5V51.5041H104.501V50.5039H106.501V51.5041H107.501Z" fill="black"/>
<path d="M105.501 43.5022V45.5026H104.501V46.5029H102.5V45.5026H101.5V43.5022H102.5V42.502H104.501V43.5022H105.501Z" fill="black"/>
<path d="M107.501 35.5002V37.5007H106.501V38.5009H104.501V37.5007H103.5V35.5002H104.501V34.5H106.501V35.5002H107.501Z" fill="black"/>
<path d="M155.67 42.3345V43.6682H154.336V44.335H153.003V43.6682H151.669V44.335H152.336V45.0018H153.003V45.6686H154.336V45.0018H155.003V44.335H155.67V47.0023H155.003V49.0027H154.336V49.6695H153.67V49.0027H153.003V48.3359H151.002V49.0027H152.336V49.6695H153.003V51.0032H152.336V51.67H149.669V51.0032H149.002V50.3364H148.335V47.6691H149.002V47.0023H149.669V45.0018H149.002V44.335H148.335V41.6677H149.002V39.6673H148.335V37.6668H149.002V37H151.002V37.6668H152.336V38.3336H153.003V39.0005H153.67V40.3341H152.336V41.0009H151.669V41.6677H151.002V42.3345H152.336V41.6677H153.003V41.0009H154.336V41.6677H155.003V42.3345H155.67Z" fill="black"/>
<path d="M147.668 49.0029H147.001V49.6697H147.668V49.0029Z" fill="black"/>
<path d="M147.001 48.3359H146.335V49.0028H147.001V48.3359Z" fill="black"/>
<path d="M147.668 39.0005H147.001V39.6673H147.668V39.0005Z" fill="black"/>
<path d="M147.001 39.6675H146.335V40.3343H147.001V39.6675Z" fill="black"/>
<path d="M144.334 42.3345H143.667V43.0013H144.334V42.3345Z" fill="black"/>
<path d="M145.001 41.668H144.334V42.3348H145.001V41.668Z" fill="black"/>
<path d="M146.335 41.001H145.668V41.6678H146.335V41.001Z" fill="black"/>
<path d="M145.668 40.334H145.001V41.0008H145.668V40.334Z" fill="black"/>
<path d="M147.001 41.668H146.335V42.3348H147.001V41.668Z" fill="black"/>
<path d="M147.668 42.3345H147.001V43.0013H147.668V42.3345Z" fill="black"/>
<path d="M148.335 45.002H147.668V45.6688H148.335V45.002Z" fill="black"/>
<path d="M147.668 45.6685H147.001V46.3353H147.668V45.6685Z" fill="black"/>
<path d="M147.001 46.3354H146.335V47.0023H147.001V46.3354Z" fill="black"/>
<path d="M146.335 47.0024H145.668V47.6693H146.335V47.0024Z" fill="black"/>
<path d="M145.668 47.6689H145.001V48.3358H145.668V47.6689Z" fill="black"/>
<path d="M145.001 46.3354H144.334V47.0023H145.001V46.3354Z" fill="black"/>
<path d="M144.334 45.6685H143.667V46.3353H144.334V45.6685Z" fill="black"/>
<path d="M145.001 49.0028V50.3364H144.334V51.0032H143V50.3364H142.334V49.0028H143V48.3359H144.334V49.0028H145.001Z" fill="black"/>
<path d="M143.667 43.6683V45.0019H143V45.6687H141.667V45.0019H141V43.6683H141.667V43.0015H143V43.6683H143.667Z" fill="black"/>
<path d="M145.001 38.3338V39.6674H144.334V40.3343H143V39.6674H142.334V38.3338H143V37.667H144.334V38.3338H145.001Z" fill="black"/>
<g clip-path="url(#clip0_884_14533)">
<path d="M183.752 42.7509V43.7511H182.752V44.2513H181.752V43.7511H180.752V44.2513H181.252V44.7514H181.752V45.2515H182.752V44.7514H183.252V44.2513H183.752V46.2517H183.252V47.752H182.752V48.2522H182.252V47.752H181.752V47.2519H180.252V47.752H181.252V48.2522H181.752V49.2524H181.252V49.7525H179.251V49.2524H178.751V48.7523H178.251V46.7518H178.751V46.2517H179.251V44.7514H178.751V44.2513H178.251V42.2508H178.751V40.7505H178.251V39.2501H178.751V38.75H180.252V39.2501H181.252V39.7502H181.752V40.2503H182.252V41.2506H181.252V41.7507H180.752V42.2508H180.252V42.7509H181.252V42.2508H181.752V41.7507H182.752V42.2508H183.252V42.7509H183.752Z" fill="black"/>
<path d="M177.751 47.752H177.251V48.2521H177.751V47.752Z" fill="black"/>
<path d="M177.251 47.252H176.751V47.7521H177.251V47.252Z" fill="black"/>
<path d="M177.751 40.2505H177.251V40.7506H177.751V40.2505Z" fill="black"/>
<path d="M177.251 40.7505H176.751V41.2506H177.251V40.7505Z" fill="black"/>
<path d="M175.251 42.751H174.75V43.2511H175.251V42.751Z" fill="black"/>
<path d="M175.751 42.251H175.251V42.7511H175.751V42.251Z" fill="black"/>
<path d="M176.751 41.7505H176.251V42.2506H176.751V41.7505Z" fill="black"/>
<path d="M176.251 41.2505H175.751V41.7506H176.251V41.2505Z" fill="black"/>
<path d="M177.251 42.251H176.751V42.7511H177.251V42.251Z" fill="black"/>
<path d="M177.751 42.751H177.251V43.2511H177.751V42.751Z" fill="black"/>
<path d="M178.251 44.7515H177.751V45.2516H178.251V44.7515Z" fill="black"/>
<path d="M177.751 45.2515H177.251V45.7516H177.751V45.2515Z" fill="black"/>
<path d="M177.251 45.7515H176.751V46.2516H177.251V45.7515Z" fill="black"/>
<path d="M176.751 46.2515H176.251V46.7516H176.751V46.2515Z" fill="black"/>
<path d="M176.251 46.752H175.751V47.2521H176.251V46.752Z" fill="black"/>
<path d="M175.751 45.7515H175.251V46.2516H175.751V45.7515Z" fill="black"/>
<path d="M175.251 45.2515H174.75V45.7516H175.251V45.2515Z" fill="black"/>
<path d="M175.751 47.7521V48.7523H175.251V49.2524H174.25V48.7523H173.75V47.7521H174.25V47.252H175.251V47.7521H175.751Z" fill="black"/>
<path d="M174.75 43.7511V44.7513H174.25V45.2514H173.25V44.7513H172.75V43.7511H173.25V43.251H174.25V43.7511H174.75Z" fill="black"/>
<path d="M175.751 39.7501V40.7503H175.251V41.2505H174.25V40.7503H173.75V39.7501H174.25V39.25H175.251V39.7501H175.751Z" fill="black"/>
</g>
<defs>
<clipPath id="clip0_884_14533">
<rect width="12" height="12" fill="white" transform="translate(172 38)"/>
</clipPath>
</defs>
</svg>
