<svg width="220" height="88" viewBox="0 0 220 88" fill="none" xmlns="http://www.w3.org/2000/svg">
<rect x="0.5" y="0.5" width="219" height="87" rx="4.5" stroke="#9747FF" stroke-dasharray="10 5"/>
<path d="M81.0095 51.0063V65.0095H79.0091V67.01H43.0009V65.0095H41.0004V51.0063H55.0036V55.0073H67.0063V51.0063H81.0095Z" fill="black"/>
<path d="M65.0059 51.0063H57.0041V53.0068H65.0059V51.0063Z" fill="black"/>
<path d="M65.0059 47.0054H57.0041V49.0058H65.0059V47.0054Z" fill="black"/>
<path d="M81.0095 31.0018V29.0014H69.0068V25.0005H67.0064V23H55.0036V25.0005H53.0032V29.0014H41.0005V31.0018H39V47.0055H41.0005V49.0059H55.0036V45.005H67.0064V49.0059H81.0095V47.0055H83.01V31.0018H81.0095ZM57.0041 27.0009H65.0059V29.0014H57.0041V27.0009Z" fill="black"/>
<path d="M122.505 47.5029V54.5045H121.505V55.5047H103.5V54.5045H102.5V47.5029H109.502V49.5034H115.503V47.5029H122.505Z" fill="black"/>
<path d="M114.503 47.5029H110.502V48.5032H114.503V47.5029Z" fill="black"/>
<path d="M114.503 45.5029H110.502V46.5032H114.503V45.5029Z" fill="black"/>
<path d="M122.505 37.5009V36.5007H116.503V34.5002H115.503V33.5H109.502V34.5002H108.502V36.5007H102.5V37.5009H101.5V45.5027H102.5V46.503H109.502V44.5025H115.503V46.503H122.505V45.5027H123.505V37.5009H122.505ZM110.502 35.5005H114.503V36.5007H110.502V35.5005Z" fill="black"/>
<path d="M155.003 46.3354V51.0032H154.336V51.67H142.334V51.0032H141.667V46.3354H146.335V47.6691H150.335V46.3354H155.003Z" fill="black"/>
<path d="M149.669 46.3354H147.001V47.0023H149.669V46.3354Z" fill="black"/>
<path d="M149.669 45.002H147.001V45.6688H149.669V45.002Z" fill="black"/>
<path d="M155.003 39.6673V39.0005H151.002V37.6668H150.335V37H146.335V37.6668H145.668V39.0005H141.667V39.6673H141V45.0018H141.667V45.6686H146.335V44.335H150.335V45.6686H155.003V45.0018H155.67V39.6673H155.003ZM147.001 38.3336H149.669V39.0005H147.001V38.3336Z" fill="black"/>
<g clip-path="url(#clip0_884_14538)">
<path d="M183.252 45.7515V49.2523H182.752V49.7524H173.75V49.2523H173.25V45.7515H176.751V46.7517H179.752V45.7515H183.252Z" fill="black"/>
<path d="M179.251 45.7515H177.251V46.2516H179.251V45.7515Z" fill="black"/>
<path d="M179.251 44.7515H177.251V45.2516H179.251V44.7515Z" fill="black"/>
<path d="M183.252 40.7505V40.2503H180.252V39.2501H179.752V38.75H176.751V39.2501H176.251V40.2503H173.25V40.7505H172.75V44.7514H173.25V45.2515H176.751V44.2512H179.752V45.2515H183.252V44.7514H183.753V40.7505H183.252ZM177.251 39.7502H179.251V40.2503H177.251V39.7502Z" fill="black"/>
</g>
<defs>
<clipPath id="clip0_884_14538">
<rect width="12" height="12" fill="white" transform="translate(172 38)"/>
</clipPath>
</defs>
</svg>
