<svg width="220" height="88" viewBox="0 0 220 88" fill="none" xmlns="http://www.w3.org/2000/svg">
<rect x="0.5" y="0.5" width="219" height="87" rx="4.5" stroke="#9747FF" stroke-dasharray="10 5"/>
<path d="M83.01 55.0073H79.0091V59.0082H83.01V55.0073Z" fill="black"/>
<path d="M73.0077 63.0093H69.0068V67.0102H73.0077V63.0093Z" fill="black"/>
<path d="M77.0087 55.0072V57.0077H73.0078V55.0072H71.0073V49.0059H73.0078V53.0068H75.0082V55.0072H77.0087Z" fill="black"/>
<path d="M69.0069 59.0081V61.0086H65.0059V59.0081H63.0055V49.0059H65.0059V57.0077H67.0064V59.0081H69.0069Z" fill="black"/>
<path d="M59.0045 49.0059V59.0081H57.0041V61.0086H53.0032V59.0081H55.0036V57.0077H57.0041V49.0059H59.0045Z" fill="black"/>
<path d="M53.0031 63.0093H49.0022V67.0102H53.0031V63.0093Z" fill="black"/>
<path d="M51.0027 49.0059V55.0072H49.0023V57.0077H45.0014V55.0072H47.0018V53.0068H49.0023V49.0059H51.0027Z" fill="black"/>
<path d="M81.0095 35.0027V33.0023H79.0091V31.0018H75.0082V27.0009H73.0077V25.0005H71.0073V23H61.005V25.0005H59.0045V27.0009H57.0041V29.0014H55.0036V27.0009H49.0023V29.0014H47.0018V31.0018H45.0014V35.0027H41.0005V37.0032H39V43.0045H41.0005V45.005H43.0009V47.0055H79.0091V45.005H81.0095V43.0045H83.01V35.0027H81.0095ZM65.0059 41.0041V39.0036H63.0055V35.0027H65.0059V37.0032H67.0064V31.0018H69.0068V37.0032H71.0073V35.0027H73.0077V39.0036H71.0073V41.0041H69.0068V43.0045H67.0064V41.0041H65.0059ZM57.0041 33.0023V35.0027H59.0045V39.0036H57.0041V37.0032H55.0036V43.0045H53.0032V37.0032H51.0027V39.0036H49.0023V35.0027H51.0027V33.0023H53.0032V31.0018H55.0036V33.0023H57.0041Z" fill="black"/>
<path d="M43.0009 55.0073H39V59.0082H43.0009V55.0073Z" fill="black"/>
<path d="M123.505 49.5034H121.505V51.5039H123.505V49.5034Z" fill="black"/>
<path d="M118.504 53.5044H116.503V55.5048H118.504V53.5044Z" fill="black"/>
<path d="M120.504 49.5036V50.5038H118.504V49.5036H117.504V46.5029H118.504V48.5034H119.504V49.5036H120.504Z" fill="black"/>
<path d="M116.503 51.5041V52.5043H114.503V51.5041H113.503V46.5029H114.503V50.5038H115.503V51.5041H116.503Z" fill="black"/>
<path d="M111.502 46.5029V51.5041H110.502V52.5043H108.502V51.5041H109.502V50.5038H110.502V46.5029H111.502Z" fill="black"/>
<path d="M108.502 53.5044H106.501V55.5048H108.502V53.5044Z" fill="black"/>
<path d="M107.501 46.5029V49.5036H106.501V50.5038H104.501V49.5036H105.501V48.5034H106.501V46.5029H107.501Z" fill="black"/>
<path d="M122.505 39.5014V38.5011H121.505V37.5009H119.504V35.5005H118.504V34.5002H117.504V33.5H112.503V34.5002H111.502V35.5005H110.502V36.5007H109.502V35.5005H106.501V36.5007H105.501V37.5009H104.501V39.5014H102.5V40.5016H101.5V43.5023H102.5V44.5025H103.5V45.5027H121.505V44.5025H122.505V43.5023H123.505V39.5014H122.505ZM114.503 42.502V41.5018H113.503V39.5014H114.503V40.5016H115.503V37.5009H116.503V40.5016H117.504V39.5014H118.504V41.5018H117.504V42.502H116.503V43.5023H115.503V42.502H114.503ZM110.502 38.5011V39.5014H111.502V41.5018H110.502V40.5016H109.502V43.5023H108.502V40.5016H107.501V41.5018H106.501V39.5014H107.501V38.5011H108.502V37.5009H109.502V38.5011H110.502Z" fill="black"/>
<path d="M103.5 49.5034H101.5V51.5039H103.5V49.5034Z" fill="black"/>
<path d="M155.67 47.6689H154.336V49.0026H155.67V47.6689Z" fill="black"/>
<path d="M152.336 50.3364H151.002V51.6701H152.336V50.3364Z" fill="black"/>
<path d="M153.67 47.6689V48.3357H152.336V47.6689H151.669V45.6685H152.336V47.0021H153.003V47.6689H153.67Z" fill="black"/>
<path d="M151.002 49.0025V49.6694H149.669V49.0025H149.002V45.6685H149.669V48.3357H150.335V49.0025H151.002Z" fill="black"/>
<path d="M147.668 45.6685V49.0025H147.001V49.6694H145.668V49.0025H146.335V48.3357H147.001V45.6685H147.668Z" fill="black"/>
<path d="M145.668 50.3364H144.334V51.6701H145.668V50.3364Z" fill="black"/>
<path d="M145.001 45.6685V47.6689H144.334V48.3357H143V47.6689H143.667V47.0021H144.334V45.6685H145.001Z" fill="black"/>
<path d="M155.003 41.0009V40.3341H154.336V39.6673H153.003V38.3336H152.336V37.6668H151.669V37H148.335V37.6668H147.668V38.3336H147.001V39.0005H146.335V38.3336H144.334V39.0005H143.667V39.6673H143V41.0009H141.667V41.6677H141V43.6682H141.667V44.335H142.334V45.0018H154.336V44.335H155.003V43.6682H155.67V41.0009H155.003ZM149.669 43.0014V42.3345H149.002V41.0009H149.669V41.6677H150.335V39.6673H151.002V41.6677H151.669V41.0009H152.336V42.3345H151.669V43.0014H151.002V43.6682H150.335V43.0014H149.669ZM147.001 40.3341V41.0009H147.668V42.3345H147.001V41.6677H146.335V43.6682H145.668V41.6677H145.001V42.3345H144.334V41.0009H145.001V40.3341H145.668V39.6673H146.335V40.3341H147.001Z" fill="black"/>
<path d="M142.334 47.6689H141V49.0026H142.334V47.6689Z" fill="black"/>
<g clip-path="url(#clip0_884_14543)">
<path d="M183.752 46.752H182.752V47.7522H183.752V46.752Z" fill="black"/>
<path d="M181.252 48.7524H180.252V49.7527H181.252V48.7524Z" fill="black"/>
<path d="M182.252 46.7518V47.2519H181.252V46.7518H180.752V45.2515H181.252V46.2517H181.752V46.7518H182.252Z" fill="black"/>
<path d="M180.252 47.752V48.2521H179.251V47.752H178.751V45.2515H179.251V47.2519H179.752V47.752H180.252Z" fill="black"/>
<path d="M177.751 45.2515V47.752H177.251V48.2521H176.251V47.752H176.751V47.2519H177.251V45.2515H177.751Z" fill="black"/>
<path d="M176.251 48.7524H175.251V49.7527H176.251V48.7524Z" fill="black"/>
<path d="M175.751 45.2515V46.7518H175.251V47.2519H174.25V46.7518H174.75V46.2517H175.251V45.2515H175.751Z" fill="black"/>
<path d="M183.252 41.7507V41.2506H182.752V40.7505H181.752V39.7502H181.252V39.2501H180.752V38.75H178.251V39.2501H177.751V39.7502H177.251V40.2503H176.751V39.7502H175.251V40.2503H174.75V40.7505H174.25V41.7507H173.25V42.2508H172.75V43.7511H173.25V44.2513H173.75V44.7514H182.752V44.2513H183.252V43.7511H183.753V41.7507H183.252ZM179.251 43.251V42.7509H178.751V41.7507H179.251V42.2508H179.752V40.7505H180.252V42.2508H180.752V41.7507H181.252V42.7509H180.752V43.251H180.252V43.7511H179.752V43.251H179.251ZM177.251 41.2506V41.7507H177.751V42.7509H177.251V42.2508H176.751V43.7511H176.251V42.2508H175.751V42.7509H175.251V41.7507H175.751V41.2506H176.251V40.7505H176.751V41.2506H177.251Z" fill="black"/>
<path d="M173.75 46.752H172.75V47.7522H173.75V46.752Z" fill="black"/>
</g>
<defs>
<clipPath id="clip0_884_14543">
<rect width="12" height="12" fill="white" transform="translate(172 38)"/>
</clipPath>
</defs>
</svg>
