<svg width="220" height="88" viewBox="0 0 220 88" fill="none" xmlns="http://www.w3.org/2000/svg">
<rect x="0.5" y="0.5" width="219" height="87" rx="4.5" stroke="#9747FF" stroke-dasharray="10 5"/>
<path d="M80.0005 24H78V26.0005H80.0005V24Z" fill="black"/>
<path d="M78.0005 26H76V28.0005H78.0005V26Z" fill="black"/>
<path d="M75.9999 28H67.9999V30H75.9999V28Z" fill="black"/>
<path d="M68.0009 26H64V28.0005H68.0009V26Z" fill="black"/>
<path d="M64.0005 24H62.0001V26.0005H64.0005V24Z" fill="black"/>
<path d="M62.0009 22H58V24.0005H62.0009V22Z" fill="black"/>
<path d="M58.0005 24H56.0001V26.0005H58.0005V24Z" fill="black"/>
<path d="M56.0009 26H52V28.0005H56.0009V26Z" fill="black"/>
<path d="M52 28H44V30H52V28Z" fill="black"/>
<path d="M44.0005 26H42.0001V28.0005H44.0005V26Z" fill="black"/>
<path d="M42.0005 24H40V26.0005H42.0005V24Z" fill="black"/>
<path d="M42.0005 48H40V52.0009H42.0005V48Z" fill="black"/>
<path d="M44.0005 52H42.0001V56.0009H44.0005V52Z" fill="black"/>
<path d="M46.0005 56H44V58.0005H46.0005V56Z" fill="black"/>
<path d="M50.0009 58H46V60.0005H50.0009V58Z" fill="black"/>
<path d="M54.0009 60H50V62.0005H54.0009V60Z" fill="black"/>
<path d="M58.0008 62H53.9999V64.0005H58.0008V62Z" fill="black"/>
<path d="M62.0009 64H58V66.0005H62.0009V64Z" fill="black"/>
<path d="M66.001 62H62.0001V64.0005H66.001V62Z" fill="black"/>
<path d="M70.0009 60H66V62.0005H70.0009V60Z" fill="black"/>
<path d="M74.001 58H70.0001V60.0005H74.001V58Z" fill="black"/>
<path d="M76.0005 56H74V58.0005H76.0005V56Z" fill="black"/>
<path d="M78.0005 52H76V56.0009H78.0005V52Z" fill="black"/>
<path d="M80.0005 48H78V52.0009H80.0005V48Z" fill="black"/>
<path d="M82 26H80V48H82V26Z" fill="black"/>
<path d="M40 26H38V48H40V26Z" fill="black"/>
<path d="M76.0001 30V32H68.0001V30H64.0001V28H62.0001V26H58.0001V28H56.0001V30H52.0001V32H44.0001V30H42.0001V48H44.0001V52H46.0001V56H50.0001V58H54.0001V60H58.0001V62H62.0001V60H66.0001V58H70.0001V56H74.0001V52H76.0001V48H78.0001V30H76.0001ZM56.0001 54V50H58.0001V44H56.0001V38H58.0001V36H62.0001V38H64.0001V44H62.0001V50H64.0001V54H56.0001Z" fill="black"/>
<path d="M122 34H121V35.0002H122V34Z" fill="black"/>
<path d="M121 35H120V36.0002H121V35Z" fill="black"/>
<path d="M120.001 36H116V37.0002H120.001V36Z" fill="black"/>
<path d="M116 35H114V36.0002H116V35Z" fill="black"/>
<path d="M114 34H113V35.0002H114V34Z" fill="black"/>
<path d="M113 33H111V34.0002H113V33Z" fill="black"/>
<path d="M111 34H110V35.0002H111V34Z" fill="black"/>
<path d="M110 35H108V36.0002H110V35Z" fill="black"/>
<path d="M108.001 36H104V37.0002H108.001V36Z" fill="black"/>
<path d="M104 35H103V36.0002H104V35Z" fill="black"/>
<path d="M103 34H102V35.0002H103V34Z" fill="black"/>
<path d="M103 46H102V48.0005H103V46Z" fill="black"/>
<path d="M104 48H103V50.0005H104V48Z" fill="black"/>
<path d="M105 50H104V51.0002H105V50Z" fill="black"/>
<path d="M107 51H105V52.0002H107V51Z" fill="black"/>
<path d="M109 52H107V53.0002H109V52Z" fill="black"/>
<path d="M111 53H109V54.0002H111V53Z" fill="black"/>
<path d="M113 54H111V55.0002H113V54Z" fill="black"/>
<path d="M115 53H113V54.0002H115V53Z" fill="black"/>
<path d="M117 52H115V53.0002H117V52Z" fill="black"/>
<path d="M119 51H117V52.0002H119V51Z" fill="black"/>
<path d="M120 50H119V51.0002H120V50Z" fill="black"/>
<path d="M121 48H120V50.0005H121V48Z" fill="black"/>
<path d="M122 46H121V48.0005H122V46Z" fill="black"/>
<path d="M123 35H122V46H123V35Z" fill="black"/>
<path d="M102 35H101V46H102V35Z" fill="black"/>
<path d="M120 37V38H116V37H114V36H113V35H111V36H110V37H108V38H104V37H103V46H104V48H105V50H107V51H109V52H111V53H113V52H115V51H117V50H119V48H120V46H121V37H120ZM110 49V47H111V44H110V41H111V40H113V41H114V44H113V47H114V49H110Z" fill="black"/>
<g clip-path="url(#clip0_884_14553)">
<path d="M154.673 37.3369H154.006V38.0037H154.673V37.3369Z" fill="black"/>
<path d="M154.006 38.0034H153.34V38.6702H154.006V38.0034Z" fill="black"/>
<path d="M153.34 38.6704H150.672V39.3372H153.34V38.6704Z" fill="black"/>
<path d="M150.672 38.0034H149.339V38.6702H150.672V38.0034Z" fill="black"/>
<path d="M149.339 37.3369H148.672V38.0037H149.339V37.3369Z" fill="black"/>
<path d="M148.672 36.6699H147.338V37.3367H148.672V36.6699Z" fill="black"/>
<path d="M147.338 37.3369H146.671V38.0037H147.338V37.3369Z" fill="black"/>
<path d="M146.671 38.0034H145.338V38.6702H146.671V38.0034Z" fill="black"/>
<path d="M145.338 38.6704H142.67V39.3372H145.338V38.6704Z" fill="black"/>
<path d="M142.67 38.0034H142.004V38.6702H142.67V38.0034Z" fill="black"/>
<path d="M142.004 37.3369H141.337V38.0037H142.004V37.3369Z" fill="black"/>
<path d="M142.004 45.3384H141.337V46.672H142.004V45.3384Z" fill="black"/>
<path d="M142.67 46.6724H142.004V48.006H142.67V46.6724Z" fill="black"/>
<path d="M143.337 48.0059H142.67V48.6727H143.337V48.0059Z" fill="black"/>
<path d="M144.671 48.6729H143.337V49.3397H144.671V48.6729Z" fill="black"/>
<path d="M146.005 49.3394H144.671V50.0062H146.005V49.3394Z" fill="black"/>
<path d="M147.338 50.0063H146.005V50.6732H147.338V50.0063Z" fill="black"/>
<path d="M148.672 50.6733H147.338V51.3402H148.672V50.6733Z" fill="black"/>
<path d="M150.005 50.0063H148.672V50.6732H150.005V50.0063Z" fill="black"/>
<path d="M151.339 49.3394H150.005V50.0062H151.339V49.3394Z" fill="black"/>
<path d="M152.673 48.6729H151.339V49.3397H152.673V48.6729Z" fill="black"/>
<path d="M153.34 48.0059H152.673V48.6727H153.34V48.0059Z" fill="black"/>
<path d="M154.006 46.6724H153.34V48.006H154.006V46.6724Z" fill="black"/>
<path d="M154.673 45.3384H154.006V46.672H154.673V45.3384Z" fill="black"/>
<path d="M155.34 38.0034H154.673V45.3384H155.34V38.0034Z" fill="black"/>
<path d="M141.337 38.0034H140.67V45.3384H141.337V38.0034Z" fill="black"/>
<path d="M153.34 39.3371V40.0039H150.672V39.3371H149.339V38.6702H148.672V38.0034H147.338V38.6702H146.671V39.3371H145.338V40.0039H142.67V39.3371H142.004V45.3384H142.67V46.6721H143.337V48.0057H144.671V48.6725H146.005V49.3393H147.338V50.0061H148.672V49.3393H150.005V48.6725H151.339V48.0057H152.673V46.6721H153.34V45.3384H154.006V39.3371H153.34ZM146.671 47.3389V46.0052H147.338V44.0048H146.671V42.0043H147.338V41.3375H148.672V42.0043H149.339V44.0048H148.672V46.0052H149.339V47.3389H146.671Z" fill="black"/>
</g>
<g clip-path="url(#clip1_884_14553)">
<path d="M183.002 39H182.502V39.5001H183.002V39Z" fill="black"/>
<path d="M182.502 39.5H182.002V40.0001H182.502V39.5Z" fill="black"/>
<path d="M182.002 40.0005H180.002V40.5006H182.002V40.0005Z" fill="black"/>
<path d="M180.002 39.5H179.001V40.0001H180.002V39.5Z" fill="black"/>
<path d="M179.001 39H178.501V39.5001H179.001V39Z" fill="black"/>
<path d="M178.501 38.5H177.501V39.0001H178.501V38.5Z" fill="black"/>
<path d="M177.501 39H177.001V39.5001H177.501V39Z" fill="black"/>
<path d="M177.001 39.5H176.001V40.0001H177.001V39.5Z" fill="black"/>
<path d="M176.001 40.0005H174V40.5006H176.001V40.0005Z" fill="black"/>
<path d="M174 39.5H173.5V40.0001H174V39.5Z" fill="black"/>
<path d="M173.5 39H173V39.5001H173.5V39Z" fill="black"/>
<path d="M173.5 45.0015H173V46.0017H173.5V45.0015Z" fill="black"/>
<path d="M174 46.0015H173.5V47.0017H174V46.0015Z" fill="black"/>
<path d="M174.5 47.002H174V47.5021H174.5V47.002Z" fill="black"/>
<path d="M175.501 47.502H174.5V48.0021H175.501V47.502Z" fill="black"/>
<path d="M176.501 48.002H175.501V48.5021H176.501V48.002Z" fill="black"/>
<path d="M177.501 48.5024H176.501V49.0026H177.501V48.5024Z" fill="black"/>
<path d="M178.501 49.0024H177.501V49.5026H178.501V49.0024Z" fill="black"/>
<path d="M179.502 48.5024H178.501V49.0026H179.502V48.5024Z" fill="black"/>
<path d="M180.502 48.002H179.502V48.5021H180.502V48.002Z" fill="black"/>
<path d="M181.502 47.502H180.502V48.0021H181.502V47.502Z" fill="black"/>
<path d="M182.002 47.002H181.502V47.5021H182.002V47.002Z" fill="black"/>
<path d="M182.502 46.0015H182.002V47.0017H182.502V46.0015Z" fill="black"/>
<path d="M183.002 45.0015H182.502V46.0017H183.002V45.0015Z" fill="black"/>
<path d="M183.502 39.5H183.002V45.0013H183.502V39.5Z" fill="black"/>
<path d="M173 39.5H172.5V45.0013H173V39.5Z" fill="black"/>
<path d="M182.002 40.5002V41.0003H180.002V40.5002H179.001V40.0001H178.501V39.5H177.501V40.0001H177.001V40.5002H176.001V41.0003H174V40.5002H173.5V45.0013H174V46.0015H174.5V47.0017H175.501V47.5018H176.501V48.0019H177.501V48.502H178.501V48.0019H179.502V47.5018H180.502V47.0017H181.502V46.0015H182.002V45.0013H182.502V40.5002H182.002ZM177.001 46.5016V45.5014H177.501V44.001H177.001V42.5007H177.501V42.0006H178.501V42.5007H179.001V44.001H178.501V45.5014H179.001V46.5016H177.001Z" fill="black"/>
</g>
<defs>
<clipPath id="clip0_884_14553">
<rect width="16" height="16" fill="white" transform="translate(140 36)"/>
</clipPath>
<clipPath id="clip1_884_14553">
<rect width="12" height="12" fill="white" transform="translate(172 38)"/>
</clipPath>
</defs>
</svg>
