<svg width="24" height="24" viewBox="0 0 24 24" fill="none" xmlns="http://www.w3.org/2000/svg">
<path d="M22.0002 2H21V3.00023H22.0002V2Z" fill="black"/>
<path d="M21.0002 3H20V4.00023H21.0002V3Z" fill="black"/>
<path d="M20.0009 4H16V5.00023H20.0009V4Z" fill="black"/>
<path d="M16.0005 3H14V4.00023H16.0005V3Z" fill="black"/>
<path d="M14.0002 2H13V3.00023H14.0002V2Z" fill="black"/>
<path d="M13.0005 1H11V2.00023H13.0005V1Z" fill="black"/>
<path d="M11.0002 2H10V3.00023H11.0002V2Z" fill="black"/>
<path d="M10.0005 3H8V4.00023H10.0005V3Z" fill="black"/>
<path d="M8.00091 4H4V5.00023H8.00091V4Z" fill="black"/>
<path d="M4.00029 3H3.00006V4.00023H4.00029V3Z" fill="black"/>
<path d="M3.00023 2H2V3.00023H3.00023V2Z" fill="black"/>
<path d="M3.00023 14H2V16.0005H3.00023V14Z" fill="black"/>
<path d="M4.00029 16H3.00006V18.0005H4.00029V16Z" fill="black"/>
<path d="M5.00023 18H4V19.0002H5.00023V18Z" fill="black"/>
<path d="M7.00045 19H5V20.0002H7.00045V19Z" fill="black"/>
<path d="M9.00045 20H7V21.0002H9.00045V20Z" fill="black"/>
<path d="M11.0005 21H9V22.0002H11.0005V21Z" fill="black"/>
<path d="M13.0005 22H11V23.0002H13.0005V22Z" fill="black"/>
<path d="M15.0005 21H13V22.0002H15.0005V21Z" fill="black"/>
<path d="M17.0005 20H15V21.0002H17.0005V20Z" fill="black"/>
<path d="M19.0005 19H17V20.0002H19.0005V19Z" fill="black"/>
<path d="M20.0002 18H19V19.0002H20.0002V18Z" fill="black"/>
<path d="M21.0002 16H20V18.0005H21.0002V16Z" fill="black"/>
<path d="M22.0002 14H21V16.0005H22.0002V14Z" fill="black"/>
<path d="M23 3H22V14H23V3Z" fill="black"/>
<path d="M2 3H1V14H2V3Z" fill="black"/>
<path d="M20.0001 5V6H16.0001V5H14.0001V4H13.0001V3H11.0001V4H10.0001V5H8.00006V6H4.00006V5H3.00006V14H4.00006V16H5.00006V18H7.00006V19H9.00006V20H11.0001V21H13.0001V20H15.0001V19H17.0001V18H19.0001V16H20.0001V14H21.0001V5H20.0001ZM10.0001 17V15H11.0001V12H10.0001V9H11.0001V8H13.0001V9H14.0001V12H13.0001V15H14.0001V17H10.0001Z" fill="black"/>
</svg>
