<svg width="220" height="88" viewBox="0 0 220 88" fill="none" xmlns="http://www.w3.org/2000/svg">
<rect x="0.5" y="0.5" width="219" height="87" rx="4.5" stroke="#9747FF" stroke-dasharray="10 5"/>
<path d="M83.01 65.0097V67.0102H77.0087V65.0097H79.0091V63.0093H81.0096V65.0097H83.01Z" fill="black"/>
<path d="M75.0082 65.0097V67.0102H69.0068V65.0097H71.0073V63.0093H73.0077V65.0097H75.0082Z" fill="black"/>
<path d="M67.0064 65.0097V67.0102H63.0055V63.0093H65.0059V65.0097H67.0064Z" fill="black"/>
<path d="M59.0046 63.0093V67.0102H55.0037V65.0097H57.0041V63.0093H59.0046Z" fill="black"/>
<path d="M53.0032 65.0097V67.0102H47.0018V65.0097H49.0023V63.0093H51.0027V65.0097H53.0032Z" fill="black"/>
<path d="M45.0014 65.0097V67.0102H39V65.0097H41.0005V63.0093H43.0009V65.0097H45.0014Z" fill="black"/>
<path d="M81.0096 55.0073V61.0087H79.0091V57.0078H73.0078V61.0087H71.0073V57.0078H65.0059V61.0087H63.0055V57.0078H59.0046V61.0087H57.0041V57.0078H51.0028V61.0087H49.0023V57.0078H43.0009V61.0087H41.0005V55.0073H81.0096Z" fill="black"/>
<path d="M75.0082 43.0044V45.0048H73.0077V47.0053H49.0023V45.0048H47.0018V43.0044H45.0013V49.0058H47.0018V51.0062H49.0023V53.0067H73.0077V51.0062H75.0082V49.0058H77.0086V43.0044H75.0082ZM55.0036 51.0062V49.0058H67.0063V51.0062H55.0036Z" fill="black"/>
<path d="M75.0082 35.0029V37.0034H73.0077V39.0038H49.0023V37.0034H47.0018V35.0029H45.0013V41.0043H47.0018V43.0047H49.0023V45.0052H73.0077V43.0047H75.0082V41.0043H77.0086V35.0029H75.0082ZM55.0036 43.0047V41.0043H67.0063V43.0047H55.0036Z" fill="black"/>
<path d="M75.0082 27.0009V25.0005H73.0077V23H49.0023V25.0005H47.0018V27.0009H45.0013V33.0023H47.0018V35.0027H49.0023V37.0032H73.0077V35.0027H75.0082V33.0023H77.0086V27.0009H75.0082ZM51.0027 27.0009V29.0014H71.0073V27.0009H73.0077V29.0014H71.0073V31.0018H51.0027V29.0014H49.0023V27.0009H51.0027ZM55.0036 35.0027V33.0023H67.0063V35.0027H55.0036Z" fill="black"/>
<path d="M123.505 54.5046V55.5048H120.504V54.5046H121.505V53.5044H122.505V54.5046H123.505Z" fill="black"/>
<path d="M119.504 54.5046V55.5048H116.503V54.5046H117.504V53.5044H118.504V54.5046H119.504Z" fill="black"/>
<path d="M115.503 54.5046V55.5048H113.503V53.5044H114.503V54.5046H115.503Z" fill="black"/>
<path d="M111.502 53.5044V55.5048H109.502V54.5046H110.502V53.5044H111.502Z" fill="black"/>
<path d="M108.502 54.5046V55.5048H105.501V54.5046H106.501V53.5044H107.501V54.5046H108.502Z" fill="black"/>
<path d="M104.501 54.5046V55.5048H101.5V54.5046H102.5V53.5044H103.5V54.5046H104.501Z" fill="black"/>
<path d="M122.505 49.5034V52.5041H121.505V50.5036H118.504V52.5041H117.504V50.5036H114.503V52.5041H113.503V50.5036H111.502V52.5041H110.502V50.5036H107.501V52.5041H106.501V50.5036H103.5V52.5041H102.5V49.5034H122.505Z" fill="black"/>
<path d="M119.504 43.5024V44.5027H118.504V45.5029H106.501V44.5027H105.501V43.5024H104.501V46.5031H105.501V47.5034H106.501V48.5036H118.504V47.5034H119.504V46.5031H120.504V43.5024H119.504ZM109.502 47.5034V46.5031H115.503V47.5034H109.502Z" fill="black"/>
<path d="M119.504 39.5015V40.5017H118.504V41.5019H106.501V40.5017H105.501V39.5015H104.501V42.5021H105.501V43.5024H106.501V44.5026H118.504V43.5024H119.504V42.5021H120.504V39.5015H119.504ZM109.502 43.5024V42.5021H115.503V43.5024H109.502Z" fill="black"/>
<path d="M119.504 35.5005V34.5002H118.504V33.5H106.501V34.5002H105.501V35.5005H104.501V38.5011H105.501V39.5014H106.501V40.5016H118.504V39.5014H119.504V38.5011H120.504V35.5005H119.504ZM107.501 35.5005V36.5007H117.504V35.5005H118.504V36.5007H117.504V37.5009H107.501V36.5007H106.501V35.5005H107.501ZM109.502 39.5014V38.5011H115.503V39.5014H109.502Z" fill="black"/>
<path d="M155.67 51.0032V51.6701H153.67V51.0032H154.336V50.3364H155.003V51.0032H155.67Z" fill="black"/>
<path d="M153.003 51.0032V51.6701H151.002V51.0032H151.669V50.3364H152.336V51.0032H153.003Z" fill="black"/>
<path d="M150.335 51.0032V51.6701H149.002V50.3364H149.669V51.0032H150.335Z" fill="black"/>
<path d="M147.668 50.3364V51.6701H146.335V51.0032H147.001V50.3364H147.668Z" fill="black"/>
<path d="M145.668 51.0032V51.6701H143.667V51.0032H144.334V50.3364H145.001V51.0032H145.668Z" fill="black"/>
<path d="M143 51.0032V51.6701H141V51.0032H141.667V50.3364H142.334V51.0032H143Z" fill="black"/>
<path d="M155.003 47.6689V49.6694H154.336V48.3358H152.336V49.6694H151.669V48.3358H149.669V49.6694H149.002V48.3358H147.668V49.6694H147.001V48.3358H145.001V49.6694H144.334V48.3358H142.334V49.6694H141.667V47.6689H155.003Z" fill="black"/>
<path d="M153.003 43.668V44.3348H152.336V45.0016H144.334V44.3348H143.667V43.668H143V45.6684H143.667V46.3352H144.334V47.0021H152.336V46.3352H153.003V45.6684H153.67V43.668H153.003ZM146.335 46.3352V45.6684H150.335V46.3352H146.335Z" fill="black"/>
<path d="M153.003 41.001V41.6678H152.336V42.3346H144.334V41.6678H143.667V41.001H143V43.0014H143.667V43.6682H144.334V44.3351H152.336V43.6682H153.003V43.0014H153.67V41.001H153.003ZM146.335 43.6682V43.0014H150.335V43.6682H146.335Z" fill="black"/>
<path d="M153.003 38.3336V37.6668H152.336V37H144.334V37.6668H143.667V38.3336H143V40.3341H143.667V41.0009H144.334V41.6677H152.336V41.0009H153.003V40.3341H153.67V38.3336H153.003ZM145.001 38.3336V39.0005H151.669V38.3336H152.336V39.0005H151.669V39.6673H145.001V39.0005H144.334V38.3336H145.001ZM146.335 41.0009V40.3341H150.335V41.0009H146.335Z" fill="black"/>
<g clip-path="url(#clip0_884_14558)">
<path d="M183.753 49.2526V49.7527H182.252V49.2526H182.752V48.7524H183.252V49.2526H183.753Z" fill="black"/>
<path d="M181.752 49.2526V49.7527H180.252V49.2526H180.752V48.7524H181.252V49.2526H181.752Z" fill="black"/>
<path d="M179.752 49.2526V49.7527H178.751V48.7524H179.251V49.2526H179.752Z" fill="black"/>
<path d="M177.751 48.7524V49.7527H176.751V49.2526H177.251V48.7524H177.751Z" fill="black"/>
<path d="M176.251 49.2526V49.7527H174.75V49.2526H175.251V48.7524H175.751V49.2526H176.251Z" fill="black"/>
<path d="M174.25 49.2526V49.7527H172.75V49.2526H173.25V48.7524H173.75V49.2526H174.25Z" fill="black"/>
<path d="M183.252 46.752V48.2523H182.752V47.2521H181.252V48.2523H180.752V47.2521H179.251V48.2523H178.751V47.2521H177.751V48.2523H177.251V47.2521H175.751V48.2523H175.251V47.2521H173.75V48.2523H173.25V46.752H183.252Z" fill="black"/>
<path d="M181.752 43.751V44.2511H181.252V44.7512H175.251V44.2511H174.75V43.751H174.25V45.2513H174.75V45.7514H175.251V46.2515H181.252V45.7514H181.752V45.2513H182.252V43.751H181.752ZM176.751 45.7514V45.2513H179.752V45.7514H176.751Z" fill="black"/>
<path d="M181.752 41.7505V42.2506H181.252V42.7507H175.251V42.2506H174.75V41.7505H174.25V43.2508H174.75V43.7509H175.251V44.2511H181.252V43.7509H181.752V43.2508H182.252V41.7505H181.752ZM176.751 43.7509V43.2508H179.752V43.7509H176.751Z" fill="black"/>
<path d="M181.752 39.7502V39.2501H181.252V38.75H175.251V39.2501H174.75V39.7502H174.25V41.2506H174.75V41.7507H175.251V42.2508H181.252V41.7507H181.752V41.2506H182.252V39.7502H181.752ZM175.751 39.7502V40.2503H180.752V39.7502H181.252V40.2503H180.752V40.7505H175.751V40.2503H175.251V39.7502H175.751ZM176.751 41.7507V41.2506H179.752V41.7507H176.751Z" fill="black"/>
</g>
<defs>
<clipPath id="clip0_884_14558">
<rect width="12" height="12" fill="white" transform="translate(172 38)"/>
</clipPath>
</defs>
</svg>
