<svg width="24" height="24" viewBox="0 0 24 24" fill="none" xmlns="http://www.w3.org/2000/svg">
<path d="M23.5051 22.5046V23.5048H20.5044V22.5046H21.5046V21.5044H22.5048V22.5046H23.5051Z" fill="black"/>
<path d="M19.5041 22.5046V23.5048H16.5034V22.5046H17.5036V21.5044H18.5039V22.5046H19.5041Z" fill="black"/>
<path d="M15.5031 22.5046V23.5048H13.5027V21.5044H14.5029V22.5046H15.5031Z" fill="black"/>
<path d="M11.5023 21.5044V23.5048H9.50183V22.5046H10.5021V21.5044H11.5023Z" fill="black"/>
<path d="M8.50154 22.5046V23.5048H5.50085V22.5046H6.50108V21.5044H7.50131V22.5046H8.50154Z" fill="black"/>
<path d="M4.50068 22.5046V23.5048H1.5V22.5046H2.50023V21.5044H3.50045V22.5046H4.50068Z" fill="black"/>
<path d="M22.5048 17.5034V20.5041H21.5046V18.5036H18.5039V20.5041H17.5037V18.5036H14.503V20.5041H13.5027V18.5036H11.5023V20.5041H10.5021V18.5036H7.50138V20.5041H6.50115V18.5036H3.50047V20.5041H2.50024V17.5034H22.5048Z" fill="black"/>
<path d="M19.5041 11.5024V12.5027H18.5039V13.5029H6.50119V12.5027H5.50096V11.5024H4.50073V14.5031H5.50096V15.5034H6.50119V16.5036H18.5039V15.5034H19.5041V14.5031H20.5044V11.5024H19.5041ZM9.50187 15.5034V14.5031H15.5032V15.5034H9.50187Z" fill="black"/>
<path d="M19.5041 7.50146V8.50169H18.5039V9.50192H6.50119V8.50169H5.50096V7.50146H4.50073V10.5021H5.50096V11.5024H6.50119V12.5026H18.5039V11.5024H19.5041V10.5021H20.5044V7.50146H19.5041ZM9.50187 11.5024V10.5021H15.5032V11.5024H9.50187Z" fill="black"/>
<path d="M19.5041 3.50045V2.50023H18.5039V1.5H6.50119V2.50023H5.50096V3.50045H4.50073V6.50114H5.50096V7.50136H6.50119V8.50159H18.5039V7.50136H19.5041V6.50114H20.5044V3.50045H19.5041ZM7.50141 3.50045V4.50068H17.5037V3.50045H18.5039V4.50068H17.5037V5.50091H7.50141V4.50068H6.50119V3.50045H7.50141ZM9.50187 7.50136V6.50114H15.5032V7.50136H9.50187Z" fill="black"/>
</svg>
