<svg width="220" height="88" viewBox="0 0 220 88" fill="none" xmlns="http://www.w3.org/2000/svg">
<rect x="0.5" y="0.5" width="219" height="87" rx="4.5" stroke="#9747FF" stroke-dasharray="10 5"/>
<path d="M55.0036 47.0053V49.0058H61.005V55.0071H57.0041V57.0076H55.0036V55.0071H53.0032V53.0067H59.0045V51.0062H53.0032V45.0048H57.0041V43.0044H59.0045V45.0048H61.005V47.0053H55.0036Z" fill="black"/>
<path d="M73.0077 45.0052V41.0043H71.0073V39.0038H69.0068V37.0034H67.0064V35.0029H47.0018V37.0034H45.0014V39.0038H43.0009V41.0043H41.0005V45.0052H39V57.0079H41.0005V61.0088H43.0009V63.0093H45.0014V65.0098H47.0018V67.0102H67.0064V65.0098H69.0068V63.0093H71.0073V61.0088H73.0077V57.0079H75.0082V45.0052H73.0077ZM53.0032 41.0043V39.0038H61.005V41.0043H65.0059V45.0052H67.0064V55.0075H65.0059V59.0084H61.005V61.0088H53.0032V59.0084H49.0023V55.0075H47.0018V45.0052H49.0023V41.0043H53.0032Z" fill="black"/>
<path d="M71.0073 33.0024H69.0068V35.0029H71.0073V33.0024Z" fill="black"/>
<path d="M75.0082 35.0029H71.0073V37.0034H75.0082V35.0029Z" fill="black"/>
<path d="M77.0086 37.0029H75.0082V39.0034H77.0086V37.0029Z" fill="black"/>
<path d="M79.0091 31.002V37.0033H77.0086V33.0024H75.0082V31.002H79.0091Z" fill="black"/>
<path d="M75.0082 29.0015H69.0068V31.0019H75.0082V29.0015Z" fill="black"/>
<path d="M69.0068 31.002H67.0063V33.0024H69.0068V31.002Z" fill="black"/>
<path d="M65.0058 31.002H49.0022V33.0024H65.0058V31.002Z" fill="black"/>
<path d="M69.0068 23V25.0005H67.0063V27.0009H65.0059V29.0014H49.0023V27.0009H47.0018V25.0005H45.0013V23H49.0023V25.0005H55.0036V23H59.0045V25.0005H65.0059V23H69.0068Z" fill="black"/>
<path d="M109.502 45.5029V46.5031H112.502V49.5038H110.502V50.504H109.502V49.5038H108.502V48.5036H111.502V47.5034H108.502V44.5027H110.502V43.5024H111.502V44.5027H112.502V45.5029H109.502Z" fill="black"/>
<path d="M118.504 44.5026V42.5021H117.504V41.5019H116.503V40.5017H115.503V39.5015H105.501V40.5017H104.501V41.5019H103.5V42.5021H102.5V44.5026H101.5V50.504H102.5V52.5044H103.5V53.5046H104.501V54.5049H105.501V55.5051H115.503V54.5049H116.503V53.5046H117.504V52.5044H118.504V50.504H119.504V44.5026H118.504ZM108.502 42.5021V41.5019H112.503V42.5021H114.503V44.5026H115.503V49.5037H114.503V51.5042H112.503V52.5044H108.502V51.5042H106.501V49.5037H105.501V44.5026H106.501V42.5021H108.502Z" fill="black"/>
<path d="M117.504 38.501H116.503V39.5012H117.504V38.501Z" fill="black"/>
<path d="M119.504 39.5015H117.504V40.5017H119.504V39.5015Z" fill="black"/>
<path d="M120.504 40.5015H119.504V41.5017H120.504V40.5015Z" fill="black"/>
<path d="M121.504 37.501V40.5017H120.504V38.5012H119.504V37.501H121.504Z" fill="black"/>
<path d="M119.504 36.5005H116.503V37.5007H119.504V36.5005Z" fill="black"/>
<path d="M116.503 37.501H115.503V38.5012H116.503V37.501Z" fill="black"/>
<path d="M114.503 37.501H106.501V38.5012H114.503V37.501Z" fill="black"/>
<path d="M116.503 33.5V34.5002H115.503V35.5005H114.503V36.5007H106.501V35.5005H105.501V34.5002H104.501V33.5H106.501V34.5002H109.502V33.5H111.502V34.5002H114.503V33.5H116.503Z" fill="black"/>
<path d="M146.335 45.0016V45.6684H148.335V47.6689H147.001V48.3357H146.335V47.6689H145.668V47.0021H147.668V46.3352H145.668V44.3348H147.001V43.668H147.668V44.3348H148.335V45.0016H146.335Z" fill="black"/>
<path d="M152.336 44.3351V43.0014H151.669V42.3346H151.002V41.6678H150.335V41.001H143.667V41.6678H143V42.3346H142.334V43.0014H141.667V44.3351H141V48.336H141.667V49.6696H142.334V50.3364H143V51.0032H143.667V51.6701H150.335V51.0032H151.002V50.3364H151.669V49.6696H152.336V48.336H153.003V44.3351H152.336ZM145.668 43.0014V42.3346H148.335V43.0014H149.669V44.3351H150.335V47.6692H149.669V49.0028H148.335V49.6696H145.668V49.0028H144.334V47.6692H143.667V44.3351H144.334V43.0014H145.668Z" fill="black"/>
<path d="M151.669 40.334H151.002V41.0008H151.669V40.334Z" fill="black"/>
<path d="M153.003 41.001H151.669V41.6678H153.003V41.001Z" fill="black"/>
<path d="M153.67 41.668H153.003V42.3348H153.67V41.668Z" fill="black"/>
<path d="M154.336 39.6675V41.6679H153.67V40.3343H153.003V39.6675H154.336Z" fill="black"/>
<path d="M153.003 39.0005H151.002V39.6673H153.003V39.0005Z" fill="black"/>
<path d="M151.002 39.6675H150.335V40.3343H151.002V39.6675Z" fill="black"/>
<path d="M149.669 39.6675H144.334V40.3343H149.669V39.6675Z" fill="black"/>
<path d="M151.002 37V37.6668H150.335V38.3336H149.669V39.0005H144.334V38.3336H143.667V37.6668H143V37H144.334V37.6668H146.335V37H147.668V37.6668H149.669V37H151.002Z" fill="black"/>
<path d="M176.751 44.7512V45.2513H178.251V46.7517H177.251V47.2518H176.751V46.7517H176.251V46.2515H177.751V45.7514H176.251V44.2511H177.251V43.751H177.751V44.2511H178.251V44.7512H176.751Z" fill="black"/>
<path d="M181.252 44.2511V43.2508H180.752V42.7507H180.252V42.2506H179.752V41.7505H174.75V42.2506H174.25V42.7507H173.75V43.2508H173.25V44.2511H172.75V47.2517H173.25V48.252H173.75V48.7521H174.25V49.2522H174.75V49.7523H179.752V49.2522H180.252V48.7521H180.752V48.252H181.252V47.2517H181.752V44.2511H181.252ZM176.251 43.2508V42.7507H178.251V43.2508H179.251V44.2511H179.752V46.7516H179.251V47.7519H178.251V48.252H176.251V47.7519H175.251V46.7516H174.75V44.2511H175.251V43.2508H176.251Z" fill="black"/>
<path d="M180.752 41.2505H180.252V41.7506H180.752V41.2505Z" fill="black"/>
<path d="M181.752 41.7505H180.752V42.2506H181.752V41.7505Z" fill="black"/>
<path d="M182.252 42.251H181.752V42.7511H182.252V42.251Z" fill="black"/>
<path d="M182.752 40.7505V42.2508H182.252V41.2506H181.752V40.7505H182.752Z" fill="black"/>
<path d="M181.752 40.2505H180.252V40.7506H181.752V40.2505Z" fill="black"/>
<path d="M180.252 40.7505H179.752V41.2506H180.252V40.7505Z" fill="black"/>
<path d="M179.252 40.7505H175.251V41.2506H179.252V40.7505Z" fill="black"/>
<path d="M180.252 38.75V39.2501H179.752V39.7502H179.252V40.2503H175.251V39.7502H174.75V39.2501H174.25V38.75H175.251V39.2501H176.751V38.75H177.751V39.2501H179.252V38.75H180.252Z" fill="black"/>
</svg>
