<svg width="24" height="24" viewBox="0 0 24 24" fill="none" xmlns="http://www.w3.org/2000/svg">
<path d="M9.50181 13.5029V14.5031H12.5025V17.5038H10.502V18.504H9.50181V17.5038H8.50159V16.5036H11.5023V15.5034H8.50159V12.5027H10.502V11.5024H11.5023V12.5027H12.5025V13.5029H9.50181Z" fill="black"/>
<path d="M18.5039 12.5026V10.5021H17.5036V9.50192H16.5034V8.50169H15.5032V7.50146H5.50091V8.50169H4.50068V9.50192H3.50045V10.5021H2.50023V12.5026H1.5V18.504H2.50023V20.5044H3.50045V21.5046H4.50068V22.5049H5.50091V23.5051H15.5032V22.5049H16.5034V21.5046H17.5036V20.5044H18.5039V18.504H19.5041V12.5026H18.5039ZM8.50159 10.5021V9.50192H12.5025V10.5021H14.503V12.5026H15.5032V17.5037H14.503V19.5042H12.5025V20.5044H8.50159V19.5042H6.50114V17.5037H5.50091V12.5026H6.50114V10.5021H8.50159Z" fill="black"/>
<path d="M17.5036 6.50098H16.5034V7.5012H17.5036V6.50098Z" fill="black"/>
<path d="M19.5041 7.50146H17.5037V8.50169H19.5041V7.50146Z" fill="black"/>
<path d="M20.5043 8.50146H19.504V9.50169H20.5043V8.50146Z" fill="black"/>
<path d="M21.5045 5.50098V8.50166H20.5043V6.5012H19.504V5.50098H21.5045Z" fill="black"/>
<path d="M19.5041 4.50049H16.5034V5.50072H19.5041V4.50049Z" fill="black"/>
<path d="M16.5034 5.50098H15.5032V6.5012H16.5034V5.50098Z" fill="black"/>
<path d="M14.5029 5.50098H6.5011V6.5012H14.5029V5.50098Z" fill="black"/>
<path d="M16.5035 1.5V2.50023H15.5032V3.50045H14.503V4.50068H6.50119V3.50045H5.50096V2.50023H4.50073V1.5H6.50119V2.50023H9.50187V1.5H11.5023V2.50023H14.503V1.5H16.5035Z" fill="black"/>
</svg>
