<svg width="220" height="88" viewBox="0 0 220 88" fill="none" xmlns="http://www.w3.org/2000/svg">
<rect x="0.5" y="0.5" width="219" height="87" rx="4.5" stroke="#9747FF" stroke-dasharray="10 5"/>
<path d="M83.01 55.0073V59.0082H81.0095V61.0087H69.0068V63.0091H67.0064V65.0096H65.0059V67.0101H57.0041V65.0096H55.0036V63.0091H53.0032V61.0087H41.0005V59.0082H39V55.0073H83.01Z" fill="black"/>
<path d="M83.0099 51.0063V53.0068H79.009V49.0059H81.0095V51.0063H83.0099Z" fill="black"/>
<path d="M77.0086 37.0032V53.0068H75.0082V45.005H73.0077V43.0045H67.0064V41.0041H73.0077V39.0036H67.0064V35.0027H65.0059V33.0023H63.0055V31.0018H61.005V27.0009H63.0055V23H65.0059V25.0005H67.0064V27.0009H69.0068V29.0014H71.0073V35.0027H75.0082V37.0032H77.0086Z" fill="black"/>
<path d="M49.0023 45.0049V53.0067H39V51.0062H41.0005V47.0053H43.0009V45.0049H49.0023Z" fill="black"/>
<path d="M73.0077 45.005V53.0068H51.0027V45.005H49.0023V43.0045H45.0013V29.0014H47.0018V23H53.0032V51.0064H55.0036V27.0009H57.0041V29.0014H59.0045V31.0018H61.005V33.0023H63.0054V35.0027H65.0059V51.0064H67.0063V45.005H73.0077Z" fill="black"/>
<path d="M123.505 49.5034V51.5039H122.505V52.5041H116.503V53.5043H115.503V54.5046H114.503V55.5048H110.502V54.5046H109.502V53.5043H108.502V52.5041H102.5V51.5039H101.5V49.5034H123.505Z" fill="black"/>
<path d="M123.505 47.5032V48.5034H121.505V46.5029H122.505V47.5032H123.505Z" fill="black"/>
<path d="M120.504 40.5016V48.5034H119.504V44.5025H118.504V43.5023H115.503V42.502H118.504V41.5018H115.503V39.5014H114.503V38.5011H113.503V37.5009H112.502V35.5005H113.503V33.5H114.503V34.5002H115.503V35.5005H116.503V36.5007H117.504V39.5014H119.504V40.5016H120.504Z" fill="black"/>
<path d="M106.501 44.5024V48.5034H101.5V47.5031H102.5V45.5027H103.5V44.5024H106.501Z" fill="black"/>
<path d="M118.504 44.5025V48.5034H107.501V44.5025H106.501V43.5023H104.501V36.5007H105.501V33.5H108.502V47.5032H109.502V35.5005H110.502V36.5007H111.502V37.5009H112.503V38.5011H113.503V39.5014H114.503V47.5032H115.503V44.5025H118.504Z" fill="black"/>
<path d="M155.67 47.6689V49.0026H155.003V49.6694H151.002V50.3362H150.335V51.003H149.669V51.6699H147.001V51.003H146.335V50.3362H145.668V49.6694H141.667V49.0026H141V47.6689H155.67Z" fill="black"/>
<path d="M155.67 46.3353V47.0021H154.336V45.6685H155.003V46.3353H155.67Z" fill="black"/>
<path d="M153.67 41.6677V47.0023H153.003V44.335H152.336V43.6682H150.335V43.0014H152.336V42.3345H150.335V41.0009H149.669V40.3341H149.002V39.6673H148.335V38.3336H149.002V37H149.669V37.6668H150.335V38.3336H151.002V39.0005H151.669V41.0009H153.003V41.6677H153.67Z" fill="black"/>
<path d="M144.334 44.335V47.0022H141V46.3354H141.667V45.0018H142.334V44.335H144.334Z" fill="black"/>
<path d="M152.336 44.335V47.0023H145.001V44.335H144.334V43.6682H143V39.0005H143.667V37H145.668V46.3355H146.335V38.3336H147.001V39.0005H147.668V39.6673H148.335V40.3341H149.002V41.0009H149.669V46.3355H150.335V44.335H152.336Z" fill="black"/>
<g clip-path="url(#clip0_884_14568)">
<path d="M183.753 46.752V47.7522H183.252V48.2523H180.252V48.7524H179.752V49.2525H179.251V49.7526H177.251V49.2525H176.751V48.7524H176.251V48.2523H173.25V47.7522H172.75V46.752H183.753Z" fill="black"/>
<path d="M183.753 45.7516V46.2517H182.752V45.2515H183.252V45.7516H183.753Z" fill="black"/>
<path d="M182.252 42.2508V46.2517H181.752V44.2512H181.252V43.7511H179.752V43.251H181.252V42.7509H179.752V41.7507H179.251V41.2506H178.751V40.7505H178.251V39.7502H178.751V38.75H179.251V39.2501H179.752V39.7502H180.252V40.2503H180.752V41.7507H181.752V42.2508H182.252Z" fill="black"/>
<path d="M175.251 44.2515V46.2519H172.75V45.7518H173.25V44.7516H173.75V44.2515H175.251Z" fill="black"/>
<path d="M181.252 44.2512V46.2517H175.751V44.2512H175.251V43.7511H174.25V40.2503H174.75V38.75H176.251V45.7516H176.751V39.7502H177.251V40.2503H177.751V40.7505H178.251V41.2506H178.751V41.7507H179.252V45.7516H179.752V44.2512H181.252Z" fill="black"/>
</g>
<defs>
<clipPath id="clip0_884_14568">
<rect width="12" height="12" fill="white" transform="translate(172 38)"/>
</clipPath>
</defs>
</svg>
