<svg width="220" height="88" viewBox="0 0 220 88" fill="none" xmlns="http://www.w3.org/2000/svg">
<rect x="0.5" y="0.5" width="219" height="87" rx="4.5" stroke="#9747FF" stroke-dasharray="10 5"/>
<path d="M67.0064 47.0039H55.0037V51.0048H67.0064V47.0039Z" fill="black"/>
<path d="M81.0095 41.0027V37.0018H79.0091V33.0009H77.0086V31.0005H75.0082V29H67.0064V31.0005H55.0036V29H47.0018V31.0005H45.0014V33.0009H43.0009V37.0018H41.0005V41.0027H39V57.0064H41.0005V59.0068H47.0018V57.0064H49.0023V55.0059H51.0027V53.0055H53.0032V47.0041H55.0036V45.0036H67.0064V47.0041H69.0068V53.0055H71.0073V55.0059H73.0077V57.0064H75.0082V59.0068H81.0095V57.0064H83.01V41.0027H81.0095ZM47.0018 37.0018V35.0014H49.0023V33.0009H51.0027V35.0014H53.0032V37.0018H55.0036V39.0023H53.0032V41.0027H51.0027V43.0032H49.0023V41.0027H47.0018V39.0023H45.0014V37.0018H47.0018ZM63.0055 39.0023H61.005V41.0027H59.0045V39.0023H57.0041V37.0018H59.0045V35.0014H61.005V37.0018H63.0055V39.0023ZM77.0086 41.0027H73.0077V45.0036H69.0068V41.0027H65.0059V37.0018H69.0068V33.0009H73.0077V37.0018H77.0086V41.0027Z" fill="black"/>
<path d="M73.0077 37.002H69.0068V41.0029H73.0077V37.002Z" fill="black"/>
<path d="M115.503 45.502H109.502V47.5024H115.503V45.502Z" fill="black"/>
<path d="M122.505 42.5014V40.5009H121.505V38.5005H120.504V37.5002H119.504V36.5H115.503V37.5002H109.502V36.5H105.501V37.5002H104.501V38.5005H103.5V40.5009H102.5V42.5014H101.5V50.5032H102.5V51.5034H105.501V50.5032H106.501V49.503H107.501V48.5027H108.502V45.502H109.502V44.5018H115.503V45.502H116.503V48.5027H117.504V49.503H118.504V50.5032H119.504V51.5034H122.505V50.5032H123.505V42.5014H122.505ZM105.501 40.5009V39.5007H106.501V38.5005H107.501V39.5007H108.502V40.5009H109.502V41.5011H108.502V42.5014H107.501V43.5016H106.501V42.5014H105.501V41.5011H104.501V40.5009H105.501ZM113.503 41.5011H112.503V42.5014H111.502V41.5011H110.502V40.5009H111.502V39.5007H112.503V40.5009H113.503V41.5011ZM120.504 42.5014H118.504V44.5018H116.503V42.5014H114.503V40.5009H116.503V38.5005H118.504V40.5009H120.504V42.5014Z" fill="black"/>
<path d="M118.504 40.501H116.503V42.5014H118.504V40.501Z" fill="black"/>
<path d="M150.335 45.0015H146.334V46.3351H150.335V45.0015Z" fill="black"/>
<path d="M155.003 43.0009V41.6673H154.336V40.3336H153.67V39.6668H153.003V39H150.335V39.6668H146.335V39H143.667V39.6668H143V40.3336H142.334V41.6673H141.667V43.0009H141V48.3355H141.667V49.0023H143.667V48.3355H144.334V47.6686H145.001V47.0018H145.668V45.0014H146.335V44.3345H150.335V45.0014H151.002V47.0018H151.669V47.6686H152.336V48.3355H153.003V49.0023H155.003V48.3355H155.67V43.0009H155.003ZM143.667 41.6673V41.0005H144.334V40.3336H145.001V41.0005H145.668V41.6673H146.335V42.3341H145.668V43.0009H145.001V43.6677H144.334V43.0009H143.667V42.3341H143V41.6673H143.667ZM149.002 42.3341H148.335V43.0009H147.668V42.3341H147.001V41.6673H147.668V41.0005H148.335V41.6673H149.002V42.3341ZM153.67 43.0009H152.336V44.3345H151.002V43.0009H149.669V41.6673H151.002V40.3336H152.336V41.6673H153.67V43.0009Z" fill="black"/>
<path d="M152.336 41.6675H151.002V43.0011H152.336V41.6675Z" fill="black"/>
<path d="M179.752 44.751H176.751V45.7512H179.752V44.751Z" fill="black"/>
<path d="M183.252 43.2507V42.2505H182.752V41.2502H182.252V40.7501H181.752V40.25H179.752V40.7501H176.751V40.25H174.75V40.7501H174.25V41.2502H173.75V42.2505H173.25V43.2507H172.75V47.2516H173.25V47.7517H174.75V47.2516H175.251V46.7515H175.751V46.2514H176.251V44.751H176.751V44.2509H179.752V44.751H180.252V46.2514H180.752V46.7515H181.252V47.2516H181.752V47.7517H183.252V47.2516H183.753V43.2507H183.252ZM174.75 42.2505V41.7503H175.251V41.2502H175.751V41.7503H176.251V42.2505H176.751V42.7506H176.251V43.2507H175.751V43.7508H175.251V43.2507H174.75V42.7506H174.25V42.2505H174.75ZM178.751 42.7506H178.251V43.2507H177.751V42.7506H177.251V42.2505H177.751V41.7503H178.251V42.2505H178.751V42.7506ZM182.252 43.2507H181.252V44.2509H180.252V43.2507H179.251V42.2505H180.252V41.2502H181.252V42.2505H182.252V43.2507Z" fill="black"/>
<path d="M181.252 42.2505H180.252V43.2507H181.252V42.2505Z" fill="black"/>
</svg>
