<svg width="24" height="24" viewBox="0 0 24 24" fill="none" xmlns="http://www.w3.org/2000/svg">
<path d="M15.5032 13.502H9.50183V15.5024H15.5032V13.502Z" fill="black"/>
<path d="M22.5048 10.5014V8.50091H21.5045V6.50045H20.5043V5.50023H19.5041V4.5H15.5032V5.50023H9.50182V4.5H5.50091V5.50023H4.50068V6.50045H3.50045V8.50091H2.50023V10.5014H1.5V18.5032H2.50023V19.5034H5.50091V18.5032H6.50114V17.503H7.50136V16.5027H8.50159V13.502H9.50182V12.5018H15.5032V13.502H16.5034V16.5027H17.5036V17.503H18.5039V18.5032H19.5041V19.5034H22.5048V18.5032H23.505V10.5014H22.5048ZM5.50091 8.50091V7.50068H6.50114V6.50045H7.50136V7.50068H8.50159V8.50091H9.50182V9.50114H8.50159V10.5014H7.50136V11.5016H6.50114V10.5014H5.50091V9.50114H4.50068V8.50091H5.50091ZM13.5027 9.50114H12.5025V10.5014H11.5023V9.50114H10.502V8.50091H11.5023V7.50068H12.5025V8.50091H13.5027V9.50114ZM20.5043 10.5014H18.5039V12.5018H16.5034V10.5014H14.503V8.50091H16.5034V6.50045H18.5039V8.50091H20.5043V10.5014Z" fill="black"/>
<path d="M18.5039 8.50098H16.5034V10.5014H18.5039V8.50098Z" fill="black"/>
</svg>
