<svg width="220" height="88" viewBox="0 0 220 88" fill="none" xmlns="http://www.w3.org/2000/svg">
<rect x="0.5" y="0.5" width="219" height="87" rx="4.5" stroke="#9747FF" stroke-dasharray="10 5"/>
<path d="M47.0019 33.0024H43.0009V39.0038H47.0019V33.0024Z" fill="black"/>
<path d="M43.0009 39.0034H39V51.0061H43.0009V39.0034Z" fill="black"/>
<path d="M47.0019 51.0063H43.0009V57.0077H47.0019V51.0063Z" fill="black"/>
<path d="M71.0073 57.0078V67.0101H47.0018V57.0078H53.0032V61.0087H65.0059V57.0078H71.0073Z" fill="black"/>
<path d="M75.0082 51.0063H71.0073V57.0077H75.0082V51.0063Z" fill="black"/>
<path d="M83.01 43.0043V47.0052H79.0091V51.0061H75.0081V39.0034H79.0091V43.0043H83.01Z" fill="black"/>
<path d="M75.0082 33.0024H71.0073V39.0038H75.0082V33.0024Z" fill="black"/>
<path d="M71.0073 23V33.0023H65.0059V29.0014H61.005V47.0055H57.0041V29.0014H53.0032V33.0023H47.0018V23H71.0073Z" fill="black"/>
<path d="M105.501 38.501H103.5V41.5017H105.501V38.501Z" fill="black"/>
<path d="M103.5 41.502H101.5V47.5033H103.5V41.502Z" fill="black"/>
<path d="M105.501 47.5029H103.5V50.5036H105.501V47.5029Z" fill="black"/>
<path d="M117.504 50.5039V55.505H105.501V50.5039H108.502V52.5044H114.503V50.5039H117.504Z" fill="black"/>
<path d="M119.504 47.5029H117.504V50.5036H119.504V47.5029Z" fill="black"/>
<path d="M123.505 43.5024V45.5029H121.505V47.5033H119.504V41.502H121.505V43.5024H123.505Z" fill="black"/>
<path d="M119.504 38.501H117.504V41.5017H119.504V38.501Z" fill="black"/>
<path d="M117.504 33.5V38.5011H114.503V36.5007H112.502V45.5027H110.502V36.5007H108.502V38.5011H105.501V33.5H117.504Z" fill="black"/>
<path d="M143.667 40.334H142.334V42.3344H143.667V40.334Z" fill="black"/>
<path d="M142.334 42.3345H141V46.3354H142.334V42.3345Z" fill="black"/>
<path d="M143.667 46.3354H142.334V48.3359H143.667V46.3354Z" fill="black"/>
<path d="M151.669 48.3359V51.67H143.667V48.3359H145.668V49.6696H149.669V48.3359H151.669Z" fill="black"/>
<path d="M153.003 46.3354H151.669V48.3359H153.003V46.3354Z" fill="black"/>
<path d="M155.67 43.6681V45.0017H154.336V46.3354H153.003V42.3345H154.336V43.6681H155.67Z" fill="black"/>
<path d="M153.003 40.334H151.669V42.3344H153.003V40.334Z" fill="black"/>
<path d="M151.669 37V40.3341H149.669V39.0005H148.335V45.0018H147.001V39.0005H145.668V40.3341H143.667V37H151.669Z" fill="black"/>
<g clip-path="url(#clip0_884_14488)">
<path d="M174.75 41.2505H173.75V42.7508H174.75V41.2505Z" fill="black"/>
<path d="M173.75 42.751H172.75V45.7517H173.75V42.751Z" fill="black"/>
<path d="M174.75 45.7515H173.75V47.2518H174.75V45.7515Z" fill="black"/>
<path d="M180.752 47.252V49.7525H174.75V47.252H176.251V48.2522H179.251V47.252H180.752Z" fill="black"/>
<path d="M181.752 45.7515H180.752V47.2518H181.752V45.7515Z" fill="black"/>
<path d="M183.752 43.7512V44.7514H182.752V45.7517H181.752V42.751H182.752V43.7512H183.752Z" fill="black"/>
<path d="M181.752 41.2505H180.752V42.7508H181.752V41.2505Z" fill="black"/>
<path d="M180.752 38.75V41.2506H179.251V40.2503H178.251V44.7514H177.251V40.2503H176.251V41.2506H174.75V38.75H180.752Z" fill="black"/>
</g>
<defs>
<clipPath id="clip0_884_14488">
<rect width="12" height="12" fill="white" transform="translate(172 38)"/>
</clipPath>
</defs>
</svg>
