<svg width="220" height="88" viewBox="0 0 220 88" fill="none" xmlns="http://www.w3.org/2000/svg">
<rect x="0.5" y="0.5" width="219" height="87" rx="4.5" stroke="#9747FF" stroke-dasharray="10 5"/>
<path d="M67.005 57.0078V63.0092H65.0045V65.0096H63.004V67.0101H59.0031V65.0096H57.0027V63.0092H55.0022V57.0078H67.005Z" fill="black"/>
<path d="M77.0073 35.0027V43.0045H75.0068V47.0055H73.0064V49.0059H71.0059V51.0064H69.0055V53.0068H67.005V55.0073H65.0045V45.005H67.005V43.0045H69.0055V41.0041H67.005V43.0045H65.0045V45.005H63.0041V55.0073H59.0032V45.005H57.0027V43.0045H55.0023V41.0041H53.0018V43.0045H55.0023V45.005H57.0027V55.0073H55.0023V53.0068H53.0018V51.0064H51.0014V49.0059H49.0009V47.0055H47.0005V43.0045H45V35.0027H47.0005V31.0018H49.0009V29.0014H51.0014V27.0009H53.0018V25.0005H57.0027V23H65.0045V25.0005H69.0055V27.0009H71.0059V29.0014H73.0064V31.0018H75.0068V35.0027H77.0073Z" fill="black"/>
<path d="M115.502 50.5039V53.5046H114.502V54.5048H113.502V55.505H111.502V54.5048H110.501V53.5046H109.501V50.5039H115.502Z" fill="black"/>
<path d="M120.504 39.5014V43.5023H119.503V45.5027H118.503V46.503H117.503V47.5032H116.503V48.5034H115.503V49.5036H114.502V44.5025H115.503V43.5023H116.503V42.502H115.503V43.5023H114.502V44.5025H113.502V49.5036H111.502V44.5025H110.501V43.5023H109.501V42.502H108.501V43.5023H109.501V44.5025H110.501V49.5036H109.501V48.5034H108.501V47.5032H107.501V46.503H106.5V45.5027H105.5V43.5023H104.5V39.5014H105.5V37.5009H106.5V36.5007H107.501V35.5005H108.501V34.5002H110.501V33.5H114.502V34.5002H116.503V35.5005H117.503V36.5007H118.503V37.5009H119.503V39.5014H120.504Z" fill="black"/>
<path d="M150.335 48.3359V50.3364H149.668V51.0032H149.001V51.67H147.668V51.0032H147.001V50.3364H146.334V48.3359H150.335Z" fill="black"/>
<path d="M153.669 41.0009V43.6682H153.002V45.0018H152.335V45.6686H151.669V46.3355H151.002V47.0023H150.335V47.6691H149.668V44.335H150.335V43.6682H151.002V43.0014H150.335V43.6682H149.668V44.335H149.001V47.6691H147.668V44.335H147.001V43.6682H146.334V43.0014H145.667V43.6682H146.334V44.335H147.001V47.6691H146.334V47.0023H145.667V46.3355H145V45.6686H144.334V45.0018H143.667V43.6682H143V41.0009H143.667V39.6673H144.334V39.0005H145V38.3336H145.667V37.6668H147.001V37H149.668V37.6668H151.002V38.3336H151.669V39.0005H152.335V39.6673H153.002V41.0009H153.669Z" fill="black"/>
<path d="M179.751 47.252V48.7523H179.251V49.2524H178.751V49.7525H177.751V49.2524H177.251V48.7523H176.751V47.252H179.751Z" fill="black"/>
<path d="M182.252 41.7507V43.7511H181.752V44.7514H181.252V45.2515H180.751V45.7516H180.251V46.2517H179.751V46.7518H179.251V44.2513H179.751V43.7511H180.251V43.251H179.751V43.7511H179.251V44.2513H178.751V46.7518H177.751V44.2513H177.251V43.7511H176.751V43.251H176.25V43.7511H176.751V44.2513H177.251V46.7518H176.751V46.2517H176.25V45.7516H175.75V45.2515H175.25V44.7514H174.75V43.7511H174.25V41.7507H174.75V40.7505H175.25V40.2503H175.75V39.7502H176.25V39.2501H177.251V38.75H179.251V39.2501H180.251V39.7502H180.751V40.2503H181.252V40.7505H181.752V41.7507H182.252Z" fill="black"/>
</svg>
