<svg width="24" height="24" viewBox="0 0 24 24" fill="none" xmlns="http://www.w3.org/2000/svg">
<path d="M23.505 9.50182V11.5023H21.5045V12.5025H19.5041V11.5023H17.5036V12.5025H18.5039V13.5027H19.5041V14.503H21.5045V13.5027H22.5048V12.5025H23.505V16.5034H22.5048V19.5041H21.5045V20.5043H20.5043V19.5041H19.5041V18.5039H16.5034V19.5041H18.5039V20.5043H19.5041V22.5048H18.5039V23.505H14.5029V22.5048H13.5027V21.5045H12.5025V17.5036H13.5027V16.5034H14.5029V13.5027H13.5027V12.5025H12.5025V8.50159H13.5027V5.50091H12.5025V2.50023H13.5027V1.5H16.5034V2.50023H18.5039V3.50045H19.5041V4.50068H20.5043V6.50114H18.5039V7.50136H17.5036V8.50159H16.5034V9.50182H18.5039V8.50159H19.5041V7.50136H21.5045V8.50159H22.5048V9.50182H23.505Z" fill="black"/>
<path d="M11.5023 19.5039H10.5021V20.5041H11.5023V19.5039Z" fill="black"/>
<path d="M10.502 18.5039H9.5018V19.5041H10.502V18.5039Z" fill="black"/>
<path d="M11.5023 4.50049H10.5021V5.50072H11.5023V4.50049Z" fill="black"/>
<path d="M10.502 5.50098H9.5018V6.5012H10.502V5.50098Z" fill="black"/>
<path d="M6.50113 9.50195H5.5009V10.5022H6.50113V9.50195Z" fill="black"/>
<path d="M7.50134 8.50146H6.50111V9.50169H7.50134V8.50146Z" fill="black"/>
<path d="M9.50181 7.50146H8.50159V8.50169H9.50181V7.50146Z" fill="black"/>
<path d="M8.5016 6.50098H7.50137V7.5012H8.5016V6.50098Z" fill="black"/>
<path d="M10.502 8.50146H9.5018V9.50169H10.502V8.50146Z" fill="black"/>
<path d="M11.5023 9.50195H10.5021V10.5022H11.5023V9.50195Z" fill="black"/>
<path d="M12.5025 13.5029H11.5023V14.5032H12.5025V13.5029Z" fill="black"/>
<path d="M11.5023 14.5029H10.5021V15.5032H11.5023V14.5029Z" fill="black"/>
<path d="M10.502 15.5029H9.5018V16.5032H10.502V15.5029Z" fill="black"/>
<path d="M9.50181 16.5034H8.50159V17.5036H9.50181V16.5034Z" fill="black"/>
<path d="M8.5016 17.5034H7.50137V18.5036H8.5016V17.5034Z" fill="black"/>
<path d="M7.50134 15.5029H6.50111V16.5032H7.50134V15.5029Z" fill="black"/>
<path d="M6.50113 14.5029H5.5009V15.5032H6.50113V14.5029Z" fill="black"/>
<path d="M7.50138 19.5041V21.5046H6.50115V22.5048H4.5007V21.5046H3.50047V19.5041H4.5007V18.5039H6.50115V19.5041H7.50138Z" fill="black"/>
<path d="M5.50091 11.5022V13.5026H4.50068V14.5029H2.50023V13.5026H1.5V11.5022H2.50023V10.502H4.50068V11.5022H5.50091Z" fill="black"/>
<path d="M7.50138 3.50023V5.50068H6.50115V6.50091H4.5007V5.50068H3.50047V3.50023H4.5007V2.5H6.50115V3.50023H7.50138Z" fill="black"/>
</svg>
