<svg width="220" height="88" viewBox="0 0 220 88" fill="none" xmlns="http://www.w3.org/2000/svg">
<rect x="0.5" y="0.5" width="219" height="87" rx="4.5" stroke="#9747FF" stroke-dasharray="10 5"/>
<path d="M53.0032 61.0087V63.0092H45.0014V57.0078H47.0018V61.0087H53.0032Z" fill="black"/>
<path d="M77.0087 57.0078V63.0092H71.0073V61.0087H75.0082V57.0078H77.0087Z" fill="black"/>
<path d="M69.0068 63.009V67.01H55.0036V63.009H57.0041V61.0086H61.005V59.0081H59.0045V57.0077H57.0041V51.0063H59.0045V49.0059H65.0059V51.0063H67.0063V57.0077H65.0059V59.0081H63.0054V61.0086H67.0063V63.009H69.0068Z" fill="black"/>
<path d="M83.01 51.0061V55.007H69.0068V51.0061H71.0072V49.0057H75.0081V47.0052H73.0077V45.0047H71.0072V39.0034H73.0077V37.0029H79.009V39.0034H81.0095V45.0047H79.009V47.0052H77.0086V49.0057H81.0095V51.0061H83.01Z" fill="black"/>
<path d="M53.0032 51.0061V55.007H39V51.0061H41.0005V49.0057H45.0014V47.0052H43.0009V45.0047H41.0005V39.0034H43.0009V37.0029H49.0023V39.0034H51.0027V45.0047H49.0023V47.0052H47.0018V49.0057H51.0027V51.0061H53.0032Z" fill="black"/>
<path d="M53.0032 27.001V29.0014H47.0018V35.0028H45.0014V27.001H53.0032Z" fill="black"/>
<path d="M77.0086 27.001V35.0028H75.0082V29.0014H67.0063V27.001H77.0086Z" fill="black"/>
<path d="M67.0064 37.0032V41.0041H53.0032V37.0032H55.0036V35.0027H59.0045V33.0023H57.0041V31.0018H55.0036V25.0005H57.0041V23H63.0054V25.0005H65.0059V31.0018H63.0054V33.0023H61.005V35.0027H65.0059V37.0032H67.0064Z" fill="black"/>
<path d="M108.502 52.5044V53.5046H104.501V50.5039H105.501V52.5044H108.502Z" fill="black"/>
<path d="M120.504 50.5039V53.5046H117.504V52.5044H119.504V50.5039H120.504Z" fill="black"/>
<path d="M116.503 53.5045V55.505H109.502V53.5045H110.502V52.5043H112.503V51.5041H111.502V50.5038H110.502V47.5032H111.502V46.5029H114.503V47.5032H115.503V50.5038H114.503V51.5041H113.503V52.5043H115.503V53.5045H116.503Z" fill="black"/>
<path d="M123.505 47.5031V49.5035H116.503V47.5031H117.504V46.5028H119.504V45.5026H118.504V44.5024H117.504V41.5017H118.504V40.5015H121.505V41.5017H122.505V44.5024H121.505V45.5026H120.504V46.5028H122.505V47.5031H123.505Z" fill="black"/>
<path d="M108.502 47.5031V49.5035H101.5V47.5031H102.5V46.5028H104.501V45.5026H103.5V44.5024H102.5V41.5017H103.5V40.5015H106.501V41.5017H107.501V44.5024H106.501V45.5026H105.501V46.5028H107.501V47.5031H108.502Z" fill="black"/>
<path d="M108.502 35.5005V36.5007H105.501V39.5014H104.501V35.5005H108.502Z" fill="black"/>
<path d="M120.504 35.5005V39.5014H119.504V36.5007H115.503V35.5005H120.504Z" fill="black"/>
<path d="M115.503 40.5016V42.502H108.502V40.5016H109.502V39.5014H111.502V38.5011H110.502V37.5009H109.502V34.5002H110.502V33.5H113.503V34.5002H114.503V37.5009H113.503V38.5011H112.502V39.5014H114.503V40.5016H115.503Z" fill="black"/>
<path d="M145.668 49.6696V50.3364H143V48.3359H143.667V49.6696H145.668Z" fill="black"/>
<path d="M153.67 48.3359V50.3364H151.669V49.6696H153.003V48.3359H153.67Z" fill="black"/>
<path d="M151.002 50.3362V51.6698H146.335V50.3362H147.001V49.6694H148.335V49.0025H147.668V48.3357H147.001V46.3353H147.668V45.6685H149.669V46.3353H150.335V48.3357H149.669V49.0025H149.002V49.6694H150.335V50.3362H151.002Z" fill="black"/>
<path d="M155.67 46.3357V47.6693H151.002V46.3357H151.669V45.6689H153.003V45.0021H152.336V44.3352H151.669V42.3348H152.336V41.668H154.336V42.3348H155.003V44.3352H154.336V45.0021H153.67V45.6689H155.003V46.3357H155.67Z" fill="black"/>
<path d="M145.668 46.3357V47.6693H141V46.3357H141.667V45.6689H143V45.0021H142.334V44.3352H141.667V42.3348H142.334V41.668H144.334V42.3348H145.001V44.3352H144.334V45.0021H143.667V45.6689H145.001V46.3357H145.668Z" fill="black"/>
<path d="M145.668 38.3335V39.0003H143.667V41.0008H143V38.3335H145.668Z" fill="black"/>
<path d="M153.67 38.3335V41.0008H153.003V39.0003H150.335V38.3335H153.67Z" fill="black"/>
<path d="M150.335 41.6677V43.0014H145.668V41.6677H146.335V41.0009H147.668V40.3341H147.001V39.6673H146.335V37.6668H147.001V37H149.002V37.6668H149.669V39.6673H149.002V40.3341H148.335V41.0009H149.669V41.6677H150.335Z" fill="black"/>
<g clip-path="url(#clip0_884_14578)">
<path d="M176.251 48.2522V48.7523H174.25V47.252H174.75V48.2522H176.251Z" fill="black"/>
<path d="M182.252 47.252V48.7523H180.752V48.2522H181.752V47.252H182.252Z" fill="black"/>
<path d="M180.252 48.7523V49.7525H176.751V48.7523H177.251V48.2521H178.251V47.752H177.751V47.2519H177.251V45.7516H177.751V45.2515H179.251V45.7516H179.752V47.2519H179.251V47.752H178.751V48.2521H179.752V48.7523H180.252Z" fill="black"/>
<path d="M183.753 45.7518V46.752H180.252V45.7518H180.752V45.2517H181.752V44.7515H181.252V44.2514H180.752V42.7511H181.252V42.251H182.752V42.7511H183.252V44.2514H182.752V44.7515H182.252V45.2517H183.252V45.7518H183.753Z" fill="black"/>
<path d="M176.251 45.7518V46.752H172.75V45.7518H173.25V45.2517H174.25V44.7515H173.75V44.2514H173.25V42.7511H173.75V42.251H175.251V42.7511H175.751V44.2514H175.251V44.7515H174.75V45.2517H175.751V45.7518H176.251Z" fill="black"/>
<path d="M176.251 39.75V40.2501H174.75V41.7505H174.25V39.75H176.251Z" fill="black"/>
<path d="M182.252 39.75V41.7505H181.752V40.2501H179.752V39.75H182.252Z" fill="black"/>
<path d="M179.752 42.2508V43.251H176.251V42.2508H176.751V41.7507H177.751V41.2506H177.251V40.7505H176.751V39.2501H177.251V38.75H178.751V39.2501H179.251V40.7505H178.751V41.2506H178.251V41.7507H179.251V42.2508H179.752Z" fill="black"/>
</g>
<defs>
<clipPath id="clip0_884_14578">
<rect width="12" height="12" fill="white" transform="translate(172 38)"/>
</clipPath>
</defs>
</svg>
