<svg width="24" height="24" viewBox="0 0 24 24" fill="none" xmlns="http://www.w3.org/2000/svg">
<path d="M8.50158 20.5044V21.5046H4.50067V18.5039H5.5009V20.5044H8.50158Z" fill="black"/>
<path d="M20.5043 18.5039V21.5046H17.5037V20.5044H19.5041V18.5039H20.5043Z" fill="black"/>
<path d="M16.5034 21.5045V23.505H9.50183V21.5045H10.5021V20.5043H12.5025V19.5041H11.5023V18.5038H10.5021V15.5032H11.5023V14.5029H14.503V15.5032H15.5032V18.5038H14.503V19.5041H13.5027V20.5043H15.5032V21.5045H16.5034Z" fill="black"/>
<path d="M23.505 15.5031V17.5035H16.5034V15.5031H17.5036V14.5028H19.5041V13.5026H18.5039V12.5024H17.5036V9.50169H18.5039V8.50146H21.5046V9.50169H22.5048V12.5024H21.5046V13.5026H20.5043V14.5028H22.5048V15.5031H23.505Z" fill="black"/>
<path d="M8.50159 15.5031V17.5035H1.5V15.5031H2.50023V14.5028H4.50068V13.5026H3.50045V12.5024H2.50023V9.50169H3.50045V8.50146H6.50114V9.50169H7.50136V12.5024H6.50114V13.5026H5.50091V14.5028H7.50136V15.5031H8.50159Z" fill="black"/>
<path d="M8.50158 3.50049V4.50072H5.5009V7.5014H4.50067V3.50049H8.50158Z" fill="black"/>
<path d="M20.5043 3.50049V7.5014H19.5041V4.50072H15.5032V3.50049H20.5043Z" fill="black"/>
<path d="M15.5032 8.50159V10.502H8.50159V8.50159H9.50181V7.50136H11.5023V6.50114H10.502V5.50091H9.50181V2.50023H10.502V1.5H13.5027V2.50023H14.503V5.50091H13.5027V6.50114H12.5025V7.50136H14.503V8.50159H15.5032Z" fill="black"/>
</svg>
