<svg width="220" height="88" viewBox="0 0 220 88" fill="none" xmlns="http://www.w3.org/2000/svg">
<rect x="0.5" y="0.5" width="219" height="87" rx="4.5" stroke="#9747FF" stroke-dasharray="10 5"/>
<path d="M75.0082 63.0092V65.0097H73.0077V67.0101H41.0005V65.0097H39V33.0024H41.0005V31.002H43.0009V61.0088H45.0014V63.0092H75.0082Z" fill="black"/>
<path d="M81.0095 31.0018V29.0014H69.0068V27.0009H67.0063V25.0005H65.0059V23H49.0023V25.0005H45.0013V59.0082H47.0018V61.0086H81.0095V59.0082H83.01V31.0018H81.0095ZM67.0063 45.005V47.0055H69.0068V49.0059H71.0073V51.0064H73.0077V53.0068H75.0082V55.0073H49.0023V45.005H51.0027V43.0045H53.0032V41.0041H55.0036V39.0036H57.0041V37.0032H59.0045V39.0036H61.005V41.0041H63.0054V43.0045H65.0059V45.005H67.0063ZM49.0023 29.0014H51.0027V27.0009H55.0036V29.0014H57.0041V33.0023H55.0036V35.0027H51.0027V33.0023H49.0023V29.0014ZM81.0095 55.0073H79.0091V53.0068H77.0086V51.0064H75.0082V49.0059H73.0077V47.0055H71.0073V45.005H69.0068V43.0045H67.0063V41.0041H69.0068V39.0036H71.0073V37.0032H73.0077V39.0036H75.0082V41.0041H77.0086V43.0045H79.0091V45.005H81.0095V55.0073Z" fill="black"/>
<path d="M119.504 53.5046V54.5048H118.504V55.5051H102.5V54.5048H101.5V38.5012H102.5V37.501H103.5V52.5044H104.501V53.5046H119.504Z" fill="black"/>
<path d="M122.505 37.5009V36.5007H116.503V35.5005H115.503V34.5002H114.503V33.5H106.501V34.5002H104.501V51.5041H105.501V52.5043H122.505V51.5041H123.505V37.5009H122.505ZM115.503 44.5025V45.5027H116.503V46.503H117.504V47.5032H118.504V48.5034H119.504V49.5036H106.501V44.5025H107.501V43.5023H108.502V42.502H109.502V41.5018H110.502V40.5016H111.502V41.5018H112.502V42.502H113.503V43.5023H114.503V44.5025H115.503ZM106.501 36.5007H107.501V35.5005H109.502V36.5007H110.502V38.5011H109.502V39.5014H107.501V38.5011H106.501V36.5007ZM122.505 49.5036H121.505V48.5034H120.504V47.5032H119.504V46.503H118.504V45.5027H117.504V44.5025H116.503V43.5023H115.503V42.502H116.503V41.5018H117.504V40.5016H118.504V41.5018H119.504V42.502H120.504V43.5023H121.505V44.5025H122.505V49.5036Z" fill="black"/>
<path d="M153.003 50.3366V51.0034H152.336V51.6702H141.667V51.0034H141V40.3343H141.667V39.6675H142.334V49.6698H143V50.3366H153.003Z" fill="black"/>
<path d="M155.003 39.6673V39.0005H151.002V38.3336H150.335V37.6668H149.669V37H144.334V37.6668H143V49.0027H143.667V49.6695H155.003V49.0027H155.67V39.6673H155.003ZM150.335 44.335V45.0018H151.002V45.6686H151.669V46.3355H152.336V47.0023H153.003V47.6691H144.334V44.335H145.001V43.6682H145.668V43.0014H146.335V42.3345H147.001V41.6677H147.668V42.3345H148.335V43.0014H149.002V43.6682H149.669V44.335H150.335ZM144.334 39.0005H145.001V38.3336H146.335V39.0005H147.001V40.3341H146.335V41.0009H145.001V40.3341H144.334V39.0005ZM155.003 47.6691H154.336V47.0023H153.67V46.3355H153.003V45.6686H152.336V45.0018H151.669V44.335H151.002V43.6682H150.335V43.0014H151.002V42.3345H151.669V41.6677H152.336V42.3345H153.003V43.0014H153.67V43.6682H154.336V44.335H155.003V47.6691Z" fill="black"/>
<g clip-path="url(#clip0_884_14518)">
<path d="M181.752 48.7523V49.2524H181.252V49.7525H173.25V49.2524H172.75V41.2506H173.25V40.7505H173.75V48.2522H174.25V48.7523H181.752Z" fill="black"/>
<path d="M183.252 40.7505V40.2503H180.252V39.7502H179.752V39.2501H179.252V38.75H175.251V39.2501H174.25V47.752H174.75V48.2522H183.252V47.752H183.753V40.7505H183.252ZM179.752 44.2513V44.7514H180.252V45.2515H180.752V45.7516H181.252V46.2517H181.752V46.7518H175.251V44.2513H175.751V43.7511H176.251V43.251H176.751V42.7509H177.251V42.2508H177.751V42.7509H178.251V43.251H178.751V43.7511H179.252V44.2513H179.752ZM175.251 40.2503H175.751V39.7502H176.751V40.2503H177.251V41.2506H176.751V41.7507H175.751V41.2506H175.251V40.2503ZM183.252 46.7518H182.752V46.2517H182.252V45.7516H181.752V45.2515H181.252V44.7514H180.752V44.2513H180.252V43.7511H179.752V43.251H180.252V42.7509H180.752V42.2508H181.252V42.7509H181.752V43.251H182.252V43.7511H182.752V44.2513H183.252V46.7518Z" fill="black"/>
</g>
<defs>
<clipPath id="clip0_884_14518">
<rect width="12" height="12" fill="white" transform="translate(172 38)"/>
</clipPath>
</defs>
</svg>
