<svg width="220" height="88" viewBox="0 0 220 88" fill="none" xmlns="http://www.w3.org/2000/svg">
<rect x="0.5" y="0.5" width="219" height="87" rx="4.5" stroke="#9747FF" stroke-dasharray="10 5"/>
<path d="M69.0068 29.0014V27.001H65.0059V31.0019H45.0014V27.001H41.0005V29.0014H39V65.0096H41.0005V67.0101H67.0064V65.0096H65.0059V63.0092H67.0064V61.0087H65.0059V57.0078H67.0064V55.0073H65.0059V53.0069H67.0064V51.0064H69.0068V49.006H71.0073V29.0014H69.0068ZM61.005 57.0078H53.0032V53.0069H61.005V57.0078ZM61.005 63.0092H43.0009V61.0087H61.005V63.0092ZM43.0009 37.0032H45.0014V39.0037H47.0018V37.0032H49.0023V35.0028H51.0027V37.0032H49.0023V39.0037H47.0018V41.0042H45.0014V39.0037H43.0009V37.0032ZM43.0009 45.0051H45.0014V47.0055H47.0018V45.0051H49.0023V43.0046H51.0027V45.0051H49.0023V47.0055H47.0018V49.006H45.0014V47.0055H43.0009V45.0051ZM45.0014 53.0069V55.0073H47.0018V53.0069H49.0023V51.0064H51.0027V53.0069H49.0023V55.0073H47.0018V57.0078H45.0014V55.0073H43.0009V53.0069H45.0014ZM67.0064 47.0055H65.0059V49.006H53.0032V45.0051H67.0064V47.0055ZM67.0064 41.0042H53.0032V37.0032H67.0064V41.0042Z" fill="black"/>
<path d="M83.01 55.0073V53.0068H81.0095V51.0063H79.0091V53.0068H77.0086V51.0063H73.0077V53.0068H71.0073V51.0063H69.0068V53.0068H67.0063V55.0073H69.0068V57.0077H67.0063V61.0086H69.0068V63.0091H67.0063V65.0095H69.0068V67.01H71.0073V65.0095H73.0077V67.01H77.0086V65.0095H79.0091V67.01H81.0095V65.0095H83.01V63.0091H81.0095V61.0086H83.01V57.0077H81.0095V55.0073H83.01ZM77.0086 61.0086H73.0077V57.0077H77.0086V61.0086Z" fill="black"/>
<path d="M63.0055 25.0005V29.0014H47.0018V25.0005H49.0023V23H61.005V25.0005H63.0055Z" fill="black"/>
<path d="M116.503 36.5007V35.5005H114.503V37.5009H104.501V35.5005H102.5V36.5007H101.5V54.5048H102.5V55.505H115.503V54.5048H114.503V53.5046H115.503V52.5044H114.503V50.5039H115.503V49.5037H114.503V48.5034H115.503V47.5032H116.503V46.503H117.504V36.5007H116.503ZM112.503 50.5039H108.502V48.5034H112.503V50.5039ZM112.503 53.5046H103.5V52.5044H112.503V53.5046ZM103.5 40.5016H104.501V41.5019H105.501V40.5016H106.501V39.5014H107.501V40.5016H106.501V41.5019H105.501V42.5021H104.501V41.5019H103.5V40.5016ZM103.5 44.5025H104.501V45.5028H105.501V44.5025H106.501V43.5023H107.501V44.5025H106.501V45.5028H105.501V46.503H104.501V45.5028H103.5V44.5025ZM104.501 48.5034V49.5037H105.501V48.5034H106.501V47.5032H107.501V48.5034H106.501V49.5037H105.501V50.5039H104.501V49.5037H103.5V48.5034H104.501ZM115.503 45.5028H114.503V46.503H108.502V44.5025H115.503V45.5028ZM115.503 42.5021H108.502V40.5016H115.503V42.5021Z" fill="black"/>
<path d="M123.505 49.5034V48.5032H122.505V47.5029H121.505V48.5032H120.504V47.5029H118.504V48.5032H117.504V47.5029H116.503V48.5032H115.503V49.5034H116.503V50.5036H115.503V52.5041H116.503V53.5043H115.503V54.5045H116.503V55.5047H117.504V54.5045H118.504V55.5047H120.504V54.5045H121.505V55.5047H122.505V54.5045H123.505V53.5043H122.505V52.5041H123.505V50.5036H122.505V49.5034H123.505ZM120.504 52.5041H118.504V50.5036H120.504V52.5041Z" fill="black"/>
<path d="M113.503 34.5002V36.5007H105.501V34.5002H106.501V33.5H112.502V34.5002H113.503Z" fill="black"/>
<path d="M151.002 39.0003V38.3335H149.669V39.6671H143V38.3335H141.667V39.0003H141V51.003H141.667V51.6699H150.335V51.003H149.669V50.3362H150.335V49.6694H149.669V48.3358H150.335V47.669H149.669V47.0021H150.335V46.3353H151.002V45.6685H151.669V39.0003H151.002ZM148.335 48.3358H145.668V47.0021H148.335V48.3358ZM148.335 50.3362H142.334V49.6694H148.335V50.3362ZM142.334 41.6676H143V42.3344H143.667V41.6676H144.334V41.0008H145.001V41.6676H144.334V42.3344H143.667V43.0012H143V42.3344H142.334V41.6676ZM142.334 44.3349H143V45.0017H143.667V44.3349H144.334V43.668H145.001V44.3349H144.334V45.0017H143.667V45.6685H143V45.0017H142.334V44.3349ZM143 47.0021V47.669H143.667V47.0021H144.334V46.3353H145.001V47.0021H144.334V47.669H143.667V48.3358H143V47.669H142.334V47.0021H143ZM150.335 45.0017H149.669V45.6685H145.668V44.3349H150.335V45.0017ZM150.335 43.0012H145.668V41.6676H150.335V43.0012Z" fill="black"/>
<path d="M155.67 47.6691V47.0023H155.003V46.3354H154.336V47.0023H153.67V46.3354H152.336V47.0023H151.669V46.3354H151.002V47.0023H150.335V47.6691H151.002V48.3359H150.335V49.6695H151.002V50.3364H150.335V51.0032H151.002V51.67H151.669V51.0032H152.336V51.67H153.67V51.0032H154.336V51.67H155.003V51.0032H155.67V50.3364H155.003V49.6695H155.67V48.3359H155.003V47.6691H155.67ZM153.67 49.6695H152.336V48.3359H153.67V49.6695Z" fill="black"/>
<path d="M149.002 37.6668V39.0005H143.667V37.6668H144.334V37H148.335V37.6668H149.002Z" fill="black"/>
<g clip-path="url(#clip0_884_14467)">
<path d="M180.252 40.2501V39.75H179.251V40.7502H174.25V39.75H173.25V40.2501H172.75V49.2522H173.25V49.7523H179.752V49.2522H179.251V48.752H179.752V48.2519H179.251V47.2517H179.752V46.7516H179.251V46.2515H179.752V45.7514H180.252V45.2512H180.752V40.2501H180.252ZM178.251 47.2517H176.251V46.2515H178.251V47.2517ZM178.251 48.752H173.75V48.2519H178.251V48.752ZM173.75 42.2506H174.25V42.7507H174.75V42.2506H175.251V41.7505H175.751V42.2506H175.251V42.7507H174.75V43.2508H174.25V42.7507H173.75V42.2506ZM173.75 44.251H174.25V44.7511H174.75V44.251H175.251V43.7509H175.751V44.251H175.251V44.7511H174.75V45.2512H174.25V44.7511H173.75V44.251ZM174.25 46.2515V46.7516H174.75V46.2515H175.251V45.7514H175.751V46.2515H175.251V46.7516H174.75V47.2517H174.25V46.7516H173.75V46.2515H174.25ZM179.752 44.7511H179.251V45.2512H176.251V44.251H179.752V44.7511ZM179.752 43.2508H176.251V42.2506H179.752V43.2508Z" fill="black"/>
<path d="M183.752 46.7517V46.2516H183.252V45.7515H182.752V46.2516H182.252V45.7515H181.252V46.2516H180.752V45.7515H180.252V46.2516H179.752V46.7517H180.252V47.2518H179.752V48.252H180.252V48.7521H179.752V49.2523H180.252V49.7524H180.752V49.2523H181.252V49.7524H182.252V49.2523H182.752V49.7524H183.252V49.2523H183.752V48.7521H183.252V48.252H183.752V47.2518H183.252V46.7517H183.752ZM182.252 48.252H181.252V47.2518H182.252V48.252Z" fill="black"/>
<path d="M178.751 39.2501V40.2503H174.75V39.2501H175.251V38.75H178.251V39.2501H178.751Z" fill="black"/>
</g>
<defs>
<clipPath id="clip0_884_14467">
<rect width="12" height="12" fill="white" transform="translate(172 38)"/>
</clipPath>
</defs>
</svg>
