<svg width="24" height="24" viewBox="0 0 24 24" fill="none" xmlns="http://www.w3.org/2000/svg">
<path d="M16.5034 4.50072V3.50049H14.503V5.50094H4.50068V3.50049H2.50023V4.50072H1.5V22.5048H2.50023V23.505H15.5032V22.5048H14.503V21.5046H15.5032V20.5044H14.503V18.5039H15.5032V17.5037H14.503V16.5034H15.5032V15.5032H16.5034V14.503H17.5036V4.50072H16.5034ZM12.5025 18.5039H8.50159V16.5034H12.5025V18.5039ZM12.5025 21.5046H3.50045V20.5044H12.5025V21.5046ZM3.50045 8.50162H4.50068V9.50185H5.50091V8.50162H6.50114V7.5014H7.50136V8.50162H6.50114V9.50185H5.50091V10.5021H4.50068V9.50185H3.50045V8.50162ZM3.50045 12.5025H4.50068V13.5028H5.50091V12.5025H6.50114V11.5023H7.50136V12.5025H6.50114V13.5028H5.50091V14.503H4.50068V13.5028H3.50045V12.5025ZM4.50068 16.5034V17.5037H5.50091V16.5034H6.50114V15.5032H7.50136V16.5034H6.50114V17.5037H5.50091V18.5039H4.50068V17.5037H3.50045V16.5034H4.50068ZM15.5032 13.5028H14.503V14.503H8.50159V12.5025H15.5032V13.5028ZM15.5032 10.5021H8.50159V8.50162H15.5032V10.5021Z" fill="black"/>
<path d="M23.505 17.5034V16.5032H22.5048V15.5029H21.5045V16.5032H20.5043V15.5029H18.5039V16.5032H17.5036V15.5029H16.5034V16.5032H15.5032V17.5034H16.5034V18.5036H15.5032V20.5041H16.5034V21.5043H15.5032V22.5045H16.5034V23.5047H17.5036V22.5045H18.5039V23.5047H20.5043V22.5045H21.5045V23.5047H22.5048V22.5045H23.505V21.5043H22.5048V20.5041H23.505V18.5036H22.5048V17.5034H23.505ZM20.5043 20.5041H18.5039V18.5036H20.5043V20.5041Z" fill="black"/>
<path d="M13.5027 2.50023V4.50068H5.50085V2.50023H6.50108V1.5H12.5024V2.50023H13.5027Z" fill="black"/>
</svg>
