<svg width="24" height="24" viewBox="0 0 24 24" fill="none" xmlns="http://www.w3.org/2000/svg">
<path d="M1.5 6.50098V21.5044H2.50023V22.5046H3.50045V23.5048H21.5045V22.5046H22.5048V21.5044H23.505V6.50098H1.5ZM9.50182 9.50166H8.50159V10.5019H7.50136V12.5023H6.50114V13.5026H5.50091V15.503H6.50114V16.5033H7.50136V18.5037H8.50159V19.5039H9.50182V20.5042H7.50136V19.5039H6.50114V18.5037H5.50091V16.5033H4.50068V15.503H3.50045V13.5026H4.50068V12.5023H5.50091V10.5019H6.50114V9.50166H7.50136V8.50143H9.50182V9.50166ZM14.503 12.5023H13.5027V16.5033H12.5025V20.5042H11.5023V21.5044H10.502V16.5033H11.5023V13.5026H12.5025V8.50143H13.5027V7.5012H14.503V12.5023ZM21.5045 15.503H20.5043V16.5033H19.5041V18.5037H18.5039V19.5039H17.5036V20.5042H15.5032V19.5039H16.5034V18.5037H17.5036V16.5033H18.5039V15.503H19.5041V13.5026H18.5039V12.5023H17.5036V10.5019H16.5034V9.50166H15.5032V8.50143H17.5036V9.50166H18.5039V10.5019H19.5041V12.5023H20.5043V13.5026H21.5045V15.503Z" fill="black"/>
<path d="M22.5048 3.50045V2.50023H21.5045V1.5H3.50045V2.50023H2.50023V3.50045H1.5V5.50091H23.505V3.50045H22.5048ZM4.50068 4.50068V2.50023H6.50114V4.50068H4.50068ZM7.50136 4.50068V2.50023H9.50182V4.50068H7.50136ZM10.502 4.50068V2.50023H12.5025V4.50068H10.502Z" fill="black"/>
</svg>
