<svg width="220" height="88" viewBox="0 0 220 88" fill="none" xmlns="http://www.w3.org/2000/svg">
<rect x="0.5" y="0.5" width="219" height="87" rx="4.5" stroke="#9747FF" stroke-dasharray="10 5"/>
<path d="M39 33.0024V63.0093H41.0005V65.0097H43.0009V67.0102H79.0091V65.0097H81.0095V63.0093H83.01V33.0024H39ZM55.0036 39.0038H53.0032V41.0043H51.0027V45.0052H49.0023V47.0056H47.0018V51.0065H49.0023V53.007H51.0027V57.0079H53.0032V59.0084H55.0036V61.0088H51.0027V59.0084H49.0023V57.0079H47.0018V53.007H45.0014V51.0065H43.0009V47.0056H45.0014V45.0052H47.0018V41.0043H49.0023V39.0038H51.0027V37.0034H55.0036V39.0038ZM65.0059 45.0052H63.0055V53.007H61.005V61.0088H59.0045V63.0093H57.0041V53.007H59.0045V47.0056H61.005V37.0034H63.0055V35.0029H65.0059V45.0052ZM79.0091 51.0065H77.0086V53.007H75.0082V57.0079H73.0077V59.0084H71.0073V61.0088H67.0064V59.0084H69.0068V57.0079H71.0073V53.007H73.0077V51.0065H75.0082V47.0056H73.0077V45.0052H71.0073V41.0043H69.0068V39.0038H67.0064V37.0034H71.0073V39.0038H73.0077V41.0043H75.0082V45.0052H77.0086V47.0056H79.0091V51.0065Z" fill="black"/>
<path d="M81.0095 27.0009V25.0005H79.0091V23H43.0009V25.0005H41.0005V27.0009H39V31.0018H83.01V27.0009H81.0095ZM45.0014 29.0014V25.0005H49.0023V29.0014H45.0014ZM51.0027 29.0014V25.0005H55.0036V29.0014H51.0027ZM57.0041 29.0014V25.0005H61.005V29.0014H57.0041Z" fill="black"/>
<path d="M101.5 38.501V53.5044H102.5V54.5046H103.5V55.5048H121.505V54.5046H122.505V53.5044H123.505V38.501H101.5ZM109.502 41.5017H108.502V42.5019H107.501V44.5023H106.501V45.5026H105.501V47.503H106.501V48.5033H107.501V50.5037H108.502V51.5039H109.502V52.5042H107.501V51.5039H106.501V50.5037H105.501V48.5033H104.501V47.503H103.5V45.5026H104.501V44.5023H105.501V42.5019H106.501V41.5017H107.501V40.5014H109.502V41.5017ZM114.503 44.5023H113.503V48.5033H112.503V52.5042H111.502V53.5044H110.502V48.5033H111.502V45.5026H112.503V40.5014H113.503V39.5012H114.503V44.5023ZM121.505 47.503H120.504V48.5033H119.504V50.5037H118.504V51.5039H117.504V52.5042H115.503V51.5039H116.503V50.5037H117.504V48.5033H118.504V47.503H119.504V45.5026H118.504V44.5023H117.504V42.5019H116.503V41.5017H115.503V40.5014H117.504V41.5017H118.504V42.5019H119.504V44.5023H120.504V45.5026H121.505V47.503Z" fill="black"/>
<path d="M122.505 35.5005V34.5002H121.505V33.5H103.5V34.5002H102.5V35.5005H101.5V37.5009H123.505V35.5005H122.505ZM104.501 36.5007V34.5002H106.501V36.5007H104.501ZM107.501 36.5007V34.5002H109.502V36.5007H107.501ZM110.502 36.5007V34.5002H112.503V36.5007H110.502Z" fill="black"/>
<path d="M141 40.334V50.3363H141.667V51.0031H142.334V51.6699H154.336V51.0031H155.003V50.3363H155.67V40.334H141ZM146.335 42.3344H145.668V43.0013H145.001V44.3349H144.334V45.0017H143.667V46.3353H144.334V47.0022H145.001V48.3358H145.668V49.0026H146.335V49.6694H145.001V49.0026H144.334V48.3358H143.667V47.0022H143V46.3353H142.334V45.0017H143V44.3349H143.667V43.0013H144.334V42.3344H145.001V41.6676H146.335V42.3344ZM149.669 44.3349H149.002V47.0022H148.335V49.6694H147.668V50.3363H147.001V47.0022H147.668V45.0017H148.335V41.6676H149.002V41.0008H149.669V44.3349ZM154.336 46.3353H153.67V47.0022H153.003V48.3358H152.336V49.0026H151.669V49.6694H150.335V49.0026H151.002V48.3358H151.669V47.0022H152.336V46.3353H153.003V45.0017H152.336V44.3349H151.669V43.0013H151.002V42.3344H150.335V41.6676H151.669V42.3344H152.336V43.0013H153.003V44.3349H153.67V45.0017H154.336V46.3353Z" fill="black"/>
<path d="M155.003 38.3336V37.6668H154.336V37H142.334V37.6668H141.667V38.3336H141V39.6673H155.67V38.3336H155.003ZM143 39.0005V37.6668H144.334V39.0005H143ZM145.001 39.0005V37.6668H146.335V39.0005H145.001ZM147.001 39.0005V37.6668H148.335V39.0005H147.001Z" fill="black"/>
<g clip-path="url(#clip0_884_14472)">
<path d="M172.75 41.2505V48.7522H173.25V49.2523H173.75V49.7524H182.752V49.2523H183.252V48.7522H183.753V41.2505H172.75ZM176.751 42.7508H176.251V43.2509H175.751V44.2512H175.251V44.7513H174.75V45.7515H175.251V46.2516H175.751V47.2519H176.251V47.752H176.751V48.2521H175.751V47.752H175.251V47.2519H174.75V46.2516H174.25V45.7515H173.75V44.7513H174.25V44.2512H174.75V43.2509H175.251V42.7508H175.751V42.2507H176.751V42.7508ZM179.251 44.2512H178.751V46.2516H178.251V48.2521H177.751V48.7522H177.251V46.2516H177.751V44.7513H178.251V42.2507H178.751V41.7506H179.251V44.2512ZM182.752 45.7515H182.252V46.2516H181.752V47.2519H181.252V47.752H180.752V48.2521H179.752V47.752H180.252V47.2519H180.752V46.2516H181.252V45.7515H181.752V44.7513H181.252V44.2512H180.752V43.2509H180.252V42.7508H179.752V42.2507H180.752V42.7508H181.252V43.2509H181.752V44.2512H182.252V44.7513H182.752V45.7515Z" fill="black"/>
<path d="M183.252 39.7502V39.2501H182.752V38.75H173.75V39.2501H173.25V39.7502H172.75V40.7505H183.753V39.7502H183.252ZM174.25 40.2503V39.2501H175.251V40.2503H174.25ZM175.751 40.2503V39.2501H176.751V40.2503H175.751ZM177.251 40.2503V39.2501H178.251V40.2503H177.251Z" fill="black"/>
</g>
<defs>
<clipPath id="clip0_884_14472">
<rect width="12" height="12" fill="white" transform="translate(172 38)"/>
</clipPath>
</defs>
</svg>
