<svg width="24" height="24" viewBox="0 0 24 24" fill="none" xmlns="http://www.w3.org/2000/svg">
<path d="M13.5028 16.5034H11.5023V17.5036H13.5028V16.5034Z" fill="black"/>
<path d="M16.5034 17.5034V19.5039H8.50159V17.5034H11.5023V18.5036H13.5027V17.5034H16.5034Z" fill="black"/>
<path d="M17.5036 13.5029V16.5036H14.5029V15.5034H10.502V16.5036H7.50134V13.5029H17.5036Z" fill="black"/>
<path d="M13.5028 11.5024H11.5023V12.5027H13.5028V11.5024Z" fill="black"/>
<path d="M7.50141 3.50049V5.50094H6.50119V6.50117H5.50096V7.5014H4.50073V3.50049H7.50141Z" fill="black"/>
<path d="M22.5048 11.5023V10.502H21.5045V9.50182H20.5043V8.50159H19.5041V7.50136H18.5039V6.50114H17.5036V5.50091H16.5034V4.50068H15.5032V3.50045H14.503V2.50023H13.5027V1.5H11.5023V2.50023H10.502V3.50045H9.50182V4.50068H8.50159V5.50091H7.50136V6.50114H6.50114V7.50136H5.50091V8.50159H4.50068V9.50182H3.50045V10.502H2.50023V11.5023H1.5V12.5025H4.50068V23.505H20.5043V12.5025H23.505V11.5023H22.5048ZM18.5039 17.5036H17.5036V19.5041H16.5034V20.5043H8.50159V19.5041H7.50136V17.5036H6.50114V13.5027H7.50136V12.5025H10.502V10.502H14.503V12.5025H17.5036V13.5027H18.5039V17.5036Z" fill="black"/>
</svg>
