<svg width="220" height="88" viewBox="0 0 220 88" fill="none" xmlns="http://www.w3.org/2000/svg">
<rect x="0.5" y="0.5" width="219" height="87" rx="4.5" stroke="#9747FF" stroke-dasharray="10 5"/>
<path d="M63.0054 53.0068H59.0045V55.0073H63.0054V53.0068Z" fill="black"/>
<path d="M69.0068 55.0073V59.0082H53.0032V55.0073H59.0045V57.0078H63.0054V55.0073H69.0068Z" fill="black"/>
<path d="M71.0072 47.0054V53.0067H65.0059V51.0063H57.004V53.0067H51.0027V47.0054H71.0072Z" fill="black"/>
<path d="M63.0054 43.0044H59.0045V45.0048H63.0054V43.0044Z" fill="black"/>
<path d="M51.0027 27.001V31.0019H49.0023V33.0023H47.0018V35.0028H45.0013V27.001H51.0027Z" fill="black"/>
<path d="M81.0095 43.0045V41.0041H79.0091V39.0036H77.0086V37.0032H75.0082V35.0027H73.0077V33.0023H71.0073V31.0018H69.0068V29.0014H67.0064V27.0009H65.0059V25.0005H63.0055V23H59.0045V25.0005H57.0041V27.0009H55.0036V29.0014H53.0032V31.0018H51.0027V33.0023H49.0023V35.0027H47.0018V37.0032H45.0014V39.0036H43.0009V41.0041H41.0005V43.0045H39V45.005H45.0014V67.01H77.0086V45.005H83.01V43.0045H81.0095ZM73.0077 55.0073H71.0073V59.0082H69.0068V61.0086H53.0032V59.0082H51.0027V55.0073H49.0023V47.0055H51.0027V45.005H57.0041V41.0041H65.0059V45.005H71.0073V47.0055H73.0077V55.0073Z" fill="black"/>
<path d="M113.503 48.5034H111.502V49.5036H113.503V48.5034Z" fill="black"/>
<path d="M116.503 49.5034V51.5039H108.502V49.5034H111.502V50.5036H113.503V49.5034H116.503Z" fill="black"/>
<path d="M117.504 45.5029V48.5036H114.503V47.5034H110.502V48.5036H107.501V45.5029H117.504Z" fill="black"/>
<path d="M113.503 43.5024H111.502V44.5027H113.503V43.5024Z" fill="black"/>
<path d="M107.501 35.5005V37.5009H106.501V38.5012H105.501V39.5014H104.501V35.5005H107.501Z" fill="black"/>
<path d="M122.505 43.5023V42.502H121.505V41.5018H120.504V40.5016H119.504V39.5014H118.504V38.5011H117.504V37.5009H116.503V36.5007H115.503V35.5005H114.503V34.5002H113.503V33.5H111.502V34.5002H110.502V35.5005H109.502V36.5007H108.502V37.5009H107.501V38.5011H106.501V39.5014H105.501V40.5016H104.501V41.5018H103.5V42.502H102.5V43.5023H101.5V44.5025H104.501V55.505H120.504V44.5025H123.505V43.5023H122.505ZM118.504 49.5036H117.504V51.5041H116.503V52.5043H108.502V51.5041H107.501V49.5036H106.501V45.5027H107.501V44.5025H110.502V42.502H114.503V44.5025H117.504V45.5027H118.504V49.5036Z" fill="black"/>
<path d="M149.002 47.0024H147.668V47.6693H149.002V47.0024Z" fill="black"/>
<path d="M151.002 47.6689V49.0026H145.668V47.6689H147.668V48.3358H149.002V47.6689H151.002Z" fill="black"/>
<path d="M151.669 45.002V47.0024H149.669V46.3356H147.001V47.0024H145.001V45.002H151.669Z" fill="black"/>
<path d="M149.002 43.668H147.668V44.3348H149.002V43.668Z" fill="black"/>
<path d="M145.001 38.3335V39.6671H144.334V40.334H143.667V41.0008H143V38.3335H145.001Z" fill="black"/>
<path d="M155.003 43.6682V43.0014H154.336V42.3345H153.67V41.6677H153.003V41.0009H152.336V40.3341H151.669V39.6673H151.002V39.0005H150.335V38.3336H149.669V37.6668H149.002V37H147.668V37.6668H147.001V38.3336H146.335V39.0005H145.668V39.6673H145.001V40.3341H144.334V41.0009H143.667V41.6677H143V42.3345H142.334V43.0014H141.667V43.6682H141V44.335H143V51.67H153.67V44.335H155.67V43.6682H155.003ZM152.336 47.6691H151.669V49.0027H151.002V49.6695H145.668V49.0027H145.001V47.6691H144.334V45.0018H145.001V44.335H147.001V43.0014H149.669V44.335H151.669V45.0018H152.336V47.6691Z" fill="black"/>
<g clip-path="url(#clip0_884_14477)">
<path d="M178.751 46.2515H177.751V46.7516H178.751V46.2515Z" fill="black"/>
<path d="M180.252 46.752V47.7522H176.251V46.752H177.751V47.2521H178.751V46.752H180.252Z" fill="black"/>
<path d="M180.752 44.7515V46.2518H179.252V45.7517H177.251V46.2518H175.751V44.7515H180.752Z" fill="black"/>
<path d="M178.751 43.751H177.751V44.2511H178.751V43.751Z" fill="black"/>
<path d="M175.751 39.75V40.7502H175.25V41.2503H174.75V41.7505H174.25V39.75H175.751Z" fill="black"/>
<path d="M183.252 43.7511V43.251H182.752V42.7509H182.252V42.2508H181.752V41.7507H181.252V41.2506H180.752V40.7505H180.252V40.2503H179.752V39.7502H179.251V39.2501H178.751V38.75H177.751V39.2501H177.251V39.7502H176.751V40.2503H176.251V40.7505H175.751V41.2506H175.251V41.7507H174.75V42.2508H174.25V42.7509H173.75V43.251H173.25V43.7511H172.75V44.2513H174.25V49.7525H182.252V44.2513H183.753V43.7511H183.252ZM181.252 46.7518H180.752V47.752H180.252V48.2522H176.251V47.752H175.751V46.7518H175.251V44.7514H175.751V44.2513H177.251V43.251H179.251V44.2513H180.752V44.7514H181.252V46.7518Z" fill="black"/>
</g>
<defs>
<clipPath id="clip0_884_14477">
<rect width="12" height="12" fill="white" transform="translate(172 38)"/>
</clipPath>
</defs>
</svg>
