<svg width="220" height="88" viewBox="0 0 220 88" fill="none" xmlns="http://www.w3.org/2000/svg">
<rect x="0.5" y="0.5" width="219" height="87" rx="4.5" stroke="#9747FF" stroke-dasharray="10 5"/>
<path d="M41.0005 61.0088H39V65.0097H41.0005V61.0088Z" fill="black"/>
<path d="M43.0009 57.0078H41.0004V61.0087H43.0009V57.0078Z" fill="black"/>
<path d="M45.0014 53.0068H43.0009V57.0077H45.0014V53.0068Z" fill="black"/>
<path d="M47.0018 51.0063H45.0014V53.0068H47.0018V51.0063Z" fill="black"/>
<path d="M49.0023 49.0059H47.0018V51.0063H49.0023V49.0059Z" fill="black"/>
<path d="M51.0027 47.0054H49.0022V49.0058H51.0027V47.0054Z" fill="black"/>
<path d="M53.0032 45.0049H51.0027V47.0053H53.0032V45.0049Z" fill="black"/>
<path d="M67.0064 45.0049H65.0059V47.0053H67.0064V45.0049Z" fill="black"/>
<path d="M69.0068 47.0054H67.0063V49.0058H69.0068V47.0054Z" fill="black"/>
<path d="M71.0072 49.0059H69.0068V51.0063H71.0072V49.0059Z" fill="black"/>
<path d="M73.0077 51.0063H71.0073V53.0068H73.0077V51.0063Z" fill="black"/>
<path d="M75.0082 53.0068H73.0077V57.0077H75.0082V53.0068Z" fill="black"/>
<path d="M77.0086 57.0078H75.0081V61.0087H77.0086V57.0078Z" fill="black"/>
<path d="M79.0091 61.0088H77.0087V65.0097H79.0091V61.0088Z" fill="black"/>
<path d="M77.0086 65.0098H41.0004V67.0102H77.0086V65.0098Z" fill="black"/>
<path d="M73.0078 61.0086V57.0076H71.0073V53.0067H69.0069V51.0063H67.0064V49.0058H65.0059V47.0054H59.0046V49.0058H57.0041V51.0063H49.0023V53.0067H47.0019V57.0076H45.0014V61.0086H43.0009V63.009H75.0082V61.0086H73.0078ZM51.0028 55.0072H55.0037V59.0081H51.0028V55.0072ZM59.0046 53.0067H61.005V55.0072H59.0046V53.0067Z" fill="black"/>
<path d="M65.0059 27.001H63.0055V45.0051H65.0059V27.001Z" fill="black"/>
<path d="M55.0036 27.001H53.0032V45.0051H55.0036V27.001Z" fill="black"/>
<path d="M67.0064 25.0005H65.0059V27.0009H67.0064V25.0005Z" fill="black"/>
<path d="M53.0032 25.0005H51.0027V27.0009H53.0032V25.0005Z" fill="black"/>
<path d="M65.0059 23H53.0032V25.0005H65.0059V23Z" fill="black"/>
<path d="M102.5 52.5044H101.5V54.5048H102.5V52.5044Z" fill="black"/>
<path d="M103.5 50.5039H102.5V52.5044H103.5V50.5039Z" fill="black"/>
<path d="M104.501 48.5034H103.5V50.5039H104.501V48.5034Z" fill="black"/>
<path d="M105.501 47.5029H104.501V48.5032H105.501V47.5029Z" fill="black"/>
<path d="M106.501 46.5029H105.501V47.5032H106.501V46.5029Z" fill="black"/>
<path d="M107.501 45.5029H106.501V46.5032H107.501V45.5029Z" fill="black"/>
<path d="M108.502 44.5024H107.501V45.5027H108.502V44.5024Z" fill="black"/>
<path d="M115.503 44.5024H114.503V45.5027H115.503V44.5024Z" fill="black"/>
<path d="M116.503 45.5029H115.503V46.5032H116.503V45.5029Z" fill="black"/>
<path d="M117.504 46.5029H116.503V47.5032H117.504V46.5029Z" fill="black"/>
<path d="M118.504 47.5029H117.504V48.5032H118.504V47.5029Z" fill="black"/>
<path d="M119.504 48.5034H118.504V50.5039H119.504V48.5034Z" fill="black"/>
<path d="M120.504 50.5039H119.504V52.5044H120.504V50.5039Z" fill="black"/>
<path d="M121.505 52.5044H120.504V54.5048H121.505V52.5044Z" fill="black"/>
<path d="M120.504 54.5049H102.5V55.5051H120.504V54.5049Z" fill="black"/>
<path d="M118.504 52.5045V50.5041H117.504V48.5036H116.503V47.5034H115.503V46.5032H114.503V45.5029H111.502V46.5032H110.502V47.5034H106.501V48.5036H105.501V50.5041H104.501V52.5045H103.5V53.5047H119.504V52.5045H118.504ZM107.501 49.5038H109.502V51.5043H107.501V49.5038ZM111.502 48.5036H112.503V49.5038H111.502V48.5036Z" fill="black"/>
<path d="M114.503 35.5005H113.503V44.5025H114.503V35.5005Z" fill="black"/>
<path d="M109.502 35.5005H108.502V44.5025H109.502V35.5005Z" fill="black"/>
<path d="M115.503 34.5H114.503V35.5002H115.503V34.5Z" fill="black"/>
<path d="M108.502 34.5H107.501V35.5002H108.502V34.5Z" fill="black"/>
<path d="M114.503 33.5H108.502V34.5002H114.503V33.5Z" fill="black"/>
<path d="M141.667 49.6694H141V51.0031H141.667V49.6694Z" fill="black"/>
<path d="M142.334 48.3359H141.667V49.6696H142.334V48.3359Z" fill="black"/>
<path d="M143 47.0024H142.334V48.3361H143V47.0024Z" fill="black"/>
<path d="M143.667 46.3354H143V47.0023H143.667V46.3354Z" fill="black"/>
<path d="M144.334 45.6685H143.667V46.3353H144.334V45.6685Z" fill="black"/>
<path d="M145.001 45.002H144.334V45.6688H145.001V45.002Z" fill="black"/>
<path d="M145.668 44.335H145.001V45.0018H145.668V44.335Z" fill="black"/>
<path d="M150.335 44.335H149.669V45.0018H150.335V44.335Z" fill="black"/>
<path d="M151.002 45.002H150.335V45.6688H151.002V45.002Z" fill="black"/>
<path d="M151.669 45.6685H151.002V46.3353H151.669V45.6685Z" fill="black"/>
<path d="M152.336 46.3354H151.669V47.0023H152.336V46.3354Z" fill="black"/>
<path d="M153.003 47.0024H152.336V48.3361H153.003V47.0024Z" fill="black"/>
<path d="M153.67 48.3359H153.003V49.6696H153.67V48.3359Z" fill="black"/>
<path d="M154.336 49.6694H153.67V51.0031H154.336V49.6694Z" fill="black"/>
<path d="M153.67 51.0034H141.667V51.6702H153.67V51.0034Z" fill="black"/>
<path d="M152.336 49.6697V48.336H151.669V47.0024H151.002V46.3356H150.335V45.6688H149.669V45.002H147.668V45.6688H147.001V46.3356H144.334V47.0024H143.667V48.336H143V49.6697H142.334V50.3365H153.003V49.6697H152.336ZM145.001 47.6692H146.335V49.0029H145.001V47.6692ZM147.668 47.0024H148.335V47.6692H147.668V47.0024Z" fill="black"/>
<path d="M149.669 38.3335H149.002V44.3349H149.669V38.3335Z" fill="black"/>
<path d="M146.335 38.3335H145.668V44.3349H146.335V38.3335Z" fill="black"/>
<path d="M150.335 37.667H149.669V38.3338H150.335V37.667Z" fill="black"/>
<path d="M145.668 37.667H145.001V38.3338H145.668V37.667Z" fill="black"/>
<path d="M149.669 37H145.668V37.6668H149.669V37Z" fill="black"/>
<path d="M173.25 48.252H172.75V49.2522H173.25V48.252Z" fill="black"/>
<path d="M173.75 47.252H173.25V48.2522H173.75V47.252Z" fill="black"/>
<path d="M174.25 46.2515H173.75V47.2517H174.25V46.2515Z" fill="black"/>
<path d="M174.75 45.7515H174.25V46.2516H174.75V45.7515Z" fill="black"/>
<path d="M175.251 45.2515H174.75V45.7516H175.251V45.2515Z" fill="black"/>
<path d="M175.751 44.7515H175.251V45.2516H175.751V44.7515Z" fill="black"/>
<path d="M176.251 44.2515H175.751V44.7516H176.251V44.2515Z" fill="black"/>
<path d="M179.752 44.2515H179.251V44.7516H179.752V44.2515Z" fill="black"/>
<path d="M180.252 44.7515H179.752V45.2516H180.252V44.7515Z" fill="black"/>
<path d="M180.752 45.2515H180.252V45.7516H180.752V45.2515Z" fill="black"/>
<path d="M181.252 45.7515H180.752V46.2516H181.252V45.7515Z" fill="black"/>
<path d="M181.752 46.2515H181.252V47.2517H181.752V46.2515Z" fill="black"/>
<path d="M182.252 47.252H181.752V48.2522H182.252V47.252Z" fill="black"/>
<path d="M182.752 48.252H182.252V49.2522H182.752V48.252Z" fill="black"/>
<path d="M182.252 49.2524H173.25V49.7526H182.252V49.2524Z" fill="black"/>
<path d="M181.252 48.2523V47.252H180.752V46.2518H180.252V45.7517H179.752V45.2516H179.251V44.7515H177.751V45.2516H177.251V45.7517H175.251V46.2518H174.75V47.252H174.25V48.2523H173.75V48.7524H181.752V48.2523H181.252ZM175.751 46.7519H176.751V47.7521H175.751V46.7519ZM177.751 46.2518H178.251V46.7519H177.751V46.2518Z" fill="black"/>
<path d="M179.251 39.75H178.751V44.251H179.251V39.75Z" fill="black"/>
<path d="M176.751 39.75H176.251V44.251H176.751V39.75Z" fill="black"/>
<path d="M179.752 39.25H179.251V39.7501H179.752V39.25Z" fill="black"/>
<path d="M176.251 39.25H175.751V39.7501H176.251V39.25Z" fill="black"/>
<path d="M179.251 38.75H176.251V39.2501H179.251V38.75Z" fill="black"/>
</svg>
