<svg width="24" height="24" viewBox="0 0 24 24" fill="none" xmlns="http://www.w3.org/2000/svg">
<path d="M2.50023 20.5044H1.5V22.5048H2.50023V20.5044Z" fill="black"/>
<path d="M3.50044 18.5039H2.50021V20.5044H3.50044V18.5039Z" fill="black"/>
<path d="M4.5007 16.5034H3.50047V18.5039H4.5007V16.5034Z" fill="black"/>
<path d="M5.50091 15.5029H4.50069V16.5032H5.50091V15.5029Z" fill="black"/>
<path d="M6.50113 14.5029H5.5009V15.5032H6.50113V14.5029Z" fill="black"/>
<path d="M7.50134 13.5029H6.50111V14.5032H7.50134V13.5029Z" fill="black"/>
<path d="M8.5016 12.5024H7.50137V13.5027H8.5016V12.5024Z" fill="black"/>
<path d="M15.5032 12.5024H14.503V13.5027H15.5032V12.5024Z" fill="black"/>
<path d="M16.5034 13.5029H15.5032V14.5032H16.5034V13.5029Z" fill="black"/>
<path d="M17.5036 14.5029H16.5034V15.5032H17.5036V14.5029Z" fill="black"/>
<path d="M18.5039 15.5029H17.5036V16.5032H18.5039V15.5029Z" fill="black"/>
<path d="M19.5041 16.5034H18.5039V18.5039H19.5041V16.5034Z" fill="black"/>
<path d="M20.5043 18.5039H19.5041V20.5044H20.5043V18.5039Z" fill="black"/>
<path d="M21.5046 20.5044H20.5043V22.5048H21.5046V20.5044Z" fill="black"/>
<path d="M20.5043 22.5049H2.50021V23.5051H20.5043V22.5049Z" fill="black"/>
<path d="M18.5039 20.5045V18.5041H17.5037V16.5036H16.5034V15.5034H15.5032V14.5032H14.503V13.5029H11.5023V14.5032H10.5021V15.5034H6.50115V16.5036H5.50093V18.5041H4.5007V20.5045H3.50047V21.5047H19.5041V20.5045H18.5039ZM7.50138 17.5038H9.50184V19.5043H7.50138V17.5038ZM11.5023 16.5036H12.5025V17.5038H11.5023V16.5036Z" fill="black"/>
<path d="M14.503 3.50049H13.5027V12.5025H14.503V3.50049Z" fill="black"/>
<path d="M9.50181 3.50049H8.50159V12.5025H9.50181V3.50049Z" fill="black"/>
<path d="M15.5032 2.5H14.503V3.50023H15.5032V2.5Z" fill="black"/>
<path d="M8.5016 2.5H7.50137V3.50023H8.5016V2.5Z" fill="black"/>
<path d="M14.503 1.5H8.50159V2.50023H14.503V1.5Z" fill="black"/>
</svg>
