<svg width="220" height="88" viewBox="0 0 220 88" fill="none" xmlns="http://www.w3.org/2000/svg">
<rect x="0.5" y="0.5" width="219" height="87" rx="4.5" stroke="#9747FF" stroke-dasharray="10 5"/>
<path d="M59.0046 39.0034H57.0041V41.0039H59.0046V39.0034Z" fill="black"/>
<path d="M67.0064 39.0034H65.0059V41.0039H67.0064V39.0034Z" fill="black"/>
<path d="M81.0095 39.0036V35.0027H79.0091V31.0018H77.0086V29.0014H75.0082V27.0009H71.0073V25.0005H67.0064V23H55.0036V25.0005H51.0027V27.0009H47.0018V29.0014H45.0014V31.0018H43.0009V35.0027H41.0005V39.0036H39V51.0064H41.0005V55.0073H43.0009V59.0082H45.0014V61.0086H47.0018V63.0091H51.0027V65.0095H55.0036V67.01H67.0064V65.0095H71.0073V63.0091H75.0082V61.0086H77.0086V59.0082H79.0091V55.0073H81.0095V51.0064H83.01V39.0036H81.0095ZM77.0086 51.0064H67.0064V53.0068H69.0068V57.0077H55.0036V53.0068H57.0041V51.0064H47.0018V47.0055H49.0023V45.005H53.0032V43.0045H51.0027V41.0041H49.0023V35.0027H51.0027V33.0023H57.0041V35.0027H59.0045V39.0036H65.0059V35.0027H67.0064V33.0023H73.0077V35.0027H75.0082V41.0041H73.0077V43.0045H71.0073V45.005H75.0082V47.0055H77.0086V51.0064Z" fill="black"/>
<path d="M61.005 49.0058V51.0063H57.0041V47.0054H59.0046V49.0058H61.005Z" fill="black"/>
<path d="M67.0064 47.0054V51.0063H63.0055V49.0058H65.0059V47.0054H67.0064Z" fill="black"/>
<path d="M69.0068 41.0039H67.0063V47.0053H69.0068V41.0039Z" fill="black"/>
<path d="M57.0041 41.0039H55.0036V47.0053H57.0041V41.0039Z" fill="black"/>
<path d="M111.502 41.502H110.502V42.5022H111.502V41.502Z" fill="black"/>
<path d="M115.503 41.502H114.503V42.5022H115.503V41.502Z" fill="black"/>
<path d="M122.505 41.5018V39.5014H121.505V37.5009H120.504V36.5007H119.504V35.5005H117.504V34.5002H115.503V33.5H109.502V34.5002H107.501V35.5005H105.501V36.5007H104.501V37.5009H103.5V39.5014H102.5V41.5018H101.5V47.5032H102.5V49.5036H103.5V51.5041H104.501V52.5043H105.501V53.5045H107.501V54.5048H109.502V55.505H115.503V54.5048H117.504V53.5045H119.504V52.5043H120.504V51.5041H121.505V49.5036H122.505V47.5032H123.505V41.5018H122.505ZM120.504 47.5032H115.503V48.5034H116.503V50.5039H109.502V48.5034H110.502V47.5032H105.501V45.5027H106.501V44.5025H108.502V43.5023H107.501V42.502H106.501V39.5014H107.501V38.5011H110.502V39.5014H111.502V41.5018H114.503V39.5014H115.503V38.5011H118.504V39.5014H119.504V42.502H118.504V43.5023H117.504V44.5025H119.504V45.5027H120.504V47.5032Z" fill="black"/>
<path d="M112.503 46.5032V47.5034H110.502V45.5029H111.502V46.5032H112.503Z" fill="black"/>
<path d="M115.503 45.5029V47.5034H113.503V46.5032H114.503V45.5029H115.503Z" fill="black"/>
<path d="M116.503 42.502H115.503V45.5026H116.503V42.502Z" fill="black"/>
<path d="M110.502 42.502H109.502V45.5026H110.502V42.502Z" fill="black"/>
<path d="M147.668 42.3345H147.001V43.0013H147.668V42.3345Z" fill="black"/>
<path d="M150.335 42.3345H149.669V43.0013H150.335V42.3345Z" fill="black"/>
<path d="M155.003 42.3345V41.0009H154.336V39.6673H153.67V39.0005H153.003V38.3336H151.669V37.6668H150.335V37H146.335V37.6668H145.001V38.3336H143.667V39.0005H143V39.6673H142.334V41.0009H141.667V42.3345H141V46.3355H141.667V47.6691H142.334V49.0027H143V49.6695H143.667V50.3364H145.001V51.0032H146.335V51.67H150.335V51.0032H151.669V50.3364H153.003V49.6695H153.67V49.0027H154.336V47.6691H155.003V46.3355H155.67V42.3345H155.003ZM153.67 46.3355H150.335V47.0023H151.002V48.3359H146.335V47.0023H147.001V46.3355H143.667V45.0018H144.334V44.335H145.668V43.6682H145.001V43.0014H144.334V41.0009H145.001V40.3341H147.001V41.0009H147.668V42.3345H149.669V41.0009H150.335V40.3341H152.336V41.0009H153.003V43.0014H152.336V43.6682H151.669V44.335H153.003V45.0018H153.67V46.3355Z" fill="black"/>
<path d="M148.335 45.6688V46.3356H147.001V45.002H147.668V45.6688H148.335Z" fill="black"/>
<path d="M150.335 45.002V46.3356H149.002V45.6688H149.669V45.002H150.335Z" fill="black"/>
<path d="M151.002 43.0015H150.335V45.0019H151.002V43.0015Z" fill="black"/>
<path d="M147.001 43.0015H146.335V45.0019H147.001V43.0015Z" fill="black"/>
<g clip-path="url(#clip0_884_14493)">
<path d="M177.751 42.751H177.251V43.2511H177.751V42.751Z" fill="black"/>
<path d="M179.752 42.751H179.251V43.2511H179.752V42.751Z" fill="black"/>
<path d="M183.252 42.7509V41.7507H182.752V40.7505H182.252V40.2503H181.752V39.7502H180.752V39.2501H179.752V38.75H176.751V39.2501H175.751V39.7502H174.75V40.2503H174.25V40.7505H173.75V41.7507H173.25V42.7509H172.75V45.7516H173.25V46.7518H173.75V47.752H174.25V48.2522H174.75V48.7523H175.751V49.2524H176.751V49.7525H179.752V49.2524H180.752V48.7523H181.752V48.2522H182.252V47.752H182.752V46.7518H183.252V45.7516H183.753V42.7509H183.252ZM182.252 45.7516H179.752V46.2517H180.252V47.2519H176.751V46.2517H177.251V45.7516H174.75V44.7514H175.251V44.2513H176.251V43.7511H175.751V43.251H175.251V41.7507H175.751V41.2506H177.251V41.7507H177.751V42.7509H179.251V41.7507H179.752V41.2506H181.252V41.7507H181.752V43.251H181.252V43.7511H180.752V44.2513H181.752V44.7514H182.252V45.7516Z" fill="black"/>
<path d="M178.251 45.2516V45.7517H177.251V44.7515H177.751V45.2516H178.251Z" fill="black"/>
<path d="M179.752 44.7515V45.7517H178.751V45.2516H179.251V44.7515H179.752Z" fill="black"/>
<path d="M180.252 43.251H179.752V44.7513H180.252V43.251Z" fill="black"/>
<path d="M177.251 43.251H176.751V44.7513H177.251V43.251Z" fill="black"/>
</g>
<defs>
<clipPath id="clip0_884_14493">
<rect width="12" height="12" fill="white" transform="translate(172 38)"/>
</clipPath>
</defs>
</svg>
