<svg width="220" height="88" viewBox="0 0 220 88" fill="none" xmlns="http://www.w3.org/2000/svg">
<rect x="0.5" y="0.5" width="219" height="87" rx="4.5" stroke="#9747FF" stroke-dasharray="10 5"/>
<path d="M83.01 23V33.0023H81.0095V37.0032H79.0091V39.0036H77.0086V37.0032H75.0082V35.0027H73.0077V33.0023H71.0073V31.0018H69.0068V29.0014H67.0063V27.0009H69.0068V25.0005H73.0077V23H83.01Z" fill="black"/>
<path d="M59.0045 47.0054V51.0063H57.0041V53.0067H55.0036V55.0072H53.0032V57.0076H51.0027V59.0081H47.0018V55.0072H49.0023V53.0067H51.0027V51.0063H53.0032V49.0058H55.0036V47.0054H59.0045Z" fill="black"/>
<path d="M75.0082 39.0037V37.0033H73.0077V35.0028H71.0073V33.0024H69.0068V31.0019H67.0064V29.0015H65.0059V31.0019H63.0055V33.0024H61.005V35.0028H59.0045V37.0033H57.0041V39.0037H45.0014V41.0042H43.0009V43.0046H41.0005V45.0051H39V49.006H47.0018V47.0056H49.0023V45.0051H51.0027V43.0046H53.0032V41.0042H55.0036V43.0046H53.0032V45.0051H51.0027V49.006H53.0032V47.0056H55.0036V45.0051H61.005V51.0065H59.0045V53.0069H57.0041V55.0074H61.005V53.0069H63.0055V51.0065H65.0059V53.0069H63.0055V55.0074H61.005V57.0078H59.0045V59.0083H57.0041V67.0101H61.005V65.0096H63.0055V63.0092H65.0059V61.0087H67.0064V49.006H69.0068V47.0056H71.0073V45.0051H73.0077V43.0046H75.0082V41.0042H77.0086V39.0037H75.0082ZM71.0073 37.0033V41.0042H69.0068V43.0046H65.0059V41.0042H63.0055V37.0033H65.0059V35.0028H69.0068V37.0033H71.0073Z" fill="black"/>
<path d="M123.505 33.5V38.5011H122.505V40.5016H121.505V41.5018H120.504V40.5016H119.504V39.5014H118.504V38.5011H117.504V37.5009H116.503V36.5007H115.503V35.5005H116.503V34.5002H118.504V33.5H123.505Z" fill="black"/>
<path d="M111.502 45.5029V47.5034H110.502V48.5036H109.502V49.5038H108.502V50.5041H107.501V51.5043H105.501V49.5038H106.501V48.5036H107.501V47.5034H108.502V46.5032H109.502V45.5029H111.502Z" fill="black"/>
<path d="M119.504 41.5016V40.5014H118.504V39.5012H117.504V38.5009H116.503V37.5007H115.503V36.5005H114.503V37.5007H113.503V38.5009H112.503V39.5012H111.502V40.5014H110.502V41.5016H104.501V42.5019H103.5V43.5021H102.5V44.5023H101.5V46.5028H105.501V45.5025H106.501V44.5023H107.501V43.5021H108.502V42.5019H109.502V43.5021H108.502V44.5023H107.501V46.5028H108.502V45.5025H109.502V44.5023H112.503V47.503H111.502V48.5032H110.502V49.5034H112.503V48.5032H113.503V47.503H114.503V48.5032H113.503V49.5034H112.503V50.5037H111.502V51.5039H110.502V55.5048H112.503V54.5046H113.503V53.5044H114.503V52.5041H115.503V46.5028H116.503V45.5025H117.504V44.5023H118.504V43.5021H119.504V42.5019H120.504V41.5016H119.504ZM117.504 40.5014V42.5019H116.503V43.5021H114.503V42.5019H113.503V40.5014H114.503V39.5012H116.503V40.5014H117.504Z" fill="black"/>
<path d="M155.67 37V40.3341H155.003V41.6677H154.336V42.3345H153.67V41.6677H153.003V41.0009H152.336V40.3341H151.669V39.6673H151.002V39.0005H150.335V38.3336H151.002V37.6668H152.336V37H155.67Z" fill="black"/>
<path d="M147.668 45.002V46.3356H147.001V47.0024H146.335V47.6692H145.668V48.336H145.001V49.0029H143.667V47.6692H144.334V47.0024H145.001V46.3356H145.668V45.6688H146.335V45.002H147.668Z" fill="black"/>
<path d="M153.003 42.3346V41.6678H152.336V41.0009H151.669V40.3341H151.002V39.6673H150.335V39.0005H149.669V39.6673H149.002V40.3341H148.335V41.0009H147.668V41.6678H147.001V42.3346H143V43.0014H142.334V43.6682H141.667V44.335H141V45.6687H143.667V45.0019H144.334V44.335H145.001V43.6682H145.668V43.0014H146.335V43.6682H145.668V44.335H145.001V45.6687H145.668V45.0019H146.335V44.335H148.335V46.3355H147.668V47.0023H147.001V47.6691H148.335V47.0023H149.002V46.3355H149.669V47.0023H149.002V47.6691H148.335V48.3359H147.668V49.0028H147.001V51.67H148.335V51.0032H149.002V50.3364H149.669V49.6696H150.335V45.6687H151.002V45.0019H151.669V44.335H152.336V43.6682H153.003V43.0014H153.67V42.3346H153.003ZM151.669 41.6678V43.0014H151.002V43.6682H149.669V43.0014H149.002V41.6678H149.669V41.0009H151.002V41.6678H151.669Z" fill="black"/>
<g clip-path="url(#clip0_884_14498)">
<path d="M183.752 38.75V41.2506H183.252V42.2508H182.752V42.7509H182.252V42.2508H181.752V41.7507H181.252V41.2506H180.752V40.7505H180.252V40.2503H179.752V39.7502H180.252V39.2501H181.252V38.75H183.752Z" fill="black"/>
<path d="M177.751 44.7515V45.7517H177.251V46.2518H176.751V46.7519H176.251V47.252H175.751V47.7521H174.75V46.7519H175.251V46.2518H175.751V45.7517H176.251V45.2516H176.751V44.7515H177.751Z" fill="black"/>
<path d="M181.752 42.7511V42.2509H181.252V41.7508H180.752V41.2507H180.252V40.7506H179.752V40.2505H179.251V40.7506H178.751V41.2507H178.251V41.7508H177.751V42.2509H177.251V42.7511H174.25V43.2512H173.75V43.7513H173.25V44.2514H172.75V45.2516H174.75V44.7515H175.251V44.2514H175.751V43.7513H176.251V43.2512H176.751V43.7513H176.251V44.2514H175.751V45.2516H176.251V44.7515H176.751V44.2514H178.251V45.7517H177.751V46.2519H177.251V46.752H178.251V46.2519H178.751V45.7517H179.251V46.2519H178.751V46.752H178.251V47.2521H177.751V47.7522H177.251V49.7526H178.251V49.2525H178.751V48.7524H179.251V48.2523H179.752V45.2516H180.252V44.7515H180.752V44.2514H181.252V43.7513H181.752V43.2512H182.252V42.7511H181.752ZM180.752 42.2509V43.2512H180.252V43.7513H179.251V43.2512H178.751V42.2509H179.251V41.7508H180.252V42.2509H180.752Z" fill="black"/>
</g>
<defs>
<clipPath id="clip0_884_14498">
<rect width="12" height="12" fill="white" transform="translate(172 38)"/>
</clipPath>
</defs>
</svg>
