<svg width="220" height="88" viewBox="0 0 220 88" fill="none" xmlns="http://www.w3.org/2000/svg">
<rect x="0.5" y="0.5" width="219" height="87" rx="4.5" stroke="#9747FF" stroke-dasharray="10 5"/>
<path d="M71.0072 35.0029H51.0027V55.0075H71.0072V35.0029Z" fill="black"/>
<path d="M79.0091 31.0018V27.0009H75.0082V23H71.0073V27.0009H67.0064V23H63.0055V27.0009H59.0045V23H55.0036V27.0009H51.0027V23H47.0018V27.0009H43.0009V31.0018H39V35.0027H43.0009V39.0036H39V43.0045H43.0009V47.0055H39V51.0064H43.0009V55.0073H39V59.0082H43.0009V63.0091H47.0018V67.01H51.0027V63.0091H55.0036V67.01H59.0045V63.0091H63.0055V67.01H67.0064V63.0091H71.0073V67.01H75.0082V63.0091H79.0091V59.0082H83.01V55.0073H79.0091V51.0064H83.01V47.0055H79.0091V43.0045H83.01V39.0036H79.0091V35.0027H83.01V31.0018H79.0091ZM75.0082 59.0082H47.0018V31.0018H75.0082V59.0082Z" fill="black"/>
<path d="M117.504 39.5015H107.501V49.5037H117.504V39.5015Z" fill="black"/>
<path d="M121.505 37.5009V35.5005H119.504V33.5H117.504V35.5005H115.503V33.5H113.503V35.5005H111.502V33.5H109.502V35.5005H107.501V33.5H105.501V35.5005H103.5V37.5009H101.5V39.5014H103.5V41.5018H101.5V43.5023H103.5V45.5027H101.5V47.5032H103.5V49.5036H101.5V51.5041H103.5V53.5045H105.501V55.505H107.501V53.5045H109.502V55.505H111.502V53.5045H113.503V55.505H115.503V53.5045H117.504V55.505H119.504V53.5045H121.505V51.5041H123.505V49.5036H121.505V47.5032H123.505V45.5027H121.505V43.5023H123.505V41.5018H121.505V39.5014H123.505V37.5009H121.505ZM119.504 51.5041H105.501V37.5009H119.504V51.5041Z" fill="black"/>
<path d="M151.669 41.001H145.001V47.6692H151.669V41.001Z" fill="black"/>
<path d="M154.336 39.6673V38.3336H153.003V37H151.669V38.3336H150.335V37H149.002V38.3336H147.668V37H146.335V38.3336H145.001V37H143.667V38.3336H142.334V39.6673H141V41.0009H142.334V42.3345H141V43.6682H142.334V45.0018H141V46.3355H142.334V47.6691H141V49.0027H142.334V50.3364H143.667V51.67H145.001V50.3364H146.335V51.67H147.668V50.3364H149.002V51.67H150.335V50.3364H151.669V51.67H153.003V50.3364H154.336V49.0027H155.67V47.6691H154.336V46.3355H155.67V45.0018H154.336V43.6682H155.67V42.3345H154.336V41.0009H155.67V39.6673H154.336ZM153.003 49.0027H143.667V39.6673H153.003V49.0027Z" fill="black"/>
<g clip-path="url(#clip0_884_14513)">
<path d="M180.752 41.7505H175.751V46.7516H180.752V41.7505Z" fill="black"/>
<path d="M182.752 40.7505V39.7502H181.752V38.75H180.752V39.7502H179.752V38.75H178.751V39.7502H177.751V38.75H176.751V39.7502H175.751V38.75H174.75V39.7502H173.75V40.7505H172.75V41.7507H173.75V42.7509H172.75V43.7511H173.75V44.7514H172.75V45.7516H173.75V46.7518H172.75V47.752H173.75V48.7523H174.75V49.7525H175.751V48.7523H176.751V49.7525H177.751V48.7523H178.751V49.7525H179.752V48.7523H180.752V49.7525H181.752V48.7523H182.752V47.752H183.753V46.7518H182.752V45.7516H183.753V44.7514H182.752V43.7511H183.753V42.7509H182.752V41.7507H183.753V40.7505H182.752ZM181.752 47.752H174.75V40.7505H181.752V47.752Z" fill="black"/>
</g>
<defs>
<clipPath id="clip0_884_14513">
<rect width="12" height="12" fill="white" transform="translate(172 38)"/>
</clipPath>
</defs>
</svg>
