<svg width="220" height="88" viewBox="0 0 220 88" fill="none" xmlns="http://www.w3.org/2000/svg">
<rect x="0.5" y="0.5" width="219" height="87" rx="4.5" stroke="#9747FF" stroke-dasharray="10 5"/>
<path d="M80.0095 24.0005V22H40.0005V24.0005H38V64.0095H40.0005V66.01H80.0095V64.0095H82.01V24.0005H80.0095ZM78.0091 30.0018H42.0009V26.0009H78.0091V30.0018ZM78.0091 52.0068H42.0009V38.0036H78.0091V52.0068ZM42.0009 54.0073H48.0023V60.0086H42.0009V54.0073ZM74.0082 56.0077H52.0032V54.0073H74.0082V56.0077ZM52.0032 58.0082H74.0082V60.0086H52.0032V58.0082ZM42.0009 32.0023H66.0064V36.0032H42.0009V32.0023ZM52.0032 64.0095V62.0091H74.0082V64.0095H52.0032Z" fill="black"/>
<path d="M122.005 34.0002V33H102V34.0002H101V54.0048H102V55.005H122.005V54.0048H123.005V34.0002H122.005ZM121.005 37.0009H103V35.0005H121.005V37.0009ZM121.005 48.0034H103V41.0018H121.005V48.0034ZM103 49.0036H106.001V52.0043H103V49.0036ZM119.004 50.0039H108.002V49.0036H119.004V50.0039ZM108.002 51.0041H119.004V52.0043H108.002V51.0041ZM103 38.0011H115.003V40.0016H103V38.0011ZM108.002 54.0048V53.0045H119.004V54.0048H108.002Z" fill="black"/>
<g clip-path="url(#clip0_884_14508)">
<path d="M154.663 37.327V36.6602H141.327V37.327H140.66V50.6633H141.327V51.3302H154.663V50.6633H155.33V37.327H154.663ZM153.996 39.3274H141.994V37.9938H153.996V39.3274ZM153.996 46.6624H141.994V41.9947H153.996V46.6624ZM141.994 47.3292H143.994V49.3297H141.994V47.3292ZM152.663 47.9961H145.328V47.3292H152.663V47.9961ZM145.328 48.6629H152.663V49.3297H145.328V48.6629ZM141.994 39.9942H149.995V41.3279H141.994V39.9942ZM145.328 50.6633V49.9965H152.663V50.6633H145.328Z" fill="black"/>
</g>
<g clip-path="url(#clip1_884_14508)">
<path d="M183.002 39.0001V38.5H173V39.0001H172.5V49.0024H173V49.5025H183.002V49.0024H183.503V39.0001H183.002ZM182.502 40.5005H173.5V39.5002H182.502V40.5005ZM182.502 46.0017H173.5V42.5009H182.502V46.0017ZM173.5 46.5018H175.001V48.0022H173.5V46.5018ZM181.502 47.0019H176.001V46.5018H181.502V47.0019ZM176.001 47.502H181.502V48.0022H176.001V47.502ZM173.5 41.0006H179.502V42.0008H173.5V41.0006ZM176.001 49.0024V48.5023H181.502V49.0024H176.001Z" fill="black"/>
</g>
<defs>
<clipPath id="clip0_884_14508">
<rect width="16" height="16" fill="white" transform="translate(140 36)"/>
</clipPath>
<clipPath id="clip1_884_14508">
<rect width="12" height="12" fill="white" transform="translate(172 38)"/>
</clipPath>
</defs>
</svg>
