<svg width="220" height="88" viewBox="0 0 220 88" fill="none" xmlns="http://www.w3.org/2000/svg">
<rect x="0.5" y="0.5" width="219" height="87" rx="4.5" stroke="#9747FF" stroke-dasharray="10 5"/>
<path d="M59.0045 23V67.01H61.005V57.0077H67.0063V67.01H79.0091V23H59.0045ZM71.0072 25.0005V29.0014H67.0063V25.0005H71.0072ZM71.0072 35.0027H67.0063V31.0018H71.0072V35.0027ZM71.0072 41.0041H67.0063V37.0032H71.0072V41.0041ZM71.0072 47.0055H67.0063V43.0045H71.0072V47.0055ZM71.0072 53.0068H67.0063V49.0059H71.0072V53.0068ZM61.005 25.0005H65.0059V29.0014H61.005V25.0005ZM61.005 31.0018H65.0059V35.0027H61.005V31.0018ZM61.005 37.0032H65.0059V41.0041H61.005V37.0032ZM61.005 43.0045H65.0059V47.0055H61.005V43.0045ZM61.005 49.0059H65.0059V53.0068H61.005V49.0059ZM77.0086 63.0091H69.0068V57.0077H77.0086V63.0091ZM77.0086 53.0068H73.0077V49.0059H77.0086V53.0068ZM77.0086 47.0055H73.0077V43.0045H77.0086V47.0055ZM77.0086 41.0041H73.0077V37.0032H77.0086V41.0041ZM77.0086 35.0027H73.0077V31.0018H77.0086V35.0027ZM77.0086 29.0014H73.0077V25.0005H77.0086V29.0014Z" fill="black"/>
<path d="M39 37.0034V67.0102H45.0014V59.0084H51.0027V67.0102H57.0041V37.0034H39ZM41.0005 39.0039H47.0018V43.0048H41.0005V39.0039ZM41.0005 45.0052H47.0018V49.0061H41.0005V45.0052ZM41.0005 55.0075V51.0066H47.0018V55.0075H41.0005ZM55.0036 55.0075H49.0023V51.0066H55.0036V55.0075ZM55.0036 49.0061H49.0023V45.0052H55.0036V49.0061ZM55.0036 43.0048H49.0023V39.0039H55.0036V43.0048Z" fill="black"/>
<path d="M111.502 33.5V55.505H112.502V50.5039H115.503V55.505H121.505V33.5H111.502ZM117.504 34.5002V36.5007H115.503V34.5002H117.504ZM117.504 39.5014H115.503V37.5009H117.504V39.5014ZM117.504 42.502H115.503V40.5016H117.504V42.502ZM117.504 45.5027H115.503V43.5023H117.504V45.5027ZM117.504 48.5034H115.503V46.503H117.504V48.5034ZM112.502 34.5002H114.503V36.5007H112.502V34.5002ZM112.502 37.5009H114.503V39.5014H112.502V37.5009ZM112.502 40.5016H114.503V42.502H112.502V40.5016ZM112.502 43.5023H114.503V45.5027H112.502V43.5023ZM112.502 46.503H114.503V48.5034H112.502V46.503ZM120.504 53.5045H116.503V50.5039H120.504V53.5045ZM120.504 48.5034H118.504V46.503H120.504V48.5034ZM120.504 45.5027H118.504V43.5023H120.504V45.5027ZM120.504 42.502H118.504V40.5016H120.504V42.502ZM120.504 39.5014H118.504V37.5009H120.504V39.5014ZM120.504 36.5007H118.504V34.5002H120.504V36.5007Z" fill="black"/>
<path d="M101.5 40.5015V55.5049H104.501V51.504H107.501V55.5049H110.502V40.5015H101.5ZM102.5 41.5017H105.501V43.5021H102.5V41.5017ZM102.5 44.5024H105.501V46.5028H102.5V44.5024ZM102.5 49.5035V47.5031H105.501V49.5035H102.5ZM109.502 49.5035H106.501V47.5031H109.502V49.5035ZM109.502 46.5028H106.501V44.5024H109.502V46.5028ZM109.502 43.5021H106.501V41.5017H109.502V43.5021Z" fill="black"/>
<path d="M147.668 37V51.67H148.335V48.3359H150.335V51.67H154.336V37H147.668ZM151.669 37.6668V39.0005H150.335V37.6668H151.669ZM151.669 41.0009H150.335V39.6673H151.669V41.0009ZM151.669 43.0014H150.335V41.6677H151.669V43.0014ZM151.669 45.0018H150.335V43.6682H151.669V45.0018ZM151.669 47.0023H150.335V45.6686H151.669V47.0023ZM148.335 37.6668H149.669V39.0005H148.335V37.6668ZM148.335 39.6673H149.669V41.0009H148.335V39.6673ZM148.335 41.6677H149.669V43.0014H148.335V41.6677ZM148.335 43.6682H149.669V45.0018H148.335V43.6682ZM148.335 45.6686H149.669V47.0023H148.335V45.6686ZM153.67 50.3364H151.002V48.3359H153.67V50.3364ZM153.67 47.0023H152.336V45.6686H153.67V47.0023ZM153.67 45.0018H152.336V43.6682H153.67V45.0018ZM153.67 43.0014H152.336V41.6677H153.67V43.0014ZM153.67 41.0009H152.336V39.6673H153.67V41.0009ZM153.67 39.0005H152.336V37.6668H153.67V39.0005Z" fill="black"/>
<path d="M141 41.668V51.6702H143V49.003H145.001V51.6702H147.001V41.668H141ZM141.667 42.3348H143.667V43.6684H141.667V42.3348ZM141.667 44.3352H143.667V45.6689H141.667V44.3352ZM141.667 47.6693V46.3357H143.667V47.6693H141.667ZM146.335 47.6693H144.334V46.3357H146.335V47.6693ZM146.335 45.6689H144.334V44.3352H146.335V45.6689ZM146.335 43.6684H144.334V42.3348H146.335V43.6684Z" fill="black"/>
<path d="M177.751 38.75V49.7525H178.251V47.2519H179.752V49.7525H182.752V38.75H177.751ZM180.752 39.2501V40.2503H179.752V39.2501H180.752ZM180.752 41.7507H179.752V40.7505H180.752V41.7507ZM180.752 43.251H179.752V42.2508H180.752V43.251ZM180.752 44.7514H179.752V43.7511H180.752V44.7514ZM180.752 46.2517H179.752V45.2515H180.752V46.2517ZM178.251 39.2501H179.252V40.2503H178.251V39.2501ZM178.251 40.7505H179.252V41.7507H178.251V40.7505ZM178.251 42.2508H179.252V43.251H178.251V42.2508ZM178.251 43.7511H179.252V44.7514H178.251V43.7511ZM178.251 45.2515H179.252V46.2517H178.251V45.2515ZM182.252 48.7523H180.252V47.2519H182.252V48.7523ZM182.252 46.2517H181.252V45.2515H182.252V46.2517ZM182.252 44.7514H181.252V43.7511H182.252V44.7514ZM182.252 43.251H181.252V42.2508H182.252V43.251ZM182.252 41.7507H181.252V40.7505H182.252V41.7507ZM182.252 40.2503H181.252V39.2501H182.252V40.2503Z" fill="black"/>
<path d="M172.75 42.251V49.7527H174.25V47.7522H175.751V49.7527H177.251V42.251H172.75ZM173.25 42.7511H174.75V43.7513H173.25V42.7511ZM173.25 44.2514H174.75V45.2517H173.25V44.2514ZM173.25 46.752V45.7518H174.75V46.752H173.25ZM176.751 46.752H175.251V45.7518H176.751V46.752ZM176.751 45.2517H175.251V44.2514H176.751V45.2517ZM176.751 43.7513H175.251V42.7511H176.751V43.7513Z" fill="black"/>
</svg>
