<svg width="220" height="88" viewBox="0 0 220 88" fill="none" xmlns="http://www.w3.org/2000/svg">
<rect x="0.5" y="0.5" width="219" height="87" rx="4.5" stroke="#9747FF" stroke-dasharray="10 5"/>
<path d="M57.0041 65.0098H55.0037V67.0102H57.0041V65.0098Z" fill="black"/>
<path d="M55.0037 63.0091V65.0096H51.0028V63.0091H47.0019V61.0087H45.0014V59.0082H43.0009V57.0077H41.0005V53.0068H51.0028V59.0082H53.0032V63.0091H55.0037Z" fill="black"/>
<path d="M69.0068 53.0068V57.0077H67.0064V61.0087H65.0059V65.0096H63.0054V67.01H59.0045V65.0096H57.0041V61.0087H55.0036V57.0077H53.0032V53.0068H69.0068Z" fill="black"/>
<path d="M67.0063 65.0098H65.0059V67.0102H67.0063V65.0098Z" fill="black"/>
<path d="M81.0095 53.0068V57.0077H79.0091V59.0082H77.0086V61.0087H75.0082V63.0091H71.0073V65.0096H67.0063V63.0091H69.0068V59.0082H71.0073V53.0068H81.0095Z" fill="black"/>
<path d="M69.0068 41.0039H65.0059V43.0044H69.0068V41.0039Z" fill="black"/>
<path d="M69.0068 45.0049H65.0059V47.0053H69.0068V45.0049Z" fill="black"/>
<path d="M39 37.0029V51.0061H83.01V37.0029H39ZM51.0027 45.0047H49.0023V49.0057H47.0018V45.0047H45.0014V49.0057H43.0009V45.0047H41.0005V39.0034H43.0009V45.0047H45.0014V43.0043H47.0018V45.0047H49.0023V39.0034H51.0027V45.0047ZM61.005 41.0038H55.0036V43.0043H59.0045V45.0047H55.0036V47.0052H61.005V49.0057H53.0032V39.0034H61.005V41.0038ZM71.0073 43.0043H69.0068V45.0047H71.0073V47.0052H69.0068V49.0057H63.0055V39.0034H69.0068V41.0038H71.0073V43.0043ZM81.0095 43.0043H79.0091V45.0047H81.0095V47.0052H79.0091V49.0057H73.0077V47.0052H79.0091V45.0047H75.0082V43.0043H79.0091V41.0038H73.0077V39.0034H79.0091V41.0038H81.0095V43.0043Z" fill="black"/>
<path d="M81.0095 33.0023V35.0028H71.0073V31.0019H69.0068V27.0009H67.0063V25.0005H71.0073V27.0009H75.0082V29.0014H77.0086V31.0019H79.0091V33.0023H81.0095Z" fill="black"/>
<path d="M67.0063 23H65.0059V25.0005H67.0063V23Z" fill="black"/>
<path d="M69.0068 33.0023V35.0027H53.0032V33.0023H55.0036V29.0014H57.0041V25.0005H59.0045V23H63.0054V25.0005H65.0059V29.0014H67.0064V33.0023H69.0068Z" fill="black"/>
<path d="M57.0041 23H55.0037V25.0005H57.0041V23Z" fill="black"/>
<path d="M55.0037 25.0005V27.0009H53.0032V31.0019H51.0028V35.0028H41.0005V33.0023H43.0009V31.0019H45.0014V29.0014H47.0019V27.0009H51.0028V25.0005H55.0037Z" fill="black"/>
<path d="M110.502 54.5049H109.502V55.5051H110.502V54.5049Z" fill="black"/>
<path d="M109.502 53.5046V54.5048H107.501V53.5046H105.501V52.5043H104.501V51.5041H103.5V50.5039H102.5V48.5034H107.501V51.5041H108.502V53.5046H109.502Z" fill="black"/>
<path d="M116.503 48.5034V50.5039H115.503V52.5043H114.503V54.5048H113.503V55.505H111.502V54.5048H110.502V52.5043H109.502V50.5039H108.502V48.5034H116.503Z" fill="black"/>
<path d="M115.503 54.5049H114.503V55.5051H115.503V54.5049Z" fill="black"/>
<path d="M122.505 48.5034V50.5039H121.505V51.5041H120.504V52.5043H119.504V53.5046H117.504V54.5048H115.503V53.5046H116.503V51.5041H117.504V48.5034H122.505Z" fill="black"/>
<path d="M116.503 42.502H114.503V43.5022H116.503V42.502Z" fill="black"/>
<path d="M116.503 44.5024H114.503V45.5027H116.503V44.5024Z" fill="black"/>
<path d="M101.5 40.5015V47.5031H123.505V40.5015H101.5ZM107.501 44.5024H106.501V46.5028H105.501V44.5024H104.501V46.5028H103.5V44.5024H102.5V41.5017H103.5V44.5024H104.501V43.5021H105.501V44.5024H106.501V41.5017H107.501V44.5024ZM112.503 42.5019H109.502V43.5021H111.502V44.5024H109.502V45.5026H112.503V46.5028H108.502V41.5017H112.503V42.5019ZM117.504 43.5021H116.503V44.5024H117.504V45.5026H116.503V46.5028H113.503V41.5017H116.503V42.5019H117.504V43.5021ZM122.505 43.5021H121.505V44.5024H122.505V45.5026H121.505V46.5028H118.504V45.5026H121.505V44.5024H119.504V43.5021H121.505V42.5019H118.504V41.5017H121.505V42.5019H122.505V43.5021Z" fill="black"/>
<path d="M122.505 38.5009V39.5011H117.504V37.5007H116.503V35.5002H115.503V34.5H117.504V35.5002H119.504V36.5005H120.504V37.5007H121.505V38.5009H122.505Z" fill="black"/>
<path d="M115.503 33.5H114.503V34.5002H115.503V33.5Z" fill="black"/>
<path d="M116.503 38.5011V39.5014H108.502V38.5011H109.502V36.5007H110.502V34.5002H111.502V33.5H113.503V34.5002H114.503V36.5007H115.503V38.5011H116.503Z" fill="black"/>
<path d="M110.502 33.5H109.502V34.5002H110.502V33.5Z" fill="black"/>
<path d="M109.502 34.5V35.5002H108.502V37.5007H107.501V39.5011H102.5V38.5009H103.5V37.5007H104.501V36.5005H105.501V35.5002H107.501V34.5H109.502Z" fill="black"/>
<path d="M147.001 51.0034H146.335V51.6702H147.001V51.0034Z" fill="black"/>
<path d="M146.335 50.3365V51.0034H145.001V50.3365H143.667V49.6697H143.001V49.0029H142.334V48.3361H141.667V47.0024H145.001V49.0029H145.668V50.3365H146.335Z" fill="black"/>
<path d="M151.002 47.0024V48.3361H150.335V49.6697H149.669V51.0034H149.002V51.6702H147.668V51.0034H147.001V49.6697H146.335V48.3361H145.668V47.0024H151.002Z" fill="black"/>
<path d="M150.335 51.0034H149.669V51.6702H150.335V51.0034Z" fill="black"/>
<path d="M155.003 47.0024V48.3361H154.336V49.0029H153.67V49.6697H153.003V50.3365H151.669V51.0034H150.335V50.3365H151.002V49.0029H151.669V47.0024H155.003Z" fill="black"/>
<path d="M151.002 43.0015H149.669V43.6683H151.002V43.0015Z" fill="black"/>
<path d="M151.002 44.335H149.669V45.0018H151.002V44.335Z" fill="black"/>
<path d="M141 41.668V46.3357H155.67V41.668H141ZM145.001 44.3352H144.334V45.6689H143.667V44.3352H143V45.6689H142.334V44.3352H141.667V42.3348H142.334V44.3352H143V43.6684H143.667V44.3352H144.334V42.3348H145.001V44.3352ZM148.335 43.0016H146.335V43.6684H147.668V44.3352H146.335V45.0021H148.335V45.6689H145.668V42.3348H148.335V43.0016ZM151.669 43.6684H151.002V44.3352H151.669V45.0021H151.002V45.6689H149.002V42.3348H151.002V43.0016H151.669V43.6684ZM155.003 43.6684H154.336V44.3352H155.003V45.0021H154.336V45.6689H152.336V45.0021H154.336V44.3352H153.003V43.6684H154.336V43.0016H152.336V42.3348H154.336V43.0016H155.003V43.6684Z" fill="black"/>
<path d="M155.003 40.3343V41.0011H151.669V39.6674H151.002V38.3338H150.335V37.667H151.669V38.3338H153.003V39.0006H153.67V39.6674H154.336V40.3343H155.003Z" fill="black"/>
<path d="M150.335 37H149.669V37.6668H150.335V37Z" fill="black"/>
<path d="M151.002 40.3341V41.0009H145.668V40.3341H146.335V39.0005H147.001V37.6668H147.668V37H149.002V37.6668H149.669V39.0005H150.335V40.3341H151.002Z" fill="black"/>
<path d="M147.001 37H146.335V37.6668H147.001V37Z" fill="black"/>
<path d="M146.335 37.667V38.3338H145.668V39.6674H145.001V41.0011H141.667V40.3343H142.334V39.6674H143.001V39.0006H143.667V38.3338H145.001V37.667H146.335Z" fill="black"/>
<g clip-path="url(#clip0_884_14523)">
<path d="M177.251 49.2524H176.751V49.7526H177.251V49.2524Z" fill="black"/>
<path d="M176.751 48.752V49.2521H175.751V48.752H174.75V48.2519H174.25V47.7518H173.75V47.2517H173.25V46.2515H175.751V47.7518H176.251V48.752H176.751Z" fill="black"/>
<path d="M180.252 46.2515V47.2517H179.752V48.2519H179.251V49.2521H178.751V49.7523H177.751V49.2521H177.251V48.2519H176.751V47.2517H176.251V46.2515H180.252Z" fill="black"/>
<path d="M179.752 49.2524H179.251V49.7526H179.752V49.2524Z" fill="black"/>
<path d="M183.252 46.2515V47.2517H182.752V47.7518H182.252V48.2519H181.752V48.752H180.752V49.2521H179.752V48.752H180.252V47.7518H180.752V46.2515H183.252Z" fill="black"/>
<path d="M180.252 43.251H179.251V43.7511H180.252V43.251Z" fill="black"/>
<path d="M180.252 44.2515H179.251V44.7516H180.252V44.2515Z" fill="black"/>
<path d="M172.75 42.251V45.7518H183.753V42.251H172.75ZM175.751 44.2514H175.251V45.2517H174.75V44.2514H174.25V45.2517H173.75V44.2514H173.25V42.7511H173.75V44.2514H174.25V43.7513H174.75V44.2514H175.251V42.7511H175.751V44.2514ZM178.251 43.2512H176.751V43.7513H177.751V44.2514H176.751V44.7515H178.251V45.2517H176.251V42.7511H178.251V43.2512ZM180.752 43.7513H180.252V44.2514H180.752V44.7515H180.252V45.2517H178.751V42.7511H180.252V43.2512H180.752V43.7513ZM183.252 43.7513H182.752V44.2514H183.252V44.7515H182.752V45.2517H181.252V44.7515H182.752V44.2514H181.752V43.7513H182.752V43.2512H181.252V42.7511H182.752V43.2512H183.252V43.7513Z" fill="black"/>
<path d="M183.252 41.2505V41.7506H180.752V40.7503H180.252V39.7501H179.752V39.25H180.752V39.7501H181.752V40.2502H182.252V40.7503H182.752V41.2505H183.252Z" fill="black"/>
<path d="M179.752 38.75H179.251V39.2501H179.752V38.75Z" fill="black"/>
<path d="M180.252 41.2506V41.7507H176.251V41.2506H176.751V40.2503H177.251V39.2501H177.751V38.75H178.751V39.2501H179.251V40.2503H179.752V41.2506H180.252Z" fill="black"/>
<path d="M177.251 38.75H176.751V39.2501H177.251V38.75Z" fill="black"/>
<path d="M176.751 39.25V39.7501H176.251V40.7503H175.751V41.7506H173.25V41.2505H173.75V40.7503H174.25V40.2502H174.75V39.7501H175.751V39.25H176.751Z" fill="black"/>
</g>
<defs>
<clipPath id="clip0_884_14523">
<rect width="12" height="12" fill="white" transform="translate(172 38)"/>
</clipPath>
</defs>
</svg>
