<svg width="24" height="24" viewBox="0 0 24 24" fill="none" xmlns="http://www.w3.org/2000/svg">
<path d="M10.5021 22.5049H9.50183V23.5051H10.5021V22.5049Z" fill="black"/>
<path d="M9.50184 21.5046V22.5048H7.50138V21.5046H5.50093V20.5043H4.5007V19.5041H3.50047V18.5039H2.50024V16.5034H7.50138V19.5041H8.50161V21.5046H9.50184Z" fill="black"/>
<path d="M16.5034 16.5034V18.5039H15.5032V20.5043H14.503V22.5048H13.5027V23.505H11.5023V22.5048H10.502V20.5043H9.50181V18.5039H8.50159V16.5034H16.5034Z" fill="black"/>
<path d="M15.5032 22.5049H14.5029V23.5051H15.5032V22.5049Z" fill="black"/>
<path d="M22.5048 16.5034V18.5039H21.5045V19.5041H20.5043V20.5043H19.5041V21.5046H17.5036V22.5048H15.5032V21.5046H16.5034V19.5041H17.5036V16.5034H22.5048Z" fill="black"/>
<path d="M16.5034 10.502H14.5029V11.5022H16.5034V10.502Z" fill="black"/>
<path d="M16.5034 12.5024H14.5029V13.5027H16.5034V12.5024Z" fill="black"/>
<path d="M1.5 8.50146V15.5031H23.505V8.50146H1.5ZM7.50136 12.5024H6.50114V14.5028H5.50091V12.5024H4.50068V14.5028H3.50045V12.5024H2.50023V9.50169H3.50045V12.5024H4.50068V11.5021H5.50091V12.5024H6.50114V9.50169H7.50136V12.5024ZM12.5025 10.5019H9.50182V11.5021H11.5023V12.5024H9.50182V13.5026H12.5025V14.5028H8.50159V9.50169H12.5025V10.5019ZM17.5036 11.5021H16.5034V12.5024H17.5036V13.5026H16.5034V14.5028H13.5027V9.50169H16.5034V10.5019H17.5036V11.5021ZM22.5048 11.5021H21.5045V12.5024H22.5048V13.5026H21.5045V14.5028H18.5039V13.5026H21.5045V12.5024H19.5041V11.5021H21.5045V10.5019H18.5039V9.50169H21.5045V10.5019H22.5048V11.5021Z" fill="black"/>
<path d="M22.5048 6.50091V7.50114H17.5036V5.50068H16.5034V3.50023H15.5032V2.5H17.5036V3.50023H19.5041V4.50045H20.5043V5.50068H21.5045V6.50091H22.5048Z" fill="black"/>
<path d="M15.5032 1.5H14.5029V2.50023H15.5032V1.5Z" fill="black"/>
<path d="M16.5034 6.50114V7.50136H8.50159V6.50114H9.50181V4.50068H10.502V2.50023H11.5023V1.5H13.5027V2.50023H14.503V4.50068H15.5032V6.50114H16.5034Z" fill="black"/>
<path d="M10.5021 1.5H9.50183V2.50023H10.5021V1.5Z" fill="black"/>
<path d="M9.50184 2.5V3.50023H8.50161V5.50068H7.50138V7.50114H2.50024V6.50091H3.50047V5.50068H4.5007V4.50045H5.50093V3.50023H7.50138V2.5H9.50184Z" fill="black"/>
</svg>
