<svg width="220" height="88" viewBox="0 0 220 88" fill="none" xmlns="http://www.w3.org/2000/svg">
<rect x="0.5" y="0.5" width="219" height="87" rx="4.5" stroke="#9747FF" stroke-dasharray="10 5"/>
<path d="M83.01 35.0029V39.0038H81.0095V41.0043H79.0091V39.0038H77.0086V37.0034H75.0082V35.0029H77.0086V33.0024H81.0095V35.0029H83.01Z" fill="black"/>
<path d="M79.0091 41.0038V43.0043H77.0086V45.0047H75.0082V47.0052H73.0077V49.0057H71.0072V51.0061H69.0068V53.0066H67.0063V55.007H65.0059V57.0075H59.0045V51.0061H61.005V49.0057H63.0054V47.0052H65.0059V45.0047H67.0063V43.0043H69.0068V41.0038H71.0072V39.0034H73.0077V37.0029H75.0082V39.0034H77.0086V41.0038H79.0091Z" fill="black"/>
<path d="M71.0073 25.0005V23H41.0005V25.0005H39V65.0095H41.0005V67.01H71.0073V65.0095H73.0077V53.0068H71.0073V55.0073H69.0068V57.0077H67.0064V59.0082H57.0041V49.0059H59.0045V47.0055H61.005V45.005H63.0055V43.0045H65.0059V41.0041H67.0064V39.0036H69.0068V37.0032H71.0073V35.0027H73.0077V25.0005H71.0073ZM69.0068 31.0018H43.0009V29.0014H69.0068V31.0018ZM65.0059 37.0032H43.0009V35.0027H65.0059V37.0032ZM53.0032 55.0073H43.0009V53.0068H53.0032V55.0073ZM43.0009 49.0059V47.0055H55.0036V49.0059H43.0009ZM43.0009 43.0045V41.0041H61.005V43.0045H43.0009Z" fill="black"/>
<path d="M123.505 39.5012V41.5017H122.505V42.5019H121.504V41.5017H120.504V40.5014H119.504V39.5012H120.504V38.501H122.505V39.5012H123.505Z" fill="black"/>
<path d="M121.505 42.5019V43.5021H120.504V44.5024H119.504V45.5026H118.504V46.5028H117.504V47.5031H116.503V48.5033H115.503V49.5035H114.503V50.5037H111.502V47.5031H112.503V46.5028H113.503V45.5026H114.503V44.5024H115.503V43.5021H116.503V42.5019H117.504V41.5017H118.504V40.5015H119.504V41.5017H120.504V42.5019H121.505Z" fill="black"/>
<path d="M117.504 34.5002V33.5H102.5V34.5002H101.5V54.5048H102.5V55.505H117.504V54.5048H118.504V48.5034H117.504V49.5036H116.503V50.5039H115.503V51.5041H110.502V46.503H111.502V45.5027H112.503V44.5025H113.503V43.5023H114.503V42.502H115.503V41.5018H116.503V40.5016H117.504V39.5014H118.504V34.5002H117.504ZM116.503 37.5009H103.5V36.5007H116.503V37.5009ZM114.503 40.5016H103.5V39.5014H114.503V40.5016ZM108.502 49.5036H103.5V48.5034H108.502V49.5036ZM103.5 46.503V45.5027H109.502V46.503H103.5ZM103.5 43.5023V42.502H112.503V43.5023H103.5Z" fill="black"/>
<path d="M155.67 41.0008V42.3344H155.003V43.0013H154.336V42.3344H153.67V41.6676H153.003V41.0008H153.67V40.334H155.003V41.0008H155.67Z" fill="black"/>
<path d="M154.336 43.0016V43.6684H153.67V44.3352H153.003V45.0021H152.336V45.6689H151.669V46.3357H151.002V47.0025H150.335V47.6693H149.669V48.3362H147.668V46.3357H148.335V45.6689H149.002V45.0021H149.669V44.3352H150.335V43.6684H151.002V43.0016H151.669V42.3348H152.336V41.668H153.003V42.3348H153.67V43.0016H154.336Z" fill="black"/>
<path d="M151.669 37.6668V37H141.667V37.6668H141V51.0032H141.667V51.67H151.669V51.0032H152.336V47.0023H151.669V47.6691H151.002V48.3359H150.335V49.0027H147.001V45.6686H147.668V45.0018H148.335V44.335H149.002V43.6682H149.669V43.0014H150.335V42.3345H151.002V41.6677H151.669V41.0009H152.336V37.6668H151.669ZM151.002 39.6673H142.334V39.0005H151.002V39.6673ZM149.669 41.6677H142.334V41.0009H149.669V41.6677ZM145.668 47.6691H142.334V47.0023H145.668V47.6691ZM142.334 45.6686V45.0018H146.335V45.6686H142.334ZM142.334 43.6682V43.0014H148.335V43.6682H142.334Z" fill="black"/>
<g clip-path="url(#clip0_884_14528)">
<path d="M183.752 41.7506V42.7508H183.252V43.2509H182.752V42.7508H182.252V42.2507H181.752V41.7506H182.252V41.2505H183.252V41.7506H183.752Z" fill="black"/>
<path d="M182.752 43.2512V43.7513H182.252V44.2514H181.752V44.7515H181.252V45.2517H180.752V45.7518H180.252V46.2519H179.752V46.752H179.252V47.2521H177.751V45.7518H178.251V45.2517H178.751V44.7515H179.252V44.2514H179.752V43.7513H180.252V43.2512H180.752V42.7511H181.252V42.251H181.752V42.7511H182.252V43.2512H182.752Z" fill="black"/>
<path d="M180.752 39.2501V38.75H173.25V39.2501H172.75V49.2524H173.25V49.7525H180.752V49.2524H181.252V46.2517H180.752V46.7518H180.252V47.2519H179.752V47.752H177.251V45.2515H177.751V44.7514H178.251V44.2513H178.751V43.7511H179.251V43.251H179.752V42.7509H180.252V42.2508H180.752V41.7507H181.252V39.2501H180.752ZM180.252 40.7505H173.75V40.2503H180.252V40.7505ZM179.251 42.2508H173.75V41.7507H179.251V42.2508ZM176.251 46.7518H173.75V46.2517H176.251V46.7518ZM173.75 45.2515V44.7514H176.751V45.2515H173.75ZM173.75 43.7511V43.251H178.251V43.7511H173.75Z" fill="black"/>
</g>
<defs>
<clipPath id="clip0_884_14528">
<rect width="12" height="12" fill="white" transform="translate(172 38)"/>
</clipPath>
</defs>
</svg>
