<?xml version="1.0" encoding="UTF-8"?><svg id="analytics-solid" xmlns="http://www.w3.org/2000/svg" viewBox="0 0 24 24"><polygon points="10 11 11 11 11 21 10 21 10 22 8 22 8 21 7 21 7 11 8 11 8 10 10 10 10 11"/><rect x="11" y="5" width="1" height="1"/><rect x="12" y="6" width="1" height="1"/><polygon points="16 8 17 8 17 10 16 10 16 11 14 11 14 10 13 10 13 8 14 8 14 7 16 7 16 8"/><polygon points="16 15 17 15 17 21 16 21 16 22 14 22 14 21 13 21 13 15 14 15 14 14 16 14 16 15"/><rect x="17" y="6" width="1" height="1"/><rect x="18" y="5" width="1" height="1"/><polygon points="23 2 23 4 22 4 22 5 20 5 20 4 19 4 19 2 20 2 20 1 22 1 22 2 23 2"/><polygon points="22 11 23 11 23 21 22 21 22 22 20 22 20 21 19 21 19 11 20 11 20 10 22 10 22 11"/><rect x="5" y="7" width="1" height="1"/><polygon points="4 9 5 9 5 11 4 11 4 12 2 12 2 11 1 11 1 9 2 9 2 8 4 8 4 9"/><polygon points="4 16 5 16 5 21 4 21 4 22 2 22 2 21 1 21 1 16 2 16 2 15 4 15 4 16"/><rect x="6" y="6" width="1" height="1"/><polygon points="8 4 7 4 7 2 8 2 8 1 10 1 10 2 11 2 11 4 10 4 10 5 8 5 8 4"/></svg>