<?xml version="1.0" encoding="UTF-8"?><svg id="Brightness_High" xmlns="http://www.w3.org/2000/svg" viewBox="0 0 24 24"><rect x="1" y="11" width="5" height="2"/><polygon points="4 5 3 5 3 4 4 4 4 3 5 3 5 4 6 4 6 5 7 5 7 6 8 6 8 7 7 7 7 8 6 8 6 7 5 7 5 6 4 6 4 5"/><polygon points="7 17 8 17 8 18 7 18 7 19 6 19 6 20 5 20 5 21 4 21 4 20 3 20 3 19 4 19 4 18 5 18 5 17 6 17 6 16 7 16 7 17"/><rect x="11" y="18" width="2" height="5"/><rect x="11" y="1" width="2" height="5"/><polygon points="20 19 21 19 21 20 20 20 20 21 19 21 19 20 18 20 18 19 17 19 17 18 16 18 16 17 17 17 17 16 18 16 18 17 19 17 19 18 20 18 20 19"/><rect x="18" y="11" width="5" height="2"/><polygon points="17 7 16 7 16 6 17 6 17 5 18 5 18 4 19 4 19 3 20 3 20 4 21 4 21 5 20 5 20 6 19 6 19 7 18 7 18 8 17 8 17 7"/><polygon points="16 16 14 16 14 17 10 17 10 16 8 16 8 14 7 14 7 10 8 10 8 8 10 8 10 7 14 7 14 8 16 8 16 10 17 10 17 14 16 14 16 16"/></svg>