<?xml version="1.0" encoding="UTF-8"?><svg id="Circle_Notch" xmlns="http://www.w3.org/2000/svg" viewBox="0 0 24 24"><polygon points="23 9 23 15 22 15 22 17 21 17 21 19 20 19 20 20 19 20 19 21 17 21 17 22 15 22 15 23 9 23 9 22 7 22 7 21 5 21 5 20 4 20 4 19 3 19 3 17 2 17 2 15 1 15 1 9 2 9 2 7 3 7 3 5 4 5 4 4 5 4 5 3 7 3 7 2 9 2 9 1 10 1 10 2 11 2 11 4 9 4 9 5 7 5 7 6 6 6 6 7 5 7 5 9 4 9 4 15 5 15 5 17 6 17 6 18 7 18 7 19 9 19 9 20 15 20 15 19 17 19 17 18 18 18 18 17 19 17 19 15 20 15 20 9 19 9 19 7 18 7 18 6 17 6 17 5 15 5 15 4 13 4 13 2 14 2 14 1 15 1 15 2 17 2 17 3 19 3 19 4 20 4 20 5 21 5 21 7 22 7 22 9 23 9"/></svg>