<?xml version="1.0" encoding="UTF-8"?><svg id="cloud-rain-solid" xmlns="http://www.w3.org/2000/svg" viewBox="0 0 24 24"><rect x="3" y="16" width="1" height="3"/><rect x="5" y="19" width="1" height="3"/><rect x="7" y="17" width="1" height="3"/><rect x="9" y="19" width="1" height="3"/><rect x="13" y="20" width="1" height="3"/><rect x="11" y="17" width="1" height="3"/><rect x="17" y="20" width="1" height="3"/><rect x="15" y="17" width="1" height="3"/><rect x="21" y="19" width="1" height="3"/><polygon points="23 8 23 13 22 13 22 14 21 14 21 15 19 15 19 16 5 16 5 15 3 15 3 14 2 14 2 13 1 13 1 8 2 8 2 7 5 7 5 4 6 4 6 3 7 3 7 2 8 2 8 1 13 1 13 2 14 2 14 4 15 4 15 3 18 3 18 4 19 4 19 5 20 5 20 7 22 7 22 8 23 8"/><rect x="19" y="17" width="1" height="3"/></svg>