<?xml version="1.0" encoding="UTF-8"?><svg id="Code" xmlns="http://www.w3.org/2000/svg" viewBox="0 0 24 24"><polygon points="15 4 16 4 16 6 15 6 15 9 14 9 14 12 13 12 13 14 12 14 12 17 11 17 11 20 10 20 10 21 9 21 9 20 8 20 8 18 9 18 9 15 10 15 10 12 11 12 11 10 12 10 12 7 13 7 13 4 14 4 14 3 15 3 15 4"/><polygon points="23 11 23 13 22 13 22 14 21 14 21 15 20 15 20 16 19 16 19 17 17 17 17 15 18 15 18 14 19 14 19 13 20 13 20 11 19 11 19 10 18 10 18 9 17 9 17 7 19 7 19 8 20 8 20 9 21 9 21 10 22 10 22 11 23 11"/><polygon points="7 7 7 9 6 9 6 10 5 10 5 11 4 11 4 13 5 13 5 14 6 14 6 15 7 15 7 17 5 17 5 16 4 16 4 15 3 15 3 14 2 14 2 13 1 13 1 11 2 11 2 10 3 10 3 9 4 9 4 8 5 8 5 7 7 7"/></svg>