<?xml version="1.0" encoding="UTF-8"?><svg id="code-block-solid" xmlns="http://www.w3.org/2000/svg" viewBox="0 0 24 24"><polygon points="18 4 18 7 17 7 17 8 16 8 16 9 15 9 15 10 13 10 13 8 14 8 14 7 15 7 15 6 16 6 16 5 15 5 15 4 14 4 14 3 13 3 13 1 15 1 15 2 16 2 16 3 17 3 17 4 18 4"/><polygon points="12 1 12 3 11 3 11 5 10 5 10 8 9 8 9 10 7 10 7 8 8 8 8 6 9 6 9 3 10 3 10 1 12 1"/><polygon points="2 7 1 7 1 4 2 4 2 3 3 3 3 2 4 2 4 1 6 1 6 3 5 3 5 4 4 4 4 5 3 5 3 6 4 6 4 7 5 7 5 8 6 8 6 10 4 10 4 9 3 9 3 8 2 8 2 7"/><polygon points="23 5 23 22 22 22 22 23 2 23 2 22 1 22 1 9 2 9 2 10 3 10 3 11 4 11 4 20 20 20 20 7 19 7 19 4 22 4 22 5 23 5"/></svg>