<?xml version="1.0" encoding="UTF-8"?><svg id="graduation-cap-solid" xmlns="http://www.w3.org/2000/svg" viewBox="0 0 24 24"><polygon points="19 13 19 18 18 18 18 19 17 19 17 20 15 20 15 21 9 21 9 20 7 20 7 19 6 19 6 18 5 18 5 13 7 13 7 14 9 14 9 15 11 15 11 16 13 16 13 15 15 15 15 14 17 14 17 13 19 13"/><polygon points="23 8 23 9 22 9 22 10 20 10 20 11 17 11 17 12 15 12 15 13 13 13 13 14 11 14 11 13 9 13 9 12 7 12 7 11 4 11 4 10 3 10 3 21 1 21 1 8 2 8 2 7 4 7 4 6 7 6 7 5 9 5 9 4 11 4 11 3 13 3 13 4 15 4 15 5 17 5 17 6 20 6 20 7 22 7 22 8 23 8"/></svg>