<?xml version="1.0" encoding="UTF-8"?><svg id="handshake-solid" xmlns="http://www.w3.org/2000/svg" viewBox="0 0 24 24"><polygon points="6 12 7 12 7 13 12 13 12 12 14 12 14 13 15 13 15 14 16 14 16 15 17 15 17 16 18 16 18 19 17 19 17 18 16 18 16 17 15 17 15 16 14 16 14 15 13 15 13 16 14 16 14 17 15 17 15 18 16 18 16 19 17 19 17 20 16 20 16 21 15 21 15 20 14 20 14 19 13 19 13 18 12 18 12 17 11 17 11 16 10 16 10 17 11 17 11 18 12 18 12 19 13 19 13 20 14 20 14 21 11 21 11 20 10 20 10 19 9 19 9 18 8 18 8 19 9 19 9 20 10 20 10 21 7 21 7 20 6 20 6 19 5 19 5 18 4 18 4 17 3 17 3 16 2 16 2 15 1 15 1 4 2 4 2 5 4 5 4 6 6 6 6 5 9 5 9 7 8 7 8 8 7 8 7 9 6 9 6 12"/><polygon points="23 4 23 15 22 15 22 16 21 16 21 17 20 17 20 16 19 16 19 15 18 15 18 14 17 14 17 13 16 13 16 12 15 12 15 11 14 11 14 10 12 10 12 11 11 11 11 12 7 12 7 10 8 10 8 9 9 9 9 8 10 8 10 7 11 7 11 6 12 6 12 5 17 5 17 6 20 6 20 5 22 5 22 4 23 4"/></svg>