<?xml version="1.0" encoding="UTF-8"?><svg id="indent-solid" xmlns="http://www.w3.org/2000/svg" viewBox="0 0 24 24"><polygon points="22 15 23 15 23 16 22 16 22 17 12 17 12 16 11 16 11 15 12 15 12 14 22 14 22 15"/><polygon points="22 21 23 21 23 22 22 22 22 23 2 23 2 22 1 22 1 21 2 21 2 20 22 20 22 21"/><polygon points="22 8 23 8 23 9 22 9 22 10 12 10 12 9 11 9 11 8 12 8 12 7 22 7 22 8"/><polygon points="23 2 23 3 22 3 22 4 2 4 2 3 1 3 1 2 2 2 2 1 22 1 22 2 23 2"/><polygon points="2 17 1 17 1 7 2 7 2 6 4 6 4 7 5 7 5 8 6 8 6 9 7 9 7 10 8 10 8 11 9 11 9 13 8 13 8 14 7 14 7 15 6 15 6 16 5 16 5 17 4 17 4 18 2 18 2 17"/></svg>