<?xml version="1.0" encoding="UTF-8"?><svg id="line-height-solid" xmlns="http://www.w3.org/2000/svg" viewBox="0 0 24 24"><polygon points="8 6 9 6 9 8 7 8 7 7 6 7 6 18 7 18 7 17 9 17 9 19 8 19 8 20 7 20 7 21 6 21 6 22 4 22 4 21 3 21 3 20 2 20 2 19 1 19 1 17 3 17 3 18 4 18 4 7 3 7 3 8 1 8 1 6 2 6 2 5 3 5 3 4 4 4 4 3 6 3 6 4 7 4 7 5 8 5 8 6"/><polygon points="22 12 23 12 23 13 22 13 22 14 11 14 11 13 10 13 10 12 11 12 11 11 22 11 22 12"/><polygon points="23 6 23 7 22 7 22 8 11 8 11 7 10 7 10 6 11 6 11 5 22 5 22 6 23 6"/><polygon points="22 18 23 18 23 19 22 19 22 20 11 20 11 19 10 19 10 18 11 18 11 17 22 17 22 18"/></svg>