<?xml version="1.0" encoding="UTF-8"?><svg id="Numbered_List" xmlns="http://www.w3.org/2000/svg" viewBox="0 0 24 24"><polygon points="5 8 5 9 2 9 2 8 3 8 3 6 2 6 2 5 3 5 3 4 4 4 4 8 5 8"/><polygon points="5 16 5 21 2 21 2 20 4 20 4 19 3 19 3 18 4 18 4 17 2 17 2 16 5 16"/><polygon points="3 13 4 13 4 14 5 14 5 15 2 15 2 14 3 14 3 13"/><rect x="4" y="11" width="1" height="2"/><polygon points="4 10 4 11 3 11 3 12 2 12 2 10 4 10"/><polygon points="22 12 23 12 23 13 22 13 22 14 10 14 10 13 9 13 9 12 10 12 10 11 22 11 22 12"/><polygon points="22 18 23 18 23 19 22 19 22 20 10 20 10 19 9 19 9 18 10 18 10 17 22 17 22 18"/><polygon points="23 6 23 7 22 7 22 8 10 8 10 7 9 7 9 6 10 6 10 5 22 5 22 6 23 6"/><g id="BG_copy_134"><rect width="24" height="24" fill="none"/></g></svg>