<?xml version="1.0" encoding="UTF-8"?><svg id="outdent-solid" xmlns="http://www.w3.org/2000/svg" viewBox="0 0 24 24"><polygon points="9 7 9 17 8 17 8 18 6 18 6 17 5 17 5 16 4 16 4 15 3 15 3 14 2 14 2 13 1 13 1 11 2 11 2 10 3 10 3 9 4 9 4 8 5 8 5 7 6 7 6 6 8 6 8 7 9 7"/><polygon points="22 8 23 8 23 9 22 9 22 10 12 10 12 9 11 9 11 8 12 8 12 7 22 7 22 8"/><polygon points="22 15 23 15 23 16 22 16 22 17 12 17 12 16 11 16 11 15 12 15 12 14 22 14 22 15"/><polygon points="23 2 23 3 22 3 22 4 2 4 2 3 1 3 1 2 2 2 2 1 22 1 22 2 23 2"/><polygon points="22 21 23 21 23 22 22 22 22 23 2 23 2 22 1 22 1 21 2 21 2 20 22 20 22 21"/></svg>