<?xml version="1.0" encoding="UTF-8"?><svg id="Paperclip" xmlns="http://www.w3.org/2000/svg" viewBox="0 0 24 24"><polygon points="21 4 21 9 20 9 20 10 19 10 19 11 18 11 18 12 17 12 17 13 16 13 16 14 15 14 15 15 14 15 14 16 13 16 13 17 12 17 12 18 11 18 11 19 8 19 8 18 7 18 7 17 6 17 6 14 7 14 7 13 8 13 8 12 9 12 9 11 10 11 10 10 11 10 11 9 12 9 12 8 13 8 13 7 14 7 14 6 15 6 15 5 16 5 16 6 17 6 17 8 16 8 16 9 15 9 15 10 14 10 14 11 13 11 13 12 12 12 12 13 11 13 11 14 10 14 10 15 9 15 9 16 11 16 11 15 12 15 12 14 13 14 13 13 14 13 14 12 15 12 15 11 16 11 16 10 17 10 17 9 18 9 18 5 17 5 17 4 14 4 14 5 13 5 13 6 12 6 12 7 11 7 11 8 10 8 10 9 9 9 9 10 8 10 8 11 7 11 7 12 6 12 6 13 5 13 5 18 6 18 6 19 7 19 7 20 12 20 12 19 13 19 13 18 14 18 14 17 15 17 15 16 16 16 16 15 17 15 17 14 18 14 18 13 19 13 19 12 20 12 20 13 21 13 21 15 20 15 20 16 19 16 19 17 18 17 18 18 17 18 17 19 16 19 16 20 15 20 15 21 14 21 14 22 13 22 13 23 7 23 7 22 5 22 5 21 4 21 4 20 3 20 3 18 2 18 2 12 3 12 3 11 4 11 4 10 5 10 5 9 6 9 6 8 7 8 7 7 8 7 8 6 9 6 9 5 10 5 10 4 11 4 11 3 12 3 12 2 14 2 14 1 18 1 18 2 19 2 19 3 20 3 20 4 21 4"/></svg>