<?xml version="1.0" encoding="UTF-8"?><svg id="People_Carry" xmlns="http://www.w3.org/2000/svg" viewBox="0 0 24 24"><polygon points="3 17 4 17 4 18 3 18 3 20 1 20 1 17 2 17 2 16 3 16 3 17"/><polygon points="4 5 3 5 3 3 4 3 4 2 6 2 6 3 7 3 7 5 6 5 6 6 4 6 4 5"/><polygon points="23 17 23 20 21 20 21 18 20 18 20 17 21 17 21 16 22 16 22 17 23 17"/><polygon points="20 16 19 16 19 20 18 20 18 21 17 21 17 20 16 20 16 17 17 17 17 14 18 14 18 12 17 12 17 13 16 13 16 14 8 14 8 13 7 13 7 12 6 12 6 14 7 14 7 17 8 17 8 20 7 20 7 21 6 21 6 20 5 20 5 16 4 16 4 15 3 15 3 14 2 14 2 11 3 11 3 8 4 8 4 7 6 7 6 8 7 8 7 10 8 10 8 11 9 11 9 7 15 7 15 11 16 11 16 10 17 10 17 8 18 8 18 7 20 7 20 8 21 8 21 11 22 11 22 14 21 14 21 15 20 15 20 16"/><polygon points="18 5 17 5 17 3 18 3 18 2 20 2 20 3 21 3 21 5 20 5 20 6 18 6 18 5"/></svg>