<?xml version="1.0" encoding="UTF-8"?><svg id="Phone_Ringing_High" xmlns="http://www.w3.org/2000/svg" viewBox="0 0 24 24"><polygon points="12 7 12 5 15 5 15 6 16 6 16 7 17 7 17 8 18 8 18 9 19 9 19 12 17 12 17 10 16 10 16 9 15 9 15 8 14 8 14 7 12 7"/><rect x="12" y="10" width="2" height="2"/><polygon points="23 8 23 12 21 12 21 8 20 8 20 7 19 7 19 6 18 6 18 5 17 5 17 4 16 4 16 3 12 3 12 1 16 1 16 2 18 2 18 3 19 3 19 4 20 4 20 5 21 5 21 6 22 6 22 8 23 8"/><polygon points="22 17 23 17 23 20 22 20 22 22 21 22 21 23 16 23 16 22 12 22 12 21 10 21 10 20 9 20 9 19 8 19 8 18 7 18 7 17 6 17 6 16 5 16 5 15 4 15 4 14 3 14 3 12 2 12 2 8 1 8 1 3 2 3 2 2 4 2 4 1 7 1 7 2 8 2 8 3 9 3 9 5 10 5 10 8 9 8 9 9 8 9 8 12 9 12 9 13 10 13 10 14 11 14 11 15 12 15 12 16 15 16 15 15 16 15 16 14 19 14 19 15 21 15 21 16 22 16 22 17"/></svg>