<?xml version="1.0" encoding="UTF-8"?><svg id="Sound_Mute" xmlns="http://www.w3.org/2000/svg" viewBox="0 0 24 24"><polygon points="14 2 14 22 11 22 11 21 10 21 10 20 9 20 9 19 8 19 8 18 7 18 7 17 6 17 6 16 1 16 1 8 6 8 6 7 7 7 7 6 8 6 8 5 9 5 9 4 10 4 10 3 11 3 11 2 14 2"/><polygon points="22 8 22 10 21 10 21 11 20 11 20 13 21 13 21 14 22 14 22 16 20 16 20 15 19 15 19 14 18 14 18 15 17 15 17 16 15 16 15 14 16 14 16 13 17 13 17 11 16 11 16 10 15 10 15 8 17 8 17 9 18 9 18 10 19 10 19 9 20 9 20 8 22 8"/></svg>