<?xml version="1.0" encoding="UTF-8"?><svg id="sparkles-solid" xmlns="http://www.w3.org/2000/svg" viewBox="0 0 24 24"><polygon points="23 18 23 20 21 20 21 21 20 21 20 23 18 23 18 21 17 21 17 20 15 20 15 18 17 18 17 17 18 17 18 15 20 15 20 17 21 17 21 18 23 18"/><polygon points="23 4 23 6 21 6 21 7 20 7 20 9 18 9 18 7 17 7 17 6 15 6 15 4 17 4 17 3 18 3 18 1 20 1 20 3 21 3 21 4 23 4"/><polygon points="17 11 17 13 15 13 15 14 13 14 13 15 12 15 12 16 11 16 11 18 10 18 10 20 8 20 8 18 7 18 7 16 6 16 6 15 5 15 5 14 3 14 3 13 1 13 1 11 3 11 3 10 5 10 5 9 6 9 6 8 7 8 7 6 8 6 8 4 10 4 10 6 11 6 11 8 12 8 12 9 13 9 13 10 15 10 15 11 17 11"/></svg>