<?xml version="1.0" encoding="UTF-8"?><svg id="text-slash-solid" xmlns="http://www.w3.org/2000/svg" viewBox="0 0 24 24"><polygon points="11 17 12 17 12 19 11 19 11 23 7 23 7 19 8 19 8 15 9 15 9 16 11 16 11 17"/><polygon points="23 19 23 22 21 22 21 21 20 21 20 20 18 20 18 19 17 19 17 18 15 18 15 17 14 17 14 16 12 16 12 15 10 15 10 14 9 14 9 13 7 13 7 12 6 12 6 11 4 11 4 10 3 10 3 9 1 9 1 6 3 6 3 7 4 7 4 8 6 8 6 9 7 9 7 10 9 10 9 11 10 11 10 12 12 12 12 13 14 13 14 14 15 14 15 15 17 15 17 16 18 16 18 17 20 17 20 18 21 18 21 19 23 19"/><polygon points="4 5 4 1 22 1 22 5 15 5 15 9 14 9 14 12 13 12 13 11 11 11 11 10 10 10 10 9 11 9 11 5 4 5"/></svg>