<?xml version="1.0" encoding="UTF-8"?><svg id="Translate" xmlns="http://www.w3.org/2000/svg" viewBox="0 0 24 24"><polygon points="19 16 19 17 14 17 14 16 15 16 15 14 18 14 18 16 19 16"/><polygon points="22 5 22 6 21 6 21 7 20 7 20 8 18 8 18 7 17 7 17 6 16 6 16 5 18 5 18 4 17 4 17 3 16 3 16 2 19 2 19 3 20 3 20 5 22 5"/><path d="m22,10v-1h-11v1h-1v12h1v1h11v-1h1v-12h-1Zm-1,11h-2v-3h-5v3h-2v-5h1v-2h1v-1h1v-1h1v-1h1v1h1v1h1v1h1v2h1v5Z"/><polygon points="7 7 7 8 6 8 6 9 4 9 4 7 7 7"/><polygon points="14 2 14 8 12 8 12 6 11 6 11 5 9 5 9 6 8 6 8 4 12 4 12 3 3 3 3 4 7 4 7 6 6 6 6 5 4 5 4 6 3 6 3 10 4 10 4 11 6 11 6 10 7 10 7 13 8 13 8 8 9 8 9 7 11 7 11 8 10 8 10 9 9 9 9 15 2 15 2 14 1 14 1 2 2 2 2 1 13 1 13 2 14 2"/><polygon points="6 19 6 20 7 20 7 21 8 21 8 22 5 22 5 21 4 21 4 19 2 19 2 18 3 18 3 17 4 17 4 16 6 16 6 17 7 17 7 18 8 18 8 19 6 19"/></svg>