<?xml version="1.0" encoding="UTF-8"?><svg id="Trending" xmlns="http://www.w3.org/2000/svg" viewBox="0 0 24 24"><polygon points="23 5 23 15 22 15 22 14 21 14 21 13 20 13 20 12 18 12 18 13 17 13 17 14 16 14 16 15 15 15 15 16 14 16 14 17 13 17 13 18 12 18 12 19 10 19 10 18 9 18 9 17 8 17 8 16 7 16 7 15 5 15 5 16 4 16 4 17 1 17 1 14 2 14 2 13 3 13 3 12 4 12 4 11 5 11 5 10 7 10 7 11 8 11 8 12 9 12 9 13 10 13 10 14 12 14 12 13 13 13 13 12 14 12 14 11 15 11 15 10 16 10 16 8 15 8 15 7 14 7 14 6 13 6 13 5 23 5"/></svg>