<?xml version="1.0" encoding="UTF-8"?><svg id="Users_Crown" xmlns="http://www.w3.org/2000/svg" viewBox="0 0 24 24"><polygon points="16 20 15 20 15 21 2 21 2 20 1 20 1 17 2 17 2 16 3 16 3 15 4 15 4 14 13 14 13 15 14 15 14 16 15 16 15 17 16 17 16 20"/><polygon points="13 12 13 11 14 11 14 5 18 5 18 6 19 6 19 11 18 11 18 12 13 12"/><polygon points="23 17 23 20 22 20 22 21 16 21 16 20 17 20 17 16 16 16 16 15 15 15 15 14 20 14 20 15 21 15 21 16 22 16 22 17 23 17"/><path d="m12,3v1h-1v1h-1v-1h-1v-1h-1v1h-1v1h-1v-1h-1v-1h-1v7h1v1h1v1h5v-1h1v-1h1V3h-1Zm-1,6h-1v1h-3v-1h-1v-2h5v2Z"/></svg>