<?xml version="1.0" encoding="UTF-8"?><svg id="Check" xmlns="http://www.w3.org/2000/svg" viewBox="0 0 24 24"><polygon points="23 4 23 5 22 5 22 6 21 6 21 7 20 7 20 8 19 8 19 9 18 9 18 10 17 10 17 11 16 11 16 12 15 12 15 13 14 13 14 14 13 14 13 15 12 15 12 16 11 16 11 17 10 17 10 18 9 18 9 19 8 19 8 20 6 20 6 19 5 19 5 18 4 18 4 17 3 17 3 16 2 16 2 15 1 15 1 14 3 14 3 15 4 15 4 16 5 16 5 17 6 17 6 18 8 18 8 17 9 17 9 16 10 16 10 15 11 15 11 14 12 14 12 13 13 13 13 12 14 12 14 11 15 11 15 10 16 10 16 9 17 9 17 8 18 8 18 7 19 7 19 6 20 6 20 5 21 5 21 4 23 4"/></svg>