<?xml version="1.0" encoding="UTF-8"?><svg id="Cog" xmlns="http://www.w3.org/2000/svg" viewBox="0 0 24 24"><rect x="19" y="7" width="1" height="2"/><rect x="19" y="15" width="1" height="2"/><rect x="15" y="19" width="2" height="1"/><rect x="7" y="19" width="2" height="1"/><rect x="4" y="15" width="1" height="2"/><rect x="4" y="7" width="1" height="2"/><rect x="7" y="4" width="2" height="1"/><polygon points="23 10 23 14 21 14 21 13 22 13 22 11 21 11 21 10 23 10"/><rect x="20" y="17" width="1" height="2"/><rect x="20" y="14" width="1" height="1"/><rect x="20" y="9" width="1" height="1"/><rect x="20" y="5" width="1" height="2"/><rect x="19" y="19" width="1" height="1"/><rect x="19" y="4" width="1" height="1"/><rect x="17" y="3" width="2" height="1"/><rect x="17" y="20" width="2" height="1"/><rect x="15" y="4" width="2" height="1"/><rect x="15" y="10" width="1" height="4"/><rect x="14" y="20" width="1" height="1"/><rect x="14" y="14" width="1" height="1"/><rect x="14" y="9" width="1" height="1"/><rect x="14" y="3" width="1" height="1"/><polygon points="14 21 14 23 10 23 10 21 11 21 11 22 13 22 13 21 14 21"/><rect x="10" y="15" width="4" height="1"/><rect x="10" y="8" width="4" height="1"/><polygon points="14 1 14 3 13 3 13 2 11 2 11 3 10 3 10 1 14 1"/><rect x="9" y="20" width="1" height="1"/><rect x="9" y="14" width="1" height="1"/><rect x="9" y="9" width="1" height="1"/><rect x="9" y="3" width="1" height="1"/><rect x="8" y="10" width="1" height="4"/><rect x="5" y="20" width="2" height="1"/><rect x="5" y="3" width="2" height="1"/><rect x="4" y="19" width="1" height="1"/><rect x="4" y="4" width="1" height="1"/><rect x="3" y="17" width="1" height="2"/><rect x="3" y="14" width="1" height="1"/><rect x="3" y="9" width="1" height="1"/><rect x="3" y="5" width="1" height="2"/><polygon points="2 13 3 13 3 14 1 14 1 10 3 10 3 11 2 11 2 13"/></svg>