<?xml version="1.0" encoding="UTF-8"?><svg id="Coins" xmlns="http://www.w3.org/2000/svg" viewBox="0 0 24 24"><rect x="20" y="15" width="2" height="1"/><polygon points="23 5 23 15 22 15 22 12 20 12 20 11 22 11 22 8 20 8 20 7 22 7 22 5 23 5"/><rect x="20" y="4" width="2" height="1"/><rect x="11" y="3" width="9" height="1"/><rect x="9" y="4" width="2" height="1"/><rect x="4" y="16" width="9" height="1"/><polygon points="2 12 2 15 4 15 4 16 2 16 2 19 1 19 1 9 2 9 2 11 4 11 4 12 2 12"/><rect x="4" y="12" width="9" height="1"/><rect x="13" y="19" width="2" height="1"/><rect x="4" y="20" width="9" height="1"/><rect x="2" y="19" width="2" height="1"/><polygon points="16 9 16 12 20 12 20 13 16 13 16 16 20 16 20 17 16 17 16 19 15 19 15 16 13 16 13 15 15 15 15 12 13 12 13 11 15 11 15 9 13 9 13 8 20 8 20 9 16 9"/><polygon points="13 7 13 8 4 8 4 7 8 7 8 5 9 5 9 7 13 7"/><rect x="2" y="8" width="2" height="1"/></svg>