<?xml version="1.0" encoding="UTF-8"?><svg id="External_Link_Square" xmlns="http://www.w3.org/2000/svg" viewBox="0 0 24 24"><rect x="22" y="2" width="1" height="20"/><rect x="15" y="8" width="1" height="1"/><rect x="14" y="9" width="1" height="1"/><rect x="13" y="10" width="1" height="1"/><rect x="12" y="11" width="1" height="1"/><rect x="11" y="12" width="1" height="1"/><rect x="10" y="13" width="1" height="1"/><polygon points="18 6 18 14 17 14 17 8 16 8 16 7 10 7 10 6 18 6"/><rect x="9" y="14" width="1" height="1"/><rect x="8" y="15" width="1" height="1"/><rect x="7" y="16" width="1" height="1"/><rect x="6" y="17" width="1" height="1"/><rect x="2" y="22" width="20" height="1"/><rect x="2" y="1" width="20" height="1"/><rect x="1" y="2" width="1" height="20"/></svg>