<?xml version="1.0" encoding="UTF-8"?><svg id="Lightbulb" xmlns="http://www.w3.org/2000/svg" viewBox="0 0 24 24"><rect x="19" y="7" width="1" height="4"/><rect x="18" y="11" width="1" height="2"/><rect x="18" y="5" width="1" height="2"/><rect x="17" y="13" width="1" height="1"/><rect x="17" y="4" width="1" height="1"/><rect x="16" y="14" width="1" height="1"/><rect x="16" y="3" width="1" height="1"/><rect x="15" y="15" width="1" height="1"/><rect x="14" y="2" width="2" height="1"/><rect x="13" y="21" width="1" height="1"/><rect x="10" y="1" width="4" height="1"/><rect x="11" y="22" width="2" height="1"/><rect x="10" y="21" width="1" height="1"/><rect x="10" y="4" width="3" height="1"/><path d="m9,16v5h1v-1h4v1h1v-5h-6Zm5,3h-4v-2h4v2Z"/><rect x="9" y="5" width="1" height="1"/><rect x="8" y="2" width="2" height="1"/><rect x="8" y="15" width="1" height="1"/><rect x="8" y="6" width="1" height="1"/><rect x="7" y="14" width="1" height="1"/><rect x="7" y="7" width="1" height="2"/><rect x="7" y="3" width="1" height="1"/><rect x="6" y="13" width="1" height="1"/><rect x="6" y="4" width="1" height="1"/><rect x="5" y="11" width="1" height="2"/><rect x="5" y="5" width="1" height="2"/><rect x="4" y="7" width="1" height="4"/></svg>