<?xml version="1.0" encoding="UTF-8"?><svg id="Question" xmlns="http://www.w3.org/2000/svg" viewBox="0 0 24 24"><rect x="13" y="17" width="1" height="1"/><rect x="14" y="18" width="1" height="3"/><rect x="13" y="21" width="1" height="1"/><rect x="9" y="21" width="1" height="1"/><rect x="10" y="22" width="3" height="1"/><rect x="9" y="17" width="1" height="1"/><rect x="8" y="18" width="1" height="3"/><rect x="15" y="12" width="2" height="1"/><rect x="17" y="11" width="1" height="1"/><rect x="18" y="5" width="1" height="6"/><rect x="17" y="4" width="1" height="1"/><rect x="16" y="3" width="1" height="1"/><rect x="15" y="2" width="1" height="1"/><rect x="9" y="1" width="6" height="1"/><rect x="7" y="2" width="2" height="1"/><rect x="6" y="3" width="1" height="1"/><rect x="5" y="4" width="1" height="1"/><rect x="4" y="5" width="1" height="1"/><rect x="5" y="6" width="1" height="1"/><rect x="6" y="7" width="1" height="1"/><rect x="7" y="8" width="1" height="1"/><rect x="8" y="9" width="1" height="1"/><rect x="9" y="8" width="1" height="1"/><rect x="10" y="7" width="1" height="1"/><rect x="11" y="6" width="2" height="1"/><rect x="13" y="7" width="1" height="2"/><rect x="11" y="9" width="2" height="1"/><rect x="10" y="10" width="1" height="1"/><rect x="9" y="11" width="1" height="1"/><rect x="8" y="12" width="1" height="3"/><polygon points="14 15 14 16 13 16 13 17 10 17 10 16 9 16 9 15 14 15"/><rect x="14" y="13" width="1" height="2"/></svg>