<?xml version="1.0" encoding="UTF-8"?><svg id="Times" xmlns="http://www.w3.org/2000/svg" viewBox="0 0 24 24"><polygon points="23 1 23 3 22 3 22 4 21 4 21 5 20 5 20 6 19 6 19 7 18 7 18 8 17 8 17 9 16 9 16 10 15 10 15 11 14 11 14 13 15 13 15 14 16 14 16 15 17 15 17 16 18 16 18 17 19 17 19 18 20 18 20 19 21 19 21 20 22 20 22 21 23 21 23 23 22 23 22 22 21 22 21 21 20 21 20 20 19 20 19 19 18 19 18 18 17 18 17 17 16 17 16 16 15 16 15 15 14 15 14 14 13 14 13 13 11 13 11 14 10 14 10 15 9 15 9 16 8 16 8 17 7 17 7 18 6 18 6 19 5 19 5 20 4 20 4 21 3 21 3 22 2 22 2 23 1 23 1 21 2 21 2 20 3 20 3 19 4 19 4 18 5 18 5 17 6 17 6 16 7 16 7 15 8 15 8 14 9 14 9 13 10 13 10 11 9 11 9 10 8 10 8 9 7 9 7 8 6 8 6 7 5 7 5 6 4 6 4 5 3 5 3 4 2 4 2 3 1 3 1 1 2 1 2 2 3 2 3 3 4 3 4 4 5 4 5 5 6 5 6 6 7 6 7 7 8 7 8 8 9 8 9 9 10 9 10 10 11 10 11 11 13 11 13 10 14 10 14 9 15 9 15 8 16 8 16 7 17 7 17 6 18 6 18 5 19 5 19 4 20 4 20 3 21 3 21 2 22 2 22 1 23 1"/></svg>