<?xml version="1.0" encoding="UTF-8"?><svg id="Upload" xmlns="http://www.w3.org/2000/svg" viewBox="0 0 24 24"><rect x="22" y="16" width="1" height="6"/><rect x="19" y="19" width="1" height="1"/><rect x="17" y="19" width="1" height="1"/><rect x="9" y="18" width="6" height="1"/><rect x="2" y="22" width="20" height="1"/><polygon points="22 15 22 16 16 16 16 18 15 18 15 9 19 9 19 8 18 8 18 7 17 7 17 6 16 6 16 5 15 5 15 4 14 4 14 3 13 3 13 2 11 2 11 3 10 3 10 4 9 4 9 5 8 5 8 6 7 6 7 7 6 7 6 8 5 8 5 9 9 9 9 18 8 18 8 16 2 16 2 15 8 15 8 10 4 10 4 7 5 7 5 6 6 6 6 5 7 5 7 4 8 4 8 3 9 3 9 2 10 2 10 1 14 1 14 2 15 2 15 3 16 3 16 4 17 4 17 5 18 5 18 6 19 6 19 7 20 7 20 10 16 10 16 15 22 15"/><rect x="1" y="16" width="1" height="6"/></svg>