<?xml version="1.0" encoding="UTF-8"?><svg id="Arrow_Circle_Down" xmlns="http://www.w3.org/2000/svg" viewBox="0 0 24 24"><path d="m22,8v-2h-1v-1h-1v-1h-1v-1h-1v-1h-2v-1h-8v1h-2v1h-1v1h-1v1h-1v1h-1v2h-1v8h1v2h1v1h1v1h1v1h1v1h2v1h8v-1h2v-1h1v-1h1v-1h1v-1h1v-2h1v-8h-1Zm-1,8h-1v2h-1v1h-1v1h-2v1h-8v-1h-2v-1h-1v-1h-1v-2h-1v-8h1v-2h1v-1h1v-1h2v-1h8v1h2v1h1v1h1v2h1v8Z"/><polygon points="19 12 19 13 18 13 18 14 17 14 17 15 16 15 16 16 15 16 15 17 14 17 14 18 13 18 13 19 11 19 11 18 10 18 10 17 9 17 9 16 8 16 8 15 7 15 7 14 6 14 6 13 5 13 5 12 6 12 6 11 7 11 7 12 8 12 8 13 9 13 9 14 10 14 10 15 11 15 11 5 13 5 13 15 14 15 14 14 15 14 15 13 16 13 16 12 17 12 17 11 18 11 18 12 19 12"/></svg>