<?xml version="1.0" encoding="UTF-8"?><svg id="Check_List" xmlns="http://www.w3.org/2000/svg" viewBox="0 0 24 24"><rect x="9" y="18" width="14" height="1"/><rect x="9" y="12" width="14" height="1"/><rect x="9" y="6" width="14" height="1"/><polygon points="7 15 8 15 8 17 7 17 7 18 6 18 6 19 5 19 5 20 4 20 4 21 3 21 3 20 2 20 2 19 1 19 1 17 2 17 2 18 3 18 3 19 4 19 4 18 5 18 5 17 6 17 6 16 7 16 7 15"/><polygon points="8 9 8 11 7 11 7 12 6 12 6 13 5 13 5 14 4 14 4 15 3 15 3 14 2 14 2 13 1 13 1 11 2 11 2 12 3 12 3 13 4 13 4 12 5 12 5 11 6 11 6 10 7 10 7 9 8 9"/><polygon points="8 3 8 5 7 5 7 6 6 6 6 7 5 7 5 8 4 8 4 9 3 9 3 8 2 8 2 7 1 7 1 5 2 5 2 6 3 6 3 7 4 7 4 6 5 6 5 5 6 5 6 4 7 4 7 3 8 3"/></svg>