<?xml version="1.0" encoding="UTF-8"?><svg id="Phone_Ringing_Low" xmlns="http://www.w3.org/2000/svg" viewBox="0 0 24 24"><polygon points="12 7 12 5 15 5 15 6 16 6 16 7 17 7 17 8 18 8 18 9 19 9 19 12 17 12 17 10 16 10 16 9 15 9 15 8 14 8 14 7 12 7"/><path d="m22,17v-1h-1v-1h-2v-1h-3v1h-1v1h-3v-1h-1v-1h-1v-1h-1v-1h-1v-3h1v-1h1v-3h-1v-2h-1v-1h-1v-1h-3v1h-2v1h-1v5h1v4h1v2h1v1h1v1h1v1h1v1h1v1h1v1h1v1h2v1h4v1h5v-1h1v-2h1v-3h-1Zm-1,3h-1v1h-4v-1h-4v-1h-2v-1h-1v-1h-1v-1h-1v-1h-1v-1h-1v-2h-1v-4h-1v-4h1v-1h3v2h1v3h-1v1h-1v3h1v1h1v1h1v1h1v1h1v1h1v1h3v-1h1v-1h3v1h2v3Z"/></svg>