<?xml version="1.0" encoding="UTF-8"?><svg id="Shuffle" xmlns="http://www.w3.org/2000/svg" viewBox="0 0 24 24"><polygon points="8 15 9 15 9 17 8 17 8 18 7 18 7 19 1 19 1 17 7 17 7 16 8 16 8 15"/><polygon points="21 16 22 16 22 18 21 18 21 19 20 19 20 20 19 20 19 21 18 21 18 18 14 18 14 17 13 17 13 16 12 16 12 14 11 14 11 13 10 13 10 11 9 11 9 10 8 10 8 8 7 8 7 7 1 7 1 5 8 5 8 6 9 6 9 8 10 8 10 10 11 10 11 11 12 11 12 13 13 13 13 14 14 14 14 16 18 16 18 13 19 13 19 14 20 14 20 15 21 15 21 16"/><polygon points="22 5 22 7 21 7 21 8 20 8 20 9 19 9 19 10 18 10 18 7 14 7 14 8 13 8 13 9 12 9 12 7 13 7 13 6 14 6 14 5 18 5 18 2 19 2 19 3 20 3 20 4 21 4 21 5 22 5"/></svg>