<?xml version="1.0" encoding="UTF-8"?><svg id="Sound_Mute" xmlns="http://www.w3.org/2000/svg" viewBox="0 0 24 24"><polygon points="22 8 22 10 21 10 21 11 20 11 20 13 21 13 21 14 22 14 22 16 20 16 20 15 19 15 19 14 18 14 18 15 17 15 17 16 15 16 15 14 16 14 16 13 17 13 17 11 16 11 16 10 15 10 15 8 17 8 17 9 18 9 18 10 19 10 19 9 20 9 20 8 22 8"/><path d="m11,2v1h-1v1h-1v1h-1v1h-1v1h-1v1H1v8h5v1h1v1h1v1h1v1h1v1h1v1h3V2h-3ZM3,10h4v-1h1v-1h1v-1h1v-1h1v-1h1v14h-1v-1h-1v-1h-1v-1h-1v-1h-1v-1H3v-4Z"/></svg>