<?xml version="1.0" encoding="UTF-8"?><svg id="Arrow_Up" xmlns="http://www.w3.org/2000/svg" viewBox="0 0 24 24"><polygon points="11 1 13 1 13 2 14 2 14 3 15 3 15 4 16 4 16 5 17 5 17 6 18 6 18 7 19 7 19 8 20 8 20 9 21 9 21 10 22 10 22 11 23 11 23 12 22 12 22 13 21 13 21 14 20 14 20 13 19 13 19 12 18 12 18 11 17 11 17 10 16 10 16 9 15 9 15 8 14 8 14 23 10 23 10 8 9 8 9 9 8 9 8 10 7 10 7 11 6 11 6 12 5 12 5 13 4 13 4 14 3 14 3 13 2 13 2 12 1 12 1 11 2 11 2 10 3 10 3 9 4 9 4 8 5 8 5 7 6 7 6 6 7 6 7 5 8 5 8 4 9 4 9 3 10 3 10 2 11 2 11 1"/></svg>