<?xml version="1.0" encoding="UTF-8"?><svg id="Arrow_Down" xmlns="http://www.w3.org/2000/svg" viewBox="0 0 24 24"><polygon points="13 23 11 23 11 22 10 22 10 21 9 21 9 20 8 20 8 19 7 19 7 18 6 18 6 17 5 17 5 16 4 16 4 15 3 15 3 14 2 14 2 13 1 13 1 12 2 12 2 11 3 11 3 10 4 10 4 11 5 11 5 12 6 12 6 13 7 13 7 14 8 14 8 15 9 15 9 16 10 16 10 1 14 1 14 16 15 16 15 15 16 15 16 14 17 14 17 13 18 13 18 12 19 12 19 11 20 11 20 10 21 10 21 11 22 11 22 12 23 12 23 13 22 13 22 14 21 14 21 15 20 15 20 16 19 16 19 17 18 17 18 18 17 18 17 19 16 19 16 20 15 20 15 21 14 21 14 22 13 22 13 23"/></svg>