<?xml version="1.0" encoding="UTF-8"?><svg id="Arrow_Right" xmlns="http://www.w3.org/2000/svg" viewBox="0 0 24 24"><polygon points="23 11 23 13 22 13 22 14 21 14 21 15 20 15 20 16 19 16 19 17 18 17 18 18 17 18 17 19 16 19 16 20 15 20 15 21 14 21 14 22 13 22 13 23 12 23 12 22 11 22 11 21 10 21 10 20 11 20 11 19 12 19 12 18 13 18 13 17 14 17 14 16 15 16 15 15 16 15 16 14 1 14 1 10 16 10 16 9 15 9 15 8 14 8 14 7 13 7 13 6 12 6 12 5 11 5 11 4 10 4 10 3 11 3 11 2 12 2 12 1 13 1 13 2 14 2 14 3 15 3 15 4 16 4 16 5 17 5 17 6 18 6 18 7 19 7 19 8 20 8 20 9 21 9 21 10 22 10 22 11 23 11"/></svg>