<?xml version="1.0" encoding="UTF-8"?><svg id="Brightness_Low" xmlns="http://www.w3.org/2000/svg" viewBox="0 0 24 24"><polygon points="6 18 7 18 7 20 6 20 6 21 4 21 4 20 3 20 3 18 4 18 4 17 6 17 6 18"/><polygon points="4 6 3 6 3 4 4 4 4 3 6 3 6 4 7 4 7 6 6 6 6 7 4 7 4 6"/><polygon points="2 14 2 13 1 13 1 11 2 11 2 10 4 10 4 11 5 11 5 13 4 13 4 14 2 14"/><polygon points="13 20 14 20 14 22 13 22 13 23 11 23 11 22 10 22 10 20 11 20 11 19 13 19 13 20"/><polygon points="11 4 10 4 10 2 11 2 11 1 13 1 13 2 14 2 14 4 13 4 13 5 11 5 11 4"/><polygon points="18 6 17 6 17 4 18 4 18 3 20 3 20 4 21 4 21 6 20 6 20 7 18 7 18 6"/><polygon points="17 14 16 14 16 16 14 16 14 17 10 17 10 16 8 16 8 14 7 14 7 10 8 10 8 8 10 8 10 7 14 7 14 8 16 8 16 10 17 10 17 14"/><polygon points="20 18 21 18 21 20 20 20 20 21 18 21 18 20 17 20 17 18 18 18 18 17 20 17 20 18"/><polygon points="23 11 23 13 22 13 22 14 20 14 20 13 19 13 19 11 20 11 20 10 22 10 22 11 23 11"/></svg>