<svg id="Broom_Solid" data-name="Broom Solid" xmlns="http://www.w3.org/2000/svg" viewBox="0 0 24 24"><polygon points="13 16 14 16 14 18 13 18 13 20 12 20 12 22 11 22 11 23 9 23 9 22 8 22 8 21 7 21 7 20 6 20 6 19 5 19 5 17 6 17 6 16 7 16 7 14 6 14 6 15 5 15 5 16 4 16 4 17 3 17 3 16 2 16 2 15 1 15 1 13 2 13 2 12 4 12 4 11 6 11 6 10 8 10 8 11 9 11 9 12 10 12 10 13 11 13 11 14 12 14 12 15 13 15 13 16"/><polygon points="23 1 23 3 22 3 22 4 21 4 21 5 20 5 20 6 19 6 19 7 18 7 18 8 17 8 17 9 16 9 16 11 17 11 17 13 16 13 16 14 14 14 14 13 13 13 13 12 12 12 12 11 11 11 11 10 10 10 10 8 11 8 11 7 13 7 13 8 15 8 15 7 16 7 16 6 17 6 17 5 18 5 18 4 19 4 19 3 20 3 20 2 21 2 21 1 23 1"/></svg>