<svg id="Bug_Solid" data-name="Bug Solid" xmlns="http://www.w3.org/2000/svg" viewBox="0 0 24 24"><polygon points="9 6 8 6 8 4 9 4 9 3 11 3 11 2 13 2 13 3 15 3 15 4 16 4 16 6 15 6 15 7 9 7 9 6"/><polygon points="23 12 23 14 18 14 18 17 19 17 19 18 20 18 20 19 21 19 21 21 19 21 19 20 18 20 18 19 17 19 17 20 16 20 16 21 13 21 13 13 11 13 11 21 8 21 8 20 7 20 7 19 6 19 6 20 5 20 5 21 3 21 3 19 4 19 4 18 5 18 5 17 6 17 6 14 1 14 1 12 6 12 6 10 5 10 5 9 4 9 4 8 3 8 3 6 5 6 5 7 6 7 6 8 7 8 7 9 17 9 17 8 18 8 18 7 19 7 19 6 21 6 21 8 20 8 20 9 19 9 19 10 18 10 18 12 23 12"/></svg>