<?xml version="1.0" encoding="UTF-8"?><svg id="Bullet_List" xmlns="http://www.w3.org/2000/svg" viewBox="0 0 24 24"><rect x="2" y="5" width="3" height="3"/><rect x="2" y="17" width="3" height="3"/><rect x="2" y="11" width="3" height="3"/><polygon points="23 6 23 7 22 7 22 8 10 8 10 7 9 7 9 6 10 6 10 5 22 5 22 6 23 6"/><polygon points="22 12 23 12 23 13 22 13 22 14 10 14 10 13 9 13 9 12 10 12 10 11 22 11 22 12"/><polygon points="22 18 23 18 23 19 22 19 22 20 10 20 10 19 9 19 9 18 10 18 10 17 22 17 22 18"/><g id="BG_copy_133"><rect width="24" height="24" fill="none"/></g></svg>