<?xml version="1.0" encoding="UTF-8"?><svg id="Check_List" xmlns="http://www.w3.org/2000/svg" viewBox="0 0 24 24"><polygon points="23 6 23 7 22 7 22 8 10 8 10 7 9 7 9 6 10 6 10 5 22 5 22 6 23 6"/><polygon points="22 18 23 18 23 19 22 19 22 20 10 20 10 19 9 19 9 18 10 18 10 17 22 17 22 18"/><polygon points="22 12 23 12 23 13 22 13 22 14 10 14 10 13 9 13 9 12 10 12 10 11 22 11 22 12"/><polygon points="8 15 8 17 7 17 7 18 6 18 6 19 5 19 5 20 4 20 4 21 3 21 3 20 2 20 2 19 1 19 1 17 2 17 2 18 3 18 3 19 4 19 4 18 5 18 5 17 6 17 6 16 7 16 7 15 8 15"/><polygon points="8 9 8 11 7 11 7 12 6 12 6 13 5 13 5 14 4 14 4 15 3 15 3 14 2 14 2 13 1 13 1 11 2 11 2 12 3 12 3 13 4 13 4 12 5 12 5 11 6 11 6 10 7 10 7 9 8 9"/><polygon points="8 3 8 5 7 5 7 6 6 6 6 7 5 7 5 8 4 8 4 9 3 9 3 8 2 8 2 7 1 7 1 5 2 5 2 6 3 6 3 7 4 7 4 6 5 6 5 5 6 5 6 4 7 4 7 3 8 3"/><g id="BG_copy_132"><rect width="24" height="24" fill="none"/></g></svg>