<?xml version="1.0" encoding="UTF-8"?><svg id="Chevron_Down" xmlns="http://www.w3.org/2000/svg" viewBox="0 0 24 24"><polygon points="23 8 23 9 22 9 22 10 21 10 21 11 20 11 20 12 19 12 19 13 18 13 18 14 17 14 17 15 16 15 16 16 15 16 15 17 14 17 14 18 13 18 13 19 11 19 11 18 10 18 10 17 9 17 9 16 8 16 8 15 7 15 7 14 6 14 6 13 5 13 5 12 4 12 4 11 3 11 3 10 2 10 2 9 1 9 1 8 2 8 2 7 3 7 3 6 4 6 4 7 5 7 5 8 6 8 6 9 7 9 7 10 8 10 8 11 9 11 9 12 10 12 10 13 11 13 11 14 13 14 13 13 14 13 14 12 15 12 15 11 16 11 16 10 17 10 17 9 18 9 18 8 19 8 19 7 20 7 20 6 21 6 21 7 22 7 22 8 23 8"/></svg>