<svg id="Coins_Soild" data-name="Coins Soild" xmlns="http://www.w3.org/2000/svg" viewBox="0 0 24 24"><polygon points="16 10 17 10 17 12 16 12 16 13 15 13 15 14 12 14 12 15 6 15 6 14 3 14 3 13 2 13 2 12 1 12 1 10 2 10 2 9 3 9 3 8 6 8 6 7 12 7 12 8 15 8 15 9 16 9 16 10"/><polygon points="17 15 17 17 15 17 15 18 12 18 12 19 6 19 6 18 3 18 3 17 1 17 1 15 3 15 3 16 6 16 6 17 12 17 12 16 15 16 15 15 17 15"/><polygon points="17 19 17 21 15 21 15 22 12 22 12 23 6 23 6 22 3 22 3 21 1 21 1 19 3 19 3 20 6 20 6 21 12 21 12 20 15 20 15 19 17 19"/><rect x="22" y="13" width="1" height="1"/><rect x="22" y="9" width="1" height="1"/><polygon points="23 4 23 6 22 6 22 7 21 7 21 8 18 8 18 7 16 7 16 6 12 6 12 5 6 5 6 4 7 4 7 3 8 3 8 2 11 2 11 1 18 1 18 2 21 2 21 3 22 3 22 4 23 4"/><polygon points="22 14 22 15 21 15 21 16 19 16 19 14 22 14"/><polygon points="22 10 22 11 21 11 21 12 19 12 19 10 22 10"/></svg>