<?xml version="1.0" encoding="UTF-8"?><svg id="Crown" xmlns="http://www.w3.org/2000/svg" viewBox="0 0 24 24"><polygon points="23 7 23 9 22 9 22 10 21 10 21 14 20 14 20 17 19 17 19 19 18 19 18 21 6 21 6 19 5 19 5 17 4 17 4 14 3 14 3 10 2 10 2 9 1 9 1 7 2 7 2 6 4 6 4 7 5 7 5 9 4 9 4 10 5 10 5 11 6 11 6 12 8 12 8 11 9 11 9 9 10 9 10 7 11 7 11 6 10 6 10 4 11 4 11 3 13 3 13 4 14 4 14 6 13 6 13 7 14 7 14 9 15 9 15 11 16 11 16 12 18 12 18 11 19 11 19 10 20 10 20 9 19 9 19 7 20 7 20 6 22 6 22 7 23 7"/></svg>