<?xml version="1.0" encoding="UTF-8"?><svg id="Ellipses_Vertical" xmlns="http://www.w3.org/2000/svg" viewBox="0 0 24 24"><polygon points="15 3 15 5 14 5 14 6 13 6 13 7 11 7 11 6 10 6 10 5 9 5 9 3 10 3 10 2 11 2 11 1 13 1 13 2 14 2 14 3 15 3"/><polygon points="14 11 15 11 15 13 14 13 14 14 13 14 13 15 11 15 11 14 10 14 10 13 9 13 9 11 10 11 10 10 11 10 11 9 13 9 13 10 14 10 14 11"/><polygon points="14 19 15 19 15 21 14 21 14 22 13 22 13 23 11 23 11 22 10 22 10 21 9 21 9 19 10 19 10 18 11 18 11 17 13 17 13 18 14 18 14 19"/></svg>