<?xml version="1.0" encoding="UTF-8"?><svg id="Envelope" xmlns="http://www.w3.org/2000/svg" viewBox="0 0 24 24"><polygon points="21 4 21 5 20 5 20 6 19 6 19 7 18 7 18 8 17 8 17 9 16 9 16 10 15 10 15 11 14 11 14 12 13 12 13 13 11 13 11 12 10 12 10 11 9 11 9 10 8 10 8 9 7 9 7 8 6 8 6 7 5 7 5 6 4 6 4 5 3 5 3 4 21 4"/><polygon points="23 5 23 19 22 19 22 20 2 20 2 19 1 19 1 5 3 5 3 6 4 6 4 7 5 7 5 8 6 8 6 9 7 9 7 10 8 10 8 11 9 11 9 12 10 12 10 13 11 13 11 14 13 14 13 13 14 13 14 12 15 12 15 11 16 11 16 10 17 10 17 9 18 9 18 8 19 8 19 7 20 7 20 6 21 6 21 5 23 5"/></svg>