<?xml version="1.0" encoding="UTF-8"?><svg id="External_Link" xmlns="http://www.w3.org/2000/svg" viewBox="0 0 24 24"><polygon points="23 1 23 9 21 9 21 8 20 8 20 7 19 7 19 8 18 8 18 9 17 9 17 10 16 10 16 11 15 11 15 12 14 12 14 13 13 13 13 14 12 14 12 15 11 15 11 16 10 16 10 17 9 17 9 18 8 18 8 17 7 17 7 16 6 16 6 15 7 15 7 14 8 14 8 13 9 13 9 12 10 12 10 11 11 11 11 10 12 10 12 9 13 9 13 8 14 8 14 7 15 7 15 6 16 6 16 5 17 5 17 4 16 4 16 3 15 3 15 1 23 1"/><polygon points="20 15 20 22 19 22 19 23 2 23 2 22 1 22 1 5 2 5 2 4 11 4 11 7 4 7 4 20 17 20 17 15 20 15"/></svg>