<?xml version="1.0" encoding="UTF-8"?><svg id="Eye_Cross" xmlns="http://www.w3.org/2000/svg" viewBox="0 0 24 24"><polygon points="2 13 1 13 1 11 2 11 2 9 3 9 3 8 4 8 4 7 5 7 5 6 7 6 7 5 15 5 15 6 14 6 14 7 13 7 13 6 11 6 11 7 9 7 9 8 8 8 8 9 7 9 7 11 6 11 6 13 7 13 7 14 6 14 6 15 5 15 5 16 3 16 3 15 2 15 2 13"/><rect x="8" y="11" width="1" height="1"/><rect x="11" y="8" width="1" height="1"/><polygon points="9 17 8 17 8 18 7 18 7 19 6 19 6 20 5 20 5 21 4 21 4 22 3 22 3 21 2 21 2 20 3 20 3 19 4 19 4 18 5 18 5 17 6 17 6 16 7 16 7 15 8 15 8 14 9 14 9 13 10 13 10 12 11 12 11 11 12 11 12 10 13 10 13 9 14 9 14 8 15 8 15 7 16 7 16 6 17 6 17 5 18 5 18 4 19 4 19 3 20 3 20 2 21 2 21 3 22 3 22 4 21 4 21 5 20 5 20 6 19 6 19 7 18 7 18 8 17 8 17 9 16 9 16 10 15 10 15 11 14 11 14 12 13 12 13 13 12 13 12 14 11 14 11 15 10 15 10 16 9 16 9 17"/><rect x="12" y="15" width="1" height="1"/><rect x="13" y="14" width="1" height="1"/><rect x="15" y="12" width="1" height="1"/><rect x="14" y="13" width="1" height="1"/><polygon points="23 11 23 13 22 13 22 15 21 15 21 16 20 16 20 17 19 17 19 18 17 18 17 19 9 19 9 18 10 18 10 17 11 17 11 18 13 18 13 17 15 17 15 16 16 16 16 15 17 15 17 13 18 13 18 11 17 11 17 10 18 10 18 9 19 9 19 8 21 8 21 9 22 9 22 11 23 11"/></svg>