<?xml version="1.0" encoding="UTF-8"?><svg id="File_Import" xmlns="http://www.w3.org/2000/svg" viewBox="0 0 24 24"><rect x="1" y="13" width="5" height="3"/><polygon points="23 8 23 22 22 22 22 23 7 23 7 22 6 22 6 16 12 16 12 20 13 20 13 19 14 19 14 18 15 18 15 17 16 17 16 16 17 16 17 15 18 15 18 14 17 14 17 13 16 13 16 12 15 12 15 11 14 11 14 10 13 10 13 9 12 9 12 13 6 13 6 2 7 2 7 1 16 1 16 8 23 8"/><polygon points="23 6 23 7 17 7 17 1 18 1 18 2 19 2 19 3 20 3 20 4 21 4 21 5 22 5 22 6 23 6"/></svg>