<?xml version="1.0" encoding="UTF-8"?><svg id="Globe" xmlns="http://www.w3.org/2000/svg" viewBox="0 0 24 24"><rect x="9" y="1" width="1" height="1"/><polygon points="9 2 9 3 8 3 8 5 7 5 7 8 2 8 2 7 3 7 3 5 4 5 4 4 5 4 5 3 7 3 7 2 9 2"/><polygon points="13 2 14 2 14 4 15 4 15 6 16 6 16 8 8 8 8 6 9 6 9 4 10 4 10 2 11 2 11 1 13 1 13 2"/><rect x="14" y="1" width="1" height="1"/><polygon points="22 7 22 8 17 8 17 5 16 5 16 3 15 3 15 2 17 2 17 3 19 3 19 4 20 4 20 5 21 5 21 7 22 7"/><polygon points="17 10 17 14 16 14 16 15 8 15 8 14 7 14 7 10 8 10 8 9 16 9 16 10 17 10"/><polygon points="1 9 7 9 7 10 6 10 6 14 7 14 7 15 1 15 1 9"/><polygon points="23 9 23 15 17 15 17 14 18 14 18 10 17 10 17 9 23 9"/><polygon points="22 16 22 17 21 17 21 19 20 19 20 20 19 20 19 21 17 21 17 22 15 22 15 21 16 21 16 19 17 19 17 16 22 16"/><rect x="9" y="22" width="1" height="1"/><polygon points="9 21 9 22 7 22 7 21 5 21 5 20 4 20 4 19 3 19 3 17 2 17 2 16 7 16 7 19 8 19 8 21 9 21"/><rect x="14" y="22" width="1" height="1"/><polygon points="14 22 13 22 13 23 11 23 11 22 10 22 10 20 9 20 9 18 8 18 8 16 16 16 16 18 15 18 15 20 14 20 14 22"/></svg>