<?xml version="1.0" encoding="UTF-8"?><svg id="H3" xmlns="http://www.w3.org/2000/svg" viewBox="0 0 24 24"><polygon points="22 13 23 13 23 18 22 18 22 19 21 19 21 20 16 20 16 19 15 19 15 18 14 18 14 14 17 14 17 17 20 17 20 14 19 14 19 13 18 13 18 11 19 11 19 10 20 10 20 7 17 7 17 10 14 10 14 6 15 6 15 5 16 5 16 4 21 4 21 5 22 5 22 6 23 6 23 11 22 11 22 13"/><polygon points="9 4 12 4 12 20 9 20 9 13 4 13 4 20 1 20 1 4 4 4 4 10 9 10 9 4"/><g id="BG_copy_131"><rect width="24" height="24" fill="none"/></g></svg>