<?xml version="1.0" encoding="UTF-8"?><svg id="Image" xmlns="http://www.w3.org/2000/svg" viewBox="0 0 24 24"><polygon points="23 20 23 22 22 22 22 23 2 23 2 22 1 22 1 15 2 15 2 16 3 16 3 17 4 17 4 18 5 18 5 19 6 19 6 20 7 20 7 21 8 21 8 20 9 20 9 19 10 19 10 18 11 18 11 17 12 17 12 16 13 16 13 15 14 15 14 14 15 14 15 13 16 13 16 14 17 14 17 15 18 15 18 16 19 16 19 17 20 17 20 18 21 18 21 19 22 19 22 20 23 20"/><path d="m22,2v-1H2v1h-1v10h1v1h1v1h1v1h1v1h1v1h1v1h1v-1h1v-1h1v-1h1v-1h1v-1h1v-1h1v-1h1v-1h1v1h1v1h1v1h1v1h1v1h1v1h1v1h1V2h-1Zm-13,4v3h-1v1h-3v-1h-1v-3h1v-1h3v1h1Z"/><g id="BG_copy_137"><rect width="24" height="24" fill="none"/></g></svg>