<svg id="Laptop_Code_Solid" data-name="Laptop Code Solid" xmlns="http://www.w3.org/2000/svg" viewBox="0 0 24 24"><polygon points="3 14 3 5 4 5 4 4 20 4 20 5 21 5 21 14 19 14 19 6 5 6 5 14 3 14"/><polygon points="10 11 11 11 11 13 9 13 9 12 8 12 8 11 7 11 7 9 8 9 8 8 9 8 9 7 11 7 11 9 10 9 10 11"/><polygon points="14 9 13 9 13 7 15 7 15 8 16 8 16 9 17 9 17 11 16 11 16 12 15 12 15 13 13 13 13 11 14 11 14 9"/><polygon points="23 15 23 18 22 18 22 19 21 19 21 20 3 20 3 19 2 19 2 18 1 18 1 15 23 15"/></svg>