<?xml version="1.0" encoding="UTF-8"?><svg id="Link" xmlns="http://www.w3.org/2000/svg" viewBox="0 0 24 24"><polygon points="16 10 17 10 17 17 16 17 16 18 15 18 15 19 14 19 14 20 13 20 13 21 12 21 12 22 11 22 11 23 5 23 5 22 4 22 4 21 3 21 3 20 2 20 2 19 1 19 1 14 2 14 2 13 3 13 3 12 4 12 4 11 5 11 5 15 4 15 4 18 5 18 5 19 6 19 6 20 9 20 9 19 10 19 10 18 11 18 11 17 12 17 12 16 13 16 13 15 14 15 14 12 13 12 13 11 12 11 12 10 13 10 13 9 14 9 14 8 15 8 15 9 16 9 16 10"/><polygon points="23 5 23 10 22 10 22 11 21 11 21 12 20 12 20 13 19 13 19 9 20 9 20 6 19 6 19 5 18 5 18 4 15 4 15 5 14 5 14 6 13 6 13 7 12 7 12 8 11 8 11 9 10 9 10 12 11 12 11 13 12 13 12 14 11 14 11 15 10 15 10 16 9 16 9 15 8 15 8 14 7 14 7 7 8 7 8 6 9 6 9 5 10 5 10 4 11 4 11 3 12 3 12 2 13 2 13 1 19 1 19 2 20 2 20 3 21 3 21 4 22 4 22 5 23 5"/></svg>