<?xml version="1.0" encoding="UTF-8"?><svg id="Pen_Nib" xmlns="http://www.w3.org/2000/svg" viewBox="0 0 24 24"><polygon points="23 4 23 7 22 7 22 8 21 8 21 9 20 9 20 10 19 10 19 9 18 9 18 8 17 8 17 7 16 7 16 6 15 6 15 5 14 5 14 4 15 4 15 3 16 3 16 2 17 2 17 1 20 1 20 2 21 2 21 3 22 3 22 4 23 4"/><polygon points="18 11 19 11 19 12 18 12 18 15 17 15 17 18 16 18 16 19 14 19 14 20 11 20 11 21 8 21 8 22 5 22 5 23 3 23 3 22 4 22 4 21 5 21 5 20 6 20 6 19 7 19 7 18 8 18 8 17 9 17 9 16 12 16 12 13 11 13 11 12 8 12 8 15 7 15 7 16 6 16 6 17 5 17 5 18 4 18 4 19 3 19 3 20 2 20 2 21 1 21 1 19 2 19 2 16 3 16 3 13 4 13 4 10 5 10 5 8 6 8 6 7 9 7 9 6 12 6 12 5 13 5 13 6 14 6 14 7 15 7 15 8 16 8 16 9 17 9 17 10 18 10 18 11"/></svg>