<?xml version="1.0" encoding="UTF-8"?><svg id="Pencil" xmlns="http://www.w3.org/2000/svg" viewBox="0 0 24 24"><polygon points="8 20 9 20 9 21 8 21 8 22 7 22 7 23 1 23 1 17 2 17 2 16 3 16 3 15 4 15 4 16 5 16 5 17 6 17 6 18 7 18 7 19 8 19 8 20"/><polygon points="17 10 18 10 18 12 17 12 17 13 16 13 16 14 15 14 15 15 14 15 14 16 13 16 13 17 12 17 12 18 11 18 11 19 10 19 10 18 9 18 9 17 8 17 8 16 7 16 7 15 6 15 6 14 5 14 5 13 6 13 6 12 7 12 7 11 8 11 8 10 9 10 9 9 10 9 10 8 11 8 11 7 12 7 12 6 14 6 14 7 15 7 15 8 16 8 16 9 17 9 17 10"/><polygon points="23 4 23 7 22 7 22 8 21 8 21 9 19 9 19 8 18 8 18 7 17 7 17 6 16 6 16 5 15 5 15 3 16 3 16 2 17 2 17 1 20 1 20 2 21 2 21 3 22 3 22 4 23 4"/></svg>