<?xml version="1.0" encoding="UTF-8"?><svg id="_24px_Grid_copy_56" xmlns="http://www.w3.org/2000/svg" viewBox="0 0 24 24"><polygon points="2 7 1 7 1 5 2 5 2 4 3 4 3 3 4 3 4 2 5 2 5 1 7 1 7 2 8 2 8 4 7 4 7 5 6 5 6 6 7 6 7 7 8 7 8 6 9 6 9 5 11 5 11 6 10 6 10 7 9 7 9 8 8 8 8 9 7 9 7 10 6 10 6 11 5 11 5 10 4 10 4 9 3 9 3 8 2 8 2 7"/><polygon points="13 17 12 17 12 18 11 18 11 19 10 19 10 20 9 20 9 21 8 21 8 22 7 22 7 23 1 23 1 17 2 17 2 16 3 16 3 15 4 15 4 14 5 14 5 13 6 13 6 12 7 12 7 11 8 11 8 10 9 10 9 9 10 9 10 8 11 8 11 7 12 7 12 6 14 6 14 7 15 7 15 8 16 8 16 9 17 9 17 10 18 10 18 12 17 12 17 13 16 13 16 14 15 14 15 15 14 15 14 16 13 16 13 17"/><polygon points="23 4 23 7 22 7 22 8 21 8 21 9 19 9 19 8 18 8 18 7 17 7 17 6 16 6 16 5 15 5 15 3 16 3 16 2 17 2 17 1 20 1 20 2 21 2 21 3 22 3 22 4 23 4"/><polygon points="22 17 23 17 23 19 22 19 22 20 21 20 21 21 20 21 20 22 19 22 19 23 17 23 17 22 16 22 16 21 15 21 15 20 14 20 14 19 13 19 13 18 14 18 14 17 15 17 15 16 16 16 16 15 17 15 17 14 18 14 18 13 19 13 19 15 18 15 18 16 17 16 17 17 18 17 18 18 19 18 19 17 20 17 20 16 22 16 22 17"/></svg>