<?xml version="1.0" encoding="UTF-8"?><svg id="Refresh" xmlns="http://www.w3.org/2000/svg" viewBox="0 0 24 24"><polygon points="23 14 23 15 22 15 22 17 21 17 21 19 20 19 20 20 19 20 19 21 17 21 17 22 15 22 15 23 9 23 9 22 7 22 7 21 5 21 5 20 3 20 3 21 2 21 2 22 1 22 1 14 9 14 9 15 8 15 8 16 7 16 7 18 8 18 8 19 10 19 10 20 14 20 14 19 16 19 16 18 17 18 17 17 18 17 18 15 19 15 19 14 23 14"/><polygon points="23 2 23 10 15 10 15 9 16 9 16 8 17 8 17 6 16 6 16 5 14 5 14 4 10 4 10 5 8 5 8 6 7 6 7 7 6 7 6 9 5 9 5 10 1 10 1 9 2 9 2 7 3 7 3 5 4 5 4 4 5 4 5 3 7 3 7 2 9 2 9 1 15 1 15 2 17 2 17 3 19 3 19 4 21 4 21 3 22 3 22 2 23 2"/></svg>