<?xml version="1.0" encoding="UTF-8"?><svg id="Share_Alt" xmlns="http://www.w3.org/2000/svg" viewBox="0 0 24 24"><polygon points="22 4 22 6 21 6 21 8 20 8 20 9 15 9 15 8 13 8 13 9 12 9 12 10 11 10 11 14 12 14 12 15 13 15 13 16 15 16 15 15 20 15 20 16 21 16 21 18 22 18 22 20 21 20 21 22 20 22 20 23 15 23 15 22 14 22 14 20 13 20 13 18 12 18 12 17 11 17 11 16 10 16 10 15 9 15 9 16 4 16 4 15 3 15 3 13 2 13 2 11 3 11 3 9 4 9 4 8 9 8 9 9 10 9 10 8 11 8 11 7 12 7 12 6 13 6 13 4 14 4 14 2 15 2 15 1 20 1 20 2 21 2 21 4 22 4"/></svg>