<?xml version="1.0" encoding="UTF-8"?><svg id="Shuffle" xmlns="http://www.w3.org/2000/svg" viewBox="0 0 24 24"><polygon points="8 14 9 14 9 17 8 17 8 18 7 18 7 19 1 19 1 16 7 16 7 15 8 15 8 14"/><polygon points="22 17 23 17 23 18 22 18 22 19 21 19 21 20 20 20 20 21 19 21 19 22 18 22 18 19 14 19 14 18 13 18 13 17 12 17 12 15 11 15 11 14 10 14 10 12 9 12 9 11 8 11 8 9 7 9 7 8 1 8 1 5 8 5 8 6 9 6 9 8 10 8 10 10 11 10 11 11 12 11 12 13 13 13 13 14 14 14 14 16 18 16 18 13 19 13 19 14 20 14 20 15 21 15 21 16 22 16 22 17"/><polygon points="23 6 23 7 22 7 22 8 21 8 21 9 20 9 20 10 19 10 19 11 18 11 18 8 14 8 14 9 13 9 13 10 12 10 12 7 13 7 13 6 14 6 14 5 18 5 18 2 19 2 19 3 20 3 20 4 21 4 21 5 22 5 22 6 23 6"/></svg>