<?xml version="1.0" encoding="UTF-8"?><svg id="Sort" xmlns="http://www.w3.org/2000/svg" viewBox="0 0 24 24"><polygon points="20 8 20 10 19 10 19 11 5 11 5 10 4 10 4 8 5 8 5 7 6 7 6 6 7 6 7 5 8 5 8 4 9 4 9 3 10 3 10 2 11 2 11 1 13 1 13 2 14 2 14 3 15 3 15 4 16 4 16 5 17 5 17 6 18 6 18 7 19 7 19 8 20 8"/><polygon points="20 14 20 16 19 16 19 17 18 17 18 18 17 18 17 19 16 19 16 20 15 20 15 21 14 21 14 22 13 22 13 23 11 23 11 22 10 22 10 21 9 21 9 20 8 20 8 19 7 19 7 18 6 18 6 17 5 17 5 16 4 16 4 14 5 14 5 13 19 13 19 14 20 14"/></svg>