<?xml version="1.0" encoding="UTF-8"?><svg id="Sound_On" xmlns="http://www.w3.org/2000/svg" viewBox="0 0 24 24"><polygon points="14 2 14 22 11 22 11 21 10 21 10 20 9 20 9 19 8 19 8 18 7 18 7 17 6 17 6 16 1 16 1 8 6 8 6 7 7 7 7 6 8 6 8 5 9 5 9 4 10 4 10 3 11 3 11 2 14 2"/><polygon points="17 15 17 14 16 14 16 13 17 13 17 11 16 11 16 10 17 10 17 9 18 9 18 10 19 10 19 14 18 14 18 15 17 15"/><polygon points="23 10 23 14 22 14 22 16 21 16 21 17 20 17 20 18 19 18 19 17 18 17 18 16 19 16 19 15 20 15 20 14 21 14 21 10 20 10 20 9 19 9 19 8 18 8 18 7 19 7 19 6 20 6 20 7 21 7 21 8 22 8 22 10 23 10"/></svg>