<?xml version="1.0" encoding="UTF-8"?><svg id="Star_Crescent" xmlns="http://www.w3.org/2000/svg" viewBox="0 0 24 24"><polygon points="14 21 17 21 17 22 15 22 15 23 9 23 9 22 7 22 7 21 5 21 5 20 4 20 4 19 3 19 3 17 2 17 2 15 1 15 1 9 2 9 2 7 3 7 3 5 4 5 4 4 5 4 5 3 7 3 7 2 9 2 9 1 15 1 15 2 17 2 17 3 14 3 14 4 12 4 12 5 10 5 10 6 9 6 9 8 8 8 8 10 7 10 7 14 8 14 8 16 9 16 9 18 10 18 10 19 12 19 12 20 14 20 14 21"/><polygon points="23 10 23 11 22 11 22 12 21 12 21 14 22 14 22 17 21 17 21 16 20 16 20 15 19 15 19 14 18 14 18 15 17 15 17 16 16 16 16 17 15 17 15 14 16 14 16 12 15 12 15 11 14 11 14 10 17 10 17 8 18 8 18 7 19 7 19 8 20 8 20 10 23 10"/></svg>