<?xml version="1.0" encoding="UTF-8"?><svg id="Sun" xmlns="http://www.w3.org/2000/svg" viewBox="0 0 24 24"><polygon points="17 10 17 14 16 14 16 15 15 15 15 16 14 16 14 17 10 17 10 16 9 16 9 15 8 15 8 14 7 14 7 10 8 10 8 9 9 9 9 8 10 8 10 7 14 7 14 8 15 8 15 9 16 9 16 10 17 10"/><path d="m21,11v-1h1v-1h1v-2h-3v-1h-2v-2h-1V1h-2v1h-1v1h-1v1h-2v-1h-1v-1h-1v-1h-2v3h-1v2h-2v1H1v2h1v1h1v1h1v2h-1v1h-1v1h-1v2h3v1h2v2h1v3h2v-1h1v-1h1v-1h2v1h1v1h1v1h2v-3h1v-2h2v-1h3v-2h-1v-1h-1v-1h-1v-2h1Zm-3,4h-1v1h-1v1h-1v1h-6v-1h-1v-1h-1v-1h-1v-6h1v-1h1v-1h1v-1h6v1h1v1h1v1h1v6Z"/></svg>