<?xml version="1.0" encoding="UTF-8"?><svg id="User_Check" xmlns="http://www.w3.org/2000/svg" viewBox="0 0 24 24"><polygon points="23 9 23 10 22 10 22 11 21 11 21 12 20 12 20 13 19 13 19 14 17 14 17 13 16 13 16 12 15 12 15 11 16 11 16 10 17 10 17 11 19 11 19 10 20 10 20 9 21 9 21 8 22 8 22 9 23 9"/><polygon points="13 6 13 9 12 9 12 11 10 11 10 12 7 12 7 11 5 11 5 9 4 9 4 6 5 6 5 4 7 4 7 3 10 3 10 4 12 4 12 6 13 6"/><polygon points="16 16 16 20 15 20 15 21 2 21 2 20 1 20 1 16 2 16 2 15 3 15 3 14 4 14 4 13 6 13 6 14 11 14 11 13 13 13 13 14 14 14 14 15 15 15 15 16 16 16"/></svg>