<svg id="WiFi_Solid" data-name="WiFi Solid" xmlns="http://www.w3.org/2000/svg" viewBox="0 0 24 24"><polygon points="14 17 15 17 15 21 14 21 14 22 10 22 10 21 9 21 9 17 10 17 10 16 14 16 14 17"/><polygon points="18 12 19 12 19 15 16 15 16 14 15 14 15 13 9 13 9 14 8 14 8 15 5 15 5 12 6 12 6 11 8 11 8 10 9 10 9 9 15 9 15 10 16 10 16 11 18 11 18 12"/><polygon points="23 7 23 10 20 10 20 9 19 9 19 8 18 8 18 7 16 7 16 6 8 6 8 7 6 7 6 8 5 8 5 9 4 9 4 10 1 10 1 7 2 7 2 6 3 6 3 5 4 5 4 4 6 4 6 3 8 3 8 2 16 2 16 3 18 3 18 4 20 4 20 5 21 5 21 6 22 6 22 7 23 7"/></svg>