<?xml version="1.0" encoding="UTF-8"?><svg id="Angellist" xmlns="http://www.w3.org/2000/svg" viewBox="0 0 24 24"><rect x="18" y="12" width="1" height="7"/><rect x="18" y="2" width="1" height="3"/><rect x="17" y="19" width="1" height="1"/><rect x="17" y="11" width="1" height="1"/><rect x="17" y="5" width="1" height="3"/><rect x="16" y="20" width="1" height="1"/><rect x="16" y="8" width="1" height="2"/><rect x="16" y="1" width="2" height="1"/><rect x="14" y="10" width="3" height="1"/><rect x="15" y="2" width="1" height="2"/><rect x="14" y="21" width="2" height="1"/><rect x="14" y="4" width="1" height="3"/><rect x="13" y="19" width="1" height="1"/><polygon points="14 7 14 10 11 10 11 9 12 9 12 7 14 7"/><polygon points="16 13 16 14 15 14 15 15 14 15 14 16 13 16 13 19 12 19 12 18 11 18 11 19 10 19 10 17 12 17 12 14 11 14 11 13 16 13"/><rect x="11" y="4" width="1" height="3"/><rect x="10" y="22" width="4" height="1"/><rect x="10" y="12" width="1" height="1"/><rect x="10" y="2" width="1" height="2"/><rect x="9" y="16" width="1" height="1"/><polygon points="11 10 11 11 10 11 10 12 9 12 9 11 7 11 7 10 9 10 9 8 10 8 10 10 11 10"/><rect x="8" y="21" width="2" height="1"/><rect x="8" y="19" width="2" height="1"/><rect x="8" y="15" width="1" height="1"/><rect x="8" y="5" width="1" height="3"/><rect x="8" y="1" width="2" height="1"/><rect x="7" y="20" width="1" height="1"/><rect x="7" y="18" width="1" height="1"/><rect x="7" y="2" width="1" height="3"/><rect x="6" y="19" width="1" height="1"/><rect x="6" y="17" width="1" height="1"/><rect x="6" y="11" width="1" height="3"/><rect x="5" y="18" width="1" height="1"/><rect x="5" y="14" width="3" height="1"/><rect x="4" y="15" width="1" height="3"/></svg>