<?xml version="1.0" encoding="UTF-8"?><svg id="ethereum" xmlns="http://www.w3.org/2000/svg" viewBox="0 0 24 24"><polygon points="6 13 6 11 7 11 7 9 8 9 8 7 9 7 9 5 10 5 10 3 11 3 11 1 13 1 13 3 14 3 14 5 15 5 15 7 16 7 16 9 17 9 17 11 18 11 18 13 16 13 16 14 14 14 14 15 13 15 13 16 11 16 11 15 10 15 10 14 8 14 8 13 6 13"/><polygon points="19 14 19 15 18 15 18 16 17 16 17 17 16 17 16 19 15 19 15 20 14 20 14 21 13 21 13 23 11 23 11 21 10 21 10 20 9 20 9 19 8 19 8 17 7 17 7 16 6 16 6 15 5 15 5 14 7 14 7 15 9 15 9 16 10 16 10 17 14 17 14 16 15 16 15 15 17 15 17 14 19 14"/></svg>