<?xml version="1.0" encoding="UTF-8"?><svg id="Golden" xmlns="http://www.w3.org/2000/svg" viewBox="0 0 24 24"><rect x="6" y="9" width="1" height="1"/><polygon points="23 9 23 15 22 15 22 16 21 16 21 18 20 18 20 19 19 19 19 20 18 20 18 21 16 21 16 22 14 22 14 23 10 23 10 22 8 22 8 21 6 21 6 20 5 20 5 19 4 19 4 11 5 11 5 13 6 13 6 15 7 15 7 16 9 16 9 17 14 17 14 16 16 16 16 15 17 15 17 14 18 14 18 12 19 12 19 11 20 11 20 5 21 5 21 7 22 7 22 9 23 9"/><rect x="5" y="10" width="1" height="1"/><rect x="16" y="11" width="1" height="1"/><polygon points="4 10 3 10 3 17 2 17 2 14 1 14 1 9 2 9 2 7 3 7 3 5 4 5 4 4 5 4 5 3 7 3 7 2 9 2 9 1 15 1 15 2 17 2 17 3 18 3 18 4 19 4 19 10 18 10 18 11 17 11 17 8 15 8 15 7 7 7 7 8 5 8 5 9 4 9 4 10"/></svg>