<?xml version="1.0" encoding="UTF-8"?><svg id="Hugging_Face" xmlns="http://www.w3.org/2000/svg" viewBox="0 0 24 24"><rect x="20" y="17" width="1" height="1"/><rect x="19" y="18" width="1" height="1"/><rect x="18" y="17" width="1" height="1"/><rect x="19" y="16" width="1" height="1"/><rect x="20" y="15" width="1" height="1"/><rect x="19" y="14" width="1" height="1"/><rect x="18" y="15" width="1" height="1"/><rect x="17" y="16" width="1" height="1"/><rect x="17" y="14" width="1" height="1"/><rect x="16" y="15" width="1" height="1"/><polygon points="19 19 19 20 14 20 14 17 15 17 15 16 16 16 16 17 17 17 17 18 18 18 18 19 19 19"/><rect x="22" y="15" width="1" height="5"/><rect x="21" y="8" width="1" height="7"/><rect x="20" y="20" width="2" height="1"/><rect x="20" y="6" width="1" height="2"/><rect x="19" y="5" width="1" height="1"/><rect x="18" y="4" width="1" height="1"/><rect x="16" y="3" width="2" height="1"/><rect x="14" y="21" width="6" height="1"/><rect x="10" y="20" width="4" height="1"/><rect x="8" y="2" width="8" height="1"/><rect x="7" y="15" width="1" height="1"/><rect x="6" y="3" width="2" height="1"/><rect x="6" y="16" width="1" height="1"/><rect x="6" y="14" width="1" height="1"/><polygon points="10 17 10 20 5 20 5 19 6 19 6 18 7 18 7 17 8 17 8 16 9 16 9 17 10 17"/><rect x="5" y="17" width="1" height="1"/><rect x="5" y="15" width="1" height="1"/><rect x="5" y="4" width="1" height="1"/><rect x="4" y="21" width="6" height="1"/><rect x="4" y="18" width="1" height="1"/><rect x="4" y="16" width="1" height="1"/><rect x="4" y="14" width="1" height="1"/><path d="m19,9v-2h-1v-1h-1v-1h-2v-1h-6v1h-2v1h-1v1h-1v2h-1v4h3v1h1v1h1v1h1v1h1v2h2v-2h1v-1h1v-1h1v-1h1v-1h3v-4h-1Zm-12,1h-1v-1h1v1Zm1,0v-2h2v1h-1v1h-1Zm7,3h-1v1h-1v-1h-2v1h-1v-1h-1v-2h1v1h4v-1h1v2Zm1-3h-1v-1h-1v-1h2v2Zm2,0h-1v-1h1v1Z"/><rect x="4" y="5" width="1" height="1"/><rect x="2" y="20" width="2" height="1"/><rect x="3" y="17" width="1" height="1"/><rect x="3" y="15" width="1" height="1"/><rect x="3" y="6" width="1" height="2"/><rect x="2" y="8" width="1" height="7"/><rect x="1" y="15" width="1" height="5"/></svg>
