<?xml version="1.0" encoding="UTF-8"?><svg id="Imgur" xmlns="http://www.w3.org/2000/svg" viewBox="0 0 24 24"><rect x="15" y="17" width="1" height="1"/><path d="m15,17v-1h-2v1h-1v1h-1v1h1v1h-1v-1h-1v1h-2v-1h-1v-1h-1v-1h-1v-2h-1v1h-1v-1h-1v-1h1v-1h1v1h1v-1h1v-1h1v-1h-1v-1h1v1h1v-2h-1v-1h-1v1h-1v1h-1v1h-1v1H1v9h1v1h1v1h8v-1h1v-1h1v-1h1v-1h1v-1h-1v-1h1Zm-12,3h-1v-1h1v1Zm0-3h1v1h-1v-1Zm4,4h-1v1h-1v-1h-1v-1h1v-1h1v1h1v1Zm3,1h-1v-1h1v1Z"/><polygon points="23 3 23 21 22 21 22 22 21 22 21 23 13 23 13 22 14 22 14 21 15 21 15 20 16 20 16 19 17 19 17 18 18 18 18 17 19 17 19 5 7 5 7 6 6 6 6 7 5 7 5 8 4 8 4 9 3 9 3 10 2 10 2 11 1 11 1 3 2 3 2 2 3 2 3 1 21 1 21 2 22 2 22 3 23 3"/><polygon points="13 15 12 15 12 16 11 16 11 17 10 17 10 18 8 18 8 17 7 17 7 16 6 16 6 14 7 14 7 13 8 13 8 12 9 12 9 11 10 11 10 9 9 9 9 8 8 8 8 7 9 7 9 6 18 6 18 15 17 15 17 16 16 16 16 15 15 15 15 14 13 14 13 15"/></svg>