<?xml version="1.0" encoding="UTF-8"?><svg id="Apple" xmlns="http://www.w3.org/2000/svg" viewBox="0 0 24 24"><polygon points="15 1 15 4 14 4 14 5 13 5 13 6 11 6 11 3 12 3 12 2 13 2 13 1 15 1"/><polygon points="21 17 21 18 20 18 20 20 19 20 19 21 18 21 18 22 17 22 17 23 15 23 15 22 10 22 10 23 8 23 8 22 7 22 7 21 6 21 6 20 5 20 5 19 4 19 4 17 3 17 3 10 4 10 4 8 5 8 5 7 7 7 7 6 10 6 10 7 14 7 14 6 17 6 17 7 19 7 19 8 20 8 20 9 19 9 19 10 18 10 18 15 19 15 19 16 20 16 20 17 21 17"/><g id="BG_copy_140"><rect width="24" height="24" fill="none"/></g></svg>
