<?xml version="1.0" encoding="UTF-8"?><svg id="NewsBreak" xmlns="http://www.w3.org/2000/svg" viewBox="0 0 24 24"><polygon points="23 2 23 6 22 6 22 12 21 12 21 17 20 17 20 18 18 18 18 19 16 19 16 20 14 20 14 21 12 21 12 20 11 20 11 18 10 18 10 16 9 16 9 14 8 14 8 15 7 15 7 16 6 16 6 17 5 17 5 19 4 19 4 20 3 20 3 21 2 21 2 22 1 22 1 19 2 19 2 15 3 15 3 11 4 11 4 7 5 7 5 6 7 6 7 5 9 5 9 4 11 4 11 3 13 3 13 5 14 5 14 7 15 7 15 9 16 9 16 11 18 11 18 9 19 9 19 7 20 7 20 5 21 5 21 3 22 3 22 2 23 2"/></svg>
