<?xml version="1.0" encoding="UTF-8"?><svg id="open-ai" xmlns="http://www.w3.org/2000/svg" viewBox="0 0 24 24"><path d="M22,8V7H21V6H19V4H18V3H17V2H16V1H11V2H10V3H9V2H6V3H4V4H3V6H2v5H1v5H2v1H3v1H5v2H6v1H7v1H8v1h5V22h1V21h1v1h3V21h2V20h1V18h1V13h1V8ZM9,6h1V4h1V3h5V4h1V5H12V6H11V7H10V9H9v2H8V8H9ZM5,17V16H4V15H3V11H4v2H5v2h8v1H12v1Zm10,1H14v2H13v1H8V20H7V19h5V18h1V17h1V15h1V13h1v3H15Zm5,0H19v1H18v1H16V18h1V16h1V14H17V12H16V11H15v1H14v2H10V13H9v1H7V13H6V12H5V10H4V6H5V5H6V4H8V6H7V8H6v2H7v2H8v1H9V12h1V10h4v1h1V10h2v1h1v1h1v2h1Zm1-5H20V11H19V9H11V8h1V7h7V8h1V9h1Z"/></svg>