<svg id="Wikipedia" xmlns="http://www.w3.org/2000/svg" viewBox="0 0 24 24"><polygon points="23 5 23 6 22 6 22 7 21 7 21 9 20 9 20 11 19 11 19 13 18 13 18 15 17 15 17 18 16 18 16 19 15 19 15 18 14 18 14 15 13 15 13 13 12 13 12 15 11 15 11 17 10 17 10 18 9 18 9 19 8 19 8 18 7 18 7 15 6 15 6 13 5 13 5 11 4 11 4 9 3 9 3 7 2 7 2 6 1 6 1 5 6 5 6 6 5 6 5 7 6 7 6 9 7 9 7 11 8 11 8 13 9 13 9 15 10 15 10 14 11 14 11 12 12 12 12 11 11 11 11 9 10 9 10 7 9 7 9 6 8 6 8 5 12 5 12 6 11 6 11 7 12 7 12 8 14 8 14 6 13 6 13 5 17 5 17 6 16 6 16 7 15 7 15 9 14 9 14 12 15 12 15 14 17 14 17 12 18 12 18 10 19 10 19 8 20 8 20 6 19 6 19 5 23 5"/></svg>