<svg width="313" height="41" viewBox="0 0 313 41" fill="none" xmlns="http://www.w3.org/2000/svg">
<path d="M8.98806 10.2144H15.161V7.13739H24.4218V10.2144H30.5957V16.3684H33.6826V25.5985H30.5957V31.7525H24.4218V34.8296H15.161V31.7525H8.98806V25.5985H5.90112V16.3684H8.98806V10.2144Z" fill="white"/>
<path d="M30.5957 4.06041V0.983398H8.98804V4.06041V7.13741V10.2144H12.075H15.161V7.13741H18.2479H24.4218V10.2144H27.5087H30.5957V7.13741V4.06041Z" fill="#00FF00"/>
<path d="M8.98806 13.2915V10.2144H5.90112V13.2915V16.3685H8.98806V13.2915Z" fill="#00FF00"/>
<path d="M5.90114 19.4446V16.3684H2.81421V19.4446V22.5216V25.5986H5.90114V22.5216V19.4446Z" fill="#00FF00"/>
<path d="M30.5957 16.3685H33.6826V13.2915V10.2144H30.5957V13.2915V16.3685Z" fill="#00FF00"/>
<path d="M36.7696 19.4446V16.3684H33.6826V19.4446V22.5216V25.5986H36.7696V22.5216H39.8565V19.4446H36.7696Z" fill="#00FF00"/>
<path d="M8.98806 25.5985H5.90112V28.6755V31.7525H8.98806V28.6755V25.5985Z" fill="#00FF00"/>
<path d="M30.5956 28.6755V31.7525H33.6826V28.6755V25.5985H30.5956V28.6755Z" fill="#00FF00"/>
<path d="M8.98792 40.9834V37.9064V34.8294V31.7524H12.0748H15.1609V34.8294H18.2478H21.3347H24.4217V31.7524H27.5086H30.5955V34.8294V37.9064V40.9834H8.98792Z" fill="#00FF00"/>
<path d="M21.3994 7.14685V10.2239V13.3009V16.3779V19.454V22.531H18.3125V19.454V16.3779V13.3009V10.2239V7.14685H21.3994Z" fill="#00FF00"/>
<line opacity="0.7" x1="55.5" y1="41" x2="55.5" y2="1" stroke="white"/>
<path d="M82.926 10.722V8.22H75.402V10.722H82.926ZM72.9 18.246V5.628H85.518V13.242H75.402V18.246H72.9ZM87.3141 8.166V5.556H100.004V8.166H94.8741V15.708H100.004V18.228H87.3141V15.708H92.3541V8.166H87.3141ZM101.798 10.632V5.538H104.3V8.13H106.802V10.632H101.798ZM109.322 13.134H106.802V18.156H101.798V15.654H104.3V13.134H106.802V10.632H109.322V13.134ZM109.322 13.134H111.824V15.654H114.326V18.156H109.322V13.134ZM109.322 10.632V8.13H111.824V5.538H114.326V10.632H109.322ZM116.125 18.228V5.556H128.815V8.166H118.735V10.686H123.775V13.206H118.735V15.708H128.815V18.228H116.125ZM130.609 18.138V5.466H133.219V15.618H143.299V18.138H130.609ZM149.593 8.166V5.556H162.283V8.166H157.153V15.708H162.283V18.228H149.593V15.708H154.633V8.166H149.593ZM164.078 18.138V5.466H176.768V8.076H166.688V15.618H176.768V18.138H164.078ZM188.588 15.744V8.22H181.154V15.744H188.588ZM178.562 18.246V5.628H191.09V18.246H178.562ZM192.888 18.246V5.628H205.506V18.246H203.004V8.22H195.48V18.246H192.888ZM211.802 18.138V5.466H214.412V15.618H224.492V18.138H211.802ZM226.287 8.166V5.556H238.977V8.166H233.847V15.708H238.977V18.228H226.287V15.708H231.327V8.166H226.287ZM250.941 15.708V13.206H243.381V15.708H250.941ZM248.421 10.686V8.166H243.381V10.686H248.421ZM240.771 18.228V5.556H250.941V10.686H253.461V18.228H240.771ZM265.281 10.722V8.22H257.757V10.722H265.281ZM255.255 18.246V5.628H267.873V13.242H265.281V15.744H267.873V18.246H265.281V15.744H262.779V13.242H257.757V18.246H255.255ZM279.84 10.686V8.166H272.28V10.686H279.84ZM269.67 18.228V5.556H282.36V18.228H279.84V13.206H272.28V18.228H269.67ZM294.18 10.722V8.22H286.656V10.722H294.18ZM284.154 18.246V5.628H296.772V13.242H294.18V15.744H296.772V18.246H294.18V15.744H291.678V13.242H286.656V18.246H284.154ZM298.568 13.134V5.538H301.16V10.632H308.684V5.538H311.186V18.156H298.568V15.654H308.684V13.134H298.568Z" fill="#00FF00"/>
<path d="M72.924 29.124H76.992C77.688 29.124 78.228 29.32 78.612 29.712C79.004 30.104 79.2 30.624 79.2 31.272C79.2 31.592 79.156 31.864 79.068 32.088C78.988 32.312 78.876 32.496 78.732 32.64C78.596 32.784 78.432 32.892 78.24 32.964C78.056 33.028 77.856 33.064 77.64 33.072V33.144C77.84 33.144 78.048 33.18 78.264 33.252C78.488 33.324 78.692 33.44 78.876 33.6C79.06 33.752 79.212 33.952 79.332 34.2C79.46 34.448 79.524 34.752 79.524 35.112C79.524 35.44 79.468 35.752 79.356 36.048C79.252 36.336 79.104 36.588 78.912 36.804C78.72 37.02 78.492 37.192 78.228 37.32C77.964 37.44 77.676 37.5 77.364 37.5H72.924V29.124ZM74.748 35.964H76.848C77.088 35.964 77.276 35.9 77.412 35.772C77.556 35.636 77.628 35.448 77.628 35.208V34.8C77.628 34.56 77.556 34.376 77.412 34.248C77.276 34.112 77.088 34.044 76.848 34.044H74.748V35.964ZM74.748 32.556H76.56C76.8 32.556 76.988 32.488 77.124 32.352C77.26 32.216 77.328 32.028 77.328 31.788V31.428C77.328 31.188 77.26 31 77.124 30.864C76.988 30.728 76.8 30.66 76.56 30.66H74.748V32.556ZM82.7043 37.5V34.224L79.8363 29.124H81.8763L83.6763 32.46H83.7003L85.4283 29.124H87.4083L84.5403 34.212V37.5H82.7043ZM96.7772 34.068H93.5852V37.5H91.7612V29.124H93.5852V32.46H96.7772V29.124H98.6012V37.5H96.7772V34.068ZM105.845 37.5L105.245 35.508H102.449L101.849 37.5H100.001L102.761 29.124H105.017L107.741 37.5H105.845ZM103.865 30.78H103.805L102.881 33.96H104.801L103.865 30.78ZM112.16 37.644C111.592 37.644 111.08 37.556 110.624 37.38C110.168 37.196 109.78 36.928 109.46 36.576C109.14 36.216 108.892 35.772 108.716 35.244C108.54 34.708 108.452 34.084 108.452 33.372C108.452 32.668 108.54 32.044 108.716 31.5C108.892 30.948 109.14 30.488 109.46 30.12C109.78 29.744 110.168 29.46 110.624 29.268C111.08 29.076 111.592 28.98 112.16 28.98C112.936 28.98 113.576 29.14 114.08 29.46C114.584 29.772 114.988 30.268 115.292 30.948L113.72 31.764C113.608 31.412 113.432 31.132 113.192 30.924C112.96 30.708 112.616 30.6 112.16 30.6C111.624 30.6 111.192 30.776 110.864 31.128C110.544 31.472 110.384 31.976 110.384 32.64V33.984C110.384 34.648 110.544 35.156 110.864 35.508C111.192 35.852 111.624 36.024 112.16 36.024C112.608 36.024 112.964 35.904 113.228 35.664C113.5 35.416 113.7 35.12 113.828 34.776L115.316 35.64C115.004 36.28 114.592 36.776 114.08 37.128C113.576 37.472 112.936 37.644 112.16 37.644ZM119.749 33.852L118.657 35.172V37.5H116.833V29.124H118.657V33.108H118.729L119.917 31.488L121.801 29.124H123.865L121.045 32.568L124.117 37.5H121.969L119.749 33.852ZM125.428 37.5V29.124H131.128V30.744H127.252V32.46H130.576V34.068H127.252V35.88H131.128V37.5H125.428ZM134.781 37.5H132.957V29.124H136.929C137.313 29.124 137.661 29.188 137.973 29.316C138.285 29.444 138.549 29.628 138.765 29.868C138.989 30.1 139.161 30.38 139.281 30.708C139.401 31.036 139.461 31.4 139.461 31.8C139.461 32.368 139.333 32.864 139.077 33.288C138.829 33.712 138.449 34.02 137.937 34.212L139.581 37.5H137.553L136.089 34.428H134.781V37.5ZM136.701 32.892C136.973 32.892 137.185 32.824 137.337 32.688C137.497 32.544 137.577 32.336 137.577 32.064V31.536C137.577 31.264 137.497 31.06 137.337 30.924C137.185 30.78 136.973 30.708 136.701 30.708H134.781V32.892H136.701ZM143.839 33.54L143.035 31.86H142.999V37.5H141.283V29.124H143.275L145.567 33.084L146.371 34.764H146.407V29.124H148.123V37.5H146.131L143.839 33.54ZM153.567 37.644C153.015 37.644 152.511 37.552 152.055 37.368C151.599 37.184 151.211 36.912 150.891 36.552C150.571 36.184 150.323 35.732 150.147 35.196C149.971 34.652 149.883 34.024 149.883 33.312C149.883 32.6 149.971 31.976 150.147 31.44C150.323 30.896 150.571 30.444 150.891 30.084C151.211 29.716 151.599 29.44 152.055 29.256C152.511 29.072 153.015 28.98 153.567 28.98C154.119 28.98 154.623 29.072 155.079 29.256C155.535 29.44 155.923 29.716 156.243 30.084C156.563 30.444 156.811 30.896 156.987 31.44C157.163 31.976 157.251 32.6 157.251 33.312C157.251 34.024 157.163 34.652 156.987 35.196C156.811 35.732 156.563 36.184 156.243 36.552C155.923 36.912 155.535 37.184 155.079 37.368C154.623 37.552 154.119 37.644 153.567 37.644ZM153.567 36.024C154.119 36.024 154.547 35.844 154.851 35.484C155.163 35.124 155.319 34.608 155.319 33.936V32.688C155.319 32.016 155.163 31.5 154.851 31.14C154.547 30.78 154.119 30.6 153.567 30.6C153.015 30.6 152.583 30.78 152.271 31.14C151.967 31.5 151.815 32.016 151.815 32.688V33.936C151.815 34.608 151.967 35.124 152.271 35.484C152.583 35.844 153.015 36.024 153.567 36.024ZM162.373 37.644C161.821 37.644 161.317 37.552 160.861 37.368C160.405 37.184 160.017 36.912 159.697 36.552C159.377 36.184 159.129 35.732 158.953 35.196C158.777 34.652 158.689 34.024 158.689 33.312C158.689 32.6 158.777 31.976 158.953 31.44C159.129 30.896 159.377 30.444 159.697 30.084C160.017 29.716 160.405 29.44 160.861 29.256C161.317 29.072 161.821 28.98 162.373 28.98C162.925 28.98 163.429 29.072 163.885 29.256C164.341 29.44 164.729 29.716 165.049 30.084C165.369 30.444 165.617 30.896 165.793 31.44C165.969 31.976 166.057 32.6 166.057 33.312C166.057 34.024 165.969 34.652 165.793 35.196C165.617 35.732 165.369 36.184 165.049 36.552C164.729 36.912 164.341 37.184 163.885 37.368C163.429 37.552 162.925 37.644 162.373 37.644ZM162.373 36.024C162.925 36.024 163.353 35.844 163.657 35.484C163.969 35.124 164.125 34.608 164.125 33.936V32.688C164.125 32.016 163.969 31.5 163.657 31.14C163.353 30.78 162.925 30.6 162.373 30.6C161.821 30.6 161.389 30.78 161.077 31.14C160.773 31.5 160.621 32.016 160.621 32.688V33.936C160.621 34.608 160.773 35.124 161.077 35.484C161.389 35.844 161.821 36.024 162.373 36.024ZM170.376 33.54L169.572 31.86H169.536V37.5H167.82V29.124H169.812L172.104 33.084L172.908 34.764H172.944V29.124H174.66V37.5H172.668L170.376 33.54Z" fill="white"/>
</svg>
