<?xml version="1.0" encoding="UTF-8"?><svg id="Arrow_Down" xmlns="http://www.w3.org/2000/svg" viewBox="0 0 24 24"><polygon points="23 12 23 13 22 13 22 14 21 14 21 15 20 15 20 16 19 16 19 17 18 17 18 18 17 18 17 19 16 19 16 20 15 20 15 21 14 21 14 22 13 22 13 23 11 23 11 22 10 22 10 21 9 21 9 20 8 20 8 19 7 19 7 18 6 18 6 17 5 17 5 16 4 16 4 15 3 15 3 14 2 14 2 13 1 13 1 12 2 12 2 11 3 11 3 12 4 12 4 13 5 13 5 14 6 14 6 15 7 15 7 16 8 16 8 17 9 17 9 18 10 18 10 19 11 19 11 1 13 1 13 19 14 19 14 18 15 18 15 17 16 17 16 16 17 16 17 15 18 15 18 14 19 14 19 13 20 13 20 12 21 12 21 11 22 11 22 12 23 12"/></svg>