<?xml version="1.0" encoding="UTF-8"?><svg id="Arrow_Up" xmlns="http://www.w3.org/2000/svg" viewBox="0 0 24 24"><polygon points="23 11 23 12 22 12 22 13 21 13 21 12 20 12 20 11 19 11 19 10 18 10 18 9 17 9 17 8 16 8 16 7 15 7 15 6 14 6 14 5 13 5 13 23 11 23 11 5 10 5 10 6 9 6 9 7 8 7 8 8 7 8 7 9 6 9 6 10 5 10 5 11 4 11 4 12 3 12 3 13 2 13 2 12 1 12 1 11 2 11 2 10 3 10 3 9 4 9 4 8 5 8 5 7 6 7 6 6 7 6 7 5 8 5 8 4 9 4 9 3 10 3 10 2 11 2 11 1 13 1 13 2 14 2 14 3 15 3 15 4 16 4 16 5 17 5 17 6 18 6 18 7 19 7 19 8 20 8 20 9 21 9 21 10 22 10 22 11 23 11"/></svg>