<?xml version="1.0" encoding="UTF-8"?><svg id="Arrow_Alt_Circle_Down" xmlns="http://www.w3.org/2000/svg" viewBox="0 0 24 24"><path d="m15,22h2v-1s2,0,2,0v-1s1,0,1,0v-1s1,0,1,0v-2s1,0,1,0v-2s1,0,1,0v-6h-1s0-2,0-2h-1s0-2,0-2h-1s0-1,0-1h-1s0-1,0-1h-2s0-1,0-1h-2s0-1,0-1h-6v1s-2,0-2,0v1s-2,0-2,0v1s-1,0-1,0v1s-1,0-1,0v2s-1,0-1,0v2s-1,0-1,0v6h1s0,2,0,2h1s0,2,0,2h1s0,1,0,1h1s0,1,0,1h2s0,1,0,1h2s0,1,0,1h6v-1Zm-6-1v-1h-2s0-1,0-1h-2s0-2,0-2h-1s0-2,0-2h-1s0-6,0-6h1v-2s1,0,1,0v-2s2,0,2,0v-1s2,0,2,0v-1s6,0,6,0v1h2s0,1,0,1h2s0,2,0,2h1s0,2,0,2h1s0,6,0,6h-1v2s-1,0-1,0v2s-2,0-2,0v1s-2,0-2,0v1s-6,0-6,0Z"/><polygon points="13 17 11 17 11 16 10 16 10 15 9 15 9 14 8 14 8 13 7 13 7 12 11 12 11 6 13 6 13 12 17 12 17 13 16 13 16 14 15 14 15 15 14 15 14 16 13 16 13 17"/><g id="BG_copy_288"><rect width="24" height="24" fill="none"/></g></svg>