<?xml version="1.0" encoding="UTF-8"?><svg id="Arrow_Right" xmlns="http://www.w3.org/2000/svg" viewBox="0 0 24 24"><polygon points="23 11 23 13 22 13 22 14 21 14 21 15 20 15 20 16 19 16 19 17 18 17 18 18 17 18 17 19 16 19 16 20 15 20 15 21 14 21 14 22 13 22 13 23 12 23 12 22 11 22 11 21 12 21 12 20 13 20 13 19 14 19 14 18 15 18 15 17 16 17 16 16 17 16 17 15 18 15 18 14 19 14 19 13 1 13 1 11 19 11 19 10 18 10 18 9 17 9 17 8 16 8 16 7 15 7 15 6 14 6 14 5 13 5 13 4 12 4 12 3 11 3 11 2 12 2 12 1 13 1 13 2 14 2 14 3 15 3 15 4 16 4 16 5 17 5 17 6 18 6 18 7 19 7 19 8 20 8 20 9 21 9 21 10 22 10 22 11 23 11"/></svg>