<?xml version="1.0" encoding="UTF-8"?><svg id="Brightness_Low" xmlns="http://www.w3.org/2000/svg" viewBox="0 0 24 24"><rect x="19" y="11" width="1" height="2"/><rect x="22" y="11" width="1" height="2"/><rect x="20" y="10" width="2" height="1"/><rect x="20" y="13" width="2" height="1"/><rect x="17" y="4" width="1" height="2"/><rect x="18" y="6" width="2" height="1"/><rect x="20" y="4" width="1" height="2"/><rect x="18" y="3" width="2" height="1"/><rect x="18" y="17" width="2" height="1"/><rect x="20" y="18" width="1" height="2"/><rect x="17" y="18" width="1" height="2"/><rect x="18" y="20" width="2" height="1"/><rect x="11" y="19" width="2" height="1"/><rect x="11" y="22" width="2" height="1"/><rect x="13" y="20" width="1" height="2"/><rect x="10" y="20" width="1" height="2"/><rect x="13" y="2" width="1" height="2"/><rect x="10" y="2" width="1" height="2"/><rect x="11" y="1" width="2" height="1"/><rect x="11" y="4" width="2" height="1"/><path d="m16,10v-2h-2v-1h-4v1h-2v2h-1v4h1v2h2v1h4v-1h2v-2h1v-4h-1Zm-2,4v1h-4v-1h-1v-4h1v-1h4v1h1v4h-1Z"/><rect x="3" y="18" width="1" height="2"/><rect x="4" y="20" width="2" height="1"/><rect x="4" y="17" width="2" height="1"/><rect x="6" y="18" width="1" height="2"/><rect x="6" y="4" width="1" height="2"/><rect x="4" y="3" width="2" height="1"/><rect x="4" y="6" width="2" height="1"/><rect x="3" y="4" width="1" height="2"/><rect x="2" y="13" width="2" height="1"/><rect x="2" y="10" width="2" height="1"/><rect x="1" y="11" width="1" height="2"/><rect x="4" y="11" width="1" height="2"/></svg>