<?xml version="1.0" encoding="UTF-8"?><svg id="Check" xmlns="http://www.w3.org/2000/svg" viewBox="0 0 24 24"><polygon points="22 4 22 6 21 6 21 7 20 7 20 8 19 8 19 9 18 9 18 10 17 10 17 11 16 11 16 12 15 12 15 13 14 13 14 14 13 14 13 15 12 15 12 16 11 16 11 17 10 17 10 18 8 18 8 17 7 17 7 16 6 16 6 15 5 15 5 14 4 14 4 13 3 13 3 12 2 12 2 10 4 10 4 11 5 11 5 12 6 12 6 13 7 13 7 14 8 14 8 15 10 15 10 14 11 14 11 13 12 13 12 12 13 12 13 11 14 11 14 10 15 10 15 9 16 9 16 8 17 8 17 7 18 7 18 6 19 6 19 5 20 5 20 4 22 4"/></svg>