<?xml version="1.0" encoding="UTF-8"?><svg id="Chevron_Up" xmlns="http://www.w3.org/2000/svg" viewBox="0 0 24 24"><polygon points="22 16 22 18 20 18 20 17 19 17 19 16 18 16 18 15 17 15 17 14 16 14 16 13 15 13 15 12 14 12 14 11 13 11 13 10 11 10 11 11 10 11 10 12 9 12 9 13 8 13 8 14 7 14 7 15 6 15 6 16 5 16 5 17 4 17 4 18 2 18 2 16 3 16 3 15 4 15 4 14 5 14 5 13 6 13 6 12 7 12 7 11 8 11 8 10 9 10 9 9 10 9 10 8 11 8 11 7 13 7 13 8 14 8 14 9 15 9 15 10 16 10 16 11 17 11 17 12 18 12 18 13 19 13 19 14 20 14 20 15 21 15 21 16 22 16"/></svg>