<?xml version="1.0" encoding="UTF-8"?><svg id="Chevron_Down" xmlns="http://www.w3.org/2000/svg" viewBox="0 0 24 24"><polygon points="22 6 22 8 21 8 21 9 20 9 20 10 19 10 19 11 18 11 18 12 17 12 17 13 16 13 16 14 15 14 15 15 14 15 14 16 13 16 13 17 11 17 11 16 10 16 10 15 9 15 9 14 8 14 8 13 7 13 7 12 6 12 6 11 5 11 5 10 4 10 4 9 3 9 3 8 2 8 2 6 4 6 4 7 5 7 5 8 6 8 6 9 7 9 7 10 8 10 8 11 9 11 9 12 10 12 10 13 11 13 11 14 13 14 13 13 14 13 14 12 15 12 15 11 16 11 16 10 17 10 17 9 18 9 18 8 19 8 19 7 20 7 20 6 22 6"/></svg>