<?xml version="1.0" encoding="UTF-8"?><svg id="Cloud_Upload" xmlns="http://www.w3.org/2000/svg" viewBox="0 0 24 24"><polygon points="14 12 14 14 13 14 13 13 12 13 12 12 11 12 11 18 10 18 10 12 9 12 9 13 8 13 8 14 7 14 7 12 8 12 8 11 9 11 9 10 10 10 10 9 11 9 11 10 12 10 12 11 13 11 13 12 14 12"/><path d="m22,12v-1h-2v-2h-1v-1h-1v-1h-3v1h-1v-2h-1v-1h-5v1h-1v1h-1v1h-1v3h-3v1h-1v5h1v1h1v1h2v1h14v-1h2v-1h1v-1h1v-5h-1Zm0,4h-1v1h-1v1h-2v1H6v-1h-2v-1h-1v-1h-1v-3h1v-1h3v-3h1v-1h1v-1h1v-1h3v1h1v2h3v-1h1v1h1v1h1v2h2v1h1v3Z"/></svg>