<svg id="Cloud-Rain_Solid_copy" data-name="Cloud-Rain Solid copy" xmlns="http://www.w3.org/2000/svg" viewBox="0 0 24 24"><path d="M22,8V7H20V5H19V4H18V3H15V4H14V2H13V1H8V2H7V3H6V4H5V7H2V8H1v5H2v1H3v1H5v1H19V15h2V14h1V13h1V8Zm0,4H21v1H20v1H18v1H6V14H4V13H3V12H2V9H3V8H6V5H7V4H8V3H9V2h3V3h1V5h3V4h1V5h1V6h1V8h2V9h1Z"/><rect x="15" y="17" width="1" height="3"/><rect x="5" y="19" width="1" height="3"/><rect x="13" y="20" width="1" height="3"/><rect x="17" y="20" width="1" height="3"/><rect x="21" y="19" width="1" height="3"/><rect x="9" y="19" width="1" height="3"/><rect x="11" y="17" width="1" height="3"/><rect x="19" y="17" width="1" height="3"/><rect x="7" y="17" width="1" height="3"/><rect x="3" y="16" width="1" height="3"/></svg>