<?xml version="1.0" encoding="UTF-8"?><svg id="Comment_Quote" xmlns="http://www.w3.org/2000/svg" viewBox="0 0 24 24"><polygon points="17 7 17 15 16 15 16 16 13 16 13 15 14 15 14 14 15 14 15 12 13 12 13 7 17 7"/><polygon points="11 7 11 15 10 15 10 16 7 16 7 15 8 15 8 14 9 14 9 12 7 12 7 7 11 7"/><path d="m22,8v-2h-1v-1h-1v-1h-2v-1h-3v-1h-6v1h-3v1h-2v1h-1v1h-1v2h-1v6h1v2h1v2h-1v1h-1v2h5v-1h1v-1h2v1h6v-1h3v-1h2v-1h1v-1h1v-2h1v-6h-1Zm-2,6v2h-2v1h-3v1h-6v-1h-2v1h-1v1h-2v-1h1v-2h-1v-2h-1v-6h1v-2h2v-1h3v-1h6v1h3v1h2v2h1v6h-1Z"/></svg>