<?xml version="1.0" encoding="UTF-8"?><svg id="Ellipses_Vertical_Circle" xmlns="http://www.w3.org/2000/svg" viewBox="0 0 24 24"><polygon points="11 10 13 10 13 11 14 11 14 13 13 13 13 14 11 14 11 13 10 13 10 11 11 11 11 10"/><polygon points="11 5 13 5 13 6 14 6 14 8 13 8 13 9 11 9 11 8 10 8 10 6 11 6 11 5"/><polygon points="11 15 13 15 13 16 14 16 14 18 13 18 13 19 11 19 11 18 10 18 10 16 11 16 11 15"/><path d="m9,2h-2v1h-2v1h-1v1h-1v2h-1v2h-1v6h1v2h1v2h1v1h1v1h2v1h2v1h6v-1h2v-1h2v-1h1v-1h1v-2h1v-2h1v-6h-1v-2h-1v-2h-1v-1h-1v-1h-2v-1h-2v-1h-6v1Zm6,2h2v1h2v2h1v2h1v6h-1v2h-1v2h-2v1h-2v1h-6v-1h-2v-1h-2v-2h-1v-2h-1v-6h1v-2h1v-2h2v-1h2v-1h6v1Z"/></svg>