<?xml version="1.0" encoding="UTF-8"?><svg id="External_Link_Alt" xmlns="http://www.w3.org/2000/svg" viewBox="0 0 24 24"><polygon points="20 15 20 22 19 22 19 23 2 23 2 22 1 22 1 5 2 5 2 4 11 4 11 6 3 6 3 21 18 21 18 15 20 15"/><polygon points="23 1 23 9 21 9 21 5 20 5 20 6 19 6 19 7 18 7 18 8 17 8 17 9 16 9 16 10 15 10 15 11 14 11 14 12 13 12 13 13 12 13 12 14 11 14 11 15 10 15 10 16 9 16 9 17 7 17 7 15 8 15 8 14 9 14 9 13 10 13 10 12 11 12 11 11 12 11 12 10 13 10 13 9 14 9 14 8 15 8 15 7 16 7 16 6 17 6 17 5 18 5 18 4 19 4 19 3 15 3 15 1 23 1"/></svg>