<?xml version="1.0" encoding="UTF-8"?><svg id="Eye_Cross" xmlns="http://www.w3.org/2000/svg" viewBox="0 0 24 24"><polygon points="15 13 16 13 16 15 15 15 15 16 13 16 13 15 14 15 14 14 15 14 15 13"/><rect x="16" y="11" width="1" height="2"/><polygon points="23 11 23 13 22 13 22 15 21 15 21 16 20 16 20 17 19 17 19 18 17 18 17 19 9 19 9 18 16 18 16 17 18 17 18 16 19 16 19 15 20 15 20 14 21 14 21 10 20 10 20 9 19 9 19 8 21 8 21 9 22 9 22 11 23 11"/><polygon points="2 13 1 13 1 11 2 11 2 9 3 9 3 8 4 8 4 7 5 7 5 6 7 6 7 5 15 5 15 6 8 6 8 7 6 7 6 8 5 8 5 9 4 9 4 10 3 10 3 14 4 14 4 15 5 15 5 16 3 16 3 15 2 15 2 13"/><polygon points="13 7 13 8 12 8 12 9 11 9 11 10 10 10 10 11 9 11 9 12 8 12 8 13 7 13 7 11 8 11 8 9 9 9 9 8 11 8 11 7 13 7"/><polygon points="9 17 8 17 8 18 7 18 7 19 6 19 6 20 5 20 5 21 4 21 4 22 3 22 3 21 2 21 2 20 3 20 3 19 4 19 4 18 5 18 5 17 6 17 6 16 7 16 7 15 8 15 8 14 9 14 9 13 10 13 10 12 11 12 11 11 12 11 12 10 13 10 13 9 14 9 14 8 15 8 15 7 16 7 16 6 17 6 17 5 18 5 18 4 19 4 19 3 20 3 20 2 21 2 21 3 22 3 22 4 21 4 21 5 20 5 20 6 19 6 19 7 18 7 18 8 17 8 17 9 16 9 16 10 15 10 15 11 14 11 14 12 13 12 13 13 12 13 12 14 11 14 11 15 10 15 10 16 9 16 9 17"/><rect x="11" y="16" width="2" height="1"/></svg>