<?xml version="1.0" encoding="UTF-8"?><svg id="Face_Thinking" xmlns="http://www.w3.org/2000/svg" viewBox="0 0 24 24"><polygon points="12 7 13 7 13 8 11 8 11 7 10 7 10 6 8 6 8 7 6 7 6 6 7 6 7 5 11 5 11 6 12 6 12 7"/><polygon points="13 13 13 14 10 14 10 13 8 13 8 12 11 12 11 13 13 13"/><rect x="8" y="8" width="2" height="2"/><rect x="14" y="9" width="2" height="2"/><polygon points="19 8 19 10 18 10 18 9 17 9 17 8 15 8 15 7 18 7 18 8 19 8"/><polygon points="14 15 14 17 13 17 13 18 11 18 11 20 10 20 10 22 9 22 9 23 5 23 5 22 4 22 4 16 5 16 5 15 6 15 6 18 8 18 8 17 10 17 10 16 12 16 12 15 14 15"/><polygon points="23 9 23 15 22 15 22 17 21 17 21 19 20 19 20 20 19 20 19 21 17 21 17 22 15 22 15 23 11 23 11 21 15 21 15 20 17 20 17 19 18 19 18 18 19 18 19 17 20 17 20 15 21 15 21 9 20 9 20 7 19 7 19 6 18 6 18 5 17 5 17 4 15 4 15 3 9 3 9 4 7 4 7 5 6 5 6 6 5 6 5 7 4 7 4 9 3 9 3 14 4 14 4 15 3 15 3 16 2 16 2 15 1 15 1 9 2 9 2 7 3 7 3 5 4 5 4 4 5 4 5 3 7 3 7 2 9 2 9 1 15 1 15 2 17 2 17 3 19 3 19 4 20 4 20 5 21 5 21 7 22 7 22 9 23 9"/></svg>