<svg id="Face_Laugh_Squint" data-name="Face Laugh Squint" xmlns="http://www.w3.org/2000/svg" viewBox="0 0 24 24"><polygon points="16 9 16 10 17 10 17 11 18 11 18 12 15 12 15 11 14 11 14 10 13 10 13 9 14 9 14 8 15 8 15 7 18 7 18 8 17 8 17 9 16 9"/><polygon points="18 14 18 16 17 16 17 17 16 17 16 18 15 18 15 19 9 19 9 18 8 18 8 17 7 17 7 16 6 16 6 14 18 14"/><polygon points="11 9 11 10 10 10 10 11 9 11 9 12 6 12 6 11 7 11 7 10 8 10 8 9 7 9 7 8 6 8 6 7 9 7 9 8 10 8 10 9 11 9"/><path d="M22,9V7H21V5H20V4H19V3H17V2H15V1H9V2H7V3H5V4H4V5H3V7H2V9H1v6H2v2H3v2H4v1H5v1H7v1H9v1h6V22h2V21h2V20h1V19h1V17h1V15h1V9Zm-1,6H20v2H19v1H18v1H17v1H15v1H9V20H7V19H6V18H5V17H4V15H3V9H4V7H5V6H6V5H7V4H9V3h6V4h2V5h1V6h1V7h1V9h1Z"/></svg>