<svg id="Handshake" xmlns="http://www.w3.org/2000/svg" viewBox="0 0 24 24"><polygon points="18 8 18 7 11 7 11 8 10 8 10 9 9 9 9 10 8 10 8 12 11 12 11 11 12 11 12 10 13 10 13 9 15 9 15 10 16 10 16 11 17 11 17 12 18 12 18 13 19 13 19 14 21 14 21 13 23 13 23 15 22 15 22 16 20 16 20 17 19 17 19 18 18 18 18 19 17 19 17 20 14 20 14 21 8 21 8 20 6 20 6 19 5 19 5 18 4 18 4 17 3 17 3 16 2 16 2 15 1 15 1 13 3 13 3 14 4 14 4 15 5 15 5 16 6 16 6 17 7 17 7 18 8 18 8 19 9 19 9 18 8 18 8 17 7 17 7 16 9 16 9 17 10 17 10 18 11 18 11 19 13 19 13 18 12 18 12 17 11 17 11 16 10 16 10 15 12 15 12 16 13 16 13 17 14 17 14 18 17 18 17 17 15 17 15 16 14 16 14 15 13 15 13 14 15 14 15 15 16 15 16 16 18 16 18 15 17 15 17 14 16 14 16 13 15 13 15 12 13 12 13 13 11 13 11 14 8 14 8 13 7 13 7 12 6 12 6 10 7 10 7 9 8 9 8 8 9 8 9 7 6 7 6 8 5 8 5 7 3 7 3 6 1 6 1 4 3 4 3 5 5 5 5 6 6 6 6 5 18 5 18 6 19 6 19 5 21 5 21 4 23 4 23 6 21 6 21 7 19 7 19 8 18 8"/></svg>