<?xml version="1.0" encoding="UTF-8"?><svg id="Lightbulb_O" xmlns="http://www.w3.org/2000/svg" viewBox="0 0 24 24"><polygon points="14 21 14 22 13 22 13 23 11 23 11 22 10 22 10 21 14 21"/><rect x="11" y="4" width="2" height="1"/><rect x="10" y="5" width="1" height="1"/><path d="m19,7v-2h-1v-1h-1v-1h-1v-1h-2v-1h-4v1h-2v1h-1v1h-1v1h-1v2h-1v4h1v2h1v1h1v1h1v1h1v4h6v-4h1v-1h1v-1h1v-1h1v-2h1v-4h-1Zm-1,4h-1v2h-1v1h-1v1h-1v1h-4v-1h-1v-1h-1v-1h-1v-2h-1v-4h1v-2h1v-1h2v-1h4v1h2v1h1v2h1v4Z"/><rect x="9" y="6" width="1" height="1"/><rect x="8" y="7" width="1" height="2"/></svg>