<?xml version="1.0" encoding="UTF-8"?><svg id="Times_Octagon" xmlns="http://www.w3.org/2000/svg" viewBox="0 0 24 24"><polygon points="17 8 17 10 16 10 16 11 15 11 15 13 16 13 16 14 17 14 17 16 16 16 16 17 14 17 14 16 13 16 13 15 11 15 11 16 10 16 10 17 8 17 8 16 7 16 7 14 8 14 8 13 9 13 9 11 8 11 8 10 7 10 7 8 8 8 8 7 10 7 10 8 11 8 11 9 13 9 13 8 14 8 14 7 16 7 16 8 17 8"/><path d="m22,8v-1h-1v-1h-1v-1h-1v-1h-1v-1h-1v-1h-1v-1h-8v1h-1v1h-1v1h-1v1h-1v1h-1v1h-1v1h-1v8h1v1h1v1h1v1h1v1h1v1h1v1h1v1h8v-1h1v-1h1v-1h1v-1h1v-1h1v-1h1v-1h1v-8h-1Zm-2,7v1h-1v1h-1v1h-1v1h-1v1h-1v1h-6v-1h-1v-1h-1v-1h-1v-1h-1v-1h-1v-1h-1v-6h1v-1h1v-1h1v-1h1v-1h1v-1h1v-1h6v1h1v1h1v1h1v1h1v1h1v1h1v6h-1Z"/></svg>