<?xml version="1.0" encoding="UTF-8"?><svg id="Pen" xmlns="http://www.w3.org/2000/svg" viewBox="0 0 24 24"><polygon points="23 5 23 7 22 7 22 8 21 8 21 9 20 9 20 10 19 10 19 9 18 9 18 8 17 8 17 7 16 7 16 6 15 6 15 5 14 5 14 4 15 4 15 3 16 3 16 2 17 2 17 1 19 1 19 2 20 2 20 3 21 3 21 4 22 4 22 5 23 5"/><path d="m17,10v-1h-1v-1h-1v-1h-1v-1h-2v1h-1v1h-1v1h-1v1h-1v1h-1v1h-1v1h-1v1h-1v1h-1v1h-1v1h-1v6h6v-1h1v-1h1v-1h1v-1h1v-1h1v-1h1v-1h1v-1h1v-1h1v-1h1v-1h1v-2h-1Zm-2,2v1h-1v1h-1v1h-1v1h-1v1h-1v1h-1v1h-1v1h-1v1H3v-4h1v-1h1v-1h1v-1h1v-1h1v-1h1v-1h1v-1h1v-1h1v-1h2v1h1v1h1v2h-1Z"/></svg>