<?xml version="1.0" encoding="UTF-8"?><svg id="Phone_Ringing_High" xmlns="http://www.w3.org/2000/svg" viewBox="0 0 24 24"><rect x="12" y="10" width="2" height="2"/><polygon points="18 9 19 9 19 12 17 12 17 10 16 10 16 9 15 9 15 8 14 8 14 7 12 7 12 5 15 5 15 6 16 6 16 7 17 7 17 8 18 8 18 9"/><polygon points="23 8 23 12 21 12 21 8 20 8 20 7 19 7 19 6 18 6 18 5 17 5 17 4 16 4 16 3 12 3 12 1 16 1 16 2 18 2 18 3 19 3 19 4 20 4 20 5 21 5 21 6 22 6 22 8 23 8"/><path d="m22,17v-1h-1v-1h-2v-1h-3v1h-1v1h-3v-1h-1v-1h-1v-1h-1v-1h-1v-3h1v-1h1v-3h-1v-2h-1v-1h-1v-1h-3v1h-2v1h-1v5h1v4h1v2h1v1h1v1h1v1h1v1h1v1h1v1h1v1h2v1h4v1h5v-1h1v-2h1v-3h-1Zm-2,3v1h-4v-1h-4v-1h-2v-1h-1v-1h-1v-1h-1v-1h-1v-1h-1v-2h-1v-4h-1v-4h1v-1h3v2h1v3h-1v1h-1v3h1v1h1v1h1v1h1v1h1v1h1v1h3v-1h1v-1h3v1h2v3h-1Z"/></svg>