<?xml version="1.0" encoding="UTF-8"?><svg id="Spinner" xmlns="http://www.w3.org/2000/svg" viewBox="0 0 24 24"><rect x="20" y="13" width="2" height="1"/><rect x="22" y="11" width="1" height="2"/><rect x="20" y="10" width="2" height="1"/><rect x="19" y="11" width="1" height="2"/><rect x="17" y="19" width="2" height="1"/><rect x="19" y="17" width="1" height="2"/><rect x="17" y="16" width="2" height="1"/><rect x="16" y="17" width="1" height="2"/><rect x="10" y="20" width="1" height="2"/><rect x="11" y="22" width="2" height="1"/><rect x="13" y="20" width="1" height="2"/><rect x="11" y="19" width="2" height="1"/><rect x="5" y="19" width="2" height="1"/><rect x="13" y="2" width="1" height="2"/><rect x="11" y="4" width="2" height="1"/><rect x="11" y="1" width="2" height="1"/><rect x="10" y="2" width="1" height="2"/><rect x="7" y="17" width="1" height="2"/><rect x="7" y="5" width="1" height="2"/><rect x="5" y="7" width="2" height="1"/><rect x="5" y="16" width="2" height="1"/><rect x="5" y="4" width="2" height="1"/><rect x="4" y="17" width="1" height="2"/><rect x="4" y="11" width="1" height="2"/><rect x="4" y="5" width="1" height="2"/><rect x="2" y="10" width="2" height="1"/><rect x="2" y="13" width="2" height="1"/><rect x="1" y="11" width="1" height="2"/></svg>
