<?xml version="1.0" encoding="UTF-8"?><svg id="_24px_Grid_copy_110" xmlns="http://www.w3.org/2000/svg" viewBox="0 0 24 24"><polygon points="23 10 23 11 22 11 22 12 21 12 21 14 22 14 22 17 21 17 21 16 20 16 20 15 19 15 19 14 18 14 18 15 17 15 17 16 16 16 16 17 15 17 15 14 16 14 16 12 15 12 15 11 14 11 14 10 17 10 17 8 18 8 18 7 19 7 19 8 20 8 20 10 23 10"/><path d="m8,10v-2h1v-2h1v-1h2v-1h2v-1h3v-1h-2v-1h-6v1h-2v1h-2v1h-1v1h-1v2h-1v2h-1v6h1v2h1v2h1v1h1v1h2v1h2v1h6v-1h2v-1h-3v-1h-2v-1h-2v-1h-1v-2h-1v-2h-1v-4h1Zm-2,4v2h1v2h1v1h1v1h1v1h-1v-1h-2v-1h-2v-2h-1v-2h-1v-6h1v-2h1v-2h2v-1h2v-1h1v1h-1v1h-1v1h-1v2h-1v2h-1v4h1Z"/></svg>