<?xml version="1.0" encoding="UTF-8"?><svg id="_24px_Grid_copy_106" xmlns="http://www.w3.org/2000/svg" viewBox="0 0 24 24"><path d="m21,11v-1h1v-1h1v-2h-3v-1h-2v-2h-1V1h-2v1h-1v1h-1v1h-2v-1h-1v-1h-1v-1h-2v3h-1v2h-2v1H1v2h1v1h1v1h1v2h-1v1h-1v1h-1v2h3v1h2v2h1v3h2v-1h1v-1h1v-1h2v1h1v1h1v1h2v-3h1v-2h2v-1h3v-2h-1v-1h-1v-1h-1v-2h1Zm-2,2v1h1v1h1v1h-3v1h-1v1h-1v3h-1v-1h-1v-1h-1v-1h-2v1h-1v1h-1v1h-1v-3h-1v-1h-1v-1h-3v-1h1v-1h1v-1h1v-2h-1v-1h-1v-1h-1v-1h3v-1h1v-1h1v-3h1v1h1v1h1v1h2v-1h1v-1h1v-1h1v2h1v2h1v1h3v1h-1v1h-1v1h-1v2h1Z"/><path d="m16,10v-1h-1v-1h-1v-1h-4v1h-1v1h-1v1h-1v4h1v1h1v1h1v1h4v-1h1v-1h1v-1h1v-4h-1Zm-1,4h-1v1h-4v-1h-1v-4h1v-1h4v1h1v4Z"/></svg>