<?xml version="1.0" encoding="UTF-8"?><svg id="Tag" xmlns="http://www.w3.org/2000/svg" viewBox="0 0 24 24"><polygon points="8 5 8 7 7 7 7 8 5 8 5 7 4 7 4 5 5 5 5 4 7 4 7 5 8 5"/><path d="m22,13v-1h-1v-1h-1v-1h-1v-1h-1v-1h-1v-1h-1v-1h-1v-1h-1v-1h-1v-1h-1v-1h-1v-1H2v1h-1v9h1v1h1v1h1v1h1v1h1v1h1v1h1v1h1v1h1v1h1v1h1v1h1v1h2v-1h1v-1h1v-1h1v-1h1v-1h1v-1h1v-1h1v-1h1v-2h-1ZM3,3h7v1h1v1h1v1h1v1h1v1h1v1h1v1h1v1h1v1h1v1h1v2h-1v1h-1v1h-1v1h-1v1h-1v1h-2v-1h-1v-1h-1v-1h-1v-1h-1v-1h-1v-1h-1v-1h-1v-1h-1v-1h-1v-1h-1V3Z"/></svg>