<?xml version="1.0" encoding="UTF-8"?><svg id="Times_Circle" xmlns="http://www.w3.org/2000/svg" viewBox="0 0 24 24"><polygon points="14 13 15 13 15 14 16 14 16 15 17 15 17 16 16 16 16 17 15 17 15 16 14 16 14 15 13 15 13 14 11 14 11 15 10 15 10 16 9 16 9 17 8 17 8 16 7 16 7 15 8 15 8 14 9 14 9 13 10 13 10 11 9 11 9 10 8 10 8 9 7 9 7 8 8 8 8 7 9 7 9 8 10 8 10 9 11 9 11 10 13 10 13 9 14 9 14 8 15 8 15 7 16 7 16 8 17 8 17 9 16 9 16 10 15 10 15 11 14 11 14 13"/><path d="m22,9v-2h-1v-2h-1v-1h-1v-1h-2v-1h-2v-1h-6v1h-2v1h-2v1h-1v1h-1v2h-1v2h-1v6h1v2h1v2h1v1h1v1h2v1h2v1h6v-1h2v-1h2v-1h1v-1h1v-2h1v-2h1v-6h-1Zm-1,6h-1v2h-1v2h-2v1h-2v1h-6v-1h-2v-1h-2v-2h-1v-2h-1v-6h1v-2h1v-2h2v-1h2v-1h6v1h2v1h2v2h1v2h1v6Z"/></svg>