<svg id="Times_Square" data-name="Times Square" xmlns="http://www.w3.org/2000/svg" viewBox="0 0 24 24"><path d="M22,2V1H2V2H1V22H2v1H22V22h1V2ZM21,21H3V3H21Z"/><polygon points="14 13 15 13 15 14 16 14 16 15 17 15 17 16 16 16 16 17 15 17 15 16 14 16 14 15 13 15 13 14 11 14 11 15 10 15 10 16 9 16 9 17 8 17 8 16 7 16 7 15 8 15 8 14 9 14 9 13 10 13 10 11 9 11 9 10 8 10 8 9 7 9 7 8 8 8 8 7 9 7 9 8 10 8 10 9 11 9 11 10 13 10 13 9 14 9 14 8 15 8 15 7 16 7 16 8 17 8 17 9 16 9 16 10 15 10 15 11 14 11 14 13"/></svg>