<?xml version="1.0" encoding="UTF-8"?><svg id="Trending" xmlns="http://www.w3.org/2000/svg" viewBox="0 0 24 24"><polygon points="23 5 23 14 22 14 22 13 21 13 21 12 20 12 20 11 18 11 18 12 17 12 17 13 16 13 16 14 15 14 15 15 14 15 14 16 13 16 13 17 12 17 12 18 10 18 10 17 9 17 9 16 8 16 8 15 7 15 7 14 5 14 5 15 4 15 4 16 3 16 3 17 1 17 1 15 2 15 2 14 3 14 3 13 4 13 4 12 5 12 5 11 7 11 7 12 8 12 8 13 9 13 9 14 10 14 10 15 12 15 12 14 13 14 13 13 14 13 14 12 15 12 15 11 16 11 16 10 17 10 17 8 16 8 16 7 15 7 15 6 14 6 14 5 23 5"/></svg>