<?xml version="1.0" encoding="UTF-8"?><svg id="Users" xmlns="http://www.w3.org/2000/svg" viewBox="0 0 24 24"><path d="m19,18v-1h-1v-1h-2v-1h-8v1h-2v1h-1v1h-1v3h1v1h14v-1h1v-3h-1Zm-11,0v-1h8v1h2v2H6v-2h2Z"/><path d="m15,7v-1h-1v-1h-4v1h-1v1h-1v4h1v1h1v1h4v-1h1v-1h1v-4h-1Zm-5,4v-4h4v4h-4Z"/><polygon points="7 5 8 5 8 6 7 6 7 8 5 8 5 7 4 7 4 5 5 5 5 4 7 4 7 5"/><polygon points="7 12 8 12 8 13 2 13 2 12 1 12 1 10 2 10 2 9 7 9 7 12"/><polygon points="17 6 16 6 16 5 17 5 17 4 19 4 19 5 20 5 20 7 19 7 19 8 17 8 17 6"/><polygon points="23 10 23 12 22 12 22 13 16 13 16 12 17 12 17 9 22 9 22 10 23 10"/></svg>