<?xml version="1.0" encoding="UTF-8"?><svg id="Users_Crown" xmlns="http://www.w3.org/2000/svg" viewBox="0 0 24 24"><polygon points="13 12 13 11 14 11 14 5 18 5 18 6 19 6 19 11 18 11 18 12 13 12"/><path d="m13,3h-1v1h-1v1h-1v-1h-1v-1h-1v1h-1v1h-1v-1h-1v-1h-1v7h1v1h1v1h5v-1h1v-1h1V3Zm-2,6h-1v1h-3v-1h-1v-2h5v2Z"/><polygon points="23 17 23 20 22 20 22 21 16 21 16 20 17 20 17 16 16 16 16 15 15 15 15 14 20 14 20 15 21 15 21 16 22 16 22 17 23 17"/><path d="m15,17v-1h-1v-1h-1v-1H4v1h-1v1h-1v1h-1v3h1v1h13v-1h1v-3h-1Zm-11,0v-1h9v1h1v2H3v-2h1Z"/></svg>