<?xml version="1.0" encoding="UTF-8"?><svg id="Window_Close" xmlns="http://www.w3.org/2000/svg" viewBox="0 0 24 24"><path d="m22,2v-1H2v1h-1v20h1v1h20v-1h1V2h-1Zm-1,19H3V3h18v18Z"/><polygon points="15 13 16 13 16 14 17 14 17 15 18 15 18 16 17 16 17 17 16 17 16 18 15 18 15 17 14 17 14 16 13 16 13 15 11 15 11 16 10 16 10 17 9 17 9 18 8 18 8 17 7 17 7 16 6 16 6 15 7 15 7 14 8 14 8 13 9 13 9 11 8 11 8 10 7 10 7 9 6 9 6 8 7 8 7 7 8 7 8 6 9 6 9 7 10 7 10 8 11 8 11 9 13 9 13 8 14 8 14 7 15 7 15 6 16 6 16 7 17 7 17 8 18 8 18 9 17 9 17 10 16 10 16 11 15 11 15 13"/></svg>