<?xml version="1.0" encoding="UTF-8"?><svg id="Pinterest_copy" xmlns="http://www.w3.org/2000/svg" viewBox="0 0 24 24"><polygon points="23 9 23 15 22 15 22 17 21 17 21 19 20 19 20 20 19 20 19 21 17 21 17 22 15 22 15 23 9 23 9 21 10 21 10 18 11 18 11 17 12 17 12 18 16 18 16 17 17 17 17 16 18 16 18 14 19 14 19 10 18 10 18 8 17 8 17 7 16 7 16 6 14 6 14 5 10 5 10 6 8 6 8 7 7 7 7 8 6 8 6 10 5 10 5 14 6 14 6 15 7 15 7 16 8 16 8 14 7 14 7 10 8 10 8 8 10 8 10 7 14 7 14 8 16 8 16 9 17 9 17 14 16 14 16 15 15 15 15 16 11 16 11 14 12 14 12 9 10 9 10 10 9 10 9 17 8 17 8 20 7 20 7 21 5 21 5 20 4 20 4 19 3 19 3 17 2 17 2 15 1 15 1 9 2 9 2 7 3 7 3 5 4 5 4 4 5 4 5 3 7 3 7 2 9 2 9 1 15 1 15 2 17 2 17 3 19 3 19 4 20 4 20 5 21 5 21 7 22 7 22 9 23 9"/></svg>