<svg id="Algolia" xmlns="http://www.w3.org/2000/svg" viewBox="0 0 24 24"><polygon points="23 1 23 23 22 23 22 22 21 22 21 21 20 21 20 20 19 20 19 19 18 19 18 18 17 18 17 17 15 17 15 18 9 18 9 17 8 17 8 16 7 16 7 15 6 15 6 9 7 9 7 8 8 8 8 7 9 7 9 6 15 6 15 7 16 7 16 8 17 8 17 9 18 9 18 13 17 13 17 12 16 12 16 10 15 10 15 9 14 9 14 8 10 8 10 9 9 9 9 10 8 10 8 14 9 14 9 15 10 15 10 16 14 16 14 15 15 15 15 14 17 14 17 15 18 15 18 16 19 16 19 17 20 17 20 18 21 18 21 3 9 3 9 4 7 4 7 5 6 5 6 6 5 6 5 7 4 7 4 9 3 9 3 15 4 15 4 17 5 17 5 18 6 18 6 19 7 19 7 20 9 20 9 21 15 21 15 20 16 20 16 21 17 21 17 22 16 22 16 23 8 23 8 22 6 22 6 21 5 21 5 20 4 20 4 19 3 19 3 18 2 18 2 16 1 16 1 8 2 8 2 6 3 6 3 5 4 5 4 4 5 4 5 3 6 3 6 2 8 2 8 1 23 1"/></svg>