<svg id="Creative_Commons" data-name="Creative Commons" xmlns="http://www.w3.org/2000/svg" viewBox="0 0 24 24"><polygon points="15 11 15 13 16 13 16 14 18 14 18 16 15 16 15 15 14 15 14 14 13 14 13 10 14 10 14 9 15 9 15 8 18 8 18 10 16 10 16 11 15 11"/><polygon points="11 8 11 10 9 10 9 11 8 11 8 13 9 13 9 14 11 14 11 16 8 16 8 15 7 15 7 14 6 14 6 10 7 10 7 9 8 9 8 8 11 8"/><path d="M22,9V7H21V5H20V4H19V3H17V2H15V1H9V2H7V3H5V4H4V5H3V7H2V9H1v6H2v2H3v2H4v1H5v1H7v1H9v1h6V22h2V21h2V20h1V19h1V17h1V15h1V9Zm-1,6H20v2H19v1H18v1H17v1H15v1H9V20H7V19H6V18H5V17H4V15H3V9H4V7H5V6H6V5H7V4H9V3h6V4h2V5h1V6h1V7h1V9h1Z"/></svg>