<?xml version="1.0" encoding="UTF-8"?><svg id="Facebook" xmlns="http://www.w3.org/2000/svg" viewBox="0 0 24 24"><polygon points="23 9 23 15 22 15 22 17 21 17 21 19 20 19 20 20 19 20 19 21 17 21 17 22 15 22 15 23 14 23 14 15 16 15 16 14 17 14 17 12 14 12 14 9 15 9 15 8 17 8 17 5 13 5 13 6 11 6 11 8 10 8 10 12 7 12 7 15 10 15 10 23 9 23 9 22 7 22 7 21 5 21 5 20 4 20 4 19 3 19 3 17 2 17 2 15 1 15 1 9 2 9 2 7 3 7 3 5 4 5 4 4 5 4 5 3 7 3 7 2 9 2 9 1 15 1 15 2 17 2 17 3 19 3 19 4 20 4 20 5 21 5 21 7 22 7 22 9 23 9"/></svg>