<svg width="24" height="24" viewBox="0 0 24 24" fill="none" xmlns="http://www.w3.org/2000/svg">
<path d="M18 3.5V2.5H17V1.5H7V2.5H6V3.5H5V6.5H6V7.5H7V9.5H6V10.5H5V13.5H6V14.5H7V16.5H6V17.5H5V20.5H6V21.5H7V22.5H12V21.5H13V15.5H17V14.5H18V13.5H19V10.5H18V9.5H17V7.5H18V6.5H19V3.5H18ZM11 21.5H8V20.5H7V17.5H8V16.5H11V21.5ZM11 14.5H8V13.5H7V10.5H8V9.5H11V14.5ZM11 7.5H8V6.5H7V3.5H8V2.5H11V7.5ZM17 10.5V13.5H16V14.5H14V13.5H13V10.5H14V9.5H16V10.5H17ZM16 6.5V7.5H13V2.5H16V3.5H17V6.5H16Z" fill="black"/>
</svg>
