<svg width="24" height="24" viewBox="0 0 24 24" fill="none" xmlns="http://www.w3.org/2000/svg">
<path d="M7 9H6V10H7V9Z" fill="black"/>
<path d="M23 9V15H22V16H21V18H20V19H19V20H18V21H16V22H14V23H10V22H8V21H6V20H5V19H4V11H5V13H6V15H7V16H9V17H14V16H16V15H17V14H18V12H19V11H20V5H21V7H22V9H23Z" fill="black"/>
<path d="M6 10H5V11H6V10Z" fill="black"/>
<path d="M17 11H16V12H17V11Z" fill="black"/>
<path d="M4 10H3V17H2V14H1V9H2V7H3V5H4V4H5V3H7V2H9V1H15V2H17V3H18V4H19V10H18V11H17V8H15V7H7V8H5V9H4V10Z" fill="black"/>
</svg>
