<svg width="24" height="24" viewBox="0 0 24 24" fill="none" xmlns="http://www.w3.org/2000/svg">
<path d="M21 17H20V18H21V17Z" fill="black"/>
<path d="M20 18H19V19H20V18Z" fill="black"/>
<path d="M19 17H18V18H19V17Z" fill="black"/>
<path d="M20 16H19V17H20V16Z" fill="black"/>
<path d="M21 15H20V16H21V15Z" fill="black"/>
<path d="M20 14H19V15H20V14Z" fill="black"/>
<path d="M19 15H18V16H19V15Z" fill="black"/>
<path d="M18 16H17V17H18V16Z" fill="black"/>
<path d="M18 14H17V15H18V14Z" fill="black"/>
<path d="M17 15H16V16H17V15Z" fill="black"/>
<path d="M19 19V20H14V17H15V16H16V17H17V18H18V19H19Z" fill="black"/>
<path d="M23 15H22V20H23V15Z" fill="black"/>
<path d="M22 8H21V15H22V8Z" fill="black"/>
<path d="M22 20H20V21H22V20Z" fill="black"/>
<path d="M21 6H20V8H21V6Z" fill="black"/>
<path d="M20 5H19V6H20V5Z" fill="black"/>
<path d="M19 4H18V5H19V4Z" fill="black"/>
<path d="M18 3H16V4H18V3Z" fill="black"/>
<path d="M20 21H14V22H20V21Z" fill="black"/>
<path d="M14 20H10V21H14V20Z" fill="black"/>
<path d="M16 2H8V3H16V2Z" fill="black"/>
<path d="M8 15H7V16H8V15Z" fill="black"/>
<path d="M8 3H6V4H8V3Z" fill="black"/>
<path d="M7 16H6V17H7V16Z" fill="black"/>
<path d="M7 14H6V15H7V14Z" fill="black"/>
<path d="M10 17V20H5V19H6V18H7V17H8V16H9V17H10Z" fill="black"/>
<path d="M6 17H5V18H6V17Z" fill="black"/>
<path d="M6 15H5V16H6V15Z" fill="black"/>
<path d="M6 4H5V5H6V4Z" fill="black"/>
<path d="M10 21H4V22H10V21Z" fill="black"/>
<path d="M5 18H4V19H5V18Z" fill="black"/>
<path d="M5 16H4V17H5V16Z" fill="black"/>
<path d="M5 14H4V15H5V14Z" fill="black"/>
<path d="M19 9V7H18V6H17V5H15V4H9V5H7V6H6V7H5V9H4V13H7V14H8V15H9V16H10V17H11V19H13V17H14V16H15V15H16V14H17V13H20V9H19ZM7 10H6V9H7V10ZM8 10V8H10V9H9V10H8ZM15 13H14V14H13V13H11V14H10V13H9V11H10V12H14V11H15V13ZM16 10H15V9H14V8H16V10ZM18 10H17V9H18V10Z" fill="black"/>
<path d="M5 5H4V6H5V5Z" fill="black"/>
<path d="M4 20H2V21H4V20Z" fill="black"/>
<path d="M4 17H3V18H4V17Z" fill="black"/>
<path d="M4 15H3V16H4V15Z" fill="black"/>
<path d="M4 6H3V8H4V6Z" fill="black"/>
<path d="M3 8H2V15H3V8Z" fill="black"/>
<path d="M2 15H1V20H2V15Z" fill="black"/>
</svg>
