<svg width="24" height="24" viewBox="0 0 24 24" fill="none" xmlns="http://www.w3.org/2000/svg">
<path d="M16 17H15V18H16V17Z" fill="black"/>
<path d="M15 17V16H13V17H12V18H11V19H12V20H11V19H10V20H8V19H7V18H6V17H5V15H4V16H3V15H2V14H3V13H4V14H5V13H6V12H7V11H6V10H7V11H8V9H7V8H6V9H5V10H4V11H3V12H1V21H2V22H3V23H11V22H12V21H13V20H14V19H15V18H14V17H15ZM3 20H2V19H3V20ZM3 17H4V18H3V17ZM7 21H6V22H5V21H4V20H5V19H6V20H7V21ZM10 22H9V21H10V22Z" fill="black"/>
<path d="M23 3V21H22V22H21V23H13V22H14V21H15V20H16V19H17V18H18V17H19V5H7V6H6V7H5V8H4V9H3V10H2V11H1V3H2V2H3V1H21V2H22V3H23Z" fill="black"/>
<path d="M13 15H12V16H11V17H10V18H8V17H7V16H6V14H7V13H8V12H9V11H10V9H9V8H8V7H9V6H18V15H17V16H16V15H15V14H13V15Z" fill="black"/>
</svg>
