<?xml version="1.0" encoding="UTF-8"?><svg id="Podcasts" xmlns="http://www.w3.org/2000/svg" viewBox="0 0 24 24"><polygon points="9 14 8 14 8 12 11 12 11 11 8 11 8 9 11 9 11 8 8 8 8 6 11 6 11 5 8 5 8 3 9 3 9 2 10 2 10 1 14 1 14 2 15 2 15 3 16 3 16 5 13 5 13 6 16 6 16 8 13 8 13 9 16 9 16 11 13 11 13 12 16 12 16 14 15 14 15 15 14 15 14 16 10 16 10 15 9 15 9 14"/><polygon points="19 12 19 15 18 15 18 17 17 17 17 18 15 18 15 19 13 19 13 21 16 21 16 23 8 23 8 21 11 21 11 19 9 19 9 18 7 18 7 17 6 17 6 15 5 15 5 12 6 12 6 14 7 14 7 16 8 16 8 17 10 17 10 18 14 18 14 17 16 17 16 16 17 16 17 14 18 14 18 12 19 12"/></svg>