<?xml version="1.0" encoding="UTF-8"?><svg id="Reddit" xmlns="http://www.w3.org/2000/svg" viewBox="0 0 24 24"><rect x="14" y="15" width="1" height="1"/><rect x="13" y="12" width="2" height="2"/><rect x="9" y="12" width="2" height="2"/><rect x="9" y="15" width="1" height="1"/><path d="m22,9v-2h-1v-2h-1v-1h-1v-1h-2v-1h-2v-1h-6v1h-2v1h-2v1h-1v1h-1v2h-1v2h-1v6h1v2h1v2h1v1h1v1h2v1h2v1h6v-1h2v-1h2v-1h1v-1h1v-2h1v-2h1v-6h-1Zm-3,5h-1v1h-1v2h-1v1h-2v1h-4v-1h-2v-1h-1v-3h-1v-1h-1v-2h1v-1h2v1h1v-1h3v-5h2v1h3v2h-2v-1h-2v3h2v1h1v-1h2v1h1v3Z"/><rect x="10" y="16" width="4" height="1"/></svg>