<svg width="24" height="24" viewBox="0 0 24 24" fill="none" xmlns="http://www.w3.org/2000/svg">
<path d="M15 15H14V16H15V15Z" fill="black"/>
<path d="M15 12H13V14H15V12Z" fill="black"/>
<path d="M11 12H9V14H11V12Z" fill="black"/>
<path d="M10 15H9V16H10V15Z" fill="black"/>
<path d="M22 9V7H21V5H20V4H19V3H17V2L15 2V1L9 1V2L7 2V3H5L5 4H4V5H3L3 7H2L2 9H1L1 15H2L2 17H3L3 19H4V20H5L5 21H7V22H9V23L15 23V22H17V21H19V20H20V19H21V17H22V15H23L23 9H22ZM19 14H18V15L17 15V17H16L16 18H14V19L10 19V18H8V17H7L7 14L6 14V13H5V11H6V10L8 10V11H9V10H12L12 5H14V6L17 6V8H15V7L13 7V10H15V11H16V10L18 10V11H19L19 14Z" fill="black"/>
<path d="M14 16H10V17H14V16Z" fill="black"/>
</svg>
