<svg id="Slack" xmlns="http://www.w3.org/2000/svg" viewBox="0 0 24 24"><polygon points="6 13 6 17 5 17 5 18 2 18 2 17 1 17 1 14 2 14 2 13 6 13"/><polygon points="10 2 11 2 11 6 7 6 7 5 6 5 6 2 7 2 7 1 10 1 10 2"/><polygon points="10 8 11 8 11 10 10 10 10 11 2 11 2 10 1 10 1 8 2 8 2 7 10 7 10 8"/><polygon points="10 14 11 14 11 22 10 22 10 23 8 23 8 22 7 22 7 14 8 14 8 13 10 13 10 14"/><polygon points="14 10 13 10 13 2 14 2 14 1 16 1 16 2 17 2 17 10 16 10 16 11 14 11 14 10"/><polygon points="22 14 23 14 23 16 22 16 22 17 14 17 14 16 13 16 13 14 14 14 14 13 22 13 22 14"/><polygon points="23 7 23 10 22 10 22 11 18 11 18 7 19 7 19 6 22 6 22 7 23 7"/><polygon points="17 19 18 19 18 22 17 22 17 23 14 23 14 22 13 22 13 18 17 18 17 19"/></svg>