<?xml version="1.0" encoding="UTF-8"?><svg id="analytics" xmlns="http://www.w3.org/2000/svg" viewBox="0 0 24 24"><rect x="2" y="15" width="2" height="7"/><rect x="8" y="10" width="2" height="12"/><rect x="14" y="14" width="2" height="8"/><rect x="20" y="10" width="2" height="12"/><rect x="18" y="5" width="1" height="1"/><rect x="17" y="6" width="1" height="1"/><rect x="14" y="7" width="2" height="1"/><rect x="14" y="10" width="2" height="1"/><rect x="13" y="8" width="1" height="2"/><rect x="16" y="8" width="1" height="2"/><rect x="12" y="6" width="1" height="1"/><rect x="11" y="5" width="1" height="1"/><rect x="8" y="4" width="2" height="1"/><rect x="8" y="1" width="2" height="1"/><rect x="10" y="2" width="1" height="2"/><rect x="7" y="2" width="1" height="2"/><rect x="20" y="4" width="2" height="1"/><rect x="19" y="2" width="1" height="2"/><rect x="20" y="1" width="2" height="1"/><rect x="22" y="2" width="1" height="2"/><rect x="6" y="6" width="1" height="1"/><rect x="5" y="7" width="1" height="1"/><rect x="4" y="9" width="1" height="2"/><rect x="1" y="9" width="1" height="2"/><rect x="2" y="8" width="2" height="1"/><rect x="2" y="11" width="2" height="1"/></svg>