<?xml version="1.0" encoding="UTF-8"?><svg id="Arrow_Circle_Up" xmlns="http://www.w3.org/2000/svg" viewBox="0 0 24 24"><path d="m22,8v-2h-1v-1h-1v-1h-1v-1h-1v-1h-2v-1h-8v1h-2v1h-1v1h-1v1h-1v1h-1v2h-1v8h1v2h1v1h1v1h1v1h1v1h2v1h8v-1h2v-1h1v-1h1v-1h1v-1h1v-2h1v-8h-1Zm-2,8v2h-1v1h-1v1h-2v1h-8v-1h-2v-1h-1v-1h-1v-2h-1v-8h1v-2h1v-1h1v-1h2v-1h8v1h2v1h1v1h1v2h1v8h-1Z"/><polygon points="19 11 19 12 18 12 18 13 17 13 17 12 16 12 16 11 15 11 15 10 14 10 14 9 13 9 13 19 11 19 11 9 10 9 10 10 9 10 9 11 8 11 8 12 7 12 7 13 6 13 6 12 5 12 5 11 6 11 6 10 7 10 7 9 8 9 8 8 9 8 9 7 10 7 10 6 11 6 11 5 13 5 13 6 14 6 14 7 15 7 15 8 16 8 16 9 17 9 17 10 18 10 18 11 19 11"/></svg>