<?xml version="1.0" encoding="UTF-8"?><svg id="Bank" xmlns="http://www.w3.org/2000/svg" viewBox="0 0 24 24"><polygon points="14 4 14 6 13 6 13 7 11 7 11 6 10 6 10 4 11 4 11 3 13 3 13 4 14 4"/><path d="m21,20v-1h-1v-9h-2v9h-2v-9h-2v9h-4v-9h-2v9h-2v-9h-2v9h-1v1H1v2h1v1h20v-1h1v-2h-2Zm0,2H3v-1h1v-1h16v1h1v1Z"/><polygon points="22 7 22 8 21 8 21 9 3 9 3 8 2 8 2 7 4 7 4 8 20 8 20 7 22 7"/><polygon points="23 5 23 7 22 7 22 6 19 6 19 5 17 5 17 4 15 4 15 3 13 3 13 2 11 2 11 3 9 3 9 4 7 4 7 5 5 5 5 6 2 6 2 7 1 7 1 5 4 5 4 4 6 4 6 3 8 3 8 2 10 2 10 1 14 1 14 2 16 2 16 3 18 3 18 4 20 4 20 5 23 5"/></svg>