<?xml version="1.0" encoding="UTF-8"?><svg id="Bell_Mute" xmlns="http://www.w3.org/2000/svg" viewBox="0 0 24 24"><rect x="3" y="16" width="1" height="1"/><polygon points="5 16 4 16 4 14 5 14 5 8 6 8 6 6 7 6 7 5 8 5 8 4 10 4 10 3 11 3 11 1 13 1 13 3 14 3 14 4 16 4 16 5 15 5 15 6 14 6 14 5 10 5 10 6 8 6 8 8 7 8 7 14 6 14 6 15 5 15 5 16"/><rect x="2" y="17" width="1" height="1"/><polygon points="15 20 15 22 14 22 14 23 10 23 10 22 9 22 9 20 15 20"/><polygon points="21 17 22 17 22 18 21 18 21 19 9 19 9 18 10 18 10 17 19 17 19 16 18 16 18 14 17 14 17 10 18 10 18 9 19 9 19 14 20 14 20 16 21 16 21 17"/><polygon points="22 3 22 4 21 4 21 5 20 5 20 6 19 6 19 7 18 7 18 8 17 8 17 9 16 9 16 10 15 10 15 11 14 11 14 12 13 12 13 13 12 13 12 14 11 14 11 15 10 15 10 16 9 16 9 17 8 17 8 18 7 18 7 19 6 19 6 20 5 20 5 21 4 21 4 22 3 22 3 21 2 21 2 20 3 20 3 19 4 19 4 18 5 18 5 17 6 17 6 16 7 16 7 15 8 15 8 14 9 14 9 13 10 13 10 12 11 12 11 11 12 11 12 10 13 10 13 9 14 9 14 8 15 8 15 7 16 7 16 6 17 6 17 5 18 5 18 4 19 4 19 3 20 3 20 2 21 2 21 3 22 3"/></svg>