<?xml version="1.0" encoding="UTF-8"?><svg id="bracket-curly" xmlns="http://www.w3.org/2000/svg" viewBox="0 0 24 24"><polygon points="10 3 10 5 6 5 6 6 5 6 5 10 4 10 4 14 5 14 5 18 6 18 6 19 10 19 10 21 5 21 5 20 4 20 4 19 3 19 3 15 2 15 2 13 1 13 1 11 2 11 2 9 3 9 3 5 4 5 4 4 5 4 5 3 10 3"/><polygon points="23 11 23 13 22 13 22 15 21 15 21 19 20 19 20 20 19 20 19 21 14 21 14 19 18 19 18 18 19 18 19 14 20 14 20 10 19 10 19 6 18 6 18 5 14 5 14 3 19 3 19 4 20 4 20 5 21 5 21 9 22 9 22 11 23 11"/></svg>