<?xml version="1.0" encoding="UTF-8"?><svg id="Calender" xmlns="http://www.w3.org/2000/svg" viewBox="0 0 24 24"><rect x="16" y="1" width="2" height="1"/><path d="m22,5v-1h-3v-2h-1v5h-2V2h-1v2h-6v-2h-1v5h-2V2h-1v2h-3v1h-1v17h1v1h20v-1h1V5h-1ZM2,6h1v-1h2v2h-3v-1Zm4,16h-3v-1h-1v-3h4v4Zm0-5H2v-4h4v4Zm0-5H2v-4h4v4Zm11-4v4h-4v-4h4Zm0,9h-4v-4h4v4ZM9,5h6v2h-6v-2Zm2,17h-4v-4h4v4Zm0-5h-4v-4h4v4Zm0-5h-4v-4h4v4Zm2,10v-4h4v4h-4Zm9-1h-1v1h-3v-4h4v3Zm0-4h-4v-4h4v4Zm0-5h-4v-4h4v4Zm0-5h-3v-2h2v1h1v1Z"/><rect x="6" y="1" width="2" height="1"/></svg>
