<?xml version="1.0" encoding="UTF-8"?><svg id="cassette-tape" xmlns="http://www.w3.org/2000/svg" viewBox="0 0 24 24"><polygon points="17 19 18 19 18 20 6 20 6 19 7 19 7 17 8 17 8 16 16 16 16 17 17 17 17 19"/><path d="M22,5V4H2V5H1V19H2v1H4V19H5V17H6V16H7V15H17v1h1v1h1v2h1v1h2V19h1V5ZM21,16H19V15H18V14H6v1H5v1H3V6H21Z"/><polygon points="8 9 8 11 7 11 7 12 5 12 5 11 4 11 4 9 5 9 5 8 7 8 7 9 8 9"/><polygon points="14 11 15 11 15 12 9 12 9 11 10 11 10 9 9 9 9 8 15 8 15 9 14 9 14 11"/><polygon points="20 9 20 11 19 11 19 12 17 12 17 11 16 11 16 9 17 9 17 8 19 8 19 9 20 9"/></svg>