<?xml version="1.0" encoding="UTF-8"?><svg id="Chart_Line" xmlns="http://www.w3.org/2000/svg" viewBox="0 0 24 24"><polygon points="22 5 22 12 21 12 21 8 19 8 19 9 18 9 18 10 17 10 17 11 16 11 16 12 15 12 15 13 14 13 14 14 13 14 13 13 12 13 12 12 11 12 11 11 10 11 10 10 9 10 9 11 8 11 8 12 7 12 7 13 6 13 6 11 7 11 7 10 8 10 8 9 9 9 9 8 10 8 10 9 11 9 11 10 12 10 12 11 13 11 13 12 14 12 14 11 15 11 15 10 16 10 16 9 17 9 17 8 18 8 18 7 19 7 19 6 15 6 15 5 22 5"/><polygon points="23 18 23 20 2 20 2 19 1 19 1 4 3 4 3 18 23 18"/></svg>