<?xml version="1.0" encoding="UTF-8"?><svg id="Chart_Network" xmlns="http://www.w3.org/2000/svg" viewBox="0 0 24 24"><polygon points="7 7 5 7 5 6 4 6 4 4 5 4 5 3 7 3 7 4 8 4 8 6 7 6 7 7"/><polygon points="5 11 6 11 6 14 5 14 5 15 2 15 2 14 1 14 1 11 2 11 2 10 5 10 5 11"/><rect x="9" y="8" width="1" height="1"/><rect x="15" y="15" width="1" height="1"/><rect x="17" y="8" width="1" height="1"/><rect x="8" y="7" width="1" height="1"/><rect x="7" y="12" width="1" height="1"/><path d="m16,14v-3h-1v-1h-1v-1h-3v1h-1v1h-1v3h1v1h1v1h3v-1h1v-1h1Zm-5,0v-3h3v3h-3Z"/><rect x="16" y="9" width="1" height="1"/><rect x="16" y="16" width="1" height="1"/><polygon points="21 18 22 18 22 21 21 21 21 22 18 22 18 21 17 21 17 18 18 18 18 17 21 17 21 18"/><polygon points="22 5 22 7 21 7 21 8 19 8 19 7 18 7 18 5 19 5 19 4 21 4 21 5 22 5"/></svg>