<?xml version="1.0" encoding="UTF-8"?><svg id="Circle_Notch" xmlns="http://www.w3.org/2000/svg" viewBox="0 0 24 24"><polygon points="23 9 23 15 22 15 22 17 21 17 21 19 20 19 20 20 19 20 19 21 17 21 17 22 15 22 15 23 9 23 9 22 7 22 7 21 5 21 5 20 4 20 4 19 3 19 3 17 2 17 2 15 1 15 1 9 2 9 2 7 3 7 3 5 4 5 4 4 5 4 5 3 7 3 7 2 9 2 9 1 10 1 10 2 11 2 11 3 10 3 10 4 8 4 8 5 6 5 6 6 5 6 5 8 4 8 4 10 3 10 3 14 4 14 4 16 5 16 5 18 6 18 6 19 8 19 8 20 10 20 10 21 14 21 14 20 16 20 16 19 18 19 18 18 19 18 19 16 20 16 20 14 21 14 21 10 20 10 20 8 19 8 19 6 18 6 18 5 16 5 16 4 14 4 14 3 13 3 13 2 14 2 14 1 15 1 15 2 17 2 17 3 19 3 19 4 20 4 20 5 21 5 21 7 22 7 22 9 23 9"/></svg>