<?xml version="1.0" encoding="UTF-8"?><svg id="Code" xmlns="http://www.w3.org/2000/svg" viewBox="0 0 24 24"><polygon points="7 7 7 8 6 8 6 9 5 9 5 10 4 10 4 11 3 11 3 13 4 13 4 14 5 14 5 15 6 15 6 16 7 16 7 17 5 17 5 16 4 16 4 15 3 15 3 14 2 14 2 13 1 13 1 11 2 11 2 10 3 10 3 9 4 9 4 8 5 8 5 7 7 7"/><polygon points="15 3 16 3 16 6 15 6 15 9 14 9 14 12 13 12 13 14 12 14 12 17 11 17 11 20 10 20 10 21 9 21 9 18 10 18 10 15 11 15 11 12 12 12 12 10 13 10 13 7 14 7 14 4 15 4 15 3"/><polygon points="23 11 23 13 22 13 22 14 21 14 21 15 20 15 20 16 19 16 19 17 17 17 17 16 18 16 18 15 19 15 19 14 20 14 20 13 21 13 21 11 20 11 20 10 19 10 19 9 18 9 18 8 17 8 17 7 19 7 19 8 20 8 20 9 21 9 21 10 22 10 22 11 23 11"/></svg>