<?xml version="1.0" encoding="UTF-8"?><svg id="Comment_Dots" xmlns="http://www.w3.org/2000/svg" viewBox="0 0 24 24"><polygon points="19 10 19 12 18 12 18 13 16 13 16 12 15 12 15 10 16 10 16 9 18 9 18 10 19 10"/><polygon points="14 10 14 12 13 12 13 13 11 13 11 12 10 12 10 10 11 10 11 9 13 9 13 10 14 10"/><polygon points="9 10 9 12 8 12 8 13 6 13 6 12 5 12 5 10 6 10 6 9 8 9 8 10 9 10"/><path d="m22,8v-2h-1v-1h-1v-1h-2v-1h-3v-1h-6v1h-3v1h-2v1h-1v1h-1v2h-1v6h1v2h1v2h-1v1h-1v2h5v-1h1v-1h2v1h6v-1h3v-1h2v-1h1v-1h1v-2h1v-6h-1Zm-1,6h-1v2h-2v1h-3v1h-6v-1h-2v1h-1v1h-2v-1h1v-2h-1v-2h-1v-6h1v-2h2v-1h3v-1h6v1h3v1h2v2h1v6Z"/></svg>