<?xml version="1.0" encoding="UTF-8"?><svg id="disc" xmlns="http://www.w3.org/2000/svg" viewBox="0 0 24 24"><path d="M15,10V9H14V8H10V9H9v1H8v4H9v1h1v1h4V15h1V14h1V10Zm-1,3H13v1H11V13H10V11h1V10h2v1h1Z"/><polygon points="12 4 12 6 9 6 9 7 8 7 8 8 7 8 7 9 6 9 6 12 4 12 4 10 5 10 5 8 6 8 6 7 7 7 7 6 8 6 8 5 10 5 10 4 12 4"/><path d="M22,9V7H21V5H20V4H19V3H17V2H15V1H9V2H7V3H5V4H4V5H3V7H2V9H1v6H2v2H3v2H4v1H5v1H7v1H9v1h6V22h2V21h2V20h1V19h1V17h1V15h1V9Zm-1,6H20v2H19v1H18v1H17v1H15v1H9V20H7V19H6V18H5V17H4V15H3V9H4V7H5V6H6V5H7V4H9V3h6V4h2V5h1V6h1V7h1V9h1Z"/></svg>