<?xml version="1.0" encoding="UTF-8"?><svg id="edit" xmlns="http://www.w3.org/2000/svg" viewBox="0 0 24 24"><polygon points="22 4 22 7 21 7 21 8 20 8 20 7 19 7 19 6 21 6 21 5 20 5 20 4 19 4 19 6 18 6 18 5 17 5 17 4 18 4 18 3 21 3 21 4 22 4"/><polygon points="18 14 18 21 17 21 17 22 2 22 2 21 1 21 1 6 2 6 2 5 14 5 14 6 13 6 13 7 3 7 3 20 16 20 16 15 17 15 17 14 18 14"/><path d="m18,8v-1h-1v-1h-2v1h-1v1h-1v1h-1v1h-1v1h-1v1h-1v1h-1v1h-1v4h4v-1h1v-1h1v-1h1v-1h1v-1h1v-1h1v-1h1v-1h1v-2h-1Zm-1,2h-1v1h-1v1h-1v1h-1v1h-1v1h-1v1h-1v1h-2v-2h1v-1h1v-1h1v-1h1v-1h1v-1h1v-1h1v-1h2v2Z"/></svg>