<?xml version="1.0" encoding="UTF-8"?><svg id="Eye" xmlns="http://www.w3.org/2000/svg" viewBox="0 0 24 24"><rect x="16" y="11" width="1" height="2"/><polygon points="16 13 16 15 15 15 15 16 13 16 13 15 14 15 14 14 15 14 15 13 16 13"/><polygon points="16 9 16 11 15 11 15 10 14 10 14 9 13 9 13 8 15 8 15 9 16 9"/><rect x="11" y="16" width="2" height="1"/><polygon points="11 15 11 16 9 16 9 15 8 15 8 13 9 13 9 14 10 14 10 15 11 15"/><polygon points="13 7 13 8 12 8 12 11 11 11 11 12 8 12 8 13 7 13 7 11 8 11 8 9 9 9 9 8 11 8 11 7 13 7"/><path d="m22,11v-2h-1v-1h-1v-1h-1v-1h-2v-1H7v1h-2v1h-1v1h-1v1h-1v2h-1v2h1v2h1v1h1v1h1v1h2v1h10v-1h2v-1h1v-1h1v-1h1v-2h1v-2h-1Zm-1,3h-1v1h-1v1h-1v1h-2v1h-8v-1h-1v-1h-2v-1h-1v-1h-1v-4h1v-1h1v-1h1v-1h2v-1h8v1h2v1h1v1h1v1h1v4Z"/></svg>