<?xml version="1.0" encoding="UTF-8"?><svg id="face-sad" xmlns="http://www.w3.org/2000/svg" viewBox="0 0 24 24"><rect x="14" y="8" width="3" height="3"/><path d="M22,9V7H21V5H20V4H19V3H17V2H15V1H9V2H7V3H5V4H4V5H3V7H2V9H1v6H2v2H3v2H4v1H5v1H7v1H9v1h6V22h2V21h2V20h1V19h1V17h1V15h1V9Zm-1,6H20v2H19v1H18v1H17v1H15v1H9V20H7V19H6V18H5V17H4V15H3V9H4V7H5V6H6V5H7V4H9V3h6V4h2V5h1V6h1V7h1V9h1Z"/><rect x="7" y="8" width="3" height="3"/><polygon points="17 16 17 17 16 17 16 18 15 18 15 17 14 17 14 16 10 16 10 17 9 17 9 18 8 18 8 17 7 17 7 16 8 16 8 15 9 15 9 14 15 14 15 15 16 15 16 16 17 16"/></svg>