<?xml version="1.0" encoding="UTF-8"?><svg id="face-heart-eyes" xmlns="http://www.w3.org/2000/svg" viewBox="0 0 24 24"><polygon points="4 5 4 4 5 4 5 3 7 3 7 2 9 2 9 1 15 1 15 2 17 2 17 3 19 3 19 4 20 4 20 5 17 5 17 4 15 4 15 3 9 3 9 4 7 4 7 5 4 5"/><polygon points="11 7 11 10 10 10 10 11 9 11 9 12 8 12 8 13 7 13 7 12 6 12 6 11 5 11 5 10 4 10 4 7 5 7 5 6 7 6 7 7 8 7 8 6 10 6 10 7 11 7"/><polygon points="10 19 10 18 8 18 8 17 7 17 7 16 6 16 6 14 9 14 9 15 15 15 15 14 18 14 18 16 17 16 17 17 16 17 16 18 14 18 14 19 10 19"/><polygon points="23 9 23 15 22 15 22 17 21 17 21 19 20 19 20 20 19 20 19 21 17 21 17 22 15 22 15 23 9 23 9 22 7 22 7 21 5 21 5 20 4 20 4 19 3 19 3 17 2 17 2 15 1 15 1 9 3 9 3 15 4 15 4 17 5 17 5 18 6 18 6 19 7 19 7 20 9 20 9 21 15 21 15 20 17 20 17 19 18 19 18 18 19 18 19 17 20 17 20 15 21 15 21 9 23 9"/><polygon points="18 12 17 12 17 13 16 13 16 12 15 12 15 11 14 11 14 10 13 10 13 7 14 7 14 6 16 6 16 7 17 7 17 6 19 6 19 7 20 7 20 10 19 10 19 11 18 11 18 12"/></svg>