<?xml version="1.0" encoding="UTF-8"?><svg id="face-angry" xmlns="http://www.w3.org/2000/svg" viewBox="0 0 24 24"><polygon points="16 16 16 18 14 18 14 17 10 17 10 18 8 18 8 16 9 16 9 15 15 15 15 16 16 16"/><polygon points="11 10 11 11 10 11 10 13 8 13 8 10 6 10 6 8 8 8 8 9 10 9 10 10 11 10"/><polygon points="18 8 18 10 16 10 16 13 14 13 14 11 13 11 13 10 14 10 14 9 16 9 16 8 18 8"/><path d="M22,9V7H21V5H20V4H19V3H17V2H15V1H9V2H7V3H5V4H4V5H3V7H2V9H1v6H2v2H3v2H4v1H5v1H7v1H9v1h6V22h2V21h2V20h1V19h1V17h1V15h1V9Zm-1,6H20v2H19v1H18v1H17v1H15v1H9V20H7V19H6V18H5V17H4V15H3V9H4V7H5V6H6V5H7V4H9V3h6V4h2V5h1V6h1V7h1V9h1Z"/></svg>