<?xml version="1.0" encoding="UTF-8"?><svg id="Hockey_Mask" xmlns="http://www.w3.org/2000/svg" viewBox="0 0 24 24"><rect x="18" y="9" width="1" height="2"/><rect x="17" y="11" width="1" height="1"/><rect x="15" y="12" width="2" height="1"/><rect x="14" y="11" width="1" height="1"/><rect x="14" y="8" width="4" height="1"/><rect x="13" y="4" width="2" height="2"/><rect x="13" y="19" width="1" height="1"/><rect x="13" y="16" width="1" height="1"/><rect x="13" y="13" width="1" height="1"/><rect x="13" y="9" width="1" height="2"/><rect x="11" y="6" width="2" height="2"/><rect x="10" y="19" width="1" height="1"/><rect x="10" y="16" width="1" height="1"/><rect x="10" y="13" width="1" height="1"/><rect x="10" y="9" width="1" height="2"/><rect x="9" y="11" width="1" height="1"/><rect x="9" y="4" width="2" height="2"/><rect x="7" y="12" width="2" height="1"/><rect x="6" y="11" width="1" height="1"/><path d="m20,6v-1h-1v-1h-1v-1h-1v-1h-2v-1h-6v1h-2v1h-1v1h-1v1h-1v1h-1v12h1v1h1v1h1v1h1v1h2v1h6v-1h2v-1h1v-1h1v-1h1v-1h1V6h-1Zm0,10h-1v2h-1v1h-1v1h-1v1h-2v1h-4v-1h-2v-1h-1v-1h-1v-1h-1v-2h-1v-8h1v-2h1v-1h1v-1h1v-1h2v-1h4v1h2v1h1v1h1v1h1v2h1v8Z"/><rect x="6" y="8" width="4" height="1"/><rect x="5" y="9" width="1" height="2"/><g id="BG_copy_103"><rect width="24" height="24" fill="none"/></g></svg>