<?xml version="1.0" encoding="UTF-8"?><svg id="line-height" xmlns="http://www.w3.org/2000/svg" viewBox="0 0 24 24"><rect x="10" y="12" width="13" height="1"/><rect x="10" y="18" width="13" height="1"/><polygon points="7 6 8 6 8 8 7 8 7 7 6 7 6 6 5 6 5 19 6 19 6 18 7 18 7 17 8 17 8 19 7 19 7 20 6 20 6 21 5 21 5 22 4 22 4 21 3 21 3 20 2 20 2 19 1 19 1 17 2 17 2 18 3 18 3 19 4 19 4 6 3 6 3 7 2 7 2 8 1 8 1 6 2 6 2 5 3 5 3 4 4 4 4 3 5 3 5 4 6 4 6 5 7 5 7 6"/><rect x="10" y="6" width="13" height="1"/></svg>