<?xml version="1.0" encoding="UTF-8"?><svg id="numbered-list" xmlns="http://www.w3.org/2000/svg" viewBox="0 0 24 24"><rect x="4" y="11" width="1" height="2"/><polygon points="4 8 5 8 5 9 2 9 2 8 3 8 3 6 2 6 2 5 3 5 3 4 4 4 4 8"/><polygon points="4 10 4 11 3 11 3 12 2 12 2 10 4 10"/><polygon points="5 16 5 21 2 21 2 20 4 20 4 19 3 19 3 18 4 18 4 17 2 17 2 16 5 16"/><polygon points="3 13 4 13 4 14 5 14 5 15 2 15 2 14 3 14 3 13"/><rect x="9" y="6" width="14" height="1"/><rect x="9" y="12" width="14" height="1"/><rect x="9" y="18" width="14" height="1"/></svg>