<?xml version="1.0" encoding="UTF-8"?><svg id="Octagon_Check" xmlns="http://www.w3.org/2000/svg" viewBox="0 0 24 24"><polygon points="17 9 17 11 16 11 16 12 15 12 15 13 14 13 14 14 13 14 13 15 12 15 12 16 10 16 10 15 9 15 9 14 8 14 8 13 7 13 7 11 8 11 8 10 10 10 10 11 12 11 12 10 13 10 13 9 14 9 14 8 16 8 16 9 17 9"/><path d="m22,8v-1h-1v-1h-1v-1h-1v-1h-1v-1h-1v-1h-1v-1h-8v1h-1v1h-1v1h-1v1h-1v1h-1v1h-1v1h-1v8h1v1h1v1h1v1h1v1h1v1h1v1h1v1h8v-1h1v-1h1v-1h1v-1h1v-1h1v-1h1v-1h1v-8h-1Zm-1,7h-1v1h-1v1h-1v1h-1v1h-1v1h-1v1h-6v-1h-1v-1h-1v-1h-1v-1h-1v-1h-1v-1h-1v-6h1v-1h1v-1h1v-1h1v-1h1v-1h1v-1h6v1h1v1h1v1h1v1h1v1h1v1h1v6Z"/></svg>