<?xml version="1.0" encoding="UTF-8"?><svg id="pencil" xmlns="http://www.w3.org/2000/svg" viewBox="0 0 24 24"><path d="m22,4v-1h-1v-1h-1v-1h-4v1h-1v1h-1v1h-1v1h-1v1h-1v1h-1v1h-1v1h-1v1h-1v1h-1v1h-1v1h-1v1h-1v1h-1v1h-1v7h7v-1h1v-1h1v-1h1v-1h1v-1h1v-1h1v-1h1v-1h1v-1h1v-1h1v-1h1v-1h1v-1h1v-1h1v-1h1v-4h-1Zm-14,16h-1v1h-3v-1h-1v-3h1v-1h1v1h1v1h1v1h1v1Zm9-9h-1v1h-1v1h-1v1h-1v1h-1v1h-1v1h-1v1h-1v-1h-1v-1h-1v-1h-1v-1h1v-1h1v-1h1v-1h1v-1h1v-1h1v-1h1v-1h2v1h1v1h1v2Zm1-3v-1h-1v-1h-1v-2h1v-1h2v1h1v1h1v2h-1v1h-2Z"/></svg>