<?xml version="1.0" encoding="UTF-8"?><svg id="People_Carry" xmlns="http://www.w3.org/2000/svg" viewBox="0 0 24 24"><rect x="3" y="3" width="1" height="2"/><rect x="4" y="2" width="2" height="1"/><rect x="4" y="5" width="2" height="1"/><rect x="6" y="3" width="1" height="2"/><polygon points="3 17 4 17 4 18 3 18 3 20 1 20 1 17 2 17 2 16 3 16 3 17"/><path d="m20,15h1v-1h1v-3h-1v-3h-1v-1h-2v1h-1v2h-1v1h-1v-4h-6v4h-1v-1h-1v-2h-1v-1h-2v1h-1v3h-1v3h1v1h1v1h1v4h1v1h1v-1h1v-3h-1v-3h-1v-2h1v1h1v1h8v-1h1v-1h1v2h-1v3h-1v3h1v1h1v-1h1v-4h1v-1Zm-6-2h-4v-5h4v5Z"/><polygon points="23 17 23 20 21 20 21 18 20 18 20 17 21 17 21 16 22 16 22 17 23 17"/><rect x="17" y="3" width="1" height="2"/><rect x="18" y="2" width="2" height="1"/><rect x="18" y="5" width="2" height="1"/><rect x="20" y="3" width="1" height="2"/></svg>