<?xml version="1.0" encoding="UTF-8"?><svg id="question-circle" xmlns="http://www.w3.org/2000/svg" viewBox="0 0 24 24"><rect x="11" y="17" width="2" height="2"/><polygon points="16 7 16 11 15 11 15 12 14 12 14 13 13 13 13 15 11 15 11 12 12 12 12 11 13 11 13 10 14 10 14 8 13 8 13 7 11 7 11 8 10 8 10 9 8 9 8 7 9 7 9 6 10 6 10 5 14 5 14 6 15 6 15 7 16 7"/><path d="M22,9V7H21V5H20V4H19V3H17V2H15V1H9V2H7V3H5V4H4V5H3V7H2V9H1v6H2v2H3v2H4v1H5v1H7v1H9v1h6V22h2V21h2V20h1V19h1V17h1V15h1V9Zm-2,6v2H19v1H18v1H17v1H15v1H9V20H7V19H6V18H5V17H4V15H3V9H4V7H5V6H6V5H7V4H9V3h6V4h2V5h1V6h1V7h1V9h1v6Z"/></svg>