<?xml version="1.0" encoding="UTF-8"?><svg id="Robot" xmlns="http://www.w3.org/2000/svg" viewBox="0 0 24 24"><rect x="14" y="15" width="3" height="1"/><rect x="11" y="15" width="2" height="1"/><rect x="7" y="15" width="3" height="1"/><path d="m19,7h-1v-1h-5v-3h-2v3h-5v1h-1v1h-1v10h1v1h1v1h12v-1h1v-1h1v-10h-1v-1Zm-2,10v1H7v-1h-1v-8h1v-1h10v1h1v8h-1Z"/><polygon points="23 11 23 16 22 16 22 17 21 17 21 10 22 10 22 11 23 11"/><polygon points="2 10 3 10 3 17 2 17 2 16 1 16 1 11 2 11 2 10"/><rect x="14" y="10" width="3" height="3"/><rect x="7" y="10" width="3" height="3"/></svg>