<?xml version="1.0" encoding="UTF-8"?><svg id="sparkles" xmlns="http://www.w3.org/2000/svg" viewBox="0 0 24 24"><polygon points="23 5 23 6 21 6 21 7 20 7 20 9 19 9 19 7 18 7 18 6 16 6 16 5 18 5 18 4 19 4 19 2 20 2 20 4 21 4 21 5 23 5"/><polygon points="23 18 23 19 21 19 21 20 20 20 20 22 19 22 19 20 18 20 18 19 16 19 16 18 18 18 18 17 19 17 19 15 20 15 20 17 21 17 21 18 23 18"/><path d="M15,11V10H13V9H12V8H11V6H10V4H8V6H7V8H6V9H5v1H3v1H1v2H3v1H5v1H6v1H7v2H8v2h2V18h1V16h1V15h1V14h2V13h2V11Zm-3,2v1H11v1H10v2H8V15H7V14H6V13H4V11H6V10H7V9H8V7h2V9h1v1h1v1h2v2Z"/></svg>