<?xml version="1.0" encoding="UTF-8"?><svg id="text-slash" xmlns="http://www.w3.org/2000/svg" viewBox="0 0 24 24"><polygon points="11 15 11 19 10 19 10 23 8 23 8 19 9 19 9 15 11 15"/><polygon points="4 4 4 1 22 1 22 4 14 4 14 8 13 8 13 11 11 11 11 8 12 8 12 4 4 4"/><polygon points="23 19 23 21 21 21 21 20 20 20 20 19 18 19 18 18 17 18 17 17 15 17 15 16 14 16 14 15 12 15 12 14 10 14 10 13 9 13 9 12 7 12 7 11 6 11 6 10 4 10 4 9 3 9 3 8 1 8 1 6 3 6 3 7 4 7 4 8 6 8 6 9 7 9 7 10 9 10 9 11 10 11 10 12 12 12 12 13 14 13 14 14 15 14 15 15 17 15 17 16 18 16 18 17 20 17 20 18 21 18 21 19 23 19"/></svg>