<?xml version="1.0" encoding="UTF-8"?><svg id="Times" xmlns="http://www.w3.org/2000/svg" viewBox="0 0 24 24"><polygon points="14 13 15 13 15 14 16 14 16 15 17 15 17 16 18 16 18 17 19 17 19 18 20 18 20 19 21 19 21 20 22 20 22 21 21 21 21 22 20 22 20 21 19 21 19 20 18 20 18 19 17 19 17 18 16 18 16 17 15 17 15 16 14 16 14 15 13 15 13 14 11 14 11 15 10 15 10 16 9 16 9 17 8 17 8 18 7 18 7 19 6 19 6 20 5 20 5 21 4 21 4 22 3 22 3 21 2 21 2 20 3 20 3 19 4 19 4 18 5 18 5 17 6 17 6 16 7 16 7 15 8 15 8 14 9 14 9 13 10 13 10 11 9 11 9 10 8 10 8 9 7 9 7 8 6 8 6 7 5 7 5 6 4 6 4 5 3 5 3 4 2 4 2 3 3 3 3 2 4 2 4 3 5 3 5 4 6 4 6 5 7 5 7 6 8 6 8 7 9 7 9 8 10 8 10 9 11 9 11 10 13 10 13 9 14 9 14 8 15 8 15 7 16 7 16 6 17 6 17 5 18 5 18 4 19 4 19 3 20 3 20 2 21 2 21 3 22 3 22 4 21 4 21 5 20 5 20 6 19 6 19 7 18 7 18 8 17 8 17 9 16 9 16 10 15 10 15 11 14 11 14 13"/></svg>