<?xml version="1.0" encoding="UTF-8"?><svg id="Translate" xmlns="http://www.w3.org/2000/svg" viewBox="0 0 24 24"><rect x="11" y="22" width="11" height="1"/><rect x="22" y="10" width="1" height="12"/><rect x="11" y="9" width="11" height="1"/><polygon points="22 5 22 6 21 6 21 7 20 7 20 8 18 8 18 7 17 7 17 6 16 6 16 5 18 5 18 4 17 4 17 3 16 3 16 2 19 2 19 3 20 3 20 5 22 5"/><path d="m20,16v-2h-1v-1h-1v-1h-1v-1h-1v1h-1v1h-1v1h-1v2h-1v5h2v-3h5v3h2v-5h-1Zm-1,1h-5v-1h1v-2h3v2h1v1Z"/><rect x="10" y="10" width="1" height="12"/><rect x="13" y="2" width="1" height="6"/><rect x="2" y="1" width="11" height="1"/><rect x="1" y="2" width="1" height="12"/><rect x="2" y="14" width="7" height="1"/><path d="m12,4v-1H3v1h4v2h-1v-1h-2v1h-1v4h1v1h2v-1h1v3h1v-5h1v-1h2v1h1v-2h-1v-1h-2v1h-1v-2h4Zm-5,4h-1v1h-2v-2h3v1Z"/><polygon points="6 19 6 20 7 20 7 21 8 21 8 22 5 22 5 21 4 21 4 19 2 19 2 18 3 18 3 17 4 17 4 16 6 16 6 17 7 17 7 18 8 18 8 19 6 19"/></svg>