<?xml version="1.0" encoding="UTF-8"?><svg id="User_Check" xmlns="http://www.w3.org/2000/svg" viewBox="0 0 24 24"><path d="m15,16v-1h-1v-1h-1v-1h-2v1h-5v-1h-2v1h-1v1h-1v1h-1v4h1v1h13v-1h1v-4h-1Zm-1,3H3v-3h1v-1h2v1h5v-1h2v1h1v3Z"/><polygon points="23 9 23 10 22 10 22 11 21 11 21 12 20 12 20 13 19 13 19 14 17 14 17 13 16 13 16 12 15 12 15 11 16 11 16 10 17 10 17 11 19 11 19 10 20 10 20 9 21 9 21 8 22 8 22 9 23 9"/><path d="m12,6v-2h-2v-1h-3v1h-2v2h-1v3h1v2h2v1h3v-1h2v-2h1v-3h-1Zm-2,3v1h-3v-1h-1v-3h1v-1h3v1h1v3h-1Z"/></svg>