<?xml version="1.0" encoding="UTF-8"?><svg id="wifi" xmlns="http://www.w3.org/2000/svg" viewBox="0 0 24 24"><path d="M14,17V16H10v1H9v4h1v1h4V21h1V17Zm-1,3H11V18h2Z"/><polygon points="23 8 23 10 20 10 20 9 19 9 19 8 18 8 18 7 16 7 16 6 8 6 8 7 6 7 6 8 5 8 5 9 4 9 4 10 1 10 1 8 2 8 2 7 3 7 3 6 4 6 4 5 6 5 6 4 8 4 8 3 16 3 16 4 18 4 18 5 20 5 20 6 21 6 21 7 22 7 22 8 23 8"/><polygon points="18 12 19 12 19 15 17 15 17 14 16 14 16 13 15 13 15 12 9 12 9 13 8 13 8 14 7 14 7 15 5 15 5 12 6 12 6 11 8 11 8 10 9 10 9 9 15 9 15 10 16 10 16 11 18 11 18 12"/></svg>